%TF.GenerationSoftware,KiCad,Pcbnew,9.0.6-9.0.6~ubuntu22.04.1*%
%TF.CreationDate,2026-01-05T10:22:12+03:00*%
%TF.ProjectId,sportiduino-base-v3bm,73706f72-7469-4647-9569-6e6f2d626173,3bm*%
%TF.SameCoordinates,Original*%
%TF.FileFunction,Copper,L1,Top*%
%TF.FilePolarity,Positive*%
%FSLAX46Y46*%
G04 Gerber Fmt 4.6, Leading zero omitted, Abs format (unit mm)*
G04 Created by KiCad (PCBNEW 9.0.6-9.0.6~ubuntu22.04.1) date 2026-01-05 10:22:12*
%MOMM*%
%LPD*%
G01*
G04 APERTURE LIST*
G04 Aperture macros list*
%AMRoundRect*
0 Rectangle with rounded corners*
0 $1 Rounding radius*
0 $2 $3 $4 $5 $6 $7 $8 $9 X,Y pos of 4 corners*
0 Add a 4 corners polygon primitive as box body*
4,1,4,$2,$3,$4,$5,$6,$7,$8,$9,$2,$3,0*
0 Add four circle primitives for the rounded corners*
1,1,$1+$1,$2,$3*
1,1,$1+$1,$4,$5*
1,1,$1+$1,$6,$7*
1,1,$1+$1,$8,$9*
0 Add four rect primitives between the rounded corners*
20,1,$1+$1,$2,$3,$4,$5,0*
20,1,$1+$1,$4,$5,$6,$7,0*
20,1,$1+$1,$6,$7,$8,$9,0*
20,1,$1+$1,$8,$9,$2,$3,0*%
%AMRotRect*
0 Rectangle, with rotation*
0 The origin of the aperture is its center*
0 $1 length*
0 $2 width*
0 $3 Rotation angle, in degrees counterclockwise*
0 Add horizontal line*
21,1,$1,$2,0,0,$3*%
G04 Aperture macros list end*
%TA.AperFunction,SMDPad,CuDef*%
%ADD10RoundRect,0.237500X0.300000X0.237500X-0.300000X0.237500X-0.300000X-0.237500X0.300000X-0.237500X0*%
%TD*%
%TA.AperFunction,SMDPad,CuDef*%
%ADD11RoundRect,0.237500X-0.300000X-0.237500X0.300000X-0.237500X0.300000X0.237500X-0.300000X0.237500X0*%
%TD*%
%TA.AperFunction,SMDPad,CuDef*%
%ADD12RoundRect,0.237500X0.250000X0.237500X-0.250000X0.237500X-0.250000X-0.237500X0.250000X-0.237500X0*%
%TD*%
%TA.AperFunction,SMDPad,CuDef*%
%ADD13RoundRect,0.237500X-0.250000X-0.237500X0.250000X-0.237500X0.250000X0.237500X-0.250000X0.237500X0*%
%TD*%
%TA.AperFunction,SMDPad,CuDef*%
%ADD14R,1.900000X0.800000*%
%TD*%
%TA.AperFunction,SMDPad,CuDef*%
%ADD15RotRect,1.600000X0.550000X135.000000*%
%TD*%
%TA.AperFunction,SMDPad,CuDef*%
%ADD16RotRect,1.600000X0.550000X225.000000*%
%TD*%
%TA.AperFunction,SMDPad,CuDef*%
%ADD17RoundRect,0.150000X-0.150000X0.587500X-0.150000X-0.587500X0.150000X-0.587500X0.150000X0.587500X0*%
%TD*%
%TA.AperFunction,SMDPad,CuDef*%
%ADD18RoundRect,0.237500X0.237500X-0.300000X0.237500X0.300000X-0.237500X0.300000X-0.237500X-0.300000X0*%
%TD*%
%TA.AperFunction,SMDPad,CuDef*%
%ADD19RoundRect,0.250000X-0.450000X0.325000X-0.450000X-0.325000X0.450000X-0.325000X0.450000X0.325000X0*%
%TD*%
%TA.AperFunction,SMDPad,CuDef*%
%ADD20RoundRect,0.250000X0.450000X-0.325000X0.450000X0.325000X-0.450000X0.325000X-0.450000X-0.325000X0*%
%TD*%
%TA.AperFunction,SMDPad,CuDef*%
%ADD21R,0.600000X1.550000*%
%TD*%
%TA.AperFunction,ComponentPad*%
%ADD22R,1.600000X1.600000*%
%TD*%
%TA.AperFunction,ComponentPad*%
%ADD23C,1.600000*%
%TD*%
%TA.AperFunction,ComponentPad*%
%ADD24RoundRect,0.250000X0.265000X0.615000X-0.265000X0.615000X-0.265000X-0.615000X0.265000X-0.615000X0*%
%TD*%
%TA.AperFunction,ComponentPad*%
%ADD25O,1.030000X1.730000*%
%TD*%
%TA.AperFunction,ComponentPad*%
%ADD26RoundRect,0.250000X0.350000X0.625000X-0.350000X0.625000X-0.350000X-0.625000X0.350000X-0.625000X0*%
%TD*%
%TA.AperFunction,ComponentPad*%
%ADD27O,1.200000X1.750000*%
%TD*%
%TA.AperFunction,SMDPad,CuDef*%
%ADD28RoundRect,0.250000X-0.475000X0.337500X-0.475000X-0.337500X0.475000X-0.337500X0.475000X0.337500X0*%
%TD*%
%TA.AperFunction,SMDPad,CuDef*%
%ADD29R,1.500000X0.650000*%
%TD*%
%TA.AperFunction,SMDPad,CuDef*%
%ADD30R,2.700000X3.600000*%
%TD*%
%TA.AperFunction,SMDPad,CuDef*%
%ADD31R,2.000000X0.600000*%
%TD*%
%TA.AperFunction,ComponentPad*%
%ADD32RoundRect,0.225000X-0.475000X0.225000X-0.475000X-0.225000X0.475000X-0.225000X0.475000X0.225000X0*%
%TD*%
%TA.AperFunction,ComponentPad*%
%ADD33O,1.400000X0.900000*%
%TD*%
%TA.AperFunction,ComponentPad*%
%ADD34C,1.727200*%
%TD*%
%TA.AperFunction,ComponentPad*%
%ADD35R,1.700000X1.700000*%
%TD*%
%TA.AperFunction,ComponentPad*%
%ADD36C,1.700000*%
%TD*%
%TA.AperFunction,ViaPad*%
%ADD37C,1.200000*%
%TD*%
%TA.AperFunction,ViaPad*%
%ADD38C,0.800000*%
%TD*%
%TA.AperFunction,Conductor*%
%ADD39C,0.600000*%
%TD*%
%TA.AperFunction,Conductor*%
%ADD40C,0.400000*%
%TD*%
%TA.AperFunction,Conductor*%
%ADD41C,0.800000*%
%TD*%
%TA.AperFunction,Profile*%
%ADD42C,0.150000*%
%TD*%
G04 APERTURE END LIST*
D10*
%TO.P,C1,1*%
%TO.N,RST*%
X144398336Y-83192849D03*
%TO.P,C1,2*%
%TO.N,Net-(X2-Pin_10)*%
X142673336Y-83192849D03*
%TD*%
D11*
%TO.P,C10,1*%
%TO.N,PD6*%
X159423336Y-88192849D03*
%TO.P,C10,2*%
%TO.N,GNDD*%
X161148336Y-88192849D03*
%TD*%
D12*
%TO.P,R9,1*%
%TO.N,ADCIN*%
X146698336Y-75278000D03*
%TO.P,R9,2*%
%TO.N,+BATT*%
X144873336Y-75278000D03*
%TD*%
D13*
%TO.P,R10,1*%
%TO.N,ADCEN*%
X144873336Y-76942849D03*
%TO.P,R10,2*%
%TO.N,ADCIN*%
X146698336Y-76942849D03*
%TD*%
%TO.P,R8,1*%
%TO.N,+3V3*%
X138121336Y-92428698D03*
%TO.P,R8,2*%
%TO.N,32K*%
X139946336Y-92428698D03*
%TD*%
D14*
%TO.P,VT1,1,G*%
%TO.N,Net-(VT1-G)*%
X156535836Y-63442849D03*
%TO.P,VT1,2,S*%
%TO.N,GNDD*%
X156535836Y-61542849D03*
%TO.P,VT1,3,D*%
%TO.N,Net-(BZ1-+)*%
X153535836Y-62492849D03*
%TD*%
D12*
%TO.P,R3,1*%
%TO.N,+3V3*%
X156902336Y-93584849D03*
%TO.P,R3,2*%
%TO.N,/SDA*%
X155077336Y-93584849D03*
%TD*%
D13*
%TO.P,R5,1*%
%TO.N,GNDD*%
X154623336Y-65692849D03*
%TO.P,R5,2*%
%TO.N,Net-(VT1-G)*%
X156448336Y-65692849D03*
%TD*%
D12*
%TO.P,R4,1*%
%TO.N,Net-(VT1-G)*%
X156448336Y-67470849D03*
%TO.P,R4,2*%
%TO.N,/BUZ*%
X154623336Y-67470849D03*
%TD*%
%TO.P,R1,1*%
%TO.N,+3V3*%
X156902336Y-91916849D03*
%TO.P,R1,2*%
%TO.N,/SCL*%
X155077336Y-91916849D03*
%TD*%
D15*
%TO.P,D2,1,PD3*%
%TO.N,/BUZ*%
X155061141Y-86677952D03*
%TO.P,D2,2,PD4*%
%TO.N,/LED*%
X155626826Y-86112266D03*
%TO.P,D2,3,GND*%
%TO.N,GNDD*%
X156192512Y-85546581D03*
%TO.P,D2,4,VCC*%
%TO.N,+3V3*%
X156758197Y-84980896D03*
%TO.P,D2,5,GND*%
%TO.N,GNDD*%
X157323883Y-84415210D03*
%TO.P,D2,6,VCC*%
%TO.N,+3V3*%
X157889568Y-83849525D03*
%TO.P,D2,7,XTAL1/PB6*%
%TO.N,unconnected-(D2-XTAL1{slash}PB6-Pad7)*%
X158455253Y-83283839D03*
%TO.P,D2,8,XTAL2/PB7*%
%TO.N,unconnected-(D2-XTAL2{slash}PB7-Pad8)*%
X159020939Y-82718154D03*
D16*
%TO.P,D2,9,PD5*%
%TO.N,32K*%
X159020939Y-80667544D03*
%TO.P,D2,10,PD6*%
%TO.N,PD6*%
X158455253Y-80101859D03*
%TO.P,D2,11,PD7*%
%TO.N,Net-(D2-PD7)*%
X157889568Y-79536173D03*
%TO.P,D2,12,PB0*%
%TO.N,/PB0*%
X157323883Y-78970488D03*
%TO.P,D2,13,PB1*%
%TO.N,/PB1*%
X156758197Y-78404802D03*
%TO.P,D2,14,PB2*%
%TO.N,/PB2*%
X156192512Y-77839117D03*
%TO.P,D2,15,PB3*%
%TO.N,PB3*%
X155626826Y-77273432D03*
%TO.P,D2,16,PB4*%
%TO.N,PB4*%
X155061141Y-76707746D03*
D15*
%TO.P,D2,17,PB5*%
%TO.N,PB5*%
X153010531Y-76707746D03*
%TO.P,D2,18,AVCC*%
%TO.N,+3V3*%
X152444846Y-77273432D03*
%TO.P,D2,19,ADC6*%
%TO.N,unconnected-(D2-ADC6-Pad19)*%
X151879160Y-77839117D03*
%TO.P,D2,20,AREF*%
%TO.N,Net-(D2-AREF)*%
X151313475Y-78404802D03*
%TO.P,D2,21,GND*%
%TO.N,GNDD*%
X150747789Y-78970488D03*
%TO.P,D2,22,ADC7*%
%TO.N,unconnected-(D2-ADC7-Pad22)*%
X150182104Y-79536173D03*
%TO.P,D2,23,PC0*%
%TO.N,ADCIN*%
X149616419Y-80101859D03*
%TO.P,D2,24,PC1*%
%TO.N,ADCEN*%
X149050733Y-80667544D03*
D16*
%TO.P,D2,25,PC2*%
%TO.N,ALARM*%
X149050733Y-82718154D03*
%TO.P,D2,26,PC3*%
%TO.N,PC3*%
X149616419Y-83283839D03*
%TO.P,D2,27,PC4*%
%TO.N,/SDA*%
X150182104Y-83849525D03*
%TO.P,D2,28,PC5*%
%TO.N,/SCL*%
X150747789Y-84415210D03*
%TO.P,D2,29,~{RESET}/PC6*%
%TO.N,RST*%
X151313475Y-84980896D03*
%TO.P,D2,30,PD0*%
%TO.N,RX*%
X151879160Y-85546581D03*
%TO.P,D2,31,PD1*%
%TO.N,TX*%
X152444846Y-86112266D03*
%TO.P,D2,32,PD2*%
%TO.N,Net-(D2-PD2)*%
X153010531Y-86677952D03*
%TD*%
D17*
%TO.P,D1,1,GND*%
%TO.N,GNDD*%
X160985836Y-99191349D03*
%TO.P,D1,2,VO*%
%TO.N,+3V3*%
X159085836Y-99191349D03*
%TO.P,D1,3,VI*%
%TO.N,+BATT*%
X160035836Y-101066349D03*
%TD*%
D11*
%TO.P,C9,1*%
%TO.N,+3V3*%
X155175336Y-95314849D03*
%TO.P,C9,2*%
%TO.N,GNDD*%
X156900336Y-95314849D03*
%TD*%
D18*
%TO.P,C5,1*%
%TO.N,+3V3*%
X151035836Y-74305349D03*
%TO.P,C5,2*%
%TO.N,GNDD*%
X151035836Y-72580349D03*
%TD*%
D11*
%TO.P,C4,1*%
%TO.N,+3V3*%
X159423336Y-86192849D03*
%TO.P,C4,2*%
%TO.N,GNDD*%
X161148336Y-86192849D03*
%TD*%
D19*
%TO.P,C3,1*%
%TO.N,+3V3*%
X157035836Y-99378849D03*
%TO.P,C3,2*%
%TO.N,GNDD*%
X157035836Y-101428849D03*
%TD*%
D20*
%TO.P,C2,1*%
%TO.N,+BATT*%
X163035836Y-101428849D03*
%TO.P,C2,2*%
%TO.N,GNDD*%
X163035836Y-99378849D03*
%TD*%
D21*
%TO.P,D4,1,A0*%
%TO.N,GNDD*%
X159543336Y-95892849D03*
%TO.P,D4,2,A1*%
X160813336Y-95892849D03*
%TO.P,D4,3,A2*%
X162083336Y-95892849D03*
%TO.P,D4,4,GND*%
X163353336Y-95892849D03*
%TO.P,D4,5,SDA*%
%TO.N,/SDA*%
X163353336Y-90492849D03*
%TO.P,D4,6,SCL*%
%TO.N,/SCL*%
X162083336Y-90492849D03*
%TO.P,D4,7,WP*%
%TO.N,GNDD*%
X160813336Y-90492849D03*
%TO.P,D4,8,VCC*%
%TO.N,PD6*%
X159543336Y-90492849D03*
%TD*%
D22*
%TO.P,BZ1,1,-*%
%TO.N,+BATT*%
X145575836Y-68640849D03*
D23*
%TO.P,BZ1,2,+*%
%TO.N,Net-(BZ1-+)*%
X145575836Y-62140849D03*
%TD*%
D24*
%TO.P,X1,1,Pin_1*%
%TO.N,GNDD*%
X168285836Y-101156849D03*
D25*
%TO.P,X1,2,Pin_2*%
%TO.N,+BATT*%
X166785836Y-101156849D03*
%TD*%
D13*
%TO.P,R11,1*%
%TO.N,+3V3*%
X138096336Y-94428698D03*
%TO.P,R11,2*%
%TO.N,ALARM*%
X139921336Y-94428698D03*
%TD*%
D18*
%TO.P,C6,1*%
%TO.N,Net-(D2-AREF)*%
X149285836Y-74305349D03*
%TO.P,C6,2*%
%TO.N,GNDD*%
X149285836Y-72580349D03*
%TD*%
D10*
%TO.P,C7,1*%
%TO.N,ADCIN*%
X146648336Y-78580000D03*
%TO.P,C7,2*%
%TO.N,ADCEN*%
X144923336Y-78580000D03*
%TD*%
D26*
%TO.P,X5,1,Pin_1*%
%TO.N,GNDD*%
X191535836Y-100648849D03*
D27*
%TO.P,X5,2,Pin_2*%
%TO.N,/Charge*%
X189535836Y-100648849D03*
%TD*%
D28*
%TO.P,C11,1*%
%TO.N,/Charge*%
X183623836Y-96817349D03*
%TO.P,C11,2*%
%TO.N,GNDD*%
X183623836Y-98892349D03*
%TD*%
%TO.P,C12,1*%
%TO.N,+BATT*%
X172447836Y-96817349D03*
%TO.P,C12,2*%
%TO.N,GNDD*%
X172447836Y-98892349D03*
%TD*%
D29*
%TO.P,D5,1,TEMP*%
%TO.N,GNDD*%
X180735836Y-100775849D03*
%TO.P,D5,2,PROG*%
%TO.N,Net-(D5-PROG)*%
X180735836Y-99505849D03*
%TO.P,D5,3,GND*%
%TO.N,GNDD*%
X180735836Y-98235849D03*
%TO.P,D5,4,VCC*%
%TO.N,/Charge*%
X180735836Y-96965849D03*
%TO.P,D5,5,BAT*%
%TO.N,+BATT*%
X175335836Y-96965849D03*
%TO.P,D5,6,~{STDBY}*%
%TO.N,Net-(D5-~{STDBY})*%
X175335836Y-98235849D03*
%TO.P,D5,7,~{CHRG}*%
%TO.N,Net-(D5-~{CHRG})*%
X175335836Y-99505849D03*
%TO.P,D5,8,CE*%
%TO.N,/Charge*%
X175335836Y-100775849D03*
D30*
%TO.P,D5,9,PP*%
%TO.N,GNDD*%
X178035836Y-98870849D03*
%TD*%
D12*
%TO.P,R14,1*%
%TO.N,GNDD*%
X185044336Y-100902849D03*
%TO.P,R14,2*%
%TO.N,Net-(D5-PROG)*%
X183219336Y-100902849D03*
%TD*%
D31*
%TO.P,D3,1,32KHZ*%
%TO.N,32K*%
X142633836Y-92060849D03*
%TO.P,D3,2,VCC*%
%TO.N,GNDD*%
X142633836Y-93330849D03*
%TO.P,D3,3,~{INT}/SQW*%
%TO.N,ALARM*%
X142633836Y-94600849D03*
%TO.P,D3,4,~{RST}*%
%TO.N,Net-(D2-PD2)*%
X142633836Y-95870849D03*
%TO.P,D3,5,GND*%
%TO.N,GNDD*%
X142633836Y-97140849D03*
%TO.P,D3,6,GND*%
X142633836Y-98410849D03*
%TO.P,D3,7,GND*%
X142633836Y-99680849D03*
%TO.P,D3,8,GND*%
X142633836Y-100950849D03*
%TO.P,D3,9,GND*%
X152433836Y-100950849D03*
%TO.P,D3,10,GND*%
X152433836Y-99680849D03*
%TO.P,D3,11,GND*%
X152433836Y-98410849D03*
%TO.P,D3,12,GND*%
X152433836Y-97140849D03*
%TO.P,D3,13,GND*%
X152433836Y-95870849D03*
%TO.P,D3,14,VBAT*%
%TO.N,+3V3*%
X152433836Y-94600849D03*
%TO.P,D3,15,SDA*%
%TO.N,/SDA*%
X152433836Y-93330849D03*
%TO.P,D3,16,SCL*%
%TO.N,/SCL*%
X152433836Y-92060849D03*
%TD*%
D13*
%TO.P,R6,1*%
%TO.N,+3V3*%
X142623336Y-84692849D03*
%TO.P,R6,2*%
%TO.N,RST*%
X144448336Y-84692849D03*
%TD*%
D32*
%TO.P,X2,1,Pin_1*%
%TO.N,GNDD*%
X135785836Y-69817849D03*
D33*
%TO.P,X2,2,Pin_2*%
%TO.N,+3V3*%
X135785836Y-71067849D03*
%TO.P,X2,3,Pin_3*%
%TO.N,RST*%
X135785836Y-72317849D03*
%TO.P,X2,4,Pin_4*%
%TO.N,PB5*%
X135785836Y-73567849D03*
%TO.P,X2,5,Pin_5*%
%TO.N,PB3*%
X135785836Y-74817849D03*
%TO.P,X2,6,Pin_6*%
%TO.N,PB4*%
X135785836Y-76067849D03*
%TO.P,X2,7,Pin_7*%
%TO.N,PC3*%
X135785836Y-77317849D03*
%TO.P,X2,8,Pin_8*%
%TO.N,TX*%
X135785836Y-78567849D03*
%TO.P,X2,9,Pin_9*%
%TO.N,RX*%
X135785836Y-79817849D03*
%TO.P,X2,10,Pin_10*%
%TO.N,Net-(X2-Pin_10)*%
X135785836Y-81067849D03*
%TD*%
D34*
%TO.P,SW1,1,1*%
%TO.N,Net-(D2-PD7)*%
X160030836Y-60452000D03*
%TO.P,SW1,2,2*%
%TO.N,GNDD*%
X180030836Y-60452000D03*
%TD*%
D35*
%TO.P,X3,1,Pin_1*%
%TO.N,+3V3*%
X166911836Y-88004849D03*
D36*
%TO.P,X3,2,Pin_2*%
%TO.N,/PB1*%
X166911836Y-85464849D03*
%TO.P,X3,3,Pin_3*%
%TO.N,GNDD*%
X166911836Y-82924849D03*
%TO.P,X3,4,Pin_4*%
%TO.N,/PB0*%
X166911836Y-80384849D03*
%TO.P,X3,5,Pin_5*%
%TO.N,PB4*%
X166911836Y-77844849D03*
%TO.P,X3,6,Pin_6*%
%TO.N,PB3*%
X166911836Y-75304849D03*
%TO.P,X3,7,Pin_7*%
%TO.N,PB5*%
X166911836Y-72764849D03*
%TO.P,X3,8,Pin_8*%
%TO.N,/PB2*%
X166911836Y-70224849D03*
%TD*%
D37*
%TO.N,+BATT*%
X159285836Y-101192849D03*
%TO.N,GNDD*%
X172035836Y-100890849D03*
D38*
X160785836Y-89692849D03*
X157241596Y-86737089D03*
X177285836Y-96942849D03*
D37*
X148535836Y-77442849D03*
X151035836Y-71692849D03*
X181785836Y-101192849D03*
D38*
X144535836Y-93442849D03*
X141035836Y-85692849D03*
X165035836Y-90192849D03*
D37*
X156785836Y-96442849D03*
D38*
X165035836Y-94442849D03*
D37*
X166452325Y-97109338D03*
D38*
X177285836Y-100692849D03*
X144785836Y-97192849D03*
D37*
X184535836Y-98942849D03*
D38*
X161285836Y-85692849D03*
D37*
X145035836Y-88042849D03*
D38*
X178785836Y-100692849D03*
X155436839Y-82692849D03*
D37*
X185785836Y-100942849D03*
X153785836Y-65692849D03*
D38*
X141285836Y-93442849D03*
X178785836Y-96942849D03*
X152285836Y-80192849D03*
X147285836Y-97192849D03*
X149285836Y-99192849D03*
D37*
X181785836Y-98192849D03*
X148035836Y-72467849D03*
X156535836Y-60942849D03*
D38*
X147285836Y-99192849D03*
X144785836Y-99192849D03*
X150285836Y-94692849D03*
X149035836Y-93692849D03*
X143785836Y-85942849D03*
D37*
%TO.N,+3V3*%
X159321804Y-86738746D03*
D38*
%TO.N,/PB2*%
X157222211Y-76950838D03*
%TO.N,RST*%
X150420987Y-85970265D03*
X144867086Y-85111599D03*
%TO.N,/PB1*%
X155876244Y-79473422D03*
%TO.N,TX*%
X151035836Y-80942849D03*
%TO.N,RX*%
X150425664Y-81858107D03*
%TO.N,/SDA*%
X163285836Y-91442849D03*
X155535836Y-93192849D03*
%TO.N,/Charge*%
X174035836Y-100692849D03*
%TO.N,/BUZ*%
X153031363Y-74945908D03*
X153176005Y-78692849D03*
%TO.N,/LED*%
X150419987Y-87192849D03*
%TO.N,Net-(D2-PD7)*%
X154076005Y-77843932D03*
X154131358Y-74949106D03*
%TO.N,32K*%
X144340828Y-89387857D03*
X156830076Y-82648609D03*
%TO.N,PB3*%
X157015022Y-75870524D03*
%TO.N,PB4*%
X155928479Y-75698986D03*
%TO.N,PB5*%
X138570191Y-76418849D03*
X152211446Y-75767239D03*
%TO.N,Net-(D2-PD2)*%
X153350767Y-87507780D03*
X148828370Y-92030177D03*
%TO.N,Net-(D5-~{STDBY})*%
X174285836Y-98442849D03*
%TO.N,PC3*%
X143498336Y-80966746D03*
X148586719Y-84172118D03*
%TO.N,Net-(D5-~{CHRG})*%
X174019046Y-99510008D03*
D37*
%TO.N,GNDD*%
X157035836Y-102492849D03*
%TD*%
D39*
%TO.N,Net-(BZ1-+)*%
X145927836Y-62492849D02*
X145575836Y-62140849D01*
X153535836Y-62492849D02*
X145927836Y-62492849D01*
%TO.N,+BATT*%
X144873336Y-75278000D02*
X144873336Y-72105349D01*
X145373336Y-68843349D02*
X145575836Y-68640849D01*
X144873336Y-72105349D02*
X145575836Y-71402849D01*
X145575836Y-71402849D02*
X145575836Y-68640849D01*
D40*
%TO.N,GNDD*%
X150747789Y-78970488D02*
X151970150Y-80192849D01*
D41*
X160985836Y-99191349D02*
X162848336Y-99191349D01*
D40*
X156192512Y-85546581D02*
X157241596Y-86595665D01*
X157241596Y-86595665D02*
X157241596Y-86737089D01*
X155436839Y-82692849D02*
X155601522Y-82692849D01*
X156192512Y-85546581D02*
X155497057Y-84851126D01*
D39*
X143785836Y-86792849D02*
X145035836Y-88042849D01*
D40*
X161148336Y-85830349D02*
X161285836Y-85692849D01*
D41*
X156535836Y-61542849D02*
X156535836Y-60942849D01*
D40*
X155436839Y-84790908D02*
X156192512Y-85546581D01*
D41*
X148035836Y-76682799D02*
X148035836Y-72467849D01*
X156900336Y-96328349D02*
X156785836Y-96442849D01*
D40*
X155601522Y-82692849D02*
X157323883Y-84415210D01*
D41*
X148665861Y-77312824D02*
X148035836Y-76682799D01*
D39*
X143785836Y-85942849D02*
X143785836Y-86792849D01*
D41*
X172447836Y-100478849D02*
X172035836Y-100890849D01*
D39*
X142633836Y-93330849D02*
X141397836Y-93330849D01*
D41*
X164182814Y-99378849D02*
X166452325Y-97109338D01*
X148665861Y-77312824D02*
X148535836Y-77442849D01*
X154623336Y-65692849D02*
X153785836Y-65692849D01*
X172447836Y-98892349D02*
X172447836Y-100478849D01*
D39*
X141397836Y-93330849D02*
X141285836Y-93442849D01*
D41*
X149173336Y-72467849D02*
X149285836Y-72580349D01*
D40*
X155436839Y-82692849D02*
X155436839Y-84790908D01*
X161148336Y-86192849D02*
X161148336Y-85830349D01*
D41*
X162848336Y-99191349D02*
X163035836Y-99378849D01*
X156900336Y-95314849D02*
X156900336Y-96328349D01*
D40*
X151970150Y-80192849D02*
X152285836Y-80192849D01*
D41*
X148035836Y-72467849D02*
X149173336Y-72467849D01*
X163035836Y-99378849D02*
X164182814Y-99378849D01*
%TO.N,+3V3*%
X158661836Y-97752849D02*
X163970336Y-97752849D01*
X166911836Y-94811349D02*
X166911836Y-88004849D01*
X163970336Y-97752849D02*
X166911836Y-94811349D01*
D40*
X159423336Y-86192849D02*
X159423336Y-85383293D01*
X155175336Y-95314849D02*
X155175336Y-95311849D01*
X159423336Y-85383293D02*
X157889568Y-83849525D01*
X154461336Y-94600849D02*
X155175336Y-95314849D01*
D39*
X138121336Y-94403698D02*
X138096336Y-94428698D01*
D40*
X151035836Y-75864422D02*
X151035836Y-74805349D01*
X157970150Y-86192849D02*
X156758197Y-84980896D01*
X152444846Y-77273432D02*
X151035836Y-75864422D01*
X152433836Y-94600849D02*
X154461336Y-94600849D01*
X155175336Y-95311849D02*
X156902336Y-93584849D01*
X159423336Y-86192849D02*
X157970150Y-86192849D01*
%TO.N,/PB2*%
X157080791Y-76950838D02*
X156192512Y-77839117D01*
X157222211Y-76950838D02*
X157080791Y-76950838D01*
%TO.N,RST*%
X144398336Y-83192849D02*
X144398336Y-84642849D01*
X150420987Y-85873384D02*
X151313475Y-84980896D01*
X135535836Y-72317849D02*
X136135836Y-72317849D01*
X136135836Y-72317849D02*
X144398336Y-80580349D01*
X144398336Y-80580349D02*
X144398336Y-83192849D01*
X144398336Y-84642849D02*
X144448336Y-84692849D01*
X150420987Y-85970265D02*
X150420987Y-85873384D01*
%TO.N,/PB1*%
X155876244Y-79286755D02*
X155876244Y-79473422D01*
X156758197Y-78404802D02*
X155876244Y-79286755D01*
%TO.N,TX*%
X153635839Y-83942849D02*
X153635839Y-83542852D01*
X152444846Y-86112266D02*
X153635839Y-84921273D01*
X153635839Y-84921273D02*
X153635839Y-83942849D01*
X153635839Y-83542852D02*
X151035836Y-80942849D01*
%TO.N,RX*%
X152574615Y-83981628D02*
X152574615Y-84851126D01*
X152535836Y-83942849D02*
X152574615Y-83981628D01*
X152535836Y-83942849D02*
X150451094Y-81858107D01*
X152574615Y-84851126D02*
X151879160Y-85546581D01*
X150451094Y-81858107D02*
X150425664Y-81858107D01*
%TO.N,PD6*%
X162186836Y-81993549D02*
X159599691Y-79406404D01*
X161712303Y-87217360D02*
X162186836Y-86742827D01*
X159543336Y-90492849D02*
X159543336Y-88312849D01*
X160398825Y-87217360D02*
X161712303Y-87217360D01*
X159599691Y-79406404D02*
X159150708Y-79406404D01*
X162186836Y-86742827D02*
X162186836Y-81993549D01*
X159150708Y-79406404D02*
X158455253Y-80101859D01*
X159543336Y-88312849D02*
X159423336Y-88192849D01*
X159423336Y-88192849D02*
X160398825Y-87217360D01*
%TO.N,/SDA*%
X155143836Y-93584849D02*
X155535836Y-93192849D01*
X163285836Y-90560349D02*
X163353336Y-90492849D01*
X148818987Y-90748000D02*
X151401836Y-93330849D01*
X163285836Y-91442849D02*
X163285836Y-90560349D01*
X150182104Y-83849525D02*
X148818987Y-85212642D01*
X151401836Y-93330849D02*
X152433836Y-93330849D01*
X155077336Y-93584849D02*
X155143836Y-93584849D01*
X152433836Y-93330849D02*
X154823336Y-93330849D01*
X154823336Y-93330849D02*
X155077336Y-93584849D01*
X148818987Y-85212642D02*
X148818987Y-90748000D01*
%TO.N,/SCL*%
X158742336Y-91768849D02*
X161459836Y-91768849D01*
X150047780Y-85069265D02*
X149519987Y-85597058D01*
X162083336Y-91145349D02*
X162083336Y-90492849D01*
X149519987Y-90427000D02*
X151153836Y-92060849D01*
X149519987Y-85597058D02*
X149519987Y-90427000D01*
X155077336Y-91916849D02*
X156053336Y-90940849D01*
X156053336Y-90940849D02*
X157914336Y-90940849D01*
X152433836Y-92060849D02*
X154933336Y-92060849D01*
X154933336Y-92060849D02*
X155077336Y-91916849D01*
X150093734Y-85069265D02*
X150047780Y-85069265D01*
X151153836Y-92060849D02*
X152433836Y-92060849D01*
X161459836Y-91768849D02*
X162083336Y-91145349D01*
X157914336Y-90940849D02*
X158742336Y-91768849D01*
X150747789Y-84415210D02*
X150093734Y-85069265D01*
%TO.N,Net-(X2-Pin_10)*%
X140548336Y-81067849D02*
X142673336Y-83192849D01*
X135535836Y-81067849D02*
X140548336Y-81067849D01*
%TO.N,Net-(D2-AREF)*%
X151313475Y-78404802D02*
X149285836Y-76377163D01*
X149285836Y-76377163D02*
X149285836Y-74805349D01*
%TO.N,/Charge*%
X175252836Y-100692849D02*
X175335836Y-100775849D01*
%TO.N,ADCEN*%
X144873336Y-78530000D02*
X144923336Y-78580000D01*
X144873336Y-76942849D02*
X144873336Y-78530000D01*
X147010880Y-80667544D02*
X144923336Y-78580000D01*
X149050733Y-80667544D02*
X147010880Y-80667544D01*
%TO.N,ADCIN*%
X146698336Y-75278000D02*
X146698336Y-76942849D01*
X146698336Y-76942849D02*
X146698336Y-78530000D01*
X148094560Y-78580000D02*
X147148336Y-78580000D01*
X146698336Y-78530000D02*
X146648336Y-78580000D01*
X149616419Y-80101859D02*
X148094560Y-78580000D01*
%TO.N,/BUZ*%
X153031363Y-74945908D02*
X153031363Y-74774894D01*
X154365686Y-85982497D02*
X154365686Y-84612999D01*
X153176005Y-79038754D02*
X153176005Y-78692849D01*
X155061141Y-86677952D02*
X154365686Y-85982497D01*
X154365686Y-84612999D02*
X154536839Y-84441846D01*
X154536839Y-84441846D02*
X154536839Y-80399588D01*
X153031363Y-74774894D02*
X154623336Y-73182921D01*
X154623336Y-73182921D02*
X154623336Y-67470849D01*
X154536839Y-80399588D02*
X153176005Y-79038754D01*
%TO.N,/LED*%
X155626826Y-86112266D02*
X156322281Y-86807721D01*
X156322281Y-87256704D02*
X155170205Y-88408780D01*
X156322281Y-86807721D02*
X156322281Y-87256704D01*
X151635918Y-88408780D02*
X150419987Y-87192849D01*
X155170205Y-88408780D02*
X151635918Y-88408780D01*
%TO.N,Net-(D2-PD7)*%
X157889568Y-79536173D02*
X157051319Y-80374422D01*
X154493156Y-74868738D02*
X154492451Y-74868033D01*
X154493156Y-74868738D02*
X160030836Y-69331058D01*
X154212431Y-74868033D02*
X154131358Y-74949106D01*
X157051319Y-80374422D02*
X155503037Y-80374422D01*
X154492451Y-74868033D02*
X154212431Y-74868033D01*
X154076005Y-78947390D02*
X154076005Y-77843932D01*
X155503037Y-80374422D02*
X154076005Y-78947390D01*
X160030836Y-69331058D02*
X160030836Y-60452000D01*
%TO.N,32K*%
X156830076Y-82648609D02*
X157039874Y-82648609D01*
X142633836Y-92060849D02*
X142633836Y-91094849D01*
X142633836Y-91094849D02*
X144340828Y-89387857D01*
X140314185Y-92060849D02*
X139946336Y-92428698D01*
X142633836Y-92060849D02*
X140314185Y-92060849D01*
X157039874Y-82648609D02*
X159020939Y-80667544D01*
%TO.N,PB3*%
X157595409Y-75304849D02*
X155626826Y-77273432D01*
X166911836Y-75304849D02*
X157595409Y-75304849D01*
%TO.N,PB4*%
X155928479Y-75840408D02*
X155061141Y-76707746D01*
X155928479Y-75698986D02*
X155928479Y-75840408D01*
%TO.N,PB5*%
X166911836Y-72764849D02*
X157588409Y-72764849D01*
X157588409Y-72764849D02*
X153645512Y-76707746D01*
X152211446Y-75767239D02*
X152211446Y-75908661D01*
X138498271Y-76418849D02*
X138498271Y-76185367D01*
X135880753Y-73567849D02*
X135535836Y-73567849D01*
X138498271Y-76185367D02*
X135880753Y-73567849D01*
X153645512Y-76707746D02*
X153010531Y-76707746D01*
X153010531Y-76707746D02*
X153010531Y-76566324D01*
X152211446Y-75908661D02*
X153010531Y-76707746D01*
%TO.N,Net-(D2-PD2)*%
X153350767Y-87507780D02*
X153350767Y-87018188D01*
X153350767Y-87018188D02*
X153010531Y-86677952D01*
X142633836Y-95870849D02*
X144987698Y-95870849D01*
X144987698Y-95870849D02*
X148828370Y-92030177D01*
%TO.N,Net-(D5-~{STDBY})*%
X175335836Y-98235849D02*
X174492836Y-98235849D01*
X174492836Y-98235849D02*
X174285836Y-98442849D01*
%TO.N,ALARM*%
X145127836Y-94600849D02*
X147535836Y-92192849D01*
X140093487Y-94600849D02*
X139921336Y-94428698D01*
X148661824Y-82718154D02*
X149050733Y-82718154D01*
X142633836Y-94600849D02*
X145127836Y-94600849D01*
X147535836Y-83844142D02*
X148661824Y-82718154D01*
X142633836Y-94600849D02*
X140093487Y-94600849D01*
X147535836Y-92192849D02*
X147535836Y-83844142D01*
%TO.N,PC3*%
X148728140Y-84172118D02*
X148586719Y-84172118D01*
X149616419Y-83283839D02*
X148728140Y-84172118D01*
X141438597Y-80966746D02*
X143498336Y-80966746D01*
X135535836Y-77317849D02*
X137789700Y-77317849D01*
X137789700Y-77317849D02*
X141438597Y-80966746D01*
%TO.N,/PB0*%
X158019338Y-78275033D02*
X157323883Y-78970488D01*
X164802020Y-78275033D02*
X158019338Y-78275033D01*
X166911836Y-80384849D02*
X164802020Y-78275033D01*
%TO.N,Net-(D5-~{CHRG})*%
X174019046Y-99510008D02*
X175331677Y-99510008D01*
X175331677Y-99510008D02*
X175335836Y-99505849D01*
%TO.N,Net-(D5-PROG)*%
X181822336Y-99505849D02*
X183219336Y-100902849D01*
X180735836Y-99505849D02*
X181822336Y-99505849D01*
%TO.N,Net-(VT1-G)*%
X156448336Y-65692849D02*
X156448336Y-67470849D01*
X156535836Y-65605349D02*
X156448336Y-65692849D01*
X156535836Y-63442849D02*
X156535836Y-65605349D01*
%TD*%
%TA.AperFunction,Conductor*%
%TO.N,+3V3*%
G36*
X153336542Y-58863034D02*
G01*
X153378861Y-58908896D01*
X153453957Y-59049392D01*
X153463260Y-59071850D01*
X153513076Y-59236073D01*
X153517818Y-59259914D01*
X153535239Y-59436787D01*
X153535836Y-59448941D01*
X153535836Y-61668349D01*
X153516151Y-61735388D01*
X153463347Y-61781143D01*
X153411836Y-61792349D01*
X152540979Y-61792349D01*
X152540953Y-61792351D01*
X152515848Y-61795262D01*
X152515844Y-61795264D01*
X152413071Y-61840642D01*
X152413070Y-61840643D01*
X152397684Y-61856030D01*
X152336361Y-61889515D01*
X152310003Y-61892349D01*
X146742319Y-61892349D01*
X146675280Y-61872664D01*
X146629525Y-61819860D01*
X146624388Y-61806668D01*
X146595707Y-61718399D01*
X146517067Y-61564060D01*
X146508347Y-61552058D01*
X146415250Y-61423921D01*
X146292764Y-61301435D01*
X146152624Y-61199617D01*
X145998281Y-61120976D01*
X145833537Y-61067447D01*
X145833535Y-61067446D01*
X145833534Y-61067446D01*
X145702107Y-61046630D01*
X145662447Y-61040349D01*
X145489225Y-61040349D01*
X145449564Y-61046630D01*
X145318138Y-61067446D01*
X145153388Y-61120977D01*
X144999047Y-61199617D01*
X144919092Y-61257708D01*
X144858908Y-61301435D01*
X144858906Y-61301437D01*
X144858905Y-61301437D01*
X144736424Y-61423918D01*
X144736424Y-61423919D01*
X144736422Y-61423921D01*
X144719198Y-61447628D01*
X144634604Y-61564060D01*
X144555964Y-61718401D01*
X144502433Y-61883151D01*
X144485872Y-61987714D01*
X144475336Y-62054238D01*
X144475336Y-62227460D01*
X144502434Y-62398550D01*
X144555963Y-62563294D01*
X144634604Y-62717637D01*
X144736422Y-62857777D01*
X144858908Y-62980263D01*
X144999048Y-63082081D01*
X145153391Y-63160722D01*
X145318135Y-63214251D01*
X145489225Y-63241349D01*
X145489226Y-63241349D01*
X145662446Y-63241349D01*
X145662447Y-63241349D01*
X145833537Y-63214251D01*
X145998281Y-63160722D01*
X146103985Y-63106863D01*
X146160278Y-63093349D01*
X152310003Y-63093349D01*
X152377042Y-63113034D01*
X152397684Y-63129668D01*
X152413071Y-63145055D01*
X152515845Y-63190434D01*
X152540971Y-63193349D01*
X153411837Y-63193348D01*
X153478875Y-63213032D01*
X153524630Y-63265836D01*
X153535836Y-63317348D01*
X153535836Y-64738853D01*
X153516151Y-64805892D01*
X153463347Y-64851647D01*
X153459289Y-64853414D01*
X153359292Y-64894834D01*
X153359282Y-64894839D01*
X153211801Y-64993384D01*
X153211797Y-64993387D01*
X153086374Y-65118810D01*
X153086371Y-65118814D01*
X152987826Y-65266295D01*
X152987819Y-65266308D01*
X152919942Y-65430181D01*
X152919939Y-65430190D01*
X152885336Y-65604153D01*
X152885336Y-65781544D01*
X152919939Y-65955507D01*
X152919942Y-65955516D01*
X152987819Y-66119389D01*
X152987826Y-66119402D01*
X153086371Y-66266883D01*
X153086374Y-66266887D01*
X153211797Y-66392310D01*
X153211801Y-66392313D01*
X153359282Y-66490858D01*
X153359289Y-66490862D01*
X153459289Y-66532283D01*
X153513691Y-66576122D01*
X153535757Y-66642416D01*
X153535836Y-66646843D01*
X153535836Y-73511244D01*
X153516151Y-73578283D01*
X153499517Y-73598925D01*
X152842905Y-74255536D01*
X152802678Y-74282416D01*
X152699550Y-74325133D01*
X152699549Y-74325134D01*
X152584825Y-74401790D01*
X152584817Y-74401796D01*
X152487251Y-74499362D01*
X152487248Y-74499366D01*
X152410591Y-74614090D01*
X152410584Y-74614103D01*
X152357784Y-74741575D01*
X152357781Y-74741585D01*
X152330863Y-74876912D01*
X152330863Y-74942739D01*
X152329933Y-74945904D01*
X152330699Y-74949113D01*
X152320158Y-74979195D01*
X152311178Y-75009778D01*
X152308685Y-75011938D01*
X152307594Y-75015052D01*
X152282458Y-75034663D01*
X152258374Y-75055533D01*
X152254333Y-75056607D01*
X152252508Y-75058032D01*
X152240014Y-75060415D01*
X152218178Y-75066222D01*
X152212536Y-75066739D01*
X152142453Y-75066739D01*
X152082598Y-75078644D01*
X152076104Y-75079240D01*
X152047958Y-75073703D01*
X152019387Y-75071146D01*
X152014106Y-75067044D01*
X152007548Y-75065754D01*
X151986866Y-75045883D01*
X151964210Y-75028283D01*
X151961985Y-75021977D01*
X151957165Y-75017346D01*
X151950508Y-74989442D01*
X151940967Y-74962393D01*
X151942078Y-74954100D01*
X151940953Y-74949383D01*
X151943798Y-74941261D01*
X151947083Y-74916753D01*
X152000516Y-74755500D01*
X152010835Y-74654503D01*
X152010836Y-74654490D01*
X152010836Y-74555349D01*
X151285836Y-74555349D01*
X151285836Y-75342848D01*
X151322476Y-75342848D01*
X151322490Y-75342847D01*
X151430222Y-75331842D01*
X151430364Y-75333233D01*
X151492507Y-75337883D01*
X151548303Y-75379937D01*
X151572505Y-75445481D01*
X151563355Y-75501373D01*
X151537866Y-75562911D01*
X151537864Y-75562916D01*
X151510946Y-75698243D01*
X151510946Y-75698246D01*
X151510946Y-75836232D01*
X151510946Y-75836234D01*
X151510945Y-75836234D01*
X151537864Y-75971561D01*
X151537867Y-75971571D01*
X151590667Y-76099043D01*
X151590674Y-76099056D01*
X151670716Y-76218846D01*
X151669129Y-76219905D01*
X151692976Y-76276070D01*
X151681177Y-76344936D01*
X151658788Y-76376774D01*
X150926115Y-77131649D01*
X150865298Y-77166045D01*
X150795540Y-77162102D01*
X150749454Y-77132967D01*
X149822655Y-76206168D01*
X149789170Y-76144845D01*
X149786336Y-76118487D01*
X149786336Y-75142695D01*
X149795392Y-75111852D01*
X149803005Y-75080597D01*
X149805350Y-75077940D01*
X149806021Y-75075656D01*
X149824848Y-75052874D01*
X149829876Y-75048088D01*
X149907336Y-74989349D01*
X149948170Y-74935500D01*
X149955429Y-74928592D01*
X149977941Y-74917012D01*
X149998304Y-74901965D01*
X150008487Y-74901299D01*
X150017561Y-74896633D01*
X150042758Y-74899061D01*
X150068025Y-74897412D01*
X150076950Y-74902357D01*
X150087108Y-74903337D01*
X150106996Y-74919006D01*
X150129140Y-74931277D01*
X150139816Y-74944865D01*
X150141990Y-74946578D01*
X150142638Y-74948457D01*
X150146455Y-74953315D01*
X150215890Y-75065886D01*
X150337797Y-75187793D01*
X150337801Y-75187796D01*
X150484524Y-75278297D01*
X150484535Y-75278302D01*
X150648183Y-75332529D01*
X150749188Y-75342848D01*
X150785836Y-75342848D01*
X150785836Y-74429349D01*
X150805521Y-74362310D01*
X150858325Y-74316555D01*
X150909836Y-74305349D01*
X151035836Y-74305349D01*
X151035836Y-74179349D01*
X151055521Y-74112310D01*
X151108325Y-74066555D01*
X151159836Y-74055349D01*
X152010835Y-74055349D01*
X152010835Y-73956209D01*
X152010834Y-73956194D01*
X152000516Y-73855196D01*
X151946289Y-73691548D01*
X151946284Y-73691537D01*
X151855783Y-73544814D01*
X151855780Y-73544810D01*
X151733873Y-73422903D01*
X151716010Y-73411885D01*
X151669286Y-73359936D01*
X151658065Y-73290973D01*
X151682305Y-73231422D01*
X151746698Y-73146507D01*
X151800953Y-73008926D01*
X151811336Y-72922467D01*
X151811336Y-72238231D01*
X151808137Y-72211599D01*
X151819686Y-72142694D01*
X151828148Y-72127927D01*
X151833849Y-72119396D01*
X151901730Y-71955515D01*
X151903165Y-71948304D01*
X151936335Y-71781544D01*
X151936336Y-71781542D01*
X151936336Y-71604155D01*
X151936335Y-71604153D01*
X151901732Y-71430190D01*
X151901729Y-71430181D01*
X151833852Y-71266308D01*
X151833845Y-71266295D01*
X151735300Y-71118814D01*
X151735297Y-71118810D01*
X151609874Y-70993387D01*
X151609870Y-70993384D01*
X151462389Y-70894839D01*
X151462376Y-70894832D01*
X151298503Y-70826955D01*
X151298494Y-70826952D01*
X151124530Y-70792349D01*
X151124527Y-70792349D01*
X150947145Y-70792349D01*
X150947142Y-70792349D01*
X150773177Y-70826952D01*
X150773168Y-70826955D01*
X150609295Y-70894832D01*
X150609282Y-70894839D01*
X150461801Y-70993384D01*
X150461797Y-70993387D01*
X150336374Y-71118810D01*
X150336371Y-71118814D01*
X150237826Y-71266295D01*
X150237819Y-71266308D01*
X150169942Y-71430181D01*
X150169939Y-71430190D01*
X150135336Y-71604153D01*
X150135336Y-71604158D01*
X150135336Y-71781540D01*
X150140398Y-71806987D01*
X150142262Y-71816359D01*
X150136034Y-71885951D01*
X150093170Y-71941128D01*
X150027280Y-71964372D01*
X149959283Y-71948304D01*
X149921840Y-71915475D01*
X149907336Y-71896348D01*
X149789496Y-71806988D01*
X149789494Y-71806987D01*
X149651913Y-71752732D01*
X149651912Y-71752731D01*
X149651910Y-71752731D01*
X149565455Y-71742349D01*
X149565454Y-71742349D01*
X149006218Y-71742349D01*
X149006217Y-71742349D01*
X148919761Y-71752731D01*
X148919756Y-71752732D01*
X148904618Y-71758703D01*
X148897634Y-71760030D01*
X148894062Y-71762326D01*
X148859127Y-71767349D01*
X148645936Y-71767349D01*
X148578897Y-71747664D01*
X148577045Y-71746451D01*
X148462385Y-71669837D01*
X148462383Y-71669836D01*
X148298503Y-71601955D01*
X148298494Y-71601952D01*
X148124530Y-71567349D01*
X148124527Y-71567349D01*
X147947145Y-71567349D01*
X147947142Y-71567349D01*
X147773177Y-71601952D01*
X147773168Y-71601955D01*
X147609295Y-71669832D01*
X147609282Y-71669839D01*
X147461801Y-71768384D01*
X147461797Y-71768387D01*
X147336374Y-71893810D01*
X147336371Y-71893814D01*
X147237826Y-72041295D01*
X147237819Y-72041308D01*
X147169942Y-72205181D01*
X147169939Y-72205190D01*
X147135336Y-72379153D01*
X147135336Y-72556544D01*
X147169939Y-72730507D01*
X147169942Y-72730516D01*
X147237820Y-72894391D01*
X147237821Y-72894392D01*
X147237823Y-72894396D01*
X147292087Y-72975607D01*
X147314438Y-73009057D01*
X147335316Y-73075734D01*
X147335336Y-73077948D01*
X147335336Y-74432599D01*
X147315651Y-74499638D01*
X147262847Y-74545393D01*
X147193689Y-74555337D01*
X147165848Y-74547954D01*
X147076913Y-74512883D01*
X147076912Y-74512882D01*
X147076910Y-74512882D01*
X146990455Y-74502500D01*
X146990454Y-74502500D01*
X146406218Y-74502500D01*
X146406217Y-74502500D01*
X146319761Y-74512882D01*
X146319760Y-74512882D01*
X146182175Y-74567139D01*
X146064335Y-74656499D01*
X145974975Y-74774339D01*
X145920718Y-74911924D01*
X145920718Y-74911925D01*
X145910336Y-74998381D01*
X145910336Y-75557618D01*
X145920718Y-75644074D01*
X145920718Y-75644075D01*
X145974975Y-75781660D01*
X146064335Y-75899500D01*
X146148761Y-75963521D01*
X146151241Y-75966877D01*
X146155039Y-75968612D01*
X146171830Y-75994740D01*
X146190284Y-76019713D01*
X146191199Y-76024879D01*
X146192813Y-76027390D01*
X146197836Y-76062325D01*
X146197836Y-76158523D01*
X146178151Y-76225562D01*
X146148761Y-76257327D01*
X146064335Y-76321348D01*
X145974975Y-76439188D01*
X145920718Y-76576773D01*
X145920718Y-76576774D01*
X145910336Y-76663230D01*
X145910336Y-77222467D01*
X145920718Y-77308923D01*
X145920718Y-77308924D01*
X145920719Y-77308926D01*
X145965327Y-77422045D01*
X145974975Y-77446509D01*
X146064335Y-77564349D01*
X146148761Y-77628370D01*
X146151241Y-77631726D01*
X146155039Y-77633461D01*
X146171830Y-77659589D01*
X146190284Y-77684562D01*
X146191199Y-77689728D01*
X146192813Y-77692239D01*
X146197836Y-77727174D01*
X146197836Y-77739134D01*
X146178151Y-77806173D01*
X146125347Y-77851928D01*
X146119338Y-77854483D01*
X146106829Y-77859416D01*
X146082176Y-77869138D01*
X145964335Y-77958499D01*
X145884640Y-78063595D01*
X145828448Y-78105118D01*
X145758727Y-78109670D01*
X145697612Y-78075805D01*
X145687032Y-78063595D01*
X145607336Y-77958499D01*
X145489495Y-77869138D01*
X145471047Y-77861863D01*
X145452344Y-77854488D01*
X145435754Y-77841579D01*
X145416633Y-77832847D01*
X145408733Y-77820555D01*
X145397202Y-77811583D01*
X145390223Y-77791753D01*
X145378859Y-77774069D01*
X145375306Y-77749362D01*
X145374009Y-77745675D01*
X145373836Y-77739134D01*
X145373836Y-77727174D01*
X145393521Y-77660135D01*
X145422911Y-77628370D01*
X145507336Y-77564349D01*
X145536811Y-77525480D01*
X145596698Y-77446507D01*
X145650953Y-77308926D01*
X145661336Y-77222467D01*
X145661336Y-76663231D01*
X145650953Y-76576772D01*
X145596698Y-76439191D01*
X145596696Y-76439188D01*
X145507336Y-76321348D01*
X145389496Y-76231988D01*
X145389492Y-76231986D01*
X145373750Y-76225778D01*
X145318606Y-76182871D01*
X145295414Y-76116963D01*
X145311535Y-76048979D01*
X145361853Y-76000503D01*
X145373736Y-75995075D01*
X145389494Y-75988862D01*
X145507336Y-75899500D01*
X145596698Y-75781658D01*
X145650953Y-75644077D01*
X145661336Y-75557618D01*
X145661336Y-74998382D01*
X145650953Y-74911923D01*
X145596698Y-74774342D01*
X145573634Y-74743928D01*
X145502211Y-74649742D01*
X145504128Y-74648288D01*
X145476666Y-74597976D01*
X145473836Y-74571637D01*
X145473836Y-72405445D01*
X145493521Y-72338406D01*
X145510151Y-72317768D01*
X145934342Y-71893576D01*
X145934347Y-71893573D01*
X145944550Y-71883369D01*
X145944552Y-71883369D01*
X146056356Y-71771565D01*
X146124945Y-71652765D01*
X146135413Y-71634634D01*
X146176337Y-71481906D01*
X146176337Y-71323792D01*
X146176337Y-71316197D01*
X146176336Y-71316179D01*
X146176336Y-69865348D01*
X146196021Y-69798309D01*
X146248825Y-69752554D01*
X146300336Y-69741348D01*
X146420692Y-69741348D01*
X146420700Y-69741348D01*
X146420715Y-69741346D01*
X146420718Y-69741346D01*
X146445823Y-69738435D01*
X146445824Y-69738434D01*
X146445827Y-69738434D01*
X146548601Y-69693055D01*
X146628042Y-69613614D01*
X146673421Y-69510840D01*
X146676336Y-69485714D01*
X146676335Y-67795985D01*
X146676333Y-67795966D01*
X146673422Y-67770861D01*
X146673421Y-67770859D01*
X146673421Y-67770858D01*
X146628042Y-67668084D01*
X146548601Y-67588643D01*
X146548599Y-67588642D01*
X146445828Y-67543264D01*
X146420701Y-67540349D01*
X144730979Y-67540349D01*
X144730953Y-67540351D01*
X144705848Y-67543262D01*
X144705844Y-67543264D01*
X144603071Y-67588642D01*
X144523630Y-67668083D01*
X144478251Y-67770855D01*
X144478251Y-67770857D01*
X144475336Y-67795980D01*
X144475336Y-69485705D01*
X144475338Y-69485731D01*
X144478249Y-69510836D01*
X144478251Y-69510840D01*
X144523629Y-69613613D01*
X144523630Y-69613614D01*
X144603071Y-69693055D01*
X144705845Y-69738434D01*
X144730971Y-69741349D01*
X144851336Y-69741348D01*
X144918375Y-69761032D01*
X144964130Y-69813836D01*
X144975336Y-69865348D01*
X144975336Y-71102751D01*
X144955651Y-71169790D01*
X144939017Y-71190432D01*
X144392817Y-71736631D01*
X144392815Y-71736634D01*
X144378828Y-71760861D01*
X144346215Y-71817349D01*
X144313759Y-71873564D01*
X144272835Y-72026292D01*
X144272835Y-72026294D01*
X144272835Y-72194395D01*
X144272836Y-72194408D01*
X144272836Y-74571637D01*
X144253151Y-74638676D01*
X144244320Y-74649635D01*
X144244461Y-74649742D01*
X144149975Y-74774339D01*
X144095718Y-74911924D01*
X144095718Y-74911925D01*
X144085336Y-74998381D01*
X144085336Y-75557618D01*
X144095718Y-75644074D01*
X144095718Y-75644075D01*
X144149975Y-75781660D01*
X144239335Y-75899500D01*
X144328186Y-75966877D01*
X144357178Y-75988862D01*
X144372920Y-75995069D01*
X144428063Y-76037974D01*
X144451257Y-76103882D01*
X144435137Y-76171867D01*
X144384821Y-76220344D01*
X144372923Y-76225777D01*
X144357181Y-76231985D01*
X144357175Y-76231988D01*
X144239335Y-76321348D01*
X144149975Y-76439188D01*
X144095718Y-76576773D01*
X144095718Y-76576774D01*
X144085336Y-76663230D01*
X144085336Y-77222467D01*
X144095718Y-77308923D01*
X144095718Y-77308924D01*
X144095719Y-77308926D01*
X144140327Y-77422045D01*
X144149975Y-77446509D01*
X144239335Y-77564349D01*
X144323761Y-77628370D01*
X144326241Y-77631726D01*
X144330039Y-77633461D01*
X144346830Y-77659589D01*
X144365284Y-77684562D01*
X144366199Y-77689728D01*
X144367813Y-77692239D01*
X144372836Y-77727174D01*
X144372836Y-77795674D01*
X144353151Y-77862713D01*
X144323761Y-77894478D01*
X144239335Y-77958499D01*
X144149975Y-78076339D01*
X144095718Y-78213924D01*
X144095718Y-78213925D01*
X144085336Y-78300381D01*
X144085336Y-78859618D01*
X144095718Y-78946074D01*
X144095718Y-78946075D01*
X144149975Y-79083660D01*
X144239335Y-79201500D01*
X144328472Y-79269094D01*
X144357178Y-79290862D01*
X144494759Y-79345117D01*
X144552398Y-79352039D01*
X144581217Y-79355500D01*
X144581218Y-79355500D01*
X144939660Y-79355500D01*
X145006699Y-79375185D01*
X145027341Y-79391819D01*
X146610380Y-80974858D01*
X146703566Y-81068044D01*
X146817694Y-81133936D01*
X146823346Y-81137199D01*
X146871562Y-81187766D01*
X146884785Y-81256373D01*
X146858817Y-81321238D01*
X146850326Y-81330949D01*
X145409641Y-82815291D01*
X145348824Y-82849687D01*
X145279066Y-82845744D01*
X145222514Y-82804712D01*
X145205308Y-82774421D01*
X145171698Y-82689191D01*
X145162032Y-82676444D01*
X145082336Y-82571348D01*
X144964493Y-82481986D01*
X144962065Y-82480621D01*
X144960279Y-82478791D01*
X144957736Y-82476862D01*
X144958025Y-82476480D01*
X144913276Y-82430608D01*
X144898836Y-82372534D01*
X144898836Y-80514459D01*
X144898836Y-80514457D01*
X144864728Y-80387163D01*
X144798836Y-80273035D01*
X144705650Y-80179849D01*
X136817057Y-72291256D01*
X136783572Y-72229933D01*
X136783121Y-72227767D01*
X136757495Y-72098941D01*
X136757494Y-72098940D01*
X136757494Y-72098936D01*
X136733624Y-72041308D01*
X136700923Y-71962360D01*
X136700921Y-71962356D01*
X136700920Y-71962354D01*
X136670905Y-71917433D01*
X136650027Y-71850756D01*
X136668511Y-71783376D01*
X136686327Y-71760860D01*
X136773746Y-71673442D01*
X136773749Y-71673438D01*
X136877711Y-71517849D01*
X136877716Y-71517840D01*
X136949328Y-71344952D01*
X136949329Y-71344949D01*
X136954720Y-71317849D01*
X135952824Y-71317849D01*
X135970041Y-71307909D01*
X136025896Y-71252054D01*
X136065392Y-71183645D01*
X136085836Y-71107345D01*
X136085836Y-71028353D01*
X136065392Y-70952053D01*
X136025896Y-70883644D01*
X135970041Y-70827789D01*
X135952824Y-70817849D01*
X136954720Y-70817849D01*
X136954720Y-70817848D01*
X136949329Y-70790748D01*
X136949328Y-70790745D01*
X136877716Y-70617857D01*
X136877711Y-70617848D01*
X136773749Y-70462259D01*
X136773746Y-70462255D01*
X136749915Y-70438424D01*
X136716430Y-70377101D01*
X136721414Y-70307409D01*
X136722242Y-70305252D01*
X136723198Y-70302825D01*
X136723200Y-70302824D01*
X136776195Y-70168439D01*
X136786336Y-70083993D01*
X136786336Y-69551705D01*
X136776195Y-69467259D01*
X136723200Y-69332874D01*
X136723199Y-69332873D01*
X136723199Y-69332872D01*
X136635914Y-69217770D01*
X136520812Y-69130485D01*
X136386424Y-69077489D01*
X136343078Y-69072284D01*
X136301980Y-69067349D01*
X135269692Y-69067349D01*
X135231677Y-69071914D01*
X135185247Y-69077489D01*
X135050859Y-69130485D01*
X134935757Y-69217770D01*
X134848472Y-69332872D01*
X134795476Y-69467260D01*
X134790244Y-69510836D01*
X134785336Y-69551705D01*
X134785336Y-70083993D01*
X134790661Y-70128343D01*
X134795476Y-70168437D01*
X134849430Y-70305253D01*
X134855711Y-70374840D01*
X134823374Y-70436776D01*
X134821759Y-70438421D01*
X134797925Y-70462256D01*
X134797920Y-70462262D01*
X134693960Y-70617848D01*
X134693955Y-70617857D01*
X134622343Y-70790745D01*
X134622342Y-70790748D01*
X134616951Y-70817848D01*
X134616952Y-70817849D01*
X135618848Y-70817849D01*
X135601631Y-70827789D01*
X135545776Y-70883644D01*
X135506280Y-70952053D01*
X135485836Y-71028353D01*
X135485836Y-71107345D01*
X135506280Y-71183645D01*
X135545776Y-71252054D01*
X135601631Y-71307909D01*
X135618848Y-71317849D01*
X134616952Y-71317849D01*
X134622342Y-71344949D01*
X134622343Y-71344952D01*
X134693955Y-71517840D01*
X134693960Y-71517849D01*
X134797922Y-71673438D01*
X134797925Y-71673442D01*
X134885344Y-71760861D01*
X134918829Y-71822184D01*
X134913845Y-71891876D01*
X134900767Y-71917430D01*
X134870756Y-71962346D01*
X134870748Y-71962360D01*
X134814179Y-72098931D01*
X134814176Y-72098941D01*
X134785336Y-72243928D01*
X134785336Y-72243931D01*
X134785336Y-72391767D01*
X134785336Y-72391769D01*
X134785335Y-72391769D01*
X134814176Y-72536756D01*
X134814179Y-72536766D01*
X134870748Y-72673337D01*
X134870755Y-72673350D01*
X134952884Y-72796264D01*
X134952887Y-72796268D01*
X135011787Y-72855168D01*
X135045272Y-72916491D01*
X135040288Y-72986183D01*
X135011787Y-73030530D01*
X134952887Y-73089429D01*
X134952884Y-73089433D01*
X134870755Y-73212347D01*
X134870748Y-73212360D01*
X134814179Y-73348931D01*
X134814176Y-73348941D01*
X134785336Y-73493928D01*
X134785336Y-73493931D01*
X134785336Y-73641767D01*
X134785336Y-73641769D01*
X134785335Y-73641769D01*
X134814176Y-73786756D01*
X134814179Y-73786766D01*
X134870748Y-73923337D01*
X134870755Y-73923350D01*
X134952884Y-74046264D01*
X134952887Y-74046268D01*
X135011787Y-74105168D01*
X135045272Y-74166491D01*
X135040288Y-74236183D01*
X135011787Y-74280530D01*
X134952887Y-74339429D01*
X134952884Y-74339433D01*
X134870755Y-74462347D01*
X134870748Y-74462360D01*
X134814179Y-74598931D01*
X134814176Y-74598941D01*
X134785336Y-74743928D01*
X134785336Y-74743931D01*
X134785336Y-74891767D01*
X134785336Y-74891769D01*
X134785335Y-74891769D01*
X134814176Y-75036756D01*
X134814179Y-75036766D01*
X134870748Y-75173337D01*
X134870755Y-75173350D01*
X134952884Y-75296264D01*
X134952887Y-75296268D01*
X135011787Y-75355168D01*
X135045272Y-75416491D01*
X135040288Y-75486183D01*
X135011787Y-75530530D01*
X134952887Y-75589429D01*
X134952884Y-75589433D01*
X134870755Y-75712347D01*
X134870748Y-75712360D01*
X134814179Y-75848931D01*
X134814176Y-75848941D01*
X134785336Y-75993928D01*
X134785336Y-75993931D01*
X134785336Y-76141767D01*
X134785336Y-76141769D01*
X134785335Y-76141769D01*
X134814176Y-76286756D01*
X134814179Y-76286766D01*
X134870748Y-76423337D01*
X134870755Y-76423350D01*
X134952884Y-76546264D01*
X134952887Y-76546268D01*
X135011787Y-76605168D01*
X135045272Y-76666491D01*
X135040288Y-76736183D01*
X135011787Y-76780530D01*
X134952887Y-76839429D01*
X134952884Y-76839433D01*
X134870755Y-76962347D01*
X134870748Y-76962360D01*
X134814179Y-77098931D01*
X134814176Y-77098941D01*
X134785336Y-77243928D01*
X134785336Y-77243931D01*
X134785336Y-77391767D01*
X134785336Y-77391769D01*
X134785335Y-77391769D01*
X134814176Y-77536756D01*
X134814179Y-77536766D01*
X134870748Y-77673337D01*
X134870755Y-77673350D01*
X134952884Y-77796264D01*
X134952887Y-77796268D01*
X135011787Y-77855168D01*
X135045272Y-77916491D01*
X135040288Y-77986183D01*
X135011787Y-78030530D01*
X134952887Y-78089429D01*
X134952884Y-78089433D01*
X134870755Y-78212347D01*
X134870748Y-78212360D01*
X134814179Y-78348931D01*
X134814176Y-78348941D01*
X134785336Y-78493928D01*
X134785336Y-78493931D01*
X134785336Y-78641767D01*
X134785336Y-78641769D01*
X134785335Y-78641769D01*
X134814176Y-78786756D01*
X134814179Y-78786766D01*
X134870748Y-78923337D01*
X134870755Y-78923350D01*
X134952884Y-79046264D01*
X134952887Y-79046268D01*
X135011787Y-79105168D01*
X135045272Y-79166491D01*
X135040288Y-79236183D01*
X135011787Y-79280530D01*
X134952887Y-79339429D01*
X134952884Y-79339433D01*
X134870755Y-79462347D01*
X134870748Y-79462360D01*
X134814179Y-79598931D01*
X134814176Y-79598941D01*
X134785336Y-79743928D01*
X134785336Y-79743931D01*
X134785336Y-79891767D01*
X134785336Y-79891769D01*
X134785335Y-79891769D01*
X134814176Y-80036756D01*
X134814179Y-80036766D01*
X134870748Y-80173337D01*
X134870755Y-80173350D01*
X134952884Y-80296264D01*
X134952887Y-80296268D01*
X135011787Y-80355168D01*
X135045272Y-80416491D01*
X135040288Y-80486183D01*
X135011787Y-80530530D01*
X134952887Y-80589429D01*
X134952884Y-80589433D01*
X134870755Y-80712347D01*
X134870748Y-80712360D01*
X134814179Y-80848931D01*
X134814176Y-80848941D01*
X134785336Y-80993928D01*
X134785336Y-80993931D01*
X134785336Y-81141767D01*
X134785336Y-81141769D01*
X134785335Y-81141769D01*
X134814176Y-81286756D01*
X134814179Y-81286766D01*
X134870748Y-81423337D01*
X134870755Y-81423350D01*
X134952884Y-81546264D01*
X134952887Y-81546268D01*
X135057416Y-81650797D01*
X135057420Y-81650800D01*
X135180334Y-81732929D01*
X135180347Y-81732936D01*
X135315974Y-81789114D01*
X135316923Y-81789507D01*
X135316927Y-81789507D01*
X135316928Y-81789508D01*
X135461915Y-81818349D01*
X135461918Y-81818349D01*
X136109756Y-81818349D01*
X136207298Y-81798945D01*
X136254749Y-81789507D01*
X136391331Y-81732933D01*
X136514252Y-81650800D01*
X136560383Y-81604669D01*
X136621706Y-81571183D01*
X136648065Y-81568349D01*
X140289660Y-81568349D01*
X140356699Y-81588034D01*
X140377341Y-81604668D01*
X141799017Y-83026344D01*
X141832502Y-83087667D01*
X141835336Y-83114025D01*
X141835336Y-83472467D01*
X141845718Y-83558923D01*
X141845718Y-83558924D01*
X141845719Y-83558926D01*
X141888625Y-83667729D01*
X141899975Y-83696509D01*
X141899977Y-83696512D01*
X141916249Y-83717971D01*
X141941071Y-83783283D01*
X141926642Y-83851646D01*
X141905126Y-83880575D01*
X141790888Y-83994814D01*
X141700387Y-84141537D01*
X141700382Y-84141548D01*
X141646155Y-84305196D01*
X141635836Y-84406194D01*
X141635836Y-84442849D01*
X142499336Y-84442849D01*
X142566375Y-84462534D01*
X142612130Y-84515338D01*
X142623336Y-84566849D01*
X142623336Y-84818849D01*
X142603651Y-84885888D01*
X142550847Y-84931643D01*
X142499336Y-84942849D01*
X141635837Y-84942849D01*
X141635837Y-84979488D01*
X141635838Y-84979511D01*
X141638864Y-85009137D01*
X141626093Y-85077829D01*
X141578212Y-85128713D01*
X141510421Y-85145632D01*
X141446615Y-85124838D01*
X141367653Y-85072077D01*
X141367640Y-85072070D01*
X141240168Y-85019270D01*
X141240158Y-85019267D01*
X141104831Y-84992349D01*
X141104829Y-84992349D01*
X140966843Y-84992349D01*
X140966841Y-84992349D01*
X140831513Y-85019267D01*
X140831503Y-85019270D01*
X140704031Y-85072070D01*
X140704018Y-85072077D01*
X140589294Y-85148734D01*
X140589290Y-85148737D01*
X140491724Y-85246303D01*
X140491721Y-85246307D01*
X140415064Y-85361031D01*
X140415059Y-85361040D01*
X140412879Y-85366305D01*
X140369036Y-85420707D01*
X140302741Y-85442770D01*
X140298319Y-85442849D01*
X139035836Y-85442849D01*
X139035835Y-85442850D01*
X139032926Y-86439930D01*
X139018149Y-91501837D01*
X138998269Y-91568819D01*
X138945332Y-91614419D01*
X138876145Y-91624161D01*
X138829052Y-91607013D01*
X138685143Y-91518247D01*
X138685136Y-91518244D01*
X138521488Y-91464017D01*
X138420490Y-91453698D01*
X138371336Y-91453698D01*
X138371336Y-93457336D01*
X138351651Y-93524375D01*
X138346336Y-93530970D01*
X138346336Y-95403697D01*
X138395476Y-95403697D01*
X138395490Y-95403696D01*
X138496488Y-95393378D01*
X138660136Y-95339151D01*
X138660147Y-95339146D01*
X138806870Y-95248645D01*
X138806874Y-95248642D01*
X138928779Y-95126737D01*
X139020642Y-94977805D01*
X139072590Y-94931081D01*
X139141553Y-94919858D01*
X139205635Y-94947702D01*
X139224985Y-94967976D01*
X139275985Y-95035230D01*
X139287337Y-95050199D01*
X139403719Y-95138454D01*
X139405178Y-95139560D01*
X139542759Y-95193815D01*
X139600398Y-95200737D01*
X139629217Y-95204198D01*
X139629218Y-95204198D01*
X140213455Y-95204198D01*
X140235068Y-95201602D01*
X140299913Y-95193815D01*
X140437494Y-95139560D01*
X140454657Y-95126544D01*
X140519968Y-95101722D01*
X140529582Y-95101349D01*
X141023779Y-95101349D01*
X141037228Y-95105298D01*
X141051218Y-95104423D01*
X141070089Y-95114947D01*
X141090818Y-95121034D01*
X141101222Y-95132309D01*
X141112240Y-95138454D01*
X141133137Y-95166896D01*
X141203957Y-95299392D01*
X141213260Y-95321850D01*
X141263076Y-95486073D01*
X141267818Y-95509914D01*
X141284661Y-95680924D01*
X141285239Y-95686787D01*
X141285836Y-95698941D01*
X141285836Y-101692849D01*
X153035836Y-101692849D01*
X154035836Y-101692849D01*
X154035836Y-99003862D01*
X155835836Y-99003862D01*
X155835836Y-99128849D01*
X156785836Y-99128849D01*
X156785836Y-98303849D01*
X157285836Y-98303849D01*
X157285836Y-99128849D01*
X158155836Y-99128849D01*
X158155836Y-99065349D01*
X158175521Y-98998310D01*
X158228325Y-98952555D01*
X158279836Y-98941349D01*
X158835836Y-98941349D01*
X159335836Y-98941349D01*
X159885836Y-98941349D01*
X159885836Y-98538214D01*
X159885835Y-98538199D01*
X159882936Y-98501359D01*
X159882935Y-98501353D01*
X159837119Y-98343655D01*
X159837118Y-98343652D01*
X159753521Y-98202296D01*
X159753514Y-98202287D01*
X159637397Y-98086170D01*
X159637388Y-98086163D01*
X159496032Y-98002566D01*
X159496029Y-98002565D01*
X159338330Y-97956749D01*
X159338333Y-97956749D01*
X159335836Y-97956552D01*
X159335836Y-98941349D01*
X158835836Y-98941349D01*
X158835836Y-97956552D01*
X158833339Y-97956749D01*
X158675642Y-98002565D01*
X158675639Y-98002566D01*
X158534283Y-98086163D01*
X158534274Y-98086170D01*
X158418157Y-98202287D01*
X158418150Y-98202296D01*
X158334553Y-98343652D01*
X158334552Y-98343655D01*
X158288736Y-98501353D01*
X158288735Y-98501358D01*
X158288336Y-98506439D01*
X158263451Y-98571727D01*
X158207219Y-98613197D01*
X158137493Y-98617682D01*
X158077037Y-98584389D01*
X157954181Y-98461533D01*
X157804960Y-98369492D01*
X157804955Y-98369490D01*
X157638533Y-98314343D01*
X157638526Y-98314342D01*
X157535822Y-98303849D01*
X157285836Y-98303849D01*
X156785836Y-98303849D01*
X156535865Y-98303849D01*
X156535848Y-98303850D01*
X156433138Y-98314343D01*
X156266716Y-98369490D01*
X156266711Y-98369492D01*
X156117490Y-98461533D01*
X155993520Y-98585503D01*
X155901479Y-98734724D01*
X155901477Y-98734729D01*
X155846330Y-98901151D01*
X155846329Y-98901158D01*
X155835836Y-99003862D01*
X154035836Y-99003862D01*
X154035836Y-96033373D01*
X154055521Y-95966334D01*
X154108325Y-95920579D01*
X154177483Y-95910635D01*
X154241039Y-95939660D01*
X154265374Y-95968276D01*
X154292888Y-96012883D01*
X154292891Y-96012887D01*
X154414797Y-96134793D01*
X154414801Y-96134796D01*
X154561524Y-96225297D01*
X154561535Y-96225302D01*
X154725183Y-96279529D01*
X154826187Y-96289848D01*
X154925336Y-96289847D01*
X154925336Y-95438849D01*
X154945021Y-95371810D01*
X154997825Y-95326055D01*
X155049336Y-95314849D01*
X155301336Y-95314849D01*
X155368375Y-95334534D01*
X155414130Y-95387338D01*
X155425336Y-95438849D01*
X155425336Y-96289848D01*
X155524476Y-96289848D01*
X155524490Y-96289847D01*
X155625488Y-96279529D01*
X155722332Y-96247439D01*
X155792160Y-96245037D01*
X155852202Y-96280769D01*
X155883395Y-96343289D01*
X155885336Y-96365145D01*
X155885336Y-96531544D01*
X155919939Y-96705507D01*
X155919942Y-96705516D01*
X155987819Y-96869389D01*
X155987826Y-96869402D01*
X156086371Y-97016883D01*
X156086374Y-97016887D01*
X156211797Y-97142310D01*
X156211801Y-97142313D01*
X156359282Y-97240858D01*
X156359295Y-97240865D01*
X156440009Y-97274297D01*
X156523170Y-97308743D01*
X156523172Y-97308743D01*
X156523177Y-97308745D01*
X156697140Y-97343348D01*
X156697143Y-97343349D01*
X156697145Y-97343349D01*
X156874529Y-97343349D01*
X156874530Y-97343348D01*
X156932518Y-97331813D01*
X157048494Y-97308745D01*
X157048497Y-97308743D01*
X157048502Y-97308743D01*
X157188371Y-97250807D01*
X157212376Y-97240865D01*
X157212376Y-97240864D01*
X157212383Y-97240862D01*
X157359871Y-97142313D01*
X157485300Y-97016884D01*
X157583849Y-96869396D01*
X157651730Y-96705515D01*
X157663025Y-96648735D01*
X157684004Y-96543264D01*
X157686336Y-96531540D01*
X157686336Y-96354158D01*
X157686336Y-96354155D01*
X157686335Y-96354153D01*
X157651732Y-96180190D01*
X157651729Y-96180181D01*
X157610275Y-96080100D01*
X157608648Y-96071923D01*
X157605859Y-96067583D01*
X157600836Y-96032648D01*
X157600836Y-95956289D01*
X157620521Y-95889250D01*
X157626022Y-95881376D01*
X157673698Y-95818507D01*
X157727953Y-95680926D01*
X157738336Y-95594467D01*
X157738336Y-95035231D01*
X157727953Y-94948772D01*
X157673698Y-94811191D01*
X157661249Y-94794775D01*
X157584337Y-94693350D01*
X157531488Y-94653273D01*
X157489965Y-94597080D01*
X157485414Y-94527359D01*
X157519279Y-94466245D01*
X157541317Y-94448930D01*
X157612875Y-94404792D01*
X157734780Y-94282887D01*
X157734783Y-94282883D01*
X157825284Y-94136160D01*
X157825289Y-94136149D01*
X157879516Y-93972501D01*
X157889835Y-93871503D01*
X157889836Y-93871490D01*
X157889836Y-93834849D01*
X157026336Y-93834849D01*
X156959297Y-93815164D01*
X156913542Y-93762360D01*
X156902336Y-93710849D01*
X156902336Y-93584849D01*
X156776336Y-93584849D01*
X156709297Y-93565164D01*
X156663542Y-93512360D01*
X156652336Y-93460849D01*
X156652336Y-93334849D01*
X157152336Y-93334849D01*
X157889835Y-93334849D01*
X157889835Y-93298209D01*
X157889834Y-93298194D01*
X157879516Y-93197196D01*
X157825289Y-93033548D01*
X157825284Y-93033537D01*
X157734783Y-92886814D01*
X157734780Y-92886810D01*
X157686500Y-92838530D01*
X157653015Y-92777207D01*
X157657999Y-92707515D01*
X157686500Y-92663168D01*
X157734780Y-92614887D01*
X157734783Y-92614883D01*
X157825284Y-92468160D01*
X157825289Y-92468149D01*
X157879516Y-92304501D01*
X157889835Y-92203503D01*
X157889836Y-92203490D01*
X157889836Y-92166849D01*
X157152336Y-92166849D01*
X157152336Y-93334849D01*
X156652336Y-93334849D01*
X156652336Y-92040849D01*
X156672021Y-91973810D01*
X156724825Y-91928055D01*
X156776336Y-91916849D01*
X156902336Y-91916849D01*
X156902336Y-91790849D01*
X156922021Y-91723810D01*
X156974825Y-91678055D01*
X157026336Y-91666849D01*
X157881160Y-91666849D01*
X157948199Y-91686534D01*
X157968841Y-91703168D01*
X158435022Y-92169349D01*
X158473836Y-92191758D01*
X158522051Y-92242324D01*
X158535836Y-92299145D01*
X158535836Y-96942849D01*
X159096038Y-96942849D01*
X159146123Y-96953414D01*
X159173345Y-96965434D01*
X159198471Y-96968349D01*
X159888200Y-96968348D01*
X159888215Y-96968346D01*
X159888218Y-96968346D01*
X159913323Y-96965435D01*
X159913327Y-96965434D01*
X159940548Y-96953415D01*
X159950262Y-96951365D01*
X159955699Y-96947872D01*
X159990634Y-96942849D01*
X160029743Y-96942849D01*
X160041897Y-96943446D01*
X160218777Y-96960867D01*
X160242605Y-96965606D01*
X160406837Y-97015425D01*
X160429289Y-97024726D01*
X160580634Y-97105621D01*
X160600846Y-97119126D01*
X160733502Y-97227994D01*
X160750690Y-97245182D01*
X160859558Y-97377838D01*
X160873063Y-97398050D01*
X160953957Y-97549392D01*
X160963260Y-97571850D01*
X161013076Y-97736073D01*
X161017818Y-97759914D01*
X161035239Y-97936787D01*
X161035836Y-97948941D01*
X161035836Y-98029349D01*
X161016151Y-98096388D01*
X160963347Y-98142143D01*
X160911836Y-98153349D01*
X160781566Y-98153349D01*
X160751136Y-98156202D01*
X160751134Y-98156202D01*
X160622955Y-98201055D01*
X160622953Y-98201056D01*
X160513686Y-98281699D01*
X160433043Y-98390966D01*
X160433042Y-98390968D01*
X160388189Y-98519147D01*
X160388189Y-98519149D01*
X160385336Y-98549579D01*
X160385336Y-98791579D01*
X160367089Y-98853718D01*
X160367931Y-98854168D01*
X160365771Y-98858208D01*
X160365651Y-98858618D01*
X160365114Y-98859436D01*
X160365059Y-98859539D01*
X160312257Y-98987016D01*
X160312254Y-98987026D01*
X160285336Y-99122353D01*
X160285336Y-99122356D01*
X160285336Y-99260342D01*
X160285336Y-99260344D01*
X160285335Y-99260344D01*
X160312254Y-99395671D01*
X160312257Y-99395681D01*
X160365058Y-99523155D01*
X160367930Y-99528527D01*
X160366628Y-99529223D01*
X160385316Y-99588903D01*
X160385336Y-99591118D01*
X160385336Y-99833118D01*
X160388189Y-99863548D01*
X160388190Y-99863553D01*
X160388992Y-99865844D01*
X160389083Y-99867642D01*
X160389800Y-99870922D01*
X160389256Y-99871040D01*
X160392549Y-99935623D01*
X160357816Y-99996248D01*
X160295821Y-100028471D01*
X160260373Y-100030250D01*
X160240102Y-100028349D01*
X160004785Y-100028349D01*
X159937746Y-100008664D01*
X159891991Y-99955860D01*
X159882047Y-99886702D01*
X159882803Y-99882069D01*
X159882936Y-99881340D01*
X159885835Y-99844498D01*
X159885836Y-99844483D01*
X159885836Y-99441349D01*
X158365836Y-99441349D01*
X158365836Y-99504849D01*
X158346151Y-99571888D01*
X158293347Y-99617643D01*
X158241836Y-99628849D01*
X155835837Y-99628849D01*
X155835837Y-99753835D01*
X155846330Y-99856546D01*
X155901477Y-100022968D01*
X155901479Y-100022973D01*
X155993520Y-100172194D01*
X156117490Y-100296164D01*
X156266712Y-100388205D01*
X156288591Y-100395455D01*
X156346037Y-100435227D01*
X156372861Y-100499742D01*
X156360547Y-100568518D01*
X156319229Y-100613015D01*
X156320252Y-100614363D01*
X156192913Y-100710926D01*
X156101475Y-100831505D01*
X156045958Y-100972287D01*
X156040024Y-101021702D01*
X156035336Y-101060747D01*
X156035336Y-101796951D01*
X156040962Y-101843803D01*
X156045958Y-101885410D01*
X156101475Y-102026192D01*
X156157427Y-102099975D01*
X156182250Y-102165286D01*
X156173187Y-102222346D01*
X156169943Y-102230178D01*
X156169940Y-102230185D01*
X156135336Y-102404153D01*
X156135336Y-102581544D01*
X156169939Y-102755507D01*
X156169942Y-102755516D01*
X156217734Y-102870897D01*
X156225203Y-102940366D01*
X156193927Y-103002845D01*
X156133838Y-103038497D01*
X156103173Y-103042349D01*
X140560336Y-103042349D01*
X140493297Y-103022664D01*
X140447542Y-102969860D01*
X140436336Y-102918349D01*
X140436336Y-101382611D01*
X140436251Y-101381319D01*
X140436253Y-101219488D01*
X140399367Y-100774284D01*
X140325842Y-100333647D01*
X140216180Y-99900587D01*
X140071131Y-99478061D01*
X140071127Y-99478052D01*
X140071125Y-99478046D01*
X139891691Y-99068966D01*
X139891688Y-99068960D01*
X139679075Y-98676077D01*
X139679073Y-98676075D01*
X139679070Y-98676068D01*
X139492808Y-98390968D01*
X139434736Y-98302080D01*
X139434731Y-98302074D01*
X139160357Y-97949551D01*
X139160353Y-97949546D01*
X138857798Y-97620877D01*
X138849908Y-97613614D01*
X138529126Y-97318308D01*
X138176596Y-97043918D01*
X137802611Y-96799577D01*
X137802608Y-96799575D01*
X137802603Y-96799572D01*
X137409721Y-96586952D01*
X137409714Y-96586949D01*
X137000629Y-96407503D01*
X137000619Y-96407499D01*
X136657918Y-96289848D01*
X136578101Y-96262446D01*
X136578094Y-96262444D01*
X136578084Y-96262441D01*
X136145061Y-96152780D01*
X136145043Y-96152777D01*
X135704398Y-96079243D01*
X135259213Y-96042351D01*
X135259199Y-96042350D01*
X135099541Y-96042349D01*
X135093414Y-96042348D01*
X135093410Y-96042348D01*
X135067483Y-96042348D01*
X135041230Y-96042348D01*
X135041229Y-96042347D01*
X135030428Y-96041876D01*
X134855703Y-96026594D01*
X134834416Y-96022842D01*
X134670234Y-95978854D01*
X134649924Y-95971462D01*
X134617383Y-95956289D01*
X134495880Y-95899635D01*
X134477167Y-95888832D01*
X134337933Y-95791345D01*
X134321378Y-95777454D01*
X134201183Y-95657267D01*
X134187292Y-95640712D01*
X134106954Y-95525985D01*
X134089797Y-95501483D01*
X134078992Y-95482768D01*
X134007157Y-95328729D01*
X133999765Y-95308423D01*
X133990343Y-95273264D01*
X133955770Y-95144247D01*
X133952016Y-95122962D01*
X133950393Y-95104423D01*
X133942179Y-95010569D01*
X133936808Y-94949199D01*
X133936336Y-94938388D01*
X133936336Y-94715352D01*
X137108837Y-94715352D01*
X137119155Y-94816350D01*
X137173382Y-94979998D01*
X137173387Y-94980009D01*
X137263888Y-95126732D01*
X137263891Y-95126736D01*
X137385797Y-95248642D01*
X137385801Y-95248645D01*
X137532524Y-95339146D01*
X137532535Y-95339151D01*
X137696183Y-95393378D01*
X137797187Y-95403697D01*
X137846335Y-95403696D01*
X137846336Y-95403696D01*
X137846336Y-94678698D01*
X137108837Y-94678698D01*
X137108837Y-94715352D01*
X133936336Y-94715352D01*
X133936336Y-94142043D01*
X137108836Y-94142043D01*
X137108836Y-94178698D01*
X137846336Y-94178698D01*
X137846336Y-93400060D01*
X137866021Y-93333021D01*
X137871336Y-93326425D01*
X137871336Y-92678698D01*
X137133837Y-92678698D01*
X137133837Y-92715352D01*
X137144155Y-92816350D01*
X137198382Y-92979998D01*
X137198387Y-92980009D01*
X137288888Y-93126732D01*
X137288891Y-93126736D01*
X137410796Y-93248641D01*
X137519107Y-93315448D01*
X137565831Y-93367396D01*
X137577054Y-93436359D01*
X137549210Y-93500441D01*
X137519108Y-93526525D01*
X137385798Y-93608752D01*
X137263891Y-93730659D01*
X137263888Y-93730663D01*
X137173387Y-93877386D01*
X137173382Y-93877397D01*
X137119155Y-94041045D01*
X137108836Y-94142043D01*
X133936336Y-94142043D01*
X133936336Y-92142043D01*
X137133836Y-92142043D01*
X137133836Y-92178698D01*
X137871336Y-92178698D01*
X137871336Y-91453698D01*
X137871335Y-91453697D01*
X137822197Y-91453698D01*
X137822179Y-91453699D01*
X137721183Y-91464017D01*
X137557535Y-91518244D01*
X137557524Y-91518249D01*
X137410801Y-91608750D01*
X137410797Y-91608753D01*
X137288891Y-91730659D01*
X137288888Y-91730663D01*
X137198387Y-91877386D01*
X137198382Y-91877397D01*
X137144155Y-92041045D01*
X137133836Y-92142043D01*
X133936336Y-92142043D01*
X133936336Y-67000422D01*
X133936337Y-67000419D01*
X133936336Y-66948237D01*
X133936808Y-66937438D01*
X133952088Y-66762723D01*
X133955840Y-66741436D01*
X133968188Y-66695349D01*
X133999828Y-66577252D01*
X134007215Y-66556956D01*
X134079046Y-66402909D01*
X134089848Y-66384198D01*
X134187339Y-66244962D01*
X134201223Y-66228416D01*
X134321408Y-66108231D01*
X134337953Y-66094347D01*
X134477195Y-65996849D01*
X134495898Y-65986051D01*
X134649952Y-65914217D01*
X134670242Y-65906832D01*
X134834427Y-65862841D01*
X134855701Y-65859091D01*
X135001632Y-65846326D01*
X135030282Y-65843821D01*
X135041078Y-65843349D01*
X135087193Y-65843346D01*
X135259198Y-65843346D01*
X135259202Y-65843346D01*
X135552777Y-65819019D01*
X135704398Y-65806456D01*
X135704399Y-65806455D01*
X135704409Y-65806455D01*
X136145049Y-65732926D01*
X136578111Y-65623260D01*
X137000639Y-65478206D01*
X137409745Y-65298756D01*
X137802634Y-65086135D01*
X138176624Y-64841796D01*
X138222754Y-64805892D01*
X138529149Y-64567415D01*
X138529150Y-64567413D01*
X138529159Y-64567407D01*
X138857831Y-64264843D01*
X139160395Y-63936171D01*
X139434784Y-63583637D01*
X139679123Y-63209647D01*
X139891745Y-62816758D01*
X140071195Y-62407652D01*
X140216249Y-61985124D01*
X140325915Y-61552062D01*
X140399445Y-61111422D01*
X140400559Y-61097985D01*
X140412009Y-60959790D01*
X140436336Y-60666215D01*
X140436336Y-60442849D01*
X140436336Y-60385266D01*
X140436336Y-58967349D01*
X140456021Y-58900310D01*
X140508825Y-58854555D01*
X140560336Y-58843349D01*
X153269503Y-58843349D01*
X153336542Y-58863034D01*
G37*
%TD.AperFunction*%
%TA.AperFunction,Conductor*%
G36*
X154333724Y-94070275D02*
G01*
X154359107Y-94095276D01*
X154443335Y-94206349D01*
X154496182Y-94246424D01*
X154512027Y-94267867D01*
X154530686Y-94286908D01*
X154532470Y-94295532D01*
X154537706Y-94302617D01*
X154539442Y-94329222D01*
X154544845Y-94355328D01*
X154541683Y-94363549D01*
X154542257Y-94372338D01*
X154529336Y-94395654D01*
X154519766Y-94420541D01*
X154511304Y-94428195D01*
X154508392Y-94433452D01*
X154501241Y-94437299D01*
X154486355Y-94450766D01*
X154414798Y-94494903D01*
X154292890Y-94616811D01*
X154265374Y-94661422D01*
X154213425Y-94708146D01*
X154144463Y-94719367D01*
X154080381Y-94691523D01*
X154041526Y-94633454D01*
X154035836Y-94596324D01*
X154035836Y-94567941D01*
X154036433Y-94555787D01*
X154039233Y-94527359D01*
X154053412Y-94383392D01*
X154058151Y-94359568D01*
X154106663Y-94199644D01*
X154115961Y-94177199D01*
X154150946Y-94111746D01*
X154199907Y-94061904D01*
X154268045Y-94046443D01*
X154333724Y-94070275D01*
G37*
%TD.AperFunction*%
%TD*%
%TA.AperFunction,Conductor*%
%TO.N,+BATT*%
G36*
X176423375Y-94962534D02*
G01*
X176469130Y-95015338D01*
X176480336Y-95066849D01*
X176480336Y-96075748D01*
X176460651Y-96142787D01*
X176407847Y-96188542D01*
X176338689Y-96198486D01*
X176313003Y-96191930D01*
X176193215Y-96147252D01*
X176193208Y-96147250D01*
X176133680Y-96140849D01*
X175585836Y-96140849D01*
X175585836Y-96841849D01*
X175566151Y-96908888D01*
X175513347Y-96954643D01*
X175461836Y-96965849D01*
X175335836Y-96965849D01*
X175335836Y-97091849D01*
X175316151Y-97158888D01*
X175263347Y-97204643D01*
X175211836Y-97215849D01*
X174085836Y-97215849D01*
X174085836Y-97318849D01*
X174083285Y-97327534D01*
X174084574Y-97336496D01*
X174073595Y-97360536D01*
X174066151Y-97385888D01*
X174059310Y-97391815D01*
X174055549Y-97400052D01*
X174033314Y-97414341D01*
X174013347Y-97431643D01*
X174002832Y-97433930D01*
X173996771Y-97437826D01*
X173961836Y-97442849D01*
X173785833Y-97442849D01*
X173718794Y-97423164D01*
X173673039Y-97370360D01*
X173662475Y-97306246D01*
X173672835Y-97204835D01*
X173672836Y-97204822D01*
X173672836Y-97067349D01*
X171222837Y-97067349D01*
X171222837Y-97204835D01*
X171233330Y-97307546D01*
X171288477Y-97473968D01*
X171288479Y-97473973D01*
X171380520Y-97623194D01*
X171504490Y-97747164D01*
X171653712Y-97839205D01*
X171675591Y-97846455D01*
X171733037Y-97886227D01*
X171759861Y-97950742D01*
X171747547Y-98019518D01*
X171706229Y-98064015D01*
X171707252Y-98065363D01*
X171579913Y-98161926D01*
X171488475Y-98282505D01*
X171432958Y-98423287D01*
X171427024Y-98472702D01*
X171422336Y-98511747D01*
X171422336Y-99272951D01*
X171422543Y-99274673D01*
X171432958Y-99361410D01*
X171488475Y-99502192D01*
X171579913Y-99622771D01*
X171643318Y-99670852D01*
X171698262Y-99712517D01*
X171700741Y-99715872D01*
X171704539Y-99717607D01*
X171721330Y-99743735D01*
X171739784Y-99768708D01*
X171740699Y-99773874D01*
X171742313Y-99776385D01*
X171747336Y-99811320D01*
X171747336Y-99952800D01*
X171727651Y-100019839D01*
X171674847Y-100065594D01*
X171670790Y-100067361D01*
X171609289Y-100092835D01*
X171461801Y-100191384D01*
X171461797Y-100191387D01*
X171336374Y-100316810D01*
X171336371Y-100316814D01*
X171237826Y-100464295D01*
X171237819Y-100464308D01*
X171169942Y-100628181D01*
X171169939Y-100628190D01*
X171135336Y-100802153D01*
X171135336Y-100979544D01*
X171169939Y-101153507D01*
X171169942Y-101153516D01*
X171237819Y-101317389D01*
X171237826Y-101317402D01*
X171336371Y-101464883D01*
X171336374Y-101464887D01*
X171461797Y-101590310D01*
X171461801Y-101590313D01*
X171609282Y-101688858D01*
X171609295Y-101688865D01*
X171732199Y-101739772D01*
X171773170Y-101756743D01*
X171773172Y-101756743D01*
X171773177Y-101756745D01*
X171947140Y-101791348D01*
X171947143Y-101791349D01*
X171947145Y-101791349D01*
X172124529Y-101791349D01*
X172124530Y-101791348D01*
X172182518Y-101779813D01*
X172298494Y-101756745D01*
X172298497Y-101756743D01*
X172298502Y-101756743D01*
X172462383Y-101688862D01*
X172609871Y-101590313D01*
X172735300Y-101464884D01*
X172833849Y-101317396D01*
X172901730Y-101153515D01*
X172928633Y-101018257D01*
X172961016Y-100956352D01*
X172962437Y-100954903D01*
X172991950Y-100925392D01*
X173068611Y-100810660D01*
X173098934Y-100737453D01*
X173142773Y-100683052D01*
X173209067Y-100660986D01*
X173276766Y-100678264D01*
X173324377Y-100729401D01*
X173335111Y-100760715D01*
X173362254Y-100897171D01*
X173362257Y-100897181D01*
X173415058Y-101024655D01*
X173415059Y-101024656D01*
X173415061Y-101024660D01*
X173447140Y-101072669D01*
X173459438Y-101091074D01*
X173480316Y-101157751D01*
X173480336Y-101159965D01*
X173480336Y-102918349D01*
X173460651Y-102985388D01*
X173407847Y-103031143D01*
X173356336Y-103042349D01*
X158659836Y-103042349D01*
X158592797Y-103022664D01*
X158547042Y-102969860D01*
X158535836Y-102918349D01*
X158535836Y-102571265D01*
X158541175Y-102535270D01*
X158555422Y-102488305D01*
X158562707Y-102459221D01*
X158567449Y-102435380D01*
X158571847Y-102405728D01*
X158589268Y-102228855D01*
X158590371Y-102213898D01*
X158590968Y-102201744D01*
X158591336Y-102186756D01*
X158591336Y-101719498D01*
X159235836Y-101719498D01*
X159238735Y-101756338D01*
X159238736Y-101756344D01*
X159284552Y-101914042D01*
X159284553Y-101914045D01*
X159368150Y-102055401D01*
X159368157Y-102055410D01*
X159484274Y-102171527D01*
X159484283Y-102171534D01*
X159625637Y-102255130D01*
X159783350Y-102300949D01*
X159783347Y-102300949D01*
X159785834Y-102301144D01*
X159785836Y-102301144D01*
X160285836Y-102301144D01*
X160285837Y-102301144D01*
X160288322Y-102300949D01*
X160446034Y-102255130D01*
X160587388Y-102171534D01*
X160587397Y-102171527D01*
X160703514Y-102055410D01*
X160703521Y-102055401D01*
X160787118Y-101914045D01*
X160787119Y-101914042D01*
X160819137Y-101803835D01*
X161835837Y-101803835D01*
X161846330Y-101906546D01*
X161901477Y-102072968D01*
X161901479Y-102072973D01*
X161993520Y-102222194D01*
X162117490Y-102346164D01*
X162266711Y-102438205D01*
X162266716Y-102438207D01*
X162433138Y-102493354D01*
X162433145Y-102493355D01*
X162535855Y-102503848D01*
X162785835Y-102503848D01*
X163285836Y-102503848D01*
X163535808Y-102503848D01*
X163535822Y-102503847D01*
X163638533Y-102493354D01*
X163804955Y-102438207D01*
X163804960Y-102438205D01*
X163954181Y-102346164D01*
X164078151Y-102222194D01*
X164170192Y-102072973D01*
X164170194Y-102072968D01*
X164225341Y-101906546D01*
X164225342Y-101906539D01*
X164235835Y-101803835D01*
X164235836Y-101803822D01*
X164235836Y-101678849D01*
X163285836Y-101678849D01*
X163285836Y-102503848D01*
X162785835Y-102503848D01*
X162785836Y-102503847D01*
X162785836Y-101678849D01*
X161835837Y-101678849D01*
X161835837Y-101803835D01*
X160819137Y-101803835D01*
X160832935Y-101756344D01*
X160832936Y-101756338D01*
X160835835Y-101719498D01*
X160835836Y-101719483D01*
X160835836Y-101316349D01*
X160285836Y-101316349D01*
X160285836Y-102301144D01*
X159785836Y-102301144D01*
X159785836Y-101316349D01*
X159235836Y-101316349D01*
X159235836Y-101719498D01*
X158591336Y-101719498D01*
X158591336Y-100310348D01*
X158611021Y-100243309D01*
X158663825Y-100197554D01*
X158732983Y-100187610D01*
X158756291Y-100193307D01*
X158851135Y-100226495D01*
X158881566Y-100229349D01*
X159116887Y-100229349D01*
X159183926Y-100249034D01*
X159229681Y-100301838D01*
X159239625Y-100370996D01*
X159238869Y-100375629D01*
X159238735Y-100376357D01*
X159235836Y-100413199D01*
X159235836Y-100816349D01*
X160835836Y-100816349D01*
X160835836Y-100413214D01*
X160835835Y-100413199D01*
X160832936Y-100376357D01*
X160832803Y-100375629D01*
X160832846Y-100375217D01*
X160832439Y-100370041D01*
X160833399Y-100369965D01*
X160840122Y-100306144D01*
X160883845Y-100251646D01*
X160950091Y-100229438D01*
X160954785Y-100229349D01*
X161190106Y-100229349D01*
X161220535Y-100226495D01*
X161220537Y-100226495D01*
X161284626Y-100204068D01*
X161348718Y-100181642D01*
X161457986Y-100100999D01*
X161538629Y-99991731D01*
X161544067Y-99976191D01*
X161544520Y-99974896D01*
X161585241Y-99918119D01*
X161650194Y-99892371D01*
X161661562Y-99891849D01*
X161983821Y-99891849D01*
X162050860Y-99911534D01*
X162096615Y-99964338D01*
X162099176Y-99970361D01*
X162101474Y-99976189D01*
X162101476Y-99976193D01*
X162192913Y-100096771D01*
X162320252Y-100193335D01*
X162318864Y-100195164D01*
X162359151Y-100236467D01*
X162373152Y-100304920D01*
X162347923Y-100370075D01*
X162291472Y-100411247D01*
X162288595Y-100412240D01*
X162266718Y-100419489D01*
X162266711Y-100419492D01*
X162117490Y-100511533D01*
X161993520Y-100635503D01*
X161901479Y-100784724D01*
X161901477Y-100784729D01*
X161846330Y-100951151D01*
X161846329Y-100951158D01*
X161835836Y-101053862D01*
X161835836Y-101178849D01*
X164235835Y-101178849D01*
X164235835Y-101053877D01*
X164235834Y-101053862D01*
X164225341Y-100951151D01*
X164170194Y-100784729D01*
X164170189Y-100784720D01*
X164158573Y-100765886D01*
X164158572Y-100765885D01*
X164122174Y-100706875D01*
X165770836Y-100706875D01*
X165770836Y-100906849D01*
X166519647Y-100906849D01*
X166493763Y-100932733D01*
X166445710Y-101015964D01*
X166420836Y-101108796D01*
X166420836Y-101204902D01*
X166445710Y-101297734D01*
X166493763Y-101380965D01*
X166519647Y-101406849D01*
X165770836Y-101406849D01*
X165770836Y-101606822D01*
X165809840Y-101802906D01*
X165809842Y-101802914D01*
X165886353Y-101987629D01*
X165886358Y-101987638D01*
X165997433Y-102153873D01*
X165997436Y-102153877D01*
X166138807Y-102295248D01*
X166138811Y-102295251D01*
X166305046Y-102406326D01*
X166305059Y-102406333D01*
X166489765Y-102482840D01*
X166489772Y-102482842D01*
X166535836Y-102492004D01*
X166535836Y-101423038D01*
X166561720Y-101448922D01*
X166644951Y-101496975D01*
X166737783Y-101521849D01*
X166833889Y-101521849D01*
X166926721Y-101496975D01*
X167009952Y-101448922D01*
X167035836Y-101423038D01*
X167035836Y-102492003D01*
X167081899Y-102482842D01*
X167081906Y-102482840D01*
X167266612Y-102406333D01*
X167266625Y-102406326D01*
X167432859Y-102295252D01*
X167514735Y-102213376D01*
X167576058Y-102179891D01*
X167645750Y-102184875D01*
X167677341Y-102202253D01*
X167692717Y-102213913D01*
X167748492Y-102256209D01*
X167748493Y-102256209D01*
X167748494Y-102256210D01*
X167889272Y-102311726D01*
X167977734Y-102322349D01*
X167977739Y-102322349D01*
X168593933Y-102322349D01*
X168593938Y-102322349D01*
X168682400Y-102311726D01*
X168823178Y-102256210D01*
X168943758Y-102164771D01*
X169035197Y-102044191D01*
X169090713Y-101903413D01*
X169101336Y-101814951D01*
X169101336Y-100498747D01*
X169090713Y-100410285D01*
X169035197Y-100269507D01*
X169035196Y-100269506D01*
X169035196Y-100269505D01*
X168943758Y-100148926D01*
X168823179Y-100057488D01*
X168724175Y-100018446D01*
X168682400Y-100001972D01*
X168682399Y-100001971D01*
X168682397Y-100001971D01*
X168636762Y-99996491D01*
X168593938Y-99991349D01*
X167977734Y-99991349D01*
X167938689Y-99996037D01*
X167889274Y-100001971D01*
X167748492Y-100057488D01*
X167677342Y-100111444D01*
X167612031Y-100136267D01*
X167543667Y-100121839D01*
X167514736Y-100100321D01*
X167432864Y-100018449D01*
X167432860Y-100018446D01*
X167266625Y-99907371D01*
X167266616Y-99907366D01*
X167081901Y-99830855D01*
X167081893Y-99830853D01*
X167035836Y-99821691D01*
X167035836Y-100890660D01*
X167009952Y-100864776D01*
X166926721Y-100816723D01*
X166833889Y-100791849D01*
X166737783Y-100791849D01*
X166644951Y-100816723D01*
X166561720Y-100864776D01*
X166535836Y-100890660D01*
X166535836Y-99821692D01*
X166535835Y-99821691D01*
X166489778Y-99830853D01*
X166489770Y-99830855D01*
X166305055Y-99907366D01*
X166305046Y-99907371D01*
X166138811Y-100018446D01*
X166138807Y-100018449D01*
X165997436Y-100159820D01*
X165997433Y-100159824D01*
X165886358Y-100326059D01*
X165886353Y-100326068D01*
X165809842Y-100510783D01*
X165809840Y-100510791D01*
X165770836Y-100706875D01*
X164122174Y-100706875D01*
X164078151Y-100635503D01*
X163954181Y-100511533D01*
X163804960Y-100419492D01*
X163804957Y-100419491D01*
X163783077Y-100412241D01*
X163773837Y-100405843D01*
X163762853Y-100403475D01*
X163745626Y-100386310D01*
X163725633Y-100372468D01*
X163721319Y-100362092D01*
X163713358Y-100354160D01*
X163708145Y-100330405D01*
X163698810Y-100307952D01*
X163700790Y-100296890D01*
X163698382Y-100285914D01*
X163706838Y-100263114D01*
X163711125Y-100239176D01*
X163719403Y-100229238D01*
X163722680Y-100220405D01*
X163737922Y-100207008D01*
X163747591Y-100195403D01*
X163756042Y-100189052D01*
X163758178Y-100188210D01*
X163868830Y-100104298D01*
X163868940Y-100104217D01*
X163901478Y-100092013D01*
X163933817Y-100079722D01*
X163934300Y-100079703D01*
X163934360Y-100079681D01*
X163934438Y-100079697D01*
X163943431Y-100079349D01*
X164251810Y-100079349D01*
X164342854Y-100061238D01*
X164387142Y-100052429D01*
X164450883Y-100026026D01*
X164514621Y-99999626D01*
X164514622Y-99999625D01*
X164514625Y-99999624D01*
X164629357Y-99922963D01*
X166516250Y-98036068D01*
X166577571Y-98002585D01*
X166579562Y-98002169D01*
X166714991Y-97975232D01*
X166878872Y-97907351D01*
X167026360Y-97808802D01*
X167151789Y-97683373D01*
X167250338Y-97535885D01*
X167318219Y-97372004D01*
X167320501Y-97360536D01*
X167352824Y-97198033D01*
X167352825Y-97198031D01*
X167352825Y-97020644D01*
X167352824Y-97020642D01*
X167318221Y-96846679D01*
X167318218Y-96846670D01*
X167250341Y-96682797D01*
X167250334Y-96682784D01*
X167190344Y-96593004D01*
X174085836Y-96593004D01*
X174085836Y-96715849D01*
X175085836Y-96715849D01*
X175085836Y-96140849D01*
X174537991Y-96140849D01*
X174478463Y-96147250D01*
X174478456Y-96147252D01*
X174343749Y-96197494D01*
X174343742Y-96197498D01*
X174228648Y-96283658D01*
X174228645Y-96283661D01*
X174142485Y-96398755D01*
X174142481Y-96398762D01*
X174092239Y-96533469D01*
X174092237Y-96533476D01*
X174085836Y-96593004D01*
X167190344Y-96593004D01*
X167151789Y-96535303D01*
X167151786Y-96535299D01*
X167046349Y-96429862D01*
X171222836Y-96429862D01*
X171222836Y-96567349D01*
X172197836Y-96567349D01*
X172697836Y-96567349D01*
X173672835Y-96567349D01*
X173672835Y-96429877D01*
X173672834Y-96429862D01*
X173662341Y-96327151D01*
X173607194Y-96160729D01*
X173607192Y-96160724D01*
X173515151Y-96011503D01*
X173391181Y-95887533D01*
X173241960Y-95795492D01*
X173241955Y-95795490D01*
X173075533Y-95740343D01*
X173075526Y-95740342D01*
X172972822Y-95729849D01*
X172697836Y-95729849D01*
X172697836Y-96567349D01*
X172197836Y-96567349D01*
X172197836Y-95729849D01*
X171922865Y-95729849D01*
X171922848Y-95729850D01*
X171820138Y-95740343D01*
X171653716Y-95795490D01*
X171653711Y-95795492D01*
X171504490Y-95887533D01*
X171380520Y-96011503D01*
X171288479Y-96160724D01*
X171288477Y-96160729D01*
X171233330Y-96327151D01*
X171233329Y-96327158D01*
X171222836Y-96429862D01*
X167046349Y-96429862D01*
X167026363Y-96409876D01*
X167026359Y-96409873D01*
X166878878Y-96311328D01*
X166878865Y-96311321D01*
X166713490Y-96242822D01*
X166659086Y-96198982D01*
X166637021Y-96132688D01*
X166654300Y-96064988D01*
X166673257Y-96040584D01*
X167455950Y-95257892D01*
X167532611Y-95143160D01*
X167583876Y-95019396D01*
X167627717Y-94964993D01*
X167694011Y-94942928D01*
X167698437Y-94942849D01*
X176356336Y-94942849D01*
X176423375Y-94962534D01*
G37*
%TD.AperFunction*%
%TD*%
%TA.AperFunction,Conductor*%
%TO.N,/Charge*%
G36*
X190478875Y-94962534D02*
G01*
X190524630Y-95015338D01*
X190535836Y-95066849D01*
X190535836Y-99518852D01*
X190516151Y-99585891D01*
X190463347Y-99631646D01*
X190394189Y-99641590D01*
X190330633Y-99612565D01*
X190324155Y-99606533D01*
X190252438Y-99534816D01*
X190112360Y-99433044D01*
X189958093Y-99354440D01*
X189793425Y-99300936D01*
X189793417Y-99300934D01*
X189785836Y-99299733D01*
X189785836Y-100368519D01*
X189766091Y-100348774D01*
X189680581Y-100299405D01*
X189585206Y-100273849D01*
X189486466Y-100273849D01*
X189391091Y-100299405D01*
X189305581Y-100348774D01*
X189285836Y-100368519D01*
X189285836Y-99299733D01*
X189285835Y-99299733D01*
X189278254Y-99300934D01*
X189278246Y-99300936D01*
X189113578Y-99354440D01*
X188959311Y-99433044D01*
X188819233Y-99534816D01*
X188696803Y-99657246D01*
X188595031Y-99797324D01*
X188516427Y-99951591D01*
X188462921Y-100116264D01*
X188435836Y-100287277D01*
X188435836Y-100398849D01*
X189255506Y-100398849D01*
X189235761Y-100418594D01*
X189186392Y-100504104D01*
X189160836Y-100599479D01*
X189160836Y-100698219D01*
X189186392Y-100793594D01*
X189235761Y-100879104D01*
X189255506Y-100898849D01*
X188435836Y-100898849D01*
X188435836Y-101010420D01*
X188462921Y-101181433D01*
X188516427Y-101346106D01*
X188595031Y-101500373D01*
X188696803Y-101640451D01*
X188819233Y-101762881D01*
X188959311Y-101864653D01*
X189113580Y-101943257D01*
X189278251Y-101996763D01*
X189278250Y-101996763D01*
X189285835Y-101997964D01*
X189285836Y-101997963D01*
X189285836Y-100929179D01*
X189305581Y-100948924D01*
X189391091Y-100998293D01*
X189486466Y-101023849D01*
X189585206Y-101023849D01*
X189680581Y-100998293D01*
X189766091Y-100948924D01*
X189785836Y-100929179D01*
X189785836Y-101997964D01*
X189793420Y-101996763D01*
X189958091Y-101943257D01*
X190112360Y-101864653D01*
X190252438Y-101762881D01*
X190324155Y-101691165D01*
X190385478Y-101657680D01*
X190455170Y-101662664D01*
X190511103Y-101704536D01*
X190535520Y-101770000D01*
X190535836Y-101778846D01*
X190535836Y-102918349D01*
X190516151Y-102985388D01*
X190463347Y-103031143D01*
X190411836Y-103042349D01*
X173909836Y-103042349D01*
X173842797Y-103022664D01*
X173797042Y-102969860D01*
X173785836Y-102918349D01*
X173785836Y-101148693D01*
X174085836Y-101148693D01*
X174092237Y-101208221D01*
X174092239Y-101208228D01*
X174142481Y-101342935D01*
X174142485Y-101342942D01*
X174228645Y-101458036D01*
X174228648Y-101458039D01*
X174343742Y-101544199D01*
X174343749Y-101544203D01*
X174478456Y-101594445D01*
X174478463Y-101594447D01*
X174537991Y-101600848D01*
X174538008Y-101600849D01*
X175085836Y-101600849D01*
X175085836Y-101025849D01*
X174085836Y-101025849D01*
X174085836Y-101148693D01*
X173785836Y-101148693D01*
X173785836Y-100328937D01*
X173805521Y-100261898D01*
X173858325Y-100216143D01*
X173927483Y-100206199D01*
X173934024Y-100207319D01*
X173938081Y-100208126D01*
X173950050Y-100210508D01*
X173968488Y-100210508D01*
X174035527Y-100230193D01*
X174081282Y-100282997D01*
X174091777Y-100347765D01*
X174085836Y-100403007D01*
X174085836Y-100525849D01*
X175211836Y-100525849D01*
X175278875Y-100545534D01*
X175324630Y-100598338D01*
X175335836Y-100649849D01*
X175335836Y-100775849D01*
X175461836Y-100775849D01*
X175528875Y-100795534D01*
X175574630Y-100848338D01*
X175585836Y-100899849D01*
X175585836Y-101600849D01*
X176133664Y-101600849D01*
X176133680Y-101600848D01*
X176193208Y-101594447D01*
X176193215Y-101594445D01*
X176327922Y-101544203D01*
X176327929Y-101544199D01*
X176443023Y-101458039D01*
X176443026Y-101458036D01*
X176529186Y-101342942D01*
X176529190Y-101342935D01*
X176574791Y-101220672D01*
X176616662Y-101164739D01*
X176682126Y-101140321D01*
X176750399Y-101155172D01*
X176778654Y-101176324D01*
X176839290Y-101236960D01*
X176839294Y-101236963D01*
X176954018Y-101313620D01*
X176954031Y-101313627D01*
X177049220Y-101353055D01*
X177081508Y-101366429D01*
X177081512Y-101366429D01*
X177081513Y-101366430D01*
X177216840Y-101393349D01*
X177216843Y-101393349D01*
X177354831Y-101393349D01*
X177445877Y-101375238D01*
X177490164Y-101366429D01*
X177617647Y-101313624D01*
X177732378Y-101236963D01*
X177829950Y-101139391D01*
X177884738Y-101057395D01*
X177905410Y-101026458D01*
X177911500Y-101021367D01*
X177914799Y-101014145D01*
X177937929Y-100999280D01*
X177959022Y-100981652D01*
X177968396Y-100979700D01*
X177973577Y-100976371D01*
X178008512Y-100971348D01*
X178063160Y-100971348D01*
X178130199Y-100991033D01*
X178166262Y-101026458D01*
X178241718Y-101139386D01*
X178241724Y-101139394D01*
X178339290Y-101236960D01*
X178339294Y-101236963D01*
X178454018Y-101313620D01*
X178454031Y-101313627D01*
X178549220Y-101353055D01*
X178581508Y-101366429D01*
X178581512Y-101366429D01*
X178581513Y-101366430D01*
X178716840Y-101393349D01*
X178716843Y-101393349D01*
X178854831Y-101393349D01*
X178945877Y-101375238D01*
X178990164Y-101366429D01*
X179117647Y-101313624D01*
X179232378Y-101236963D01*
X179329950Y-101139391D01*
X179406611Y-101024660D01*
X179406615Y-101024648D01*
X179409481Y-101019289D01*
X179411520Y-101020379D01*
X179423457Y-101005551D01*
X179439626Y-100981077D01*
X179446742Y-100976629D01*
X179448872Y-100973984D01*
X179469542Y-100962378D01*
X179511254Y-100943960D01*
X179580528Y-100934890D01*
X179643713Y-100964714D01*
X179680744Y-101023963D01*
X179685336Y-101057395D01*
X179685336Y-101145704D01*
X179685338Y-101145731D01*
X179688249Y-101170836D01*
X179688251Y-101170840D01*
X179733629Y-101273613D01*
X179733630Y-101273614D01*
X179813071Y-101353055D01*
X179915845Y-101398434D01*
X179940971Y-101401349D01*
X180814651Y-101401348D01*
X180881690Y-101421032D01*
X180927445Y-101473836D01*
X180929212Y-101477896D01*
X180987819Y-101619389D01*
X180987826Y-101619402D01*
X181086371Y-101766883D01*
X181086374Y-101766887D01*
X181211797Y-101892310D01*
X181211801Y-101892313D01*
X181359282Y-101990858D01*
X181359295Y-101990865D01*
X181482199Y-102041772D01*
X181523170Y-102058743D01*
X181523172Y-102058743D01*
X181523177Y-102058745D01*
X181697140Y-102093348D01*
X181697143Y-102093349D01*
X181697145Y-102093349D01*
X181874529Y-102093349D01*
X181874530Y-102093348D01*
X181932518Y-102081813D01*
X182048494Y-102058745D01*
X182048497Y-102058743D01*
X182048502Y-102058743D01*
X182195237Y-101997964D01*
X182212376Y-101990865D01*
X182212376Y-101990864D01*
X182212383Y-101990862D01*
X182359871Y-101892313D01*
X182485300Y-101766884D01*
X182556181Y-101660804D01*
X182609793Y-101615998D01*
X182679118Y-101607291D01*
X182704773Y-101614340D01*
X182840753Y-101667964D01*
X182840755Y-101667964D01*
X182840759Y-101667966D01*
X182898398Y-101674888D01*
X182927217Y-101678349D01*
X182927218Y-101678349D01*
X183511455Y-101678349D01*
X183533068Y-101675753D01*
X183597913Y-101667966D01*
X183735494Y-101613711D01*
X183853336Y-101524349D01*
X183942698Y-101406507D01*
X183996953Y-101268926D01*
X184007336Y-101182467D01*
X184007336Y-100623231D01*
X184007336Y-100623230D01*
X184256336Y-100623230D01*
X184256336Y-101182467D01*
X184266718Y-101268923D01*
X184266718Y-101268924D01*
X184266719Y-101268926D01*
X184317790Y-101398434D01*
X184320975Y-101406509D01*
X184410335Y-101524349D01*
X184519712Y-101607291D01*
X184528178Y-101613711D01*
X184665759Y-101667966D01*
X184723398Y-101674888D01*
X184752217Y-101678349D01*
X184752218Y-101678349D01*
X185228117Y-101678349D01*
X185295156Y-101698034D01*
X185296957Y-101699213D01*
X185359289Y-101740862D01*
X185523170Y-101808743D01*
X185523172Y-101808743D01*
X185523177Y-101808745D01*
X185697140Y-101843348D01*
X185697143Y-101843349D01*
X185697145Y-101843349D01*
X185874529Y-101843349D01*
X185874530Y-101843348D01*
X185932518Y-101831813D01*
X186048494Y-101808745D01*
X186048497Y-101808743D01*
X186048502Y-101808743D01*
X186212383Y-101740862D01*
X186359871Y-101642313D01*
X186485300Y-101516884D01*
X186583849Y-101369396D01*
X186651730Y-101205515D01*
X186656521Y-101181433D01*
X186686335Y-101031544D01*
X186686336Y-101031542D01*
X186686336Y-100854155D01*
X186686335Y-100854153D01*
X186651732Y-100680190D01*
X186651729Y-100680181D01*
X186583852Y-100516308D01*
X186583845Y-100516295D01*
X186485300Y-100368814D01*
X186485297Y-100368810D01*
X186359874Y-100243387D01*
X186359870Y-100243384D01*
X186212389Y-100144839D01*
X186212376Y-100144832D01*
X186048503Y-100076955D01*
X186048494Y-100076952D01*
X185874530Y-100042349D01*
X185874527Y-100042349D01*
X185697145Y-100042349D01*
X185697142Y-100042349D01*
X185523177Y-100076952D01*
X185523173Y-100076954D01*
X185523171Y-100076954D01*
X185523170Y-100076955D01*
X185447191Y-100108426D01*
X185416882Y-100120980D01*
X185354649Y-100129534D01*
X185336454Y-100127349D01*
X184752218Y-100127349D01*
X184752217Y-100127349D01*
X184665761Y-100137731D01*
X184665760Y-100137731D01*
X184528175Y-100191988D01*
X184410335Y-100281348D01*
X184320975Y-100399188D01*
X184266718Y-100536773D01*
X184266718Y-100536774D01*
X184256336Y-100623230D01*
X184007336Y-100623230D01*
X183996953Y-100536772D01*
X183942698Y-100399191D01*
X183942439Y-100398849D01*
X183853336Y-100281348D01*
X183735496Y-100191988D01*
X183735494Y-100191987D01*
X183597913Y-100137732D01*
X183597912Y-100137731D01*
X183597910Y-100137731D01*
X183511455Y-100127349D01*
X183511454Y-100127349D01*
X183203012Y-100127349D01*
X183173571Y-100118704D01*
X183143585Y-100112181D01*
X183138569Y-100108426D01*
X183135973Y-100107664D01*
X183115331Y-100091030D01*
X183016331Y-99992030D01*
X182982846Y-99930707D01*
X182987830Y-99861015D01*
X183029702Y-99805082D01*
X183095166Y-99780665D01*
X183104012Y-99780349D01*
X184141931Y-99780349D01*
X184141938Y-99780349D01*
X184158291Y-99778384D01*
X184220526Y-99786937D01*
X184273170Y-99808743D01*
X184439453Y-99841819D01*
X184447140Y-99843348D01*
X184447143Y-99843349D01*
X184447145Y-99843349D01*
X184624529Y-99843349D01*
X184624530Y-99843348D01*
X184682518Y-99831813D01*
X184798494Y-99808745D01*
X184798497Y-99808743D01*
X184798502Y-99808743D01*
X184962383Y-99740862D01*
X185109871Y-99642313D01*
X185235300Y-99516884D01*
X185333849Y-99369396D01*
X185401730Y-99205515D01*
X185407463Y-99176697D01*
X185436335Y-99031544D01*
X185436336Y-99031542D01*
X185436336Y-98854155D01*
X185436335Y-98854153D01*
X185401732Y-98680190D01*
X185401729Y-98680181D01*
X185333852Y-98516308D01*
X185333845Y-98516295D01*
X185235300Y-98368814D01*
X185235297Y-98368810D01*
X185109874Y-98243387D01*
X185109870Y-98243384D01*
X184962389Y-98144839D01*
X184962376Y-98144832D01*
X184798503Y-98076955D01*
X184798494Y-98076952D01*
X184624530Y-98042349D01*
X184624527Y-98042349D01*
X184525850Y-98042349D01*
X184458811Y-98022664D01*
X184413056Y-97969860D01*
X184403112Y-97900702D01*
X184432137Y-97837146D01*
X184460753Y-97812810D01*
X184567181Y-97747164D01*
X184691151Y-97623194D01*
X184783192Y-97473973D01*
X184783194Y-97473968D01*
X184838341Y-97307546D01*
X184838342Y-97307539D01*
X184848835Y-97204835D01*
X184848836Y-97204822D01*
X184848836Y-97067349D01*
X182398837Y-97067349D01*
X182398837Y-97204820D01*
X182398838Y-97204840D01*
X182406558Y-97280420D01*
X182393788Y-97349112D01*
X182345906Y-97399996D01*
X182278116Y-97416916D01*
X182234033Y-97406856D01*
X182223680Y-97402384D01*
X182212383Y-97394836D01*
X182061555Y-97332361D01*
X182060669Y-97331979D01*
X182034470Y-97310210D01*
X182007980Y-97288863D01*
X182007674Y-97287945D01*
X182006930Y-97287327D01*
X181996666Y-97254870D01*
X181985915Y-97222569D01*
X181985882Y-97220772D01*
X181985863Y-97220709D01*
X181985880Y-97220643D01*
X181985836Y-97218143D01*
X181985836Y-97215849D01*
X180859836Y-97215849D01*
X180792797Y-97196164D01*
X180747042Y-97143360D01*
X180735836Y-97091849D01*
X180735836Y-96965849D01*
X180609836Y-96965849D01*
X180542797Y-96946164D01*
X180497042Y-96893360D01*
X180485836Y-96841849D01*
X180485836Y-96715849D01*
X180985836Y-96715849D01*
X181985836Y-96715849D01*
X181985836Y-96593021D01*
X181985835Y-96593004D01*
X181979434Y-96533476D01*
X181979433Y-96533472D01*
X181955777Y-96470047D01*
X181955776Y-96470045D01*
X181940789Y-96429862D01*
X182398836Y-96429862D01*
X182398836Y-96567349D01*
X183373836Y-96567349D01*
X183873836Y-96567349D01*
X184848835Y-96567349D01*
X184848835Y-96429877D01*
X184848834Y-96429862D01*
X184838341Y-96327151D01*
X184783194Y-96160729D01*
X184783192Y-96160724D01*
X184691151Y-96011503D01*
X184567181Y-95887533D01*
X184417960Y-95795492D01*
X184417955Y-95795490D01*
X184251533Y-95740343D01*
X184251526Y-95740342D01*
X184148822Y-95729849D01*
X183873836Y-95729849D01*
X183873836Y-96567349D01*
X183373836Y-96567349D01*
X183373836Y-95729849D01*
X183098865Y-95729849D01*
X183098848Y-95729850D01*
X182996138Y-95740343D01*
X182829716Y-95795490D01*
X182829711Y-95795492D01*
X182680490Y-95887533D01*
X182556520Y-96011503D01*
X182464479Y-96160724D01*
X182464477Y-96160729D01*
X182409330Y-96327151D01*
X182409329Y-96327158D01*
X182398836Y-96429862D01*
X181940789Y-96429862D01*
X181929190Y-96398762D01*
X181929186Y-96398755D01*
X181843026Y-96283661D01*
X181843023Y-96283658D01*
X181727929Y-96197498D01*
X181727922Y-96197494D01*
X181593215Y-96147252D01*
X181593208Y-96147250D01*
X181533680Y-96140849D01*
X180985836Y-96140849D01*
X180985836Y-96715849D01*
X180485836Y-96715849D01*
X180485836Y-96140849D01*
X179937991Y-96140849D01*
X179878463Y-96147250D01*
X179878456Y-96147252D01*
X179743749Y-96197494D01*
X179743742Y-96197498D01*
X179628648Y-96283658D01*
X179628645Y-96283661D01*
X179542485Y-96398755D01*
X179542481Y-96398763D01*
X179525674Y-96443823D01*
X179483802Y-96499755D01*
X179418337Y-96524171D01*
X179350064Y-96509318D01*
X179321812Y-96488168D01*
X179232381Y-96398737D01*
X179232377Y-96398734D01*
X179117653Y-96322077D01*
X179117640Y-96322070D01*
X178990168Y-96269270D01*
X178990158Y-96269267D01*
X178854831Y-96242349D01*
X178854829Y-96242349D01*
X178716843Y-96242349D01*
X178716841Y-96242349D01*
X178581513Y-96269267D01*
X178581503Y-96269270D01*
X178454031Y-96322070D01*
X178454018Y-96322077D01*
X178339294Y-96398734D01*
X178339290Y-96398737D01*
X178241724Y-96496303D01*
X178241721Y-96496307D01*
X178165064Y-96611031D01*
X178165059Y-96611041D01*
X178150397Y-96646439D01*
X178106556Y-96700843D01*
X178040261Y-96722907D01*
X177972562Y-96705627D01*
X177924952Y-96654490D01*
X177921275Y-96646439D01*
X177906612Y-96611041D01*
X177906611Y-96611038D01*
X177906609Y-96611035D01*
X177906607Y-96611031D01*
X177829950Y-96496307D01*
X177829947Y-96496303D01*
X177732381Y-96398737D01*
X177732377Y-96398734D01*
X177617653Y-96322077D01*
X177617640Y-96322070D01*
X177490168Y-96269270D01*
X177490158Y-96269267D01*
X177354831Y-96242349D01*
X177354829Y-96242349D01*
X177216843Y-96242349D01*
X177216841Y-96242349D01*
X177081513Y-96269267D01*
X177081503Y-96269270D01*
X176957288Y-96320721D01*
X176887818Y-96328190D01*
X176825339Y-96296914D01*
X176789687Y-96236825D01*
X176785836Y-96206160D01*
X176785836Y-95066849D01*
X176805521Y-94999810D01*
X176858325Y-94954055D01*
X176909836Y-94942849D01*
X190411836Y-94942849D01*
X190478875Y-94962534D01*
G37*
%TD.AperFunction*%
%TD*%
%TA.AperFunction,Conductor*%
%TO.N,GNDD*%
G36*
X164610383Y-78795218D02*
G01*
X164631025Y-78811852D01*
X165771480Y-79952307D01*
X165804965Y-80013630D01*
X165801730Y-80078305D01*
X165789665Y-80115436D01*
X165761336Y-80294297D01*
X165761336Y-80475400D01*
X165789665Y-80654259D01*
X165845623Y-80826485D01*
X165845624Y-80826488D01*
X165927842Y-80987846D01*
X166034277Y-81134343D01*
X166034281Y-81134348D01*
X166162336Y-81262403D01*
X166162341Y-81262407D01*
X166264378Y-81336540D01*
X166308842Y-81368845D01*
X166396488Y-81413503D01*
X166440520Y-81435939D01*
X166491316Y-81483914D01*
X166508111Y-81551735D01*
X166485573Y-81617870D01*
X166430858Y-81661321D01*
X166422544Y-81664355D01*
X166393617Y-81673754D01*
X166204275Y-81770229D01*
X166150118Y-81809576D01*
X166150118Y-81809577D01*
X166782427Y-82441886D01*
X166718843Y-82458924D01*
X166604829Y-82524750D01*
X166511737Y-82617842D01*
X166445911Y-82731856D01*
X166428873Y-82795440D01*
X165796564Y-82163131D01*
X165796563Y-82163131D01*
X165757216Y-82217288D01*
X165660740Y-82406631D01*
X165595078Y-82608718D01*
X165595078Y-82608721D01*
X165561836Y-82818602D01*
X165561836Y-83031095D01*
X165595078Y-83240976D01*
X165595078Y-83240979D01*
X165660740Y-83443066D01*
X165757211Y-83632399D01*
X165796564Y-83686565D01*
X166428873Y-83054257D01*
X166445911Y-83117842D01*
X166511737Y-83231856D01*
X166604829Y-83324948D01*
X166718843Y-83390774D01*
X166782425Y-83407811D01*
X166150118Y-84040118D01*
X166150118Y-84040119D01*
X166204285Y-84079473D01*
X166393616Y-84175943D01*
X166422541Y-84185341D01*
X166480217Y-84224778D01*
X166507416Y-84289136D01*
X166495503Y-84357983D01*
X166448260Y-84409459D01*
X166440521Y-84413757D01*
X166308840Y-84480853D01*
X166162341Y-84587290D01*
X166162336Y-84587294D01*
X166034281Y-84715349D01*
X166034277Y-84715354D01*
X165927842Y-84861851D01*
X165845624Y-85023209D01*
X165845623Y-85023212D01*
X165789665Y-85195438D01*
X165761336Y-85374297D01*
X165761336Y-85555400D01*
X165789665Y-85734259D01*
X165845623Y-85906485D01*
X165845624Y-85906488D01*
X165927842Y-86067846D01*
X166034277Y-86214343D01*
X166034281Y-86214348D01*
X166162336Y-86342403D01*
X166162341Y-86342407D01*
X166222391Y-86386035D01*
X166308842Y-86448845D01*
X166409559Y-86500163D01*
X166470196Y-86531060D01*
X166470199Y-86531061D01*
X166555961Y-86558926D01*
X166642427Y-86587020D01*
X166718617Y-86599087D01*
X166774104Y-86607876D01*
X166837239Y-86637805D01*
X166874170Y-86697117D01*
X166873172Y-86766979D01*
X166834562Y-86825212D01*
X166770598Y-86853326D01*
X166754706Y-86854349D01*
X166016979Y-86854349D01*
X166016953Y-86854351D01*
X165991848Y-86857262D01*
X165991844Y-86857264D01*
X165889071Y-86902642D01*
X165809630Y-86982083D01*
X165764251Y-87084855D01*
X165764251Y-87084857D01*
X165761336Y-87109980D01*
X165761336Y-88899705D01*
X165761338Y-88899731D01*
X165764249Y-88924836D01*
X165764251Y-88924840D01*
X165809629Y-89027613D01*
X165809630Y-89027614D01*
X165889071Y-89107055D01*
X165991845Y-89152434D01*
X166016971Y-89155349D01*
X166087336Y-89155348D01*
X166154374Y-89175032D01*
X166200130Y-89227835D01*
X166211336Y-89279348D01*
X166211336Y-94469830D01*
X166191651Y-94536869D01*
X166175017Y-94557511D01*
X164365017Y-96367511D01*
X164303694Y-96400996D01*
X164234002Y-96396012D01*
X164178069Y-96354140D01*
X164153652Y-96288676D01*
X164153336Y-96279830D01*
X164153336Y-96142849D01*
X159667336Y-96142849D01*
X159600297Y-96123164D01*
X159554542Y-96070360D01*
X159543336Y-96018849D01*
X159543336Y-95892849D01*
X159417336Y-95892849D01*
X159350297Y-95873164D01*
X159304542Y-95820360D01*
X159293336Y-95768849D01*
X159293336Y-95642849D01*
X159793336Y-95642849D01*
X160563336Y-95642849D01*
X161063336Y-95642849D01*
X161833336Y-95642849D01*
X162333336Y-95642849D01*
X163103336Y-95642849D01*
X163603336Y-95642849D01*
X164153336Y-95642849D01*
X164153336Y-95070021D01*
X164153335Y-95070004D01*
X164146934Y-95010476D01*
X164146932Y-95010469D01*
X164096690Y-94875762D01*
X164096686Y-94875755D01*
X164010526Y-94760661D01*
X164010523Y-94760658D01*
X163895429Y-94674498D01*
X163895422Y-94674494D01*
X163760715Y-94624252D01*
X163760708Y-94624250D01*
X163701180Y-94617849D01*
X163603336Y-94617849D01*
X163603336Y-95642849D01*
X163103336Y-95642849D01*
X163103336Y-94617849D01*
X163005491Y-94617849D01*
X162945963Y-94624250D01*
X162945956Y-94624252D01*
X162811249Y-94674494D01*
X162811248Y-94674495D01*
X162792645Y-94688421D01*
X162727180Y-94712836D01*
X162658907Y-94697983D01*
X162644027Y-94688421D01*
X162625423Y-94674495D01*
X162625422Y-94674494D01*
X162490715Y-94624252D01*
X162490708Y-94624250D01*
X162431180Y-94617849D01*
X162333336Y-94617849D01*
X162333336Y-95642849D01*
X161833336Y-95642849D01*
X161833336Y-94617849D01*
X161735491Y-94617849D01*
X161675963Y-94624250D01*
X161675956Y-94624252D01*
X161541249Y-94674494D01*
X161541248Y-94674495D01*
X161522645Y-94688421D01*
X161457180Y-94712836D01*
X161388907Y-94697983D01*
X161374027Y-94688421D01*
X161355423Y-94674495D01*
X161355422Y-94674494D01*
X161220715Y-94624252D01*
X161220708Y-94624250D01*
X161161180Y-94617849D01*
X161063336Y-94617849D01*
X161063336Y-95642849D01*
X160563336Y-95642849D01*
X160563336Y-94617849D01*
X160465491Y-94617849D01*
X160405963Y-94624250D01*
X160405956Y-94624252D01*
X160271249Y-94674494D01*
X160271248Y-94674495D01*
X160252645Y-94688421D01*
X160187180Y-94712836D01*
X160118907Y-94697983D01*
X160104027Y-94688421D01*
X160085423Y-94674495D01*
X160085422Y-94674494D01*
X159950715Y-94624252D01*
X159950708Y-94624250D01*
X159891180Y-94617849D01*
X159793336Y-94617849D01*
X159793336Y-95642849D01*
X159293336Y-95642849D01*
X159293336Y-94617849D01*
X159195491Y-94617849D01*
X159135963Y-94624250D01*
X159135956Y-94624252D01*
X159008669Y-94671727D01*
X158938977Y-94676711D01*
X158877654Y-94643226D01*
X158844170Y-94581902D01*
X158841336Y-94555545D01*
X158841336Y-92393349D01*
X158861021Y-92326310D01*
X158913825Y-92280555D01*
X158965336Y-92269349D01*
X161525726Y-92269349D01*
X161525728Y-92269349D01*
X161653022Y-92235241D01*
X161767150Y-92169349D01*
X162331831Y-91604666D01*
X162352170Y-91593560D01*
X162369946Y-91578685D01*
X162385263Y-91575490D01*
X162393154Y-91571182D01*
X162403976Y-91569325D01*
X162411712Y-91568348D01*
X162428200Y-91568348D01*
X162453327Y-91565434D01*
X162460753Y-91562154D01*
X162478007Y-91559976D01*
X162504257Y-91564211D01*
X162530839Y-91564741D01*
X162538213Y-91569690D01*
X162546985Y-91571106D01*
X162566780Y-91588863D01*
X162588854Y-91603678D01*
X162594056Y-91613330D01*
X162598995Y-91617761D01*
X162601654Y-91627428D01*
X162609385Y-91641773D01*
X162609925Y-91641550D01*
X162612118Y-91646844D01*
X162612204Y-91647004D01*
X162612258Y-91647183D01*
X162665057Y-91774653D01*
X162665064Y-91774666D01*
X162741721Y-91889390D01*
X162741724Y-91889394D01*
X162839290Y-91986960D01*
X162839294Y-91986963D01*
X162954018Y-92063620D01*
X162954031Y-92063627D01*
X163081503Y-92116427D01*
X163081508Y-92116429D01*
X163081512Y-92116429D01*
X163081513Y-92116430D01*
X163216840Y-92143349D01*
X163216843Y-92143349D01*
X163354831Y-92143349D01*
X163445877Y-92125238D01*
X163490164Y-92116429D01*
X163617647Y-92063624D01*
X163732378Y-91986963D01*
X163829950Y-91889391D01*
X163906611Y-91774660D01*
X163914477Y-91755671D01*
X163919754Y-91742929D01*
X163959416Y-91647177D01*
X163970081Y-91593560D01*
X163986336Y-91511844D01*
X163986336Y-91373853D01*
X163986335Y-91373851D01*
X163959416Y-91238520D01*
X163959175Y-91237724D01*
X163958930Y-91236079D01*
X163958228Y-91232545D01*
X163958401Y-91232510D01*
X163953835Y-91201728D01*
X163953835Y-89672992D01*
X163953835Y-89672985D01*
X163953833Y-89672966D01*
X163950922Y-89647861D01*
X163950921Y-89647859D01*
X163950921Y-89647858D01*
X163905542Y-89545084D01*
X163826101Y-89465643D01*
X163802597Y-89455265D01*
X163723328Y-89420264D01*
X163698201Y-89417349D01*
X163008479Y-89417349D01*
X163008453Y-89417351D01*
X162983348Y-89420262D01*
X162983344Y-89420264D01*
X162880571Y-89465642D01*
X162880570Y-89465643D01*
X162806017Y-89540197D01*
X162744694Y-89573682D01*
X162675002Y-89568698D01*
X162630655Y-89540197D01*
X162556101Y-89465643D01*
X162453328Y-89420264D01*
X162428201Y-89417349D01*
X161738479Y-89417349D01*
X161738453Y-89417351D01*
X161713349Y-89420262D01*
X161693767Y-89428908D01*
X161654618Y-89446194D01*
X161624932Y-89450081D01*
X161595690Y-89456443D01*
X161590663Y-89454568D01*
X161585341Y-89455265D01*
X161558267Y-89442485D01*
X161530225Y-89432027D01*
X161524963Y-89426765D01*
X161522157Y-89425441D01*
X161505268Y-89407071D01*
X161469661Y-89359507D01*
X161445243Y-89294043D01*
X161460094Y-89225770D01*
X161509499Y-89176364D01*
X161556326Y-89161837D01*
X161598487Y-89157530D01*
X161762136Y-89103302D01*
X161762147Y-89103297D01*
X161908870Y-89012796D01*
X161908874Y-89012793D01*
X162030780Y-88890887D01*
X162030783Y-88890883D01*
X162121284Y-88744160D01*
X162121289Y-88744149D01*
X162175516Y-88580501D01*
X162185835Y-88479503D01*
X162185836Y-88479490D01*
X162185836Y-88442849D01*
X161272336Y-88442849D01*
X161205297Y-88423164D01*
X161159542Y-88370360D01*
X161148336Y-88318849D01*
X161148336Y-88192849D01*
X161022336Y-88192849D01*
X161013650Y-88190298D01*
X161004689Y-88191587D01*
X160980648Y-88180608D01*
X160955297Y-88173164D01*
X160949369Y-88166323D01*
X160941133Y-88162562D01*
X160926843Y-88140327D01*
X160909542Y-88120360D01*
X160907254Y-88109845D01*
X160903359Y-88103784D01*
X160898336Y-88068849D01*
X160898336Y-87841860D01*
X160918021Y-87774821D01*
X160970825Y-87729066D01*
X161022336Y-87717860D01*
X161274336Y-87717860D01*
X161341375Y-87737545D01*
X161387130Y-87790349D01*
X161398336Y-87841860D01*
X161398336Y-87942849D01*
X162185835Y-87942849D01*
X162185835Y-87906209D01*
X162185834Y-87906194D01*
X162175516Y-87805196D01*
X162121289Y-87641548D01*
X162118235Y-87634998D01*
X162121134Y-87633646D01*
X162106499Y-87579939D01*
X162127490Y-87513297D01*
X162142784Y-87494692D01*
X162587336Y-87050141D01*
X162653228Y-86936013D01*
X162687336Y-86808719D01*
X162687336Y-86676935D01*
X162687336Y-81927657D01*
X162653228Y-81800363D01*
X162587336Y-81686235D01*
X162494150Y-81593049D01*
X159907005Y-79005904D01*
X159907002Y-79005902D01*
X159900556Y-79000956D01*
X159901680Y-78999491D01*
X159860548Y-78956350D01*
X159847327Y-78887743D01*
X159873296Y-78822879D01*
X159930211Y-78782352D01*
X159970765Y-78775533D01*
X164543344Y-78775533D01*
X164610383Y-78795218D01*
G37*
%TD.AperFunction*%
%TA.AperFunction,Conductor*%
G36*
X160037251Y-80567624D02*
G01*
X160081598Y-80596125D01*
X161650017Y-82164544D01*
X161683502Y-82225867D01*
X161686336Y-82252225D01*
X161686336Y-85099829D01*
X161666651Y-85166868D01*
X161613847Y-85212623D01*
X161549733Y-85223187D01*
X161497490Y-85217849D01*
X161398336Y-85217849D01*
X161398336Y-86592860D01*
X161378651Y-86659899D01*
X161325847Y-86705654D01*
X161274336Y-86716860D01*
X161022336Y-86716860D01*
X160955297Y-86697175D01*
X160909542Y-86644371D01*
X160898336Y-86592860D01*
X160898336Y-85217848D01*
X160799196Y-85217849D01*
X160799180Y-85217850D01*
X160698183Y-85228168D01*
X160534535Y-85282395D01*
X160534524Y-85282400D01*
X160387801Y-85372901D01*
X160387797Y-85372904D01*
X160265891Y-85494810D01*
X160265886Y-85494816D01*
X160254870Y-85512676D01*
X160244285Y-85522195D01*
X160237536Y-85534734D01*
X160218822Y-85545097D01*
X160202921Y-85559399D01*
X160188868Y-85561685D01*
X160176413Y-85568583D01*
X160155069Y-85567184D01*
X160133958Y-85570619D01*
X160119550Y-85564856D01*
X160106693Y-85564014D01*
X160077289Y-85547953D01*
X160075616Y-85547284D01*
X160075032Y-85546852D01*
X159989494Y-85481987D01*
X159984788Y-85480131D01*
X159974118Y-85472242D01*
X159957493Y-85450307D01*
X159938276Y-85430608D01*
X159936183Y-85422190D01*
X159931914Y-85416558D01*
X159930614Y-85399797D01*
X159923836Y-85372534D01*
X159923836Y-85317403D01*
X159923836Y-85317401D01*
X159889728Y-85190107D01*
X159823836Y-85075979D01*
X159730650Y-84982793D01*
X159109326Y-84361469D01*
X159075841Y-84300146D01*
X159080825Y-84230454D01*
X159109326Y-84186107D01*
X159459593Y-83835839D01*
X159459592Y-83835839D01*
X159459601Y-83835831D01*
X159475308Y-83816003D01*
X159477250Y-83810987D01*
X159519820Y-83755586D01*
X159548082Y-83740153D01*
X159553103Y-83738209D01*
X159572931Y-83722504D01*
X160025287Y-83270146D01*
X160040994Y-83250318D01*
X160081579Y-83145558D01*
X160081579Y-83033212D01*
X160040994Y-82928452D01*
X160025289Y-82908624D01*
X159734507Y-82617842D01*
X158897194Y-81780530D01*
X158863709Y-81719207D01*
X158868693Y-81649515D01*
X158897192Y-81605170D01*
X159906236Y-80596124D01*
X159967559Y-80562640D01*
X160037251Y-80567624D01*
G37*
%TD.AperFunction*%
%TD*%
%TA.AperFunction,Conductor*%
%TO.N,GNDD*%
G36*
X149636802Y-92279077D02*
G01*
X149661212Y-92298039D01*
X151094522Y-93731349D01*
X151133532Y-93753871D01*
X151162464Y-93776953D01*
X151176581Y-93792179D01*
X151181630Y-93803614D01*
X151257843Y-93879827D01*
X151259434Y-93881543D01*
X151274004Y-93910803D01*
X151289669Y-93939491D01*
X151289495Y-93941913D01*
X151290578Y-93944087D01*
X151287017Y-93976574D01*
X151284685Y-94009183D01*
X151283187Y-94011513D01*
X151282965Y-94013541D01*
X151277715Y-94020027D01*
X151256184Y-94053530D01*
X151181630Y-94128083D01*
X151136251Y-94230855D01*
X151136251Y-94230857D01*
X151133336Y-94255980D01*
X151133336Y-94945705D01*
X151133338Y-94945731D01*
X151136249Y-94970836D01*
X151136250Y-94970840D01*
X151162180Y-95029564D01*
X151171252Y-95098842D01*
X151141429Y-95162027D01*
X151123058Y-95178916D01*
X151076645Y-95213661D01*
X150990485Y-95328755D01*
X150990481Y-95328762D01*
X150940239Y-95463469D01*
X150940237Y-95463476D01*
X150933836Y-95523004D01*
X150933836Y-95620849D01*
X152309836Y-95620849D01*
X152376875Y-95640534D01*
X152422630Y-95693338D01*
X152433836Y-95744849D01*
X152433836Y-95870849D01*
X152559836Y-95870849D01*
X152626875Y-95890534D01*
X152672630Y-95943338D01*
X152683836Y-95994849D01*
X152683836Y-100826849D01*
X152664151Y-100893888D01*
X152611347Y-100939643D01*
X152559836Y-100950849D01*
X152433836Y-100950849D01*
X152433836Y-101076849D01*
X152414151Y-101143888D01*
X152361347Y-101189643D01*
X152309836Y-101200849D01*
X150933836Y-101200849D01*
X150933836Y-101263349D01*
X150914151Y-101330388D01*
X150861347Y-101376143D01*
X150809836Y-101387349D01*
X144257836Y-101387349D01*
X144190797Y-101367664D01*
X144145042Y-101314860D01*
X144133836Y-101263349D01*
X144133836Y-101200849D01*
X142757836Y-101200849D01*
X142690797Y-101181164D01*
X142645042Y-101128360D01*
X142633836Y-101076849D01*
X142633836Y-100950849D01*
X142507836Y-100950849D01*
X142440797Y-100931164D01*
X142395042Y-100878360D01*
X142383836Y-100826849D01*
X142383836Y-100700849D01*
X142883836Y-100700849D01*
X144133836Y-100700849D01*
X144133836Y-100603021D01*
X144133835Y-100603004D01*
X144127434Y-100543476D01*
X144127433Y-100543472D01*
X144077187Y-100408757D01*
X144063266Y-100390162D01*
X144038847Y-100324698D01*
X144053697Y-100256425D01*
X144063266Y-100241536D01*
X144077187Y-100222940D01*
X144127433Y-100088225D01*
X144127434Y-100088221D01*
X144133835Y-100028693D01*
X150933836Y-100028693D01*
X150940237Y-100088221D01*
X150940239Y-100088228D01*
X150990481Y-100222935D01*
X150990482Y-100222936D01*
X151004408Y-100241540D01*
X151028823Y-100307005D01*
X151013970Y-100375278D01*
X151004408Y-100390158D01*
X150990482Y-100408761D01*
X150990481Y-100408762D01*
X150940239Y-100543469D01*
X150940237Y-100543476D01*
X150933836Y-100603004D01*
X150933836Y-100700849D01*
X152183836Y-100700849D01*
X152183836Y-99930849D01*
X150933836Y-99930849D01*
X150933836Y-100028693D01*
X144133835Y-100028693D01*
X144133836Y-100028676D01*
X144133836Y-99930849D01*
X142883836Y-99930849D01*
X142883836Y-100700849D01*
X142383836Y-100700849D01*
X142383836Y-99430849D01*
X142883836Y-99430849D01*
X144133836Y-99430849D01*
X144133836Y-99333021D01*
X144133835Y-99333004D01*
X144127434Y-99273476D01*
X144127433Y-99273472D01*
X144077187Y-99138757D01*
X144063266Y-99120162D01*
X144038847Y-99054698D01*
X144053697Y-98986425D01*
X144063266Y-98971536D01*
X144077187Y-98952940D01*
X144127433Y-98818225D01*
X144127434Y-98818221D01*
X144133835Y-98758693D01*
X150933836Y-98758693D01*
X150940237Y-98818221D01*
X150940239Y-98818228D01*
X150990481Y-98952935D01*
X150990482Y-98952936D01*
X151004408Y-98971540D01*
X151028823Y-99037005D01*
X151013970Y-99105278D01*
X151004408Y-99120158D01*
X150990482Y-99138761D01*
X150990481Y-99138762D01*
X150940239Y-99273469D01*
X150940237Y-99273476D01*
X150933836Y-99333004D01*
X150933836Y-99430849D01*
X152183836Y-99430849D01*
X152183836Y-98660849D01*
X150933836Y-98660849D01*
X150933836Y-98758693D01*
X144133835Y-98758693D01*
X144133836Y-98758676D01*
X144133836Y-98660849D01*
X142883836Y-98660849D01*
X142883836Y-99430849D01*
X142383836Y-99430849D01*
X142383836Y-98160849D01*
X142883836Y-98160849D01*
X144133836Y-98160849D01*
X144133836Y-98063021D01*
X144133835Y-98063004D01*
X144127434Y-98003476D01*
X144127433Y-98003472D01*
X144077187Y-97868757D01*
X144063266Y-97850162D01*
X144038847Y-97784698D01*
X144053697Y-97716425D01*
X144063266Y-97701536D01*
X144077187Y-97682940D01*
X144127433Y-97548225D01*
X144127434Y-97548221D01*
X144133835Y-97488693D01*
X150933836Y-97488693D01*
X150940237Y-97548221D01*
X150940239Y-97548228D01*
X150990481Y-97682935D01*
X150990482Y-97682936D01*
X151004408Y-97701540D01*
X151028823Y-97767005D01*
X151013970Y-97835278D01*
X151004408Y-97850158D01*
X150990482Y-97868761D01*
X150990481Y-97868762D01*
X150940239Y-98003469D01*
X150940237Y-98003476D01*
X150933836Y-98063004D01*
X150933836Y-98160849D01*
X152183836Y-98160849D01*
X152183836Y-97390849D01*
X150933836Y-97390849D01*
X150933836Y-97488693D01*
X144133835Y-97488693D01*
X144133836Y-97488676D01*
X144133836Y-97390849D01*
X142883836Y-97390849D01*
X142883836Y-98160849D01*
X142383836Y-98160849D01*
X142383836Y-97264849D01*
X142403521Y-97197810D01*
X142456325Y-97152055D01*
X142507836Y-97140849D01*
X142633836Y-97140849D01*
X142633836Y-97014849D01*
X142653521Y-96947810D01*
X142706325Y-96902055D01*
X142757836Y-96890849D01*
X144133836Y-96890849D01*
X144133836Y-96793021D01*
X144133835Y-96793004D01*
X144127434Y-96733476D01*
X144127432Y-96733469D01*
X144077190Y-96598762D01*
X144077188Y-96598759D01*
X144055405Y-96569661D01*
X144030987Y-96504197D01*
X144045838Y-96435924D01*
X144095242Y-96386518D01*
X144154671Y-96371349D01*
X145053588Y-96371349D01*
X145053590Y-96371349D01*
X145180884Y-96337241D01*
X145295012Y-96271349D01*
X145347668Y-96218693D01*
X150933836Y-96218693D01*
X150940237Y-96278221D01*
X150940239Y-96278228D01*
X150990481Y-96412935D01*
X150990482Y-96412936D01*
X151004408Y-96431540D01*
X151028823Y-96497005D01*
X151013970Y-96565278D01*
X151004408Y-96580158D01*
X150990482Y-96598761D01*
X150990481Y-96598762D01*
X150940239Y-96733469D01*
X150940237Y-96733476D01*
X150933836Y-96793004D01*
X150933836Y-96890849D01*
X152183836Y-96890849D01*
X152183836Y-96120849D01*
X150933836Y-96120849D01*
X150933836Y-96218693D01*
X145347668Y-96218693D01*
X148799365Y-92766996D01*
X148860688Y-92733511D01*
X148887046Y-92730677D01*
X148897365Y-92730677D01*
X148988411Y-92712566D01*
X149032698Y-92703757D01*
X149160181Y-92650952D01*
X149274912Y-92574291D01*
X149372484Y-92476719D01*
X149449145Y-92361988D01*
X149458969Y-92338269D01*
X149502809Y-92283865D01*
X149569102Y-92261799D01*
X149636802Y-92279077D01*
G37*
%TD.AperFunction*%
%TA.AperFunction,Conductor*%
G36*
X141472327Y-85448748D02*
G01*
X141570881Y-85442849D01*
X142182859Y-85442849D01*
X142228349Y-85451495D01*
X142244753Y-85457964D01*
X142244755Y-85457964D01*
X142244759Y-85457966D01*
X142282797Y-85462534D01*
X142331217Y-85468349D01*
X142331218Y-85468349D01*
X142915455Y-85468349D01*
X142937068Y-85465753D01*
X143001913Y-85457966D01*
X143017633Y-85451767D01*
X143018323Y-85451495D01*
X143063813Y-85442849D01*
X144007859Y-85442849D01*
X144024453Y-85443964D01*
X144039355Y-85445976D01*
X144069759Y-85457966D01*
X144156218Y-85468349D01*
X144205032Y-85468349D01*
X144213289Y-85469464D01*
X144237891Y-85480445D01*
X144263734Y-85488034D01*
X144271098Y-85495268D01*
X144277091Y-85497943D01*
X144282985Y-85506944D01*
X144299797Y-85523458D01*
X144322971Y-85558140D01*
X144322974Y-85558144D01*
X144420540Y-85655710D01*
X144420544Y-85655713D01*
X144535268Y-85732370D01*
X144535281Y-85732377D01*
X144662753Y-85785177D01*
X144662758Y-85785179D01*
X144662762Y-85785179D01*
X144662763Y-85785180D01*
X144798090Y-85812099D01*
X144798093Y-85812099D01*
X144936081Y-85812099D01*
X145027127Y-85793988D01*
X145071414Y-85785179D01*
X145198897Y-85732374D01*
X145313628Y-85655713D01*
X145411200Y-85558141D01*
X145433237Y-85525161D01*
X145451413Y-85497959D01*
X145505025Y-85453153D01*
X145554515Y-85442849D01*
X146911336Y-85442849D01*
X146978375Y-85462534D01*
X147024130Y-85515338D01*
X147035336Y-85566849D01*
X147035336Y-91934173D01*
X147015651Y-92001212D01*
X146999017Y-92021854D01*
X144956841Y-94064030D01*
X144895518Y-94097515D01*
X144869160Y-94100349D01*
X144154671Y-94100349D01*
X144087632Y-94080664D01*
X144041877Y-94027860D01*
X144031933Y-93958702D01*
X144055405Y-93902037D01*
X144077188Y-93872938D01*
X144077190Y-93872935D01*
X144127432Y-93738228D01*
X144127434Y-93738221D01*
X144133835Y-93678693D01*
X144133836Y-93678676D01*
X144133836Y-93580849D01*
X142757836Y-93580849D01*
X142690797Y-93561164D01*
X142645042Y-93508360D01*
X142633836Y-93456849D01*
X142633836Y-93204849D01*
X142653521Y-93137810D01*
X142706325Y-93092055D01*
X142757836Y-93080849D01*
X144133836Y-93080849D01*
X144133836Y-92983021D01*
X144133835Y-92983004D01*
X144127434Y-92923476D01*
X144127432Y-92923469D01*
X144077190Y-92788762D01*
X144077186Y-92788755D01*
X143991026Y-92673662D01*
X143944615Y-92638918D01*
X143902744Y-92582984D01*
X143897760Y-92513292D01*
X143905492Y-92489565D01*
X143931419Y-92430844D01*
X143931421Y-92430840D01*
X143934336Y-92405714D01*
X143934335Y-91715985D01*
X143932292Y-91698366D01*
X143931422Y-91690861D01*
X143931421Y-91690859D01*
X143931421Y-91690858D01*
X143886042Y-91588084D01*
X143806601Y-91508643D01*
X143771012Y-91492929D01*
X143703828Y-91463264D01*
X143678704Y-91460349D01*
X143678701Y-91460349D01*
X143275511Y-91460349D01*
X143208472Y-91440664D01*
X143162717Y-91387860D01*
X143152773Y-91318702D01*
X143181798Y-91255146D01*
X143187830Y-91248668D01*
X144311822Y-90124676D01*
X144373145Y-90091191D01*
X144399503Y-90088357D01*
X144409823Y-90088357D01*
X144500869Y-90070246D01*
X144545156Y-90061437D01*
X144672639Y-90008632D01*
X144787370Y-89931971D01*
X144884942Y-89834399D01*
X144961603Y-89719668D01*
X145014408Y-89592185D01*
X145041328Y-89456850D01*
X145041328Y-89318864D01*
X145041328Y-89318861D01*
X145014409Y-89183534D01*
X145014408Y-89183533D01*
X145014408Y-89183529D01*
X145014406Y-89183524D01*
X144961606Y-89056052D01*
X144961599Y-89056039D01*
X144884942Y-88941315D01*
X144884939Y-88941311D01*
X144787373Y-88843745D01*
X144787369Y-88843742D01*
X144672645Y-88767085D01*
X144672632Y-88767078D01*
X144545160Y-88714278D01*
X144545150Y-88714275D01*
X144409823Y-88687357D01*
X144409821Y-88687357D01*
X144271835Y-88687357D01*
X144271833Y-88687357D01*
X144136505Y-88714275D01*
X144136495Y-88714278D01*
X144009023Y-88767078D01*
X144009010Y-88767085D01*
X143894286Y-88843742D01*
X143894282Y-88843745D01*
X143796716Y-88941311D01*
X143796713Y-88941315D01*
X143720056Y-89056039D01*
X143720049Y-89056052D01*
X143667249Y-89183524D01*
X143667246Y-89183534D01*
X143640328Y-89318861D01*
X143640328Y-89329180D01*
X143620643Y-89396219D01*
X143604009Y-89416861D01*
X142309080Y-90711789D01*
X142309081Y-90711790D01*
X142233336Y-90787535D01*
X142167444Y-90901661D01*
X142133336Y-91028957D01*
X142133336Y-91336349D01*
X142113651Y-91403388D01*
X142060847Y-91449143D01*
X142009336Y-91460349D01*
X141604698Y-91460349D01*
X141545100Y-91442849D01*
X141535836Y-91442849D01*
X139448185Y-91442849D01*
X139381146Y-91423164D01*
X139335391Y-91370360D01*
X139324186Y-91318487D01*
X139338425Y-86441003D01*
X139338425Y-86440821D01*
X139338426Y-86440459D01*
X139338980Y-86250548D01*
X139340084Y-85871985D01*
X139359964Y-85805006D01*
X139412901Y-85759405D01*
X139464083Y-85748349D01*
X140298317Y-85748349D01*
X140298319Y-85748349D01*
X140303776Y-85748300D01*
X140308198Y-85748221D01*
X140399210Y-85732639D01*
X140465505Y-85710576D01*
X140521592Y-85685390D01*
X140606904Y-85612407D01*
X140645166Y-85564928D01*
X140647178Y-85563532D01*
X140690994Y-85497958D01*
X140744606Y-85453153D01*
X140794096Y-85442849D01*
X141445953Y-85442849D01*
X141472327Y-85448748D01*
G37*
%TD.AperFunction*%
%TD*%
D42*
X140035836Y-60442849D02*
G75*
G02*
X135035836Y-65442846I-4999996J-1D01*
G01*
X200035836Y-101442849D02*
X200035836Y-103442849D01*
X206535836Y-94942849D02*
G75*
G02*
X205035836Y-96442836I-1500036J49D01*
G01*
X133535836Y-66942849D02*
G75*
G02*
X135035836Y-65442836I1499964J49D01*
G01*
X200035836Y-58442849D02*
X200035836Y-60442849D01*
X135035836Y-96442849D02*
G75*
G02*
X140035751Y-101442849I-36J-4999951D01*
G01*
X205035836Y-65442849D02*
G75*
G02*
X200035751Y-60442849I-36J5000049D01*
G01*
X170035836Y-90442849D02*
X199035837Y-90442849D01*
X199035836Y-71442849D02*
G75*
G02*
X200535751Y-72942849I-36J-1499951D01*
G01*
X200535836Y-72942849D02*
X200535837Y-88942800D01*
X202535836Y-70442849D02*
G75*
G02*
X200535836Y-70442849I-1000000J0D01*
G01*
X200535836Y-70442849D02*
G75*
G02*
X202535836Y-70442849I1000000J0D01*
G01*
X170035836Y-90442764D02*
G75*
G02*
X168535836Y-88942849I-36J1499964D01*
G01*
X140035836Y-58442849D02*
X200035836Y-58442849D01*
X135035836Y-96442849D02*
G75*
G02*
X133535751Y-94942849I-36J1500049D01*
G01*
X200035835Y-101442850D02*
G75*
G02*
X205035835Y-96442835I4999965J50D01*
G01*
X140035836Y-60442849D02*
X140035836Y-58442849D01*
X206535837Y-66942850D02*
X206535836Y-94942800D01*
X168535836Y-72942898D02*
X168535836Y-88942849D01*
X200535837Y-88942849D02*
G75*
G02*
X199035837Y-90442837I-1500037J49D01*
G01*
X168535836Y-72942898D02*
G75*
G02*
X170035836Y-71442936I1499964J-2D01*
G01*
X170035836Y-71442849D02*
X199035836Y-71442849D01*
X140035836Y-103442849D02*
X200035836Y-103442849D01*
X133535836Y-66942849D02*
X133535836Y-94942849D01*
X205035837Y-65442849D02*
G75*
G02*
X206535751Y-66942850I-37J-1499951D01*
G01*
X202535836Y-91442849D02*
G75*
G02*
X200535836Y-91442849I-1000000J0D01*
G01*
X200535836Y-91442849D02*
G75*
G02*
X202535836Y-91442849I1000000J0D01*
G01*
X140035836Y-103442849D02*
X140035836Y-101442849D01*
M02*
