%TF.GenerationSoftware,KiCad,Pcbnew,9.0.6-9.0.6~ubuntu22.04.1*%
%TF.CreationDate,2026-01-05T10:22:12+03:00*%
%TF.ProjectId,sportiduino-base-v3bm,73706f72-7469-4647-9569-6e6f2d626173,3bm*%
%TF.SameCoordinates,Original*%
%TF.FileFunction,Copper,L2,Bot*%
%TF.FilePolarity,Positive*%
%FSLAX46Y46*%
G04 Gerber Fmt 4.6, Leading zero omitted, Abs format (unit mm)*
G04 Created by KiCad (PCBNEW 9.0.6-9.0.6~ubuntu22.04.1) date 2026-01-05 10:22:12*
%MOMM*%
%LPD*%
G01*
G04 APERTURE LIST*
G04 Aperture macros list*
%AMRoundRect*
0 Rectangle with rounded corners*
0 $1 Rounding radius*
0 $2 $3 $4 $5 $6 $7 $8 $9 X,Y pos of 4 corners*
0 Add a 4 corners polygon primitive as box body*
4,1,4,$2,$3,$4,$5,$6,$7,$8,$9,$2,$3,0*
0 Add four circle primitives for the rounded corners*
1,1,$1+$1,$2,$3*
1,1,$1+$1,$4,$5*
1,1,$1+$1,$6,$7*
1,1,$1+$1,$8,$9*
0 Add four rect primitives between the rounded corners*
20,1,$1+$1,$2,$3,$4,$5,0*
20,1,$1+$1,$4,$5,$6,$7,0*
20,1,$1+$1,$6,$7,$8,$9,0*
20,1,$1+$1,$8,$9,$2,$3,0*%
G04 Aperture macros list end*
%TA.AperFunction,ComponentPad*%
%ADD10R,1.600000X1.600000*%
%TD*%
%TA.AperFunction,ComponentPad*%
%ADD11C,1.600000*%
%TD*%
%TA.AperFunction,ComponentPad*%
%ADD12RoundRect,0.250000X0.265000X0.615000X-0.265000X0.615000X-0.265000X-0.615000X0.265000X-0.615000X0*%
%TD*%
%TA.AperFunction,ComponentPad*%
%ADD13O,1.030000X1.730000*%
%TD*%
%TA.AperFunction,ComponentPad*%
%ADD14RoundRect,0.250000X0.350000X0.625000X-0.350000X0.625000X-0.350000X-0.625000X0.350000X-0.625000X0*%
%TD*%
%TA.AperFunction,ComponentPad*%
%ADD15O,1.200000X1.750000*%
%TD*%
%TA.AperFunction,ComponentPad*%
%ADD16RoundRect,0.225000X-0.475000X0.225000X-0.475000X-0.225000X0.475000X-0.225000X0.475000X0.225000X0*%
%TD*%
%TA.AperFunction,ComponentPad*%
%ADD17O,1.400000X0.900000*%
%TD*%
%TA.AperFunction,SMDPad,CuDef*%
%ADD18RoundRect,0.237500X-0.250000X-0.237500X0.250000X-0.237500X0.250000X0.237500X-0.250000X0.237500X0*%
%TD*%
%TA.AperFunction,ComponentPad*%
%ADD19C,1.727200*%
%TD*%
%TA.AperFunction,SMDPad,CuDef*%
%ADD20RoundRect,0.250000X0.325000X0.450000X-0.325000X0.450000X-0.325000X-0.450000X0.325000X-0.450000X0*%
%TD*%
%TA.AperFunction,SMDPad,CuDef*%
%ADD21RoundRect,0.237500X0.250000X0.237500X-0.250000X0.237500X-0.250000X-0.237500X0.250000X-0.237500X0*%
%TD*%
%TA.AperFunction,SMDPad,CuDef*%
%ADD22RoundRect,0.250001X-0.462499X-1.074999X0.462499X-1.074999X0.462499X1.074999X-0.462499X1.074999X0*%
%TD*%
%TA.AperFunction,ComponentPad*%
%ADD23R,1.700000X1.700000*%
%TD*%
%TA.AperFunction,ComponentPad*%
%ADD24C,1.700000*%
%TD*%
%TA.AperFunction,ViaPad*%
%ADD25C,1.200000*%
%TD*%
%TA.AperFunction,ViaPad*%
%ADD26C,0.800000*%
%TD*%
%TA.AperFunction,Conductor*%
%ADD27C,0.800000*%
%TD*%
%TA.AperFunction,Conductor*%
%ADD28C,0.400000*%
%TD*%
%TA.AperFunction,Profile*%
%ADD29C,0.150000*%
%TD*%
G04 APERTURE END LIST*
D10*
%TO.P,BZ1,1,-*%
%TO.N,+BATT*%
X145575836Y-68640849D03*
D11*
%TO.P,BZ1,2,+*%
%TO.N,Net-(BZ1-+)*%
X145575836Y-62140849D03*
%TD*%
D12*
%TO.P,X1,1,Pin_1*%
%TO.N,GNDD*%
X168285836Y-101156849D03*
D13*
%TO.P,X1,2,Pin_2*%
%TO.N,+BATT*%
X166785836Y-101156849D03*
%TD*%
D14*
%TO.P,X5,1,Pin_1*%
%TO.N,GNDD*%
X191535836Y-100648849D03*
D15*
%TO.P,X5,2,Pin_2*%
%TO.N,/Charge*%
X189535836Y-100648849D03*
%TD*%
D16*
%TO.P,X2,1,Pin_1*%
%TO.N,GNDD*%
X135785836Y-69817849D03*
D17*
%TO.P,X2,2,Pin_2*%
%TO.N,+3V3*%
X135785836Y-71067849D03*
%TO.P,X2,3,Pin_3*%
%TO.N,RST*%
X135785836Y-72317849D03*
%TO.P,X2,4,Pin_4*%
%TO.N,PB5*%
X135785836Y-73567849D03*
%TO.P,X2,5,Pin_5*%
%TO.N,PB3*%
X135785836Y-74817849D03*
%TO.P,X2,6,Pin_6*%
%TO.N,PB4*%
X135785836Y-76067849D03*
%TO.P,X2,7,Pin_7*%
%TO.N,PC3*%
X135785836Y-77317849D03*
%TO.P,X2,8,Pin_8*%
%TO.N,TX*%
X135785836Y-78567849D03*
%TO.P,X2,9,Pin_9*%
%TO.N,RX*%
X135785836Y-79817849D03*
%TO.P,X2,10,Pin_10*%
%TO.N,Net-(X2-Pin_10)*%
X135785836Y-81067849D03*
%TD*%
D18*
%TO.P,R2,1*%
%TO.N,Net-(VD1-A)*%
X140623336Y-86942849D03*
%TO.P,R2,2*%
%TO.N,/LED*%
X142448336Y-86942849D03*
%TD*%
D19*
%TO.P,SW1,1,1*%
%TO.N,Net-(D2-PD7)*%
X160030836Y-60452000D03*
%TO.P,SW1,2,2*%
%TO.N,GNDD*%
X180030836Y-60452000D03*
%TD*%
D20*
%TO.P,VD2,1,K*%
%TO.N,Net-(VD2-K)*%
X137810836Y-88942849D03*
%TO.P,VD2,2,A*%
%TO.N,/Charge*%
X135760836Y-88942849D03*
%TD*%
%TO.P,VD3,1,K*%
%TO.N,Net-(VD3-K)*%
X137810836Y-91192849D03*
%TO.P,VD3,2,A*%
%TO.N,/Charge*%
X135760836Y-91192849D03*
%TD*%
D21*
%TO.P,R12,1*%
%TO.N,Net-(D5-~{STDBY})*%
X142448336Y-88442849D03*
%TO.P,R12,2*%
%TO.N,Net-(VD2-K)*%
X140623336Y-88442849D03*
%TD*%
%TO.P,R13,1*%
%TO.N,Net-(D5-~{CHRG})*%
X142448336Y-89942849D03*
%TO.P,R13,2*%
%TO.N,Net-(VD3-K)*%
X140623336Y-89942849D03*
%TD*%
D22*
%TO.P,VD1,1,K*%
%TO.N,GNDD*%
X135798336Y-85942849D03*
%TO.P,VD1,2,A*%
%TO.N,Net-(VD1-A)*%
X138773336Y-85942849D03*
%TD*%
D23*
%TO.P,X3,1,Pin_1*%
%TO.N,+3V3*%
X166911836Y-88004849D03*
D24*
%TO.P,X3,2,Pin_2*%
%TO.N,/PB1*%
X166911836Y-85464849D03*
%TO.P,X3,3,Pin_3*%
%TO.N,GNDD*%
X166911836Y-82924849D03*
%TO.P,X3,4,Pin_4*%
%TO.N,/PB0*%
X166911836Y-80384849D03*
%TO.P,X3,5,Pin_5*%
%TO.N,PB4*%
X166911836Y-77844849D03*
%TO.P,X3,6,Pin_6*%
%TO.N,PB3*%
X166911836Y-75304849D03*
%TO.P,X3,7,Pin_7*%
%TO.N,PB5*%
X166911836Y-72764849D03*
%TO.P,X3,8,Pin_8*%
%TO.N,/PB2*%
X166911836Y-70224849D03*
%TD*%
D25*
%TO.N,+BATT*%
X159285836Y-101192849D03*
%TO.N,GNDD*%
X172035836Y-100890849D03*
D26*
X160785836Y-89692849D03*
X157241596Y-86737089D03*
X177285836Y-96942849D03*
D25*
X148535836Y-77442849D03*
X151035836Y-71692849D03*
X181785836Y-101192849D03*
D26*
X144535836Y-93442849D03*
X141035836Y-85692849D03*
X165035836Y-90192849D03*
D25*
X156785836Y-96442849D03*
D26*
X165035836Y-94442849D03*
D25*
X166452325Y-97109338D03*
D26*
X177285836Y-100692849D03*
X144785836Y-97192849D03*
D25*
X184535836Y-98942849D03*
D26*
X161285836Y-85692849D03*
D25*
X145035836Y-88042849D03*
D26*
X178785836Y-100692849D03*
X155436839Y-82692849D03*
D25*
X185785836Y-100942849D03*
X153785836Y-65692849D03*
D26*
X141285836Y-93442849D03*
X178785836Y-96942849D03*
X152285836Y-80192849D03*
X147285836Y-97192849D03*
X149285836Y-99192849D03*
D25*
X181785836Y-98192849D03*
X148035836Y-72467849D03*
X156535836Y-60942849D03*
D26*
X147285836Y-99192849D03*
X144785836Y-99192849D03*
X150285836Y-94692849D03*
X149035836Y-93692849D03*
X143785836Y-85942849D03*
D25*
%TO.N,+3V3*%
X159321804Y-86738746D03*
D26*
%TO.N,/PB2*%
X157222211Y-76950838D03*
%TO.N,RST*%
X150420987Y-85970265D03*
X144867086Y-85111599D03*
%TO.N,/PB1*%
X155876244Y-79473422D03*
%TO.N,TX*%
X151035836Y-80942849D03*
%TO.N,RX*%
X150425664Y-81858107D03*
%TO.N,/SDA*%
X163285836Y-91442849D03*
X155535836Y-93192849D03*
%TO.N,/Charge*%
X174035836Y-100692849D03*
%TO.N,/BUZ*%
X153031363Y-74945908D03*
X153176005Y-78692849D03*
%TO.N,/LED*%
X150419987Y-87192849D03*
%TO.N,Net-(D2-PD7)*%
X154076005Y-77843932D03*
X154131358Y-74949106D03*
%TO.N,32K*%
X144340828Y-89387857D03*
X156830076Y-82648609D03*
%TO.N,PB3*%
X157015022Y-75870524D03*
%TO.N,PB4*%
X155928479Y-75698986D03*
%TO.N,PB5*%
X138570191Y-76418849D03*
X152211446Y-75767239D03*
%TO.N,Net-(D2-PD2)*%
X153350767Y-87507780D03*
X148828370Y-92030177D03*
%TO.N,Net-(D5-~{STDBY})*%
X174285836Y-98442849D03*
%TO.N,PC3*%
X143498336Y-80966746D03*
X148586719Y-84172118D03*
%TO.N,Net-(D5-~{CHRG})*%
X174019046Y-99510008D03*
D25*
%TO.N,GNDD*%
X157035836Y-102492849D03*
%TD*%
D27*
%TO.N,+BATT*%
X134785836Y-67192849D02*
X134336836Y-67641849D01*
X142483836Y-68640849D02*
X141035836Y-67192849D01*
X134336836Y-67641849D02*
X134336836Y-92145693D01*
X143383992Y-101192849D02*
X159285836Y-101192849D01*
X145575836Y-68640849D02*
X142483836Y-68640849D01*
X141035836Y-67192849D02*
X134785836Y-67192849D01*
X134336836Y-92145693D02*
X143383992Y-101192849D01*
%TO.N,+3V3*%
X160587907Y-88004849D02*
X159321804Y-86738746D01*
X166911836Y-88004849D02*
X160587907Y-88004849D01*
D28*
%TO.N,/PB2*%
X166911836Y-70224849D02*
X160190719Y-76945966D01*
X157227083Y-76945966D02*
X157222211Y-76950838D01*
X160190719Y-76945966D02*
X157227083Y-76945966D01*
%TO.N,RST*%
X150285836Y-85942849D02*
X150393571Y-85942849D01*
X150285836Y-85942849D02*
X145698336Y-85942849D01*
X150393571Y-85942849D02*
X150420987Y-85970265D01*
X145698336Y-85942849D02*
X144867086Y-85111599D01*
%TO.N,/PB1*%
X164557836Y-85464849D02*
X158566409Y-79473422D01*
X166911836Y-85464849D02*
X164557836Y-85464849D01*
X158566409Y-79473422D02*
X155876244Y-79473422D01*
%TO.N,TX*%
X148660836Y-78567849D02*
X135535836Y-78567849D01*
X151035836Y-80942849D02*
X148660836Y-78567849D01*
%TO.N,RX*%
X150326094Y-81858107D02*
X148285836Y-79817849D01*
X150425664Y-81858107D02*
X150326094Y-81858107D01*
X135535836Y-79817849D02*
X148285836Y-79817849D01*
%TO.N,/SDA*%
X161535836Y-93192849D02*
X163285836Y-91442849D01*
X155535836Y-93192849D02*
X161535836Y-93192849D01*
%TO.N,/Charge*%
X135760836Y-88942849D02*
X135760836Y-91192849D01*
X159130786Y-99790849D02*
X173025680Y-99790849D01*
X158710627Y-100211008D02*
X159130786Y-99790849D01*
X135510836Y-91192849D02*
X144528995Y-100211008D01*
X144528995Y-100211008D02*
X158710627Y-100211008D01*
X173927680Y-100692849D02*
X174035836Y-100692849D01*
X173025680Y-99790849D02*
X173927680Y-100692849D01*
%TO.N,/BUZ*%
X153176005Y-78692849D02*
X153176005Y-75494363D01*
X153031363Y-75349719D02*
X153031363Y-74945908D01*
X153176006Y-75494362D02*
X153031363Y-75349719D01*
X153176005Y-75494363D02*
X153176006Y-75494362D01*
%TO.N,/LED*%
X150419987Y-87192849D02*
X150169987Y-86942849D01*
X150169987Y-86942849D02*
X142448336Y-86942849D01*
%TO.N,Net-(D2-PD7)*%
X154131358Y-77788579D02*
X154076005Y-77843932D01*
X154131358Y-74949106D02*
X154131358Y-77788579D01*
%TO.N,32K*%
X150196483Y-89387857D02*
X155807217Y-83777123D01*
X155810046Y-83777123D02*
X156830076Y-82757093D01*
X155807217Y-83777123D02*
X155810046Y-83777123D01*
X144340828Y-89387857D02*
X150196483Y-89387857D01*
X156830076Y-82757093D02*
X156830076Y-82648609D01*
%TO.N,PB3*%
X154875297Y-73266738D02*
X152446376Y-73266738D01*
X150895265Y-74817849D02*
X135535836Y-74817849D01*
X157015022Y-75406463D02*
X154875297Y-73266738D01*
X157015022Y-75870524D02*
X157015022Y-75406463D01*
X152446376Y-73266738D02*
X150895265Y-74817849D01*
%TO.N,PB4*%
X138035836Y-75518849D02*
X151209836Y-75518849D01*
X135535836Y-76067849D02*
X137486836Y-76067849D01*
X154584933Y-73967738D02*
X155928479Y-75311284D01*
X155928479Y-77335492D02*
X155928479Y-75698986D01*
X151285836Y-75418642D02*
X152736740Y-73967738D01*
X156444825Y-77851838D02*
X166904847Y-77851838D01*
X137486836Y-76067849D02*
X138035836Y-75518849D01*
X152736740Y-73967738D02*
X154584933Y-73967738D01*
X151285836Y-75442849D02*
X151285836Y-75418642D01*
X151209836Y-75518849D02*
X151285836Y-75442849D01*
X156444825Y-77851838D02*
X155928479Y-77335492D01*
X166904847Y-77851838D02*
X166911836Y-77844849D01*
X155928479Y-75311284D02*
X155928479Y-75698986D01*
%TO.N,PB5*%
X151758836Y-76219849D02*
X152211446Y-75767239D01*
X138697271Y-76219849D02*
X151758836Y-76219849D01*
X138697271Y-76291769D02*
X138570191Y-76418849D01*
X138697271Y-76219849D02*
X138697271Y-76291769D01*
%TO.N,Net-(D2-PD2)*%
X148828370Y-92030177D02*
X153350767Y-87507780D01*
%TO.N,Net-(D5-~{STDBY})*%
X174285836Y-98442849D02*
X174231836Y-98388849D01*
X152069026Y-98388849D02*
X143436836Y-89756659D01*
X143436836Y-89756659D02*
X143436836Y-88943849D01*
X174231836Y-98388849D02*
X152069026Y-98388849D01*
X142935836Y-88442849D02*
X142448336Y-88442849D01*
X143436836Y-88943849D02*
X142935836Y-88442849D01*
%TO.N,PC3*%
X148586719Y-84172118D02*
X146703708Y-84172118D01*
X148586719Y-84172118D02*
X148586719Y-84054159D01*
X146703708Y-84172118D02*
X143498336Y-80966746D01*
%TO.N,Net-(D5-~{CHRG})*%
X173598887Y-99089849D02*
X174019046Y-99510008D01*
X151595336Y-99089849D02*
X173598887Y-99089849D01*
X142448336Y-89942849D02*
X151595336Y-99089849D01*
%TO.N,Net-(VD1-A)*%
X139623336Y-85942849D02*
X140623336Y-86942849D01*
X138523336Y-85942849D02*
X139623336Y-85942849D01*
%TO.N,Net-(VD2-K)*%
X137560836Y-88942849D02*
X140123336Y-88942849D01*
X140123336Y-88942849D02*
X140623336Y-88442849D01*
%TO.N,Net-(VD3-K)*%
X137560836Y-91192849D02*
X139373336Y-91192849D01*
X139373336Y-91192849D02*
X140623336Y-89942849D01*
%TD*%
%TA.AperFunction,Conductor*%
%TO.N,GNDD*%
G36*
X154976068Y-75077209D02*
G01*
X155011244Y-75101863D01*
X155239993Y-75330612D01*
X155273478Y-75391935D01*
X155268494Y-75461627D01*
X155266875Y-75465742D01*
X155254898Y-75494657D01*
X155254898Y-75494659D01*
X155227979Y-75629990D01*
X155227979Y-75629993D01*
X155227979Y-75767979D01*
X155227979Y-75767981D01*
X155227978Y-75767981D01*
X155254897Y-75903308D01*
X155254900Y-75903318D01*
X155307700Y-76030790D01*
X155307707Y-76030803D01*
X155384364Y-76145527D01*
X155391656Y-76152819D01*
X155425144Y-76214141D01*
X155427979Y-76240504D01*
X155427979Y-77269600D01*
X155427979Y-77401384D01*
X155431616Y-77414958D01*
X155462087Y-77528679D01*
X155489085Y-77575440D01*
X155527979Y-77642806D01*
X156044325Y-78159152D01*
X156137511Y-78252338D01*
X156251639Y-78318230D01*
X156378933Y-78352338D01*
X156510718Y-78352338D01*
X165803190Y-78352338D01*
X165870229Y-78372023D01*
X165913674Y-78420042D01*
X165927840Y-78447844D01*
X166034277Y-78594343D01*
X166034281Y-78594348D01*
X166162336Y-78722403D01*
X166162341Y-78722407D01*
X166268924Y-78799843D01*
X166308842Y-78828845D01*
X166400038Y-78875312D01*
X166470196Y-78911060D01*
X166470199Y-78911061D01*
X166556312Y-78939040D01*
X166642427Y-78967020D01*
X166715475Y-78978589D01*
X166802514Y-78992376D01*
X166865649Y-79022305D01*
X166902580Y-79081617D01*
X166901582Y-79151480D01*
X166862972Y-79209712D01*
X166802514Y-79237322D01*
X166642425Y-79262678D01*
X166470199Y-79318636D01*
X166470196Y-79318637D01*
X166308838Y-79400855D01*
X166162341Y-79507290D01*
X166162336Y-79507294D01*
X166034281Y-79635349D01*
X166034277Y-79635354D01*
X165927842Y-79781851D01*
X165845624Y-79943209D01*
X165845623Y-79943212D01*
X165789665Y-80115438D01*
X165761336Y-80294297D01*
X165761336Y-80475400D01*
X165789665Y-80654259D01*
X165845623Y-80826485D01*
X165845624Y-80826488D01*
X165887193Y-80908070D01*
X165908640Y-80950162D01*
X165927842Y-80987846D01*
X166034277Y-81134343D01*
X166034281Y-81134348D01*
X166162336Y-81262403D01*
X166162341Y-81262407D01*
X166290123Y-81355245D01*
X166308842Y-81368845D01*
X166396064Y-81413287D01*
X166440520Y-81435939D01*
X166491316Y-81483914D01*
X166508111Y-81551735D01*
X166485573Y-81617870D01*
X166430858Y-81661321D01*
X166422544Y-81664355D01*
X166393617Y-81673754D01*
X166204275Y-81770229D01*
X166150118Y-81809576D01*
X166150118Y-81809577D01*
X166782427Y-82441886D01*
X166718843Y-82458924D01*
X166604829Y-82524750D01*
X166511737Y-82617842D01*
X166445911Y-82731856D01*
X166428873Y-82795440D01*
X165796564Y-82163131D01*
X165796563Y-82163131D01*
X165757216Y-82217288D01*
X165660740Y-82406631D01*
X165595078Y-82608718D01*
X165595078Y-82608721D01*
X165561836Y-82818602D01*
X165561836Y-83031095D01*
X165595078Y-83240976D01*
X165595078Y-83240979D01*
X165660740Y-83443066D01*
X165757211Y-83632399D01*
X165796564Y-83686565D01*
X166428873Y-83054257D01*
X166445911Y-83117842D01*
X166511737Y-83231856D01*
X166604829Y-83324948D01*
X166718843Y-83390774D01*
X166782425Y-83407811D01*
X166150118Y-84040118D01*
X166150118Y-84040119D01*
X166204285Y-84079473D01*
X166393616Y-84175943D01*
X166422541Y-84185341D01*
X166480217Y-84224778D01*
X166507416Y-84289136D01*
X166495503Y-84357983D01*
X166448260Y-84409459D01*
X166440521Y-84413757D01*
X166308840Y-84480853D01*
X166162341Y-84587290D01*
X166162336Y-84587294D01*
X166034281Y-84715349D01*
X166034277Y-84715354D01*
X165927842Y-84861851D01*
X165910114Y-84896644D01*
X165862139Y-84947440D01*
X165799629Y-84964349D01*
X164816511Y-84964349D01*
X164749472Y-84944664D01*
X164728830Y-84928030D01*
X162702211Y-82901411D01*
X161812090Y-82011290D01*
X158873723Y-79072922D01*
X158816659Y-79039976D01*
X158759596Y-79007030D01*
X158695948Y-78989976D01*
X158632301Y-78972922D01*
X158632300Y-78972922D01*
X156417763Y-78972922D01*
X156350724Y-78953237D01*
X156330082Y-78936603D01*
X156322789Y-78929310D01*
X156322785Y-78929307D01*
X156208061Y-78852650D01*
X156208048Y-78852643D01*
X156080576Y-78799843D01*
X156080566Y-78799840D01*
X155945239Y-78772922D01*
X155945237Y-78772922D01*
X155807251Y-78772922D01*
X155807249Y-78772922D01*
X155671921Y-78799840D01*
X155671911Y-78799843D01*
X155544439Y-78852643D01*
X155544426Y-78852650D01*
X155429702Y-78929307D01*
X155429698Y-78929310D01*
X155332132Y-79026876D01*
X155332129Y-79026880D01*
X155255472Y-79141604D01*
X155255465Y-79141617D01*
X155202665Y-79269089D01*
X155202662Y-79269099D01*
X155175744Y-79404426D01*
X155175744Y-79404429D01*
X155175744Y-79542415D01*
X155175744Y-79542417D01*
X155175743Y-79542417D01*
X155202662Y-79677744D01*
X155202665Y-79677754D01*
X155255465Y-79805226D01*
X155255472Y-79805239D01*
X155332129Y-79919963D01*
X155332132Y-79919967D01*
X155429698Y-80017533D01*
X155429702Y-80017536D01*
X155544426Y-80094193D01*
X155544439Y-80094200D01*
X155595713Y-80115438D01*
X155671916Y-80147002D01*
X155671920Y-80147002D01*
X155671921Y-80147003D01*
X155807248Y-80173922D01*
X155807251Y-80173922D01*
X155945239Y-80173922D01*
X156036285Y-80155811D01*
X156080572Y-80147002D01*
X156208055Y-80094197D01*
X156322786Y-80017536D01*
X156322789Y-80017533D01*
X156330082Y-80010241D01*
X156391405Y-79976756D01*
X156417763Y-79973922D01*
X158307733Y-79973922D01*
X158374772Y-79993607D01*
X158395414Y-80010241D01*
X164152995Y-85767821D01*
X164153005Y-85767832D01*
X164157335Y-85772162D01*
X164157336Y-85772163D01*
X164250522Y-85865349D01*
X164250524Y-85865350D01*
X164250525Y-85865351D01*
X164321777Y-85906488D01*
X164321778Y-85906489D01*
X164364644Y-85931238D01*
X164364645Y-85931238D01*
X164364650Y-85931241D01*
X164491943Y-85965349D01*
X164491944Y-85965349D01*
X165799629Y-85965349D01*
X165866668Y-85985034D01*
X165910114Y-86033054D01*
X165927842Y-86067846D01*
X166034277Y-86214343D01*
X166034281Y-86214348D01*
X166162336Y-86342403D01*
X166162341Y-86342407D01*
X166234722Y-86394994D01*
X166308842Y-86448845D01*
X166398201Y-86494376D01*
X166470196Y-86531060D01*
X166470199Y-86531061D01*
X166556312Y-86559040D01*
X166642427Y-86587020D01*
X166746552Y-86603511D01*
X166774106Y-86607876D01*
X166837241Y-86637805D01*
X166874172Y-86697117D01*
X166873174Y-86766979D01*
X166834564Y-86825212D01*
X166770601Y-86853326D01*
X166754708Y-86854349D01*
X166016979Y-86854349D01*
X166016953Y-86854351D01*
X165991848Y-86857262D01*
X165991844Y-86857264D01*
X165889071Y-86902642D01*
X165809630Y-86982083D01*
X165764251Y-87084855D01*
X165764251Y-87084857D01*
X165761336Y-87109980D01*
X165761336Y-87180349D01*
X165741651Y-87247388D01*
X165688847Y-87293143D01*
X165637336Y-87304349D01*
X160929426Y-87304349D01*
X160862387Y-87284664D01*
X160841745Y-87268030D01*
X160248536Y-86674821D01*
X160215051Y-86613498D01*
X160214630Y-86611481D01*
X160187698Y-86476080D01*
X160160013Y-86409241D01*
X160119820Y-86312205D01*
X160119813Y-86312192D01*
X160021268Y-86164711D01*
X160021265Y-86164707D01*
X159895842Y-86039284D01*
X159895838Y-86039281D01*
X159748357Y-85940736D01*
X159748344Y-85940729D01*
X159584471Y-85872852D01*
X159584462Y-85872849D01*
X159410498Y-85838246D01*
X159410495Y-85838246D01*
X159233113Y-85838246D01*
X159233110Y-85838246D01*
X159059145Y-85872849D01*
X159059136Y-85872852D01*
X158895263Y-85940729D01*
X158895250Y-85940736D01*
X158747769Y-86039281D01*
X158747765Y-86039284D01*
X158622342Y-86164707D01*
X158622339Y-86164711D01*
X158523794Y-86312192D01*
X158523787Y-86312205D01*
X158455910Y-86476078D01*
X158455907Y-86476087D01*
X158421304Y-86650050D01*
X158421304Y-86827441D01*
X158455907Y-87001404D01*
X158455910Y-87001413D01*
X158523787Y-87165286D01*
X158523794Y-87165299D01*
X158622339Y-87312780D01*
X158622342Y-87312784D01*
X158747765Y-87438207D01*
X158747769Y-87438210D01*
X158895250Y-87536755D01*
X158895263Y-87536762D01*
X158971520Y-87568348D01*
X159059138Y-87604640D01*
X159194392Y-87631543D01*
X159256299Y-87663926D01*
X159257879Y-87665478D01*
X160141360Y-88548960D01*
X160141361Y-88548961D01*
X160256099Y-88625626D01*
X160383574Y-88678427D01*
X160383579Y-88678429D01*
X160383583Y-88678429D01*
X160383584Y-88678430D01*
X160518910Y-88705349D01*
X160518913Y-88705349D01*
X160518914Y-88705349D01*
X165637337Y-88705349D01*
X165704376Y-88725034D01*
X165750131Y-88777838D01*
X165761337Y-88829349D01*
X165761337Y-88899705D01*
X165761338Y-88899731D01*
X165764249Y-88924836D01*
X165764251Y-88924840D01*
X165809629Y-89027613D01*
X165809630Y-89027614D01*
X165889071Y-89107055D01*
X165991845Y-89152434D01*
X166016971Y-89155349D01*
X167661836Y-89155348D01*
X167728875Y-89175033D01*
X167774630Y-89227836D01*
X167785836Y-89279348D01*
X167785836Y-94942849D01*
X193029743Y-94942849D01*
X193041897Y-94943446D01*
X193218777Y-94960867D01*
X193242605Y-94965606D01*
X193406837Y-95015425D01*
X193429289Y-95024726D01*
X193580634Y-95105621D01*
X193600846Y-95119126D01*
X193733502Y-95227994D01*
X193750690Y-95245182D01*
X193859558Y-95377838D01*
X193873063Y-95398050D01*
X193953957Y-95549392D01*
X193963260Y-95571850D01*
X194013076Y-95736073D01*
X194017818Y-95759914D01*
X194035239Y-95936787D01*
X194035836Y-95948941D01*
X194035836Y-102436756D01*
X194035239Y-102448910D01*
X194017818Y-102625783D01*
X194013076Y-102649624D01*
X193963260Y-102813847D01*
X193953958Y-102836304D01*
X193878859Y-102976803D01*
X193829900Y-103026646D01*
X193769503Y-103042349D01*
X140560336Y-103042349D01*
X140493297Y-103022664D01*
X140447542Y-102969860D01*
X140436336Y-102918349D01*
X140436336Y-101382611D01*
X140436251Y-101381319D01*
X140436251Y-101350389D01*
X140436253Y-101219488D01*
X140399367Y-100774284D01*
X140325842Y-100333647D01*
X140216180Y-99900587D01*
X140071131Y-99478061D01*
X140071127Y-99478052D01*
X140071125Y-99478046D01*
X139891692Y-99068968D01*
X139880534Y-99048349D01*
X139851203Y-98994150D01*
X139836609Y-98925823D01*
X139861272Y-98860451D01*
X139917363Y-98818791D01*
X139987073Y-98814069D01*
X140047940Y-98847454D01*
X142937445Y-101736960D01*
X142937446Y-101736961D01*
X143052184Y-101813626D01*
X143179024Y-101866164D01*
X143179664Y-101866429D01*
X143179668Y-101866429D01*
X143179669Y-101866430D01*
X143314995Y-101893349D01*
X143314998Y-101893349D01*
X143314999Y-101893349D01*
X158675736Y-101893349D01*
X158742775Y-101913034D01*
X158744624Y-101914245D01*
X158859289Y-101990862D01*
X159023170Y-102058743D01*
X159023172Y-102058743D01*
X159023177Y-102058745D01*
X159197140Y-102093348D01*
X159197143Y-102093349D01*
X159197145Y-102093349D01*
X159374529Y-102093349D01*
X159374530Y-102093348D01*
X159432518Y-102081813D01*
X159548494Y-102058745D01*
X159548497Y-102058743D01*
X159548502Y-102058743D01*
X159712383Y-101990862D01*
X159859871Y-101892313D01*
X159985300Y-101766884D01*
X160083849Y-101619396D01*
X160151730Y-101455515D01*
X160153042Y-101448922D01*
X160177923Y-101323835D01*
X160186336Y-101281540D01*
X160186336Y-101104158D01*
X160186336Y-101104155D01*
X160186335Y-101104153D01*
X160151732Y-100930190D01*
X160151729Y-100930181D01*
X160083852Y-100766308D01*
X160083845Y-100766295D01*
X159985300Y-100618814D01*
X159985297Y-100618810D01*
X159869517Y-100503030D01*
X159836032Y-100441707D01*
X159841016Y-100372015D01*
X159882888Y-100316082D01*
X159948352Y-100291665D01*
X159957198Y-100291349D01*
X165931093Y-100291349D01*
X165998132Y-100311034D01*
X166043887Y-100363838D01*
X166053831Y-100432996D01*
X166045654Y-100462802D01*
X166001675Y-100568975D01*
X166001673Y-100568983D01*
X165970336Y-100726524D01*
X165970336Y-101587173D01*
X166001673Y-101744714D01*
X166001675Y-101744722D01*
X166063147Y-101893130D01*
X166063152Y-101893139D01*
X166152395Y-102026699D01*
X166152398Y-102026703D01*
X166265981Y-102140286D01*
X166265985Y-102140289D01*
X166399545Y-102229532D01*
X166399554Y-102229537D01*
X166425280Y-102240193D01*
X166547963Y-102291010D01*
X166705511Y-102322348D01*
X166705515Y-102322349D01*
X166705516Y-102322349D01*
X166866157Y-102322349D01*
X166866158Y-102322348D01*
X167023709Y-102291010D01*
X167172120Y-102229536D01*
X167172125Y-102229532D01*
X167172128Y-102229531D01*
X167242110Y-102182770D01*
X167308787Y-102161891D01*
X167376168Y-102180375D01*
X167416539Y-102220772D01*
X167428516Y-102240189D01*
X167428519Y-102240193D01*
X167552490Y-102364164D01*
X167701711Y-102456205D01*
X167701716Y-102456207D01*
X167868138Y-102511354D01*
X167868145Y-102511355D01*
X167970855Y-102521848D01*
X168035835Y-102521847D01*
X168035836Y-102521847D01*
X168035836Y-101423038D01*
X168061720Y-101448922D01*
X168144951Y-101496975D01*
X168237783Y-101521849D01*
X168333889Y-101521849D01*
X168426721Y-101496975D01*
X168509952Y-101448922D01*
X168535836Y-101423038D01*
X168535836Y-102521848D01*
X168600808Y-102521848D01*
X168600822Y-102521847D01*
X168703533Y-102511354D01*
X168869955Y-102456207D01*
X168869960Y-102456205D01*
X169019181Y-102364164D01*
X169143151Y-102240194D01*
X169235192Y-102090973D01*
X169235194Y-102090968D01*
X169290341Y-101924546D01*
X169290342Y-101924539D01*
X169300835Y-101821835D01*
X169300836Y-101821822D01*
X169300836Y-101406849D01*
X168552025Y-101406849D01*
X168577909Y-101380965D01*
X168625962Y-101297734D01*
X168650836Y-101204902D01*
X168650836Y-101108796D01*
X168625962Y-101015964D01*
X168577909Y-100932733D01*
X168552025Y-100906849D01*
X169300835Y-100906849D01*
X169300835Y-100491877D01*
X169300834Y-100491862D01*
X169294305Y-100427951D01*
X169307074Y-100359258D01*
X169354955Y-100308374D01*
X169417663Y-100291349D01*
X172767004Y-100291349D01*
X172834043Y-100311034D01*
X172854685Y-100327668D01*
X173320278Y-100793261D01*
X173353763Y-100854584D01*
X173354214Y-100856750D01*
X173362254Y-100897171D01*
X173362257Y-100897181D01*
X173415057Y-101024653D01*
X173415064Y-101024666D01*
X173491721Y-101139390D01*
X173491724Y-101139394D01*
X173589290Y-101236960D01*
X173589294Y-101236963D01*
X173704018Y-101313620D01*
X173704031Y-101313627D01*
X173792815Y-101350402D01*
X173831508Y-101366429D01*
X173831512Y-101366429D01*
X173831513Y-101366430D01*
X173966840Y-101393349D01*
X173966843Y-101393349D01*
X174104831Y-101393349D01*
X174195877Y-101375238D01*
X174240164Y-101366429D01*
X174367647Y-101313624D01*
X174482378Y-101236963D01*
X174579950Y-101139391D01*
X174656611Y-101024660D01*
X174709416Y-100897177D01*
X174724796Y-100819859D01*
X174736336Y-100761844D01*
X174736336Y-100623853D01*
X174709417Y-100488526D01*
X174709416Y-100488525D01*
X174709416Y-100488521D01*
X174681268Y-100420565D01*
X174656614Y-100361044D01*
X174656610Y-100361037D01*
X174655421Y-100359258D01*
X174605906Y-100285153D01*
X188635336Y-100285153D01*
X188635336Y-101012544D01*
X188669939Y-101186507D01*
X188669942Y-101186516D01*
X188737819Y-101350389D01*
X188737826Y-101350402D01*
X188836371Y-101497883D01*
X188836374Y-101497887D01*
X188961797Y-101623310D01*
X188961801Y-101623313D01*
X189109282Y-101721858D01*
X189109295Y-101721865D01*
X189217980Y-101766883D01*
X189273170Y-101789743D01*
X189273172Y-101789743D01*
X189273177Y-101789745D01*
X189447140Y-101824348D01*
X189447143Y-101824349D01*
X189447145Y-101824349D01*
X189624529Y-101824349D01*
X189624530Y-101824348D01*
X189682518Y-101812813D01*
X189798494Y-101789745D01*
X189798497Y-101789743D01*
X189798502Y-101789743D01*
X189962383Y-101721862D01*
X190109871Y-101623313D01*
X190235300Y-101497884D01*
X190251185Y-101474109D01*
X190304795Y-101429304D01*
X190374120Y-101420595D01*
X190437148Y-101450749D01*
X190471994Y-101503994D01*
X190501478Y-101592970D01*
X190501479Y-101592973D01*
X190593520Y-101742194D01*
X190717490Y-101866164D01*
X190866711Y-101958205D01*
X190866716Y-101958207D01*
X191033138Y-102013354D01*
X191033145Y-102013355D01*
X191135855Y-102023848D01*
X191285835Y-102023848D01*
X191285836Y-102023847D01*
X191285836Y-100929179D01*
X191305581Y-100948924D01*
X191391091Y-100998293D01*
X191486466Y-101023849D01*
X191585206Y-101023849D01*
X191680581Y-100998293D01*
X191766091Y-100948924D01*
X191785836Y-100929179D01*
X191785836Y-102023848D01*
X191935808Y-102023848D01*
X191935822Y-102023847D01*
X192038533Y-102013354D01*
X192204955Y-101958207D01*
X192204960Y-101958205D01*
X192354181Y-101866164D01*
X192478151Y-101742194D01*
X192570192Y-101592973D01*
X192570194Y-101592968D01*
X192625341Y-101426546D01*
X192625342Y-101426539D01*
X192635835Y-101323835D01*
X192635836Y-101323822D01*
X192635836Y-100898849D01*
X191816166Y-100898849D01*
X191835911Y-100879104D01*
X191885280Y-100793594D01*
X191910836Y-100698219D01*
X191910836Y-100599479D01*
X191885280Y-100504104D01*
X191835911Y-100418594D01*
X191816166Y-100398849D01*
X192635835Y-100398849D01*
X192635835Y-99973877D01*
X192635834Y-99973862D01*
X192625341Y-99871151D01*
X192570194Y-99704729D01*
X192570192Y-99704724D01*
X192478151Y-99555503D01*
X192354181Y-99431533D01*
X192204960Y-99339492D01*
X192204955Y-99339490D01*
X192038533Y-99284343D01*
X192038526Y-99284342D01*
X191935822Y-99273849D01*
X191785836Y-99273849D01*
X191785836Y-100368519D01*
X191766091Y-100348774D01*
X191680581Y-100299405D01*
X191585206Y-100273849D01*
X191486466Y-100273849D01*
X191391091Y-100299405D01*
X191305581Y-100348774D01*
X191285836Y-100368519D01*
X191285836Y-99273849D01*
X191135863Y-99273849D01*
X191135848Y-99273850D01*
X191033138Y-99284343D01*
X190866716Y-99339490D01*
X190866711Y-99339492D01*
X190717490Y-99431533D01*
X190593520Y-99555503D01*
X190501479Y-99704724D01*
X190501478Y-99704727D01*
X190471994Y-99793703D01*
X190432220Y-99851148D01*
X190367704Y-99877970D01*
X190298929Y-99865654D01*
X190251185Y-99823588D01*
X190235298Y-99799811D01*
X190109874Y-99674387D01*
X190109870Y-99674384D01*
X189962389Y-99575839D01*
X189962376Y-99575832D01*
X189798503Y-99507955D01*
X189798494Y-99507952D01*
X189624530Y-99473349D01*
X189624527Y-99473349D01*
X189447145Y-99473349D01*
X189447142Y-99473349D01*
X189273177Y-99507952D01*
X189273168Y-99507955D01*
X189109295Y-99575832D01*
X189109282Y-99575839D01*
X188961801Y-99674384D01*
X188961797Y-99674387D01*
X188836374Y-99799810D01*
X188836371Y-99799814D01*
X188737826Y-99947295D01*
X188737819Y-99947308D01*
X188669942Y-100111181D01*
X188669939Y-100111190D01*
X188635336Y-100285153D01*
X174605906Y-100285153D01*
X174579950Y-100246307D01*
X174509522Y-100175879D01*
X174505239Y-100170529D01*
X174494468Y-100144288D01*
X174480873Y-100119391D01*
X174481373Y-100112387D01*
X174478708Y-100105893D01*
X174483833Y-100077997D01*
X174485857Y-100049699D01*
X174490303Y-100042779D01*
X174491334Y-100037173D01*
X174499526Y-100028430D01*
X174514359Y-100005351D01*
X174563157Y-99956553D01*
X174563160Y-99956550D01*
X174639821Y-99841819D01*
X174692626Y-99714336D01*
X174719546Y-99579001D01*
X174719546Y-99441015D01*
X174719546Y-99441012D01*
X174692627Y-99305685D01*
X174692626Y-99305684D01*
X174692626Y-99305680D01*
X174679441Y-99273849D01*
X174637490Y-99172568D01*
X174639696Y-99171653D01*
X174627596Y-99113599D01*
X174652581Y-99048349D01*
X174682305Y-99020420D01*
X174732378Y-98986963D01*
X174829950Y-98889391D01*
X174906611Y-98774660D01*
X174959416Y-98647177D01*
X174986336Y-98511842D01*
X174986336Y-98373856D01*
X174986336Y-98373853D01*
X174959417Y-98238526D01*
X174959416Y-98238525D01*
X174959416Y-98238521D01*
X174959414Y-98238516D01*
X174906614Y-98111044D01*
X174906607Y-98111031D01*
X174829950Y-97996307D01*
X174829947Y-97996303D01*
X174732381Y-97898737D01*
X174732377Y-97898734D01*
X174617653Y-97822077D01*
X174617640Y-97822070D01*
X174490168Y-97769270D01*
X174490158Y-97769267D01*
X174354831Y-97742349D01*
X174354829Y-97742349D01*
X174216843Y-97742349D01*
X174216841Y-97742349D01*
X174081513Y-97769267D01*
X174081503Y-97769270D01*
X173954031Y-97822070D01*
X173954024Y-97822074D01*
X173921766Y-97843628D01*
X173886112Y-97867451D01*
X173819437Y-97888329D01*
X173817223Y-97888349D01*
X152327702Y-97888349D01*
X152260663Y-97868664D01*
X152240021Y-97852030D01*
X147649835Y-93261844D01*
X154835335Y-93261844D01*
X154862254Y-93397171D01*
X154862257Y-93397181D01*
X154915057Y-93524653D01*
X154915064Y-93524666D01*
X154991721Y-93639390D01*
X154991724Y-93639394D01*
X155089290Y-93736960D01*
X155089294Y-93736963D01*
X155204018Y-93813620D01*
X155204031Y-93813627D01*
X155331503Y-93866427D01*
X155331508Y-93866429D01*
X155331512Y-93866429D01*
X155331513Y-93866430D01*
X155466840Y-93893349D01*
X155466843Y-93893349D01*
X155604831Y-93893349D01*
X155695877Y-93875238D01*
X155740164Y-93866429D01*
X155867647Y-93813624D01*
X155982378Y-93736963D01*
X155982381Y-93736960D01*
X155989674Y-93729668D01*
X156050997Y-93696183D01*
X156077355Y-93693349D01*
X161601726Y-93693349D01*
X161601728Y-93693349D01*
X161729022Y-93659241D01*
X161843150Y-93593349D01*
X163256831Y-92179668D01*
X163318154Y-92146183D01*
X163344512Y-92143349D01*
X163354831Y-92143349D01*
X163445877Y-92125238D01*
X163490164Y-92116429D01*
X163617647Y-92063624D01*
X163732378Y-91986963D01*
X163829950Y-91889391D01*
X163906611Y-91774660D01*
X163959416Y-91647177D01*
X163986336Y-91511842D01*
X163986336Y-91373856D01*
X163986336Y-91373853D01*
X163959417Y-91238526D01*
X163959416Y-91238525D01*
X163959416Y-91238521D01*
X163959414Y-91238516D01*
X163906614Y-91111044D01*
X163906607Y-91111031D01*
X163829950Y-90996307D01*
X163829947Y-90996303D01*
X163732381Y-90898737D01*
X163732377Y-90898734D01*
X163617653Y-90822077D01*
X163617640Y-90822070D01*
X163490168Y-90769270D01*
X163490158Y-90769267D01*
X163354831Y-90742349D01*
X163354829Y-90742349D01*
X163216843Y-90742349D01*
X163216841Y-90742349D01*
X163081513Y-90769267D01*
X163081503Y-90769270D01*
X162954031Y-90822070D01*
X162954018Y-90822077D01*
X162839294Y-90898734D01*
X162839290Y-90898737D01*
X162741724Y-90996303D01*
X162741721Y-90996307D01*
X162665064Y-91111031D01*
X162665057Y-91111044D01*
X162612257Y-91238516D01*
X162612254Y-91238526D01*
X162585336Y-91373853D01*
X162585336Y-91384173D01*
X162565651Y-91451212D01*
X162549017Y-91471854D01*
X161364841Y-92656030D01*
X161303518Y-92689515D01*
X161277160Y-92692349D01*
X156077355Y-92692349D01*
X156010316Y-92672664D01*
X155989674Y-92656030D01*
X155982381Y-92648737D01*
X155982377Y-92648734D01*
X155867653Y-92572077D01*
X155867640Y-92572070D01*
X155740168Y-92519270D01*
X155740158Y-92519267D01*
X155604831Y-92492349D01*
X155604829Y-92492349D01*
X155466843Y-92492349D01*
X155466841Y-92492349D01*
X155331513Y-92519267D01*
X155331503Y-92519270D01*
X155204031Y-92572070D01*
X155204018Y-92572077D01*
X155089294Y-92648734D01*
X155089290Y-92648737D01*
X154991724Y-92746303D01*
X154991721Y-92746307D01*
X154915064Y-92861031D01*
X154915057Y-92861044D01*
X154862257Y-92988516D01*
X154862254Y-92988526D01*
X154835336Y-93123853D01*
X154835336Y-93123856D01*
X154835336Y-93261842D01*
X154835336Y-93261844D01*
X154835335Y-93261844D01*
X147649835Y-93261844D01*
X144608690Y-90220699D01*
X144575205Y-90159376D01*
X144580189Y-90089684D01*
X144622061Y-90033751D01*
X144628880Y-90028994D01*
X144638413Y-90022808D01*
X144672639Y-90008632D01*
X144787370Y-89931971D01*
X144803899Y-89915441D01*
X144814856Y-89908333D01*
X144836326Y-89901927D01*
X144855989Y-89891191D01*
X144881512Y-89888446D01*
X144881810Y-89888358D01*
X144881953Y-89888399D01*
X144882347Y-89888357D01*
X149963013Y-89888357D01*
X150030052Y-89908042D01*
X150075807Y-89960846D01*
X150085751Y-90030004D01*
X150056726Y-90093560D01*
X150050694Y-90100038D01*
X148857375Y-91293358D01*
X148796052Y-91326843D01*
X148769694Y-91329677D01*
X148759375Y-91329677D01*
X148624047Y-91356595D01*
X148624037Y-91356598D01*
X148496565Y-91409398D01*
X148496552Y-91409405D01*
X148381828Y-91486062D01*
X148381824Y-91486065D01*
X148284258Y-91583631D01*
X148284255Y-91583635D01*
X148207598Y-91698359D01*
X148207591Y-91698372D01*
X148154791Y-91825844D01*
X148154788Y-91825854D01*
X148127870Y-91961181D01*
X148127870Y-91961184D01*
X148127870Y-92099170D01*
X148127870Y-92099172D01*
X148127869Y-92099172D01*
X148154788Y-92234499D01*
X148154791Y-92234509D01*
X148207591Y-92361981D01*
X148207598Y-92361994D01*
X148284255Y-92476718D01*
X148284258Y-92476722D01*
X148381824Y-92574288D01*
X148381828Y-92574291D01*
X148496552Y-92650948D01*
X148496565Y-92650955D01*
X148624037Y-92703755D01*
X148624042Y-92703757D01*
X148624046Y-92703757D01*
X148624047Y-92703758D01*
X148759374Y-92730677D01*
X148759377Y-92730677D01*
X148897365Y-92730677D01*
X148988411Y-92712566D01*
X149032698Y-92703757D01*
X149160181Y-92650952D01*
X149274912Y-92574291D01*
X149372484Y-92476719D01*
X149449145Y-92361988D01*
X149501950Y-92234505D01*
X149512858Y-92179668D01*
X149528870Y-92099172D01*
X149528870Y-92088853D01*
X149548555Y-92021814D01*
X149565189Y-92001172D01*
X153321762Y-88244599D01*
X153383085Y-88211114D01*
X153409443Y-88208280D01*
X153419762Y-88208280D01*
X153510808Y-88190169D01*
X153555095Y-88181360D01*
X153682578Y-88128555D01*
X153797309Y-88051894D01*
X153894881Y-87954322D01*
X153971542Y-87839591D01*
X153979099Y-87821348D01*
X154005605Y-87757355D01*
X154024347Y-87712108D01*
X154038811Y-87639394D01*
X154051267Y-87576775D01*
X154051267Y-87438784D01*
X154024348Y-87303457D01*
X154024347Y-87303456D01*
X154024347Y-87303452D01*
X154009675Y-87268030D01*
X153971545Y-87175975D01*
X153971538Y-87175962D01*
X153894881Y-87061238D01*
X153894878Y-87061234D01*
X153797312Y-86963668D01*
X153797308Y-86963665D01*
X153682584Y-86887008D01*
X153682574Y-86887003D01*
X153657857Y-86876765D01*
X153603454Y-86832924D01*
X153581389Y-86766630D01*
X153598668Y-86698930D01*
X153617625Y-86674527D01*
X156099458Y-84192694D01*
X156111652Y-84182001D01*
X156117348Y-84177629D01*
X156117360Y-84177623D01*
X156930896Y-83364084D01*
X156992219Y-83330600D01*
X156994314Y-83330163D01*
X157034404Y-83322189D01*
X157161887Y-83269384D01*
X157276618Y-83192723D01*
X157374190Y-83095151D01*
X157450851Y-82980420D01*
X157503656Y-82852937D01*
X157516951Y-82786097D01*
X157530576Y-82717604D01*
X157530576Y-82579613D01*
X157503657Y-82444286D01*
X157503656Y-82444285D01*
X157503656Y-82444281D01*
X157486233Y-82402218D01*
X157450854Y-82316804D01*
X157450847Y-82316791D01*
X157374190Y-82202067D01*
X157374187Y-82202063D01*
X157276621Y-82104497D01*
X157276617Y-82104494D01*
X157161893Y-82027837D01*
X157161880Y-82027830D01*
X157034408Y-81975030D01*
X157034398Y-81975027D01*
X156899071Y-81948109D01*
X156899069Y-81948109D01*
X156761083Y-81948109D01*
X156761081Y-81948109D01*
X156625753Y-81975027D01*
X156625743Y-81975030D01*
X156498271Y-82027830D01*
X156498258Y-82027837D01*
X156383534Y-82104494D01*
X156383530Y-82104497D01*
X156285964Y-82202063D01*
X156285961Y-82202067D01*
X156209304Y-82316791D01*
X156209297Y-82316804D01*
X156156497Y-82444276D01*
X156156494Y-82444286D01*
X156129576Y-82579613D01*
X156129576Y-82698416D01*
X156109891Y-82765455D01*
X156093257Y-82786097D01*
X155517808Y-83361545D01*
X155505625Y-83372231D01*
X155499904Y-83376621D01*
X151261581Y-87614944D01*
X151200258Y-87648429D01*
X151130566Y-87643445D01*
X151074633Y-87601573D01*
X151050216Y-87536109D01*
X151059339Y-87479810D01*
X151093567Y-87397177D01*
X151110355Y-87312780D01*
X151120487Y-87261844D01*
X151120487Y-87123853D01*
X151093568Y-86988526D01*
X151093567Y-86988525D01*
X151093567Y-86988521D01*
X151083272Y-86963666D01*
X151040765Y-86861044D01*
X151040758Y-86861031D01*
X150964101Y-86746307D01*
X150964098Y-86746303D01*
X150887533Y-86669738D01*
X150854048Y-86608415D01*
X150859032Y-86538723D01*
X150887533Y-86494376D01*
X150965098Y-86416810D01*
X150965101Y-86416807D01*
X151041762Y-86302076D01*
X151094567Y-86174593D01*
X151115601Y-86068849D01*
X151121487Y-86039260D01*
X151121487Y-85901269D01*
X151094568Y-85765942D01*
X151094567Y-85765941D01*
X151094567Y-85765937D01*
X151048910Y-85655710D01*
X151041765Y-85638460D01*
X151041758Y-85638447D01*
X150965101Y-85523723D01*
X150965098Y-85523719D01*
X150867532Y-85426153D01*
X150867528Y-85426150D01*
X150752804Y-85349493D01*
X150752791Y-85349486D01*
X150625319Y-85296686D01*
X150625309Y-85296683D01*
X150489982Y-85269765D01*
X150489980Y-85269765D01*
X150351994Y-85269765D01*
X150351992Y-85269765D01*
X150216664Y-85296683D01*
X150216654Y-85296686D01*
X150089182Y-85349486D01*
X150089169Y-85349493D01*
X149981478Y-85421451D01*
X149914800Y-85442329D01*
X149912587Y-85442349D01*
X145957012Y-85442349D01*
X145889973Y-85422664D01*
X145869331Y-85406030D01*
X145603905Y-85140604D01*
X145570420Y-85079281D01*
X145567586Y-85052923D01*
X145567586Y-85042603D01*
X145540667Y-84907276D01*
X145540666Y-84907275D01*
X145540666Y-84907271D01*
X145536264Y-84896644D01*
X145487864Y-84779794D01*
X145487857Y-84779781D01*
X145411200Y-84665057D01*
X145411197Y-84665053D01*
X145313631Y-84567487D01*
X145313627Y-84567484D01*
X145198903Y-84490827D01*
X145198890Y-84490820D01*
X145071418Y-84438020D01*
X145071408Y-84438017D01*
X144936081Y-84411099D01*
X144936079Y-84411099D01*
X144798093Y-84411099D01*
X144798091Y-84411099D01*
X144662763Y-84438017D01*
X144662753Y-84438020D01*
X144535281Y-84490820D01*
X144535268Y-84490827D01*
X144420544Y-84567484D01*
X144420540Y-84567487D01*
X144322974Y-84665053D01*
X144322971Y-84665057D01*
X144246314Y-84779781D01*
X144246307Y-84779794D01*
X144193507Y-84907266D01*
X144193504Y-84907276D01*
X144166586Y-85042603D01*
X144166586Y-85042606D01*
X144166586Y-85180592D01*
X144166586Y-85180594D01*
X144166585Y-85180594D01*
X144193504Y-85315921D01*
X144193507Y-85315931D01*
X144246307Y-85443403D01*
X144246314Y-85443416D01*
X144322971Y-85558140D01*
X144322974Y-85558144D01*
X144420540Y-85655710D01*
X144420544Y-85655713D01*
X144535268Y-85732370D01*
X144535281Y-85732377D01*
X144620878Y-85767832D01*
X144662758Y-85785179D01*
X144662762Y-85785179D01*
X144662763Y-85785180D01*
X144798090Y-85812099D01*
X144798093Y-85812099D01*
X144808410Y-85812099D01*
X144875449Y-85831784D01*
X144896091Y-85848418D01*
X145278341Y-86230668D01*
X145311826Y-86291991D01*
X145306842Y-86361683D01*
X145264970Y-86417616D01*
X145199506Y-86442033D01*
X145190660Y-86442349D01*
X143235682Y-86442349D01*
X143168643Y-86422664D01*
X143136878Y-86393274D01*
X143082336Y-86321348D01*
X142964496Y-86231988D01*
X142964494Y-86231987D01*
X142826913Y-86177732D01*
X142826912Y-86177731D01*
X142826910Y-86177731D01*
X142740455Y-86167349D01*
X142740454Y-86167349D01*
X142156218Y-86167349D01*
X142156217Y-86167349D01*
X142069761Y-86177731D01*
X142069760Y-86177731D01*
X141932175Y-86231988D01*
X141814335Y-86321348D01*
X141724975Y-86439188D01*
X141670718Y-86576773D01*
X141670718Y-86576774D01*
X141660336Y-86663230D01*
X141660336Y-87222467D01*
X141670718Y-87308923D01*
X141670718Y-87308924D01*
X141670719Y-87308926D01*
X141724972Y-87446503D01*
X141724975Y-87446509D01*
X141814334Y-87564347D01*
X141814336Y-87564349D01*
X141819611Y-87568349D01*
X141853496Y-87594045D01*
X141895019Y-87650238D01*
X141899570Y-87719959D01*
X141865705Y-87781073D01*
X141853496Y-87791653D01*
X141814334Y-87821350D01*
X141724975Y-87939188D01*
X141670718Y-88076773D01*
X141670718Y-88076774D01*
X141660336Y-88163230D01*
X141660336Y-88722467D01*
X141670718Y-88808923D01*
X141670718Y-88808924D01*
X141670719Y-88808926D01*
X141723526Y-88942836D01*
X141724975Y-88946509D01*
X141786478Y-89027613D01*
X141814336Y-89064349D01*
X141843276Y-89086295D01*
X141853496Y-89094045D01*
X141895019Y-89150238D01*
X141899570Y-89219959D01*
X141865705Y-89281073D01*
X141853496Y-89291653D01*
X141814334Y-89321350D01*
X141724975Y-89439188D01*
X141670718Y-89576773D01*
X141670718Y-89576774D01*
X141660336Y-89663230D01*
X141660336Y-90222467D01*
X141670718Y-90308923D01*
X141670718Y-90308924D01*
X141724975Y-90446509D01*
X141814335Y-90564349D01*
X141928542Y-90650954D01*
X141932178Y-90653711D01*
X142069759Y-90707966D01*
X142127398Y-90714888D01*
X142156217Y-90718349D01*
X142156218Y-90718349D01*
X142464660Y-90718349D01*
X142531699Y-90738034D01*
X142552341Y-90754668D01*
X151293769Y-99496096D01*
X151292139Y-99497725D01*
X151326337Y-99544562D01*
X151330491Y-99614308D01*
X151296277Y-99675228D01*
X151234560Y-99707980D01*
X151209647Y-99710508D01*
X144787671Y-99710508D01*
X144720632Y-99690823D01*
X144699990Y-99674189D01*
X137430831Y-92405030D01*
X137397346Y-92343707D01*
X137402330Y-92274015D01*
X137444202Y-92218082D01*
X137509666Y-92193665D01*
X137518512Y-92193349D01*
X138178933Y-92193349D01*
X138178938Y-92193349D01*
X138267400Y-92182726D01*
X138408178Y-92127210D01*
X138528758Y-92035771D01*
X138620197Y-91915191D01*
X138630446Y-91889200D01*
X138676721Y-91771859D01*
X138719627Y-91716715D01*
X138785534Y-91693522D01*
X138792075Y-91693349D01*
X139439226Y-91693349D01*
X139439228Y-91693349D01*
X139566522Y-91659241D01*
X139680650Y-91593349D01*
X140519331Y-90754668D01*
X140580654Y-90721183D01*
X140607012Y-90718349D01*
X140915455Y-90718349D01*
X140937068Y-90715753D01*
X141001913Y-90707966D01*
X141139494Y-90653711D01*
X141257336Y-90564349D01*
X141346698Y-90446507D01*
X141400953Y-90308926D01*
X141411336Y-90222467D01*
X141411336Y-89663231D01*
X141400953Y-89576772D01*
X141346698Y-89439191D01*
X141344241Y-89435951D01*
X141257336Y-89321348D01*
X141218176Y-89291653D01*
X141176653Y-89235461D01*
X141172101Y-89165740D01*
X141205965Y-89104626D01*
X141218176Y-89094045D01*
X141257336Y-89064349D01*
X141346696Y-88946509D01*
X141346698Y-88946507D01*
X141400953Y-88808926D01*
X141411336Y-88722467D01*
X141411336Y-88163231D01*
X141400953Y-88076772D01*
X141346698Y-87939191D01*
X141329185Y-87916096D01*
X141257336Y-87821348D01*
X141218176Y-87791653D01*
X141176653Y-87735461D01*
X141172101Y-87665740D01*
X141205965Y-87604626D01*
X141218176Y-87594045D01*
X141257336Y-87564349D01*
X141316603Y-87486193D01*
X141346698Y-87446507D01*
X141400953Y-87308926D01*
X141411336Y-87222467D01*
X141411336Y-86663231D01*
X141400953Y-86576772D01*
X141346698Y-86439191D01*
X141345375Y-86437446D01*
X141257336Y-86321348D01*
X141139496Y-86231988D01*
X141139494Y-86231987D01*
X141001913Y-86177732D01*
X141001912Y-86177731D01*
X141001910Y-86177731D01*
X140915455Y-86167349D01*
X140915454Y-86167349D01*
X140607012Y-86167349D01*
X140539973Y-86147664D01*
X140519331Y-86131030D01*
X139930652Y-85542351D01*
X139930650Y-85542349D01*
X139930647Y-85542347D01*
X139930643Y-85542344D01*
X139848334Y-85494822D01*
X139800119Y-85444255D01*
X139786335Y-85387436D01*
X139786335Y-84824757D01*
X139786335Y-84824751D01*
X139775712Y-84736285D01*
X139720197Y-84595507D01*
X139720195Y-84595504D01*
X139628758Y-84474926D01*
X139508180Y-84383489D01*
X139508178Y-84383488D01*
X139367400Y-84327973D01*
X139367397Y-84327972D01*
X139278935Y-84317349D01*
X138267744Y-84317349D01*
X138179273Y-84327972D01*
X138038493Y-84383488D01*
X138038491Y-84383489D01*
X137917913Y-84474926D01*
X137826476Y-84595504D01*
X137809517Y-84638509D01*
X137779217Y-84715348D01*
X137770960Y-84736286D01*
X137770959Y-84736287D01*
X137760336Y-84824749D01*
X137760336Y-87060940D01*
X137770959Y-87149411D01*
X137826475Y-87290191D01*
X137826476Y-87290193D01*
X137917913Y-87410771D01*
X138006754Y-87478141D01*
X138038494Y-87502210D01*
X138179272Y-87557725D01*
X138267737Y-87568349D01*
X139278934Y-87568348D01*
X139367400Y-87557725D01*
X139508178Y-87502210D01*
X139588564Y-87441250D01*
X139628757Y-87410772D01*
X139628758Y-87410771D01*
X139664661Y-87363424D01*
X139720851Y-87321903D01*
X139790572Y-87317350D01*
X139851687Y-87351214D01*
X139878818Y-87392861D01*
X139899972Y-87446503D01*
X139899975Y-87446509D01*
X139989334Y-87564347D01*
X139989336Y-87564349D01*
X139994611Y-87568349D01*
X140028496Y-87594045D01*
X140070019Y-87650238D01*
X140074570Y-87719959D01*
X140040705Y-87781073D01*
X140028496Y-87791653D01*
X139989334Y-87821350D01*
X139899975Y-87939188D01*
X139845718Y-88076773D01*
X139845718Y-88076774D01*
X139835336Y-88163230D01*
X139835336Y-88318349D01*
X139815651Y-88385388D01*
X139762847Y-88431143D01*
X139711336Y-88442349D01*
X138792075Y-88442349D01*
X138725036Y-88422664D01*
X138679281Y-88369860D01*
X138676721Y-88363839D01*
X138620198Y-88220509D01*
X138620197Y-88220507D01*
X138528758Y-88099926D01*
X138408179Y-88008488D01*
X138270823Y-87954322D01*
X138267400Y-87952972D01*
X138267399Y-87952971D01*
X138267397Y-87952971D01*
X138221762Y-87947491D01*
X138178938Y-87942349D01*
X137442734Y-87942349D01*
X137403689Y-87947037D01*
X137354274Y-87952971D01*
X137213492Y-88008488D01*
X137092913Y-88099926D01*
X137001475Y-88220505D01*
X136945958Y-88361287D01*
X136940024Y-88410702D01*
X136935336Y-88449747D01*
X136935336Y-89435951D01*
X136940962Y-89482803D01*
X136945958Y-89524410D01*
X137001475Y-89665192D01*
X137092913Y-89785771D01*
X137213492Y-89877209D01*
X137213493Y-89877209D01*
X137213494Y-89877210D01*
X137354272Y-89932726D01*
X137442734Y-89943349D01*
X137442739Y-89943349D01*
X138178933Y-89943349D01*
X138178938Y-89943349D01*
X138267400Y-89932726D01*
X138408178Y-89877210D01*
X138528758Y-89785771D01*
X138620197Y-89665191D01*
X138652951Y-89582134D01*
X138676721Y-89521859D01*
X138719627Y-89466715D01*
X138785534Y-89443522D01*
X138792075Y-89443349D01*
X139721960Y-89443349D01*
X139788999Y-89463034D01*
X139834754Y-89515838D01*
X139845075Y-89582134D01*
X139835336Y-89663230D01*
X139835336Y-89971673D01*
X139815651Y-90038712D01*
X139799017Y-90059354D01*
X139202341Y-90656030D01*
X139141018Y-90689515D01*
X139114660Y-90692349D01*
X138792075Y-90692349D01*
X138725036Y-90672664D01*
X138679281Y-90619860D01*
X138676721Y-90613839D01*
X138620198Y-90470509D01*
X138620197Y-90470507D01*
X138528758Y-90349926D01*
X138408179Y-90258488D01*
X138267397Y-90202971D01*
X138221762Y-90197491D01*
X138178938Y-90192349D01*
X137442734Y-90192349D01*
X137404536Y-90196936D01*
X137354274Y-90202971D01*
X137213492Y-90258488D01*
X137092913Y-90349926D01*
X137001475Y-90470505D01*
X136945958Y-90611287D01*
X136945652Y-90613839D01*
X136935336Y-90699747D01*
X136935336Y-90699752D01*
X136935336Y-91610173D01*
X136929097Y-91631418D01*
X136927518Y-91653507D01*
X136919445Y-91664290D01*
X136915651Y-91677212D01*
X136898917Y-91691711D01*
X136885646Y-91709440D01*
X136873025Y-91714147D01*
X136862847Y-91722967D01*
X136840929Y-91726118D01*
X136820182Y-91733857D01*
X136807021Y-91730994D01*
X136793689Y-91732911D01*
X136773545Y-91723711D01*
X136751909Y-91719005D01*
X136734183Y-91705736D01*
X136730133Y-91703886D01*
X136723655Y-91697854D01*
X136672655Y-91646854D01*
X136639170Y-91585531D01*
X136636336Y-91559173D01*
X136636336Y-90699752D01*
X136636336Y-90699747D01*
X136625713Y-90611285D01*
X136570197Y-90470507D01*
X136570196Y-90470506D01*
X136570196Y-90470505D01*
X136478758Y-90349926D01*
X136358179Y-90258488D01*
X136347643Y-90254333D01*
X136339845Y-90251258D01*
X136323254Y-90238349D01*
X136304133Y-90229617D01*
X136296233Y-90217325D01*
X136284702Y-90208353D01*
X136277723Y-90188523D01*
X136266359Y-90170839D01*
X136262806Y-90146132D01*
X136261509Y-90142445D01*
X136261336Y-90135904D01*
X136261336Y-89999793D01*
X136281021Y-89932754D01*
X136333825Y-89886999D01*
X136339837Y-89884442D01*
X136358178Y-89877210D01*
X136478758Y-89785771D01*
X136570197Y-89665191D01*
X136625713Y-89524413D01*
X136636336Y-89435951D01*
X136636336Y-88449747D01*
X136625713Y-88361285D01*
X136570197Y-88220507D01*
X136570196Y-88220506D01*
X136570196Y-88220505D01*
X136478758Y-88099926D01*
X136358177Y-88008487D01*
X136337784Y-88000445D01*
X136282641Y-87957539D01*
X136259448Y-87891631D01*
X136275569Y-87823647D01*
X136325886Y-87775170D01*
X136370674Y-87761733D01*
X136413524Y-87757355D01*
X136413532Y-87757354D01*
X136579954Y-87702207D01*
X136579959Y-87702205D01*
X136729180Y-87610164D01*
X136853151Y-87486193D01*
X136945192Y-87336972D01*
X136945194Y-87336967D01*
X137000341Y-87170545D01*
X137000342Y-87170538D01*
X137010835Y-87067834D01*
X137010836Y-87067821D01*
X137010836Y-86192849D01*
X135922336Y-86192849D01*
X135855297Y-86173164D01*
X135809542Y-86120360D01*
X135798336Y-86068849D01*
X135798336Y-85942849D01*
X135672336Y-85942849D01*
X135605297Y-85923164D01*
X135559542Y-85870360D01*
X135548336Y-85818849D01*
X135548336Y-85692849D01*
X136048336Y-85692849D01*
X137010836Y-85692849D01*
X137010836Y-84817876D01*
X137010835Y-84817863D01*
X137000342Y-84715159D01*
X137000341Y-84715152D01*
X136945194Y-84548730D01*
X136945192Y-84548725D01*
X136853151Y-84399504D01*
X136729180Y-84275533D01*
X136579959Y-84183492D01*
X136579954Y-84183490D01*
X136413532Y-84128343D01*
X136413525Y-84128342D01*
X136310821Y-84117849D01*
X136048336Y-84117849D01*
X136048336Y-85692849D01*
X135548336Y-85692849D01*
X135548336Y-84117849D01*
X135285850Y-84117849D01*
X135176407Y-84129031D01*
X135176161Y-84126623D01*
X135117603Y-84122233D01*
X135061814Y-84080170D01*
X135037622Y-84014622D01*
X135037336Y-84006201D01*
X135037336Y-81859277D01*
X135057021Y-81792238D01*
X135109825Y-81746483D01*
X135178983Y-81736539D01*
X135208785Y-81744714D01*
X135316923Y-81789507D01*
X135316927Y-81789507D01*
X135316928Y-81789508D01*
X135461915Y-81818349D01*
X135461918Y-81818349D01*
X136109756Y-81818349D01*
X136207298Y-81798945D01*
X136254749Y-81789507D01*
X136362884Y-81744716D01*
X136391324Y-81732936D01*
X136391324Y-81732935D01*
X136391331Y-81732933D01*
X136514252Y-81650800D01*
X136618787Y-81546265D01*
X136700920Y-81423344D01*
X136757494Y-81286762D01*
X136780506Y-81171078D01*
X136786336Y-81141769D01*
X136786336Y-80993928D01*
X136757495Y-80848941D01*
X136757494Y-80848940D01*
X136757494Y-80848936D01*
X136748195Y-80826485D01*
X136700923Y-80712360D01*
X136700916Y-80712347D01*
X136618787Y-80589433D01*
X136618784Y-80589429D01*
X136559884Y-80530529D01*
X136555515Y-80522528D01*
X136548224Y-80517059D01*
X136539034Y-80492346D01*
X136526399Y-80469206D01*
X136527049Y-80460114D01*
X136523872Y-80451570D01*
X136529502Y-80425811D01*
X136531383Y-80399514D01*
X136537240Y-80390409D01*
X136538792Y-80383312D01*
X136559968Y-80355083D01*
X136560472Y-80354580D01*
X136621828Y-80321156D01*
X136648065Y-80318349D01*
X142857704Y-80318349D01*
X142924743Y-80338034D01*
X142970498Y-80390838D01*
X142980442Y-80459996D01*
X142956476Y-80514384D01*
X142957606Y-80515139D01*
X142877564Y-80634928D01*
X142877557Y-80634941D01*
X142824757Y-80762413D01*
X142824754Y-80762423D01*
X142797836Y-80897750D01*
X142797836Y-80897753D01*
X142797836Y-81035739D01*
X142797836Y-81035741D01*
X142797835Y-81035741D01*
X142824754Y-81171068D01*
X142824757Y-81171078D01*
X142877557Y-81298550D01*
X142877564Y-81298563D01*
X142954221Y-81413287D01*
X142954224Y-81413291D01*
X143051790Y-81510857D01*
X143051794Y-81510860D01*
X143166518Y-81587517D01*
X143166531Y-81587524D01*
X143236315Y-81616429D01*
X143294008Y-81640326D01*
X143294012Y-81640326D01*
X143294013Y-81640327D01*
X143429340Y-81667246D01*
X143429343Y-81667246D01*
X143439660Y-81667246D01*
X143506699Y-81686931D01*
X143527341Y-81703565D01*
X146396394Y-84572618D01*
X146510522Y-84638510D01*
X146637816Y-84672618D01*
X146769601Y-84672618D01*
X148045200Y-84672618D01*
X148112239Y-84692303D01*
X148132881Y-84708937D01*
X148140173Y-84716229D01*
X148140177Y-84716232D01*
X148254901Y-84792889D01*
X148254914Y-84792896D01*
X148382386Y-84845696D01*
X148382391Y-84845698D01*
X148382395Y-84845698D01*
X148382396Y-84845699D01*
X148517723Y-84872618D01*
X148517726Y-84872618D01*
X148655714Y-84872618D01*
X148746760Y-84854507D01*
X148791047Y-84845698D01*
X148918530Y-84792893D01*
X149033261Y-84716232D01*
X149130833Y-84618660D01*
X149207494Y-84503929D01*
X149260299Y-84376446D01*
X149287219Y-84241111D01*
X149287219Y-84103125D01*
X149287219Y-84103122D01*
X149260300Y-83967795D01*
X149260299Y-83967794D01*
X149260299Y-83967790D01*
X149260297Y-83967785D01*
X149207497Y-83840313D01*
X149207490Y-83840300D01*
X149130833Y-83725576D01*
X149130830Y-83725572D01*
X149033264Y-83628006D01*
X149033260Y-83628003D01*
X148918536Y-83551346D01*
X148918523Y-83551339D01*
X148791051Y-83498539D01*
X148791041Y-83498536D01*
X148655714Y-83471618D01*
X148655712Y-83471618D01*
X148517726Y-83471618D01*
X148517724Y-83471618D01*
X148382396Y-83498536D01*
X148382386Y-83498539D01*
X148254914Y-83551339D01*
X148254901Y-83551346D01*
X148140177Y-83628003D01*
X148140173Y-83628006D01*
X148132881Y-83635299D01*
X148071558Y-83668784D01*
X148045200Y-83671618D01*
X146962384Y-83671618D01*
X146895345Y-83651933D01*
X146874703Y-83635299D01*
X144235155Y-80995751D01*
X144201670Y-80934428D01*
X144198836Y-80908070D01*
X144198836Y-80897750D01*
X144171917Y-80762423D01*
X144171916Y-80762422D01*
X144171916Y-80762418D01*
X144162016Y-80738516D01*
X144119114Y-80634941D01*
X144119107Y-80634928D01*
X144039066Y-80515139D01*
X144040277Y-80514329D01*
X144015802Y-80456707D01*
X144027592Y-80387839D01*
X144074742Y-80336278D01*
X144138968Y-80318349D01*
X148027160Y-80318349D01*
X148094199Y-80338034D01*
X148114841Y-80354668D01*
X149707974Y-81947801D01*
X149741459Y-82009124D01*
X149741910Y-82011290D01*
X149752082Y-82062429D01*
X149752085Y-82062439D01*
X149804885Y-82189911D01*
X149804892Y-82189924D01*
X149881549Y-82304648D01*
X149881552Y-82304652D01*
X149979118Y-82402218D01*
X149979122Y-82402221D01*
X150093846Y-82478878D01*
X150093859Y-82478885D01*
X150221331Y-82531685D01*
X150221336Y-82531687D01*
X150221340Y-82531687D01*
X150221341Y-82531688D01*
X150356668Y-82558607D01*
X150356671Y-82558607D01*
X150494659Y-82558607D01*
X150585705Y-82540496D01*
X150629992Y-82531687D01*
X150757475Y-82478882D01*
X150872206Y-82402221D01*
X150969778Y-82304649D01*
X151046439Y-82189918D01*
X151057535Y-82163131D01*
X151081822Y-82104495D01*
X151099244Y-82062435D01*
X151121985Y-81948109D01*
X151126164Y-81927102D01*
X151126164Y-81789114D01*
X151121652Y-81766431D01*
X151127878Y-81696843D01*
X151170740Y-81641664D01*
X151219078Y-81620623D01*
X151240164Y-81616429D01*
X151367647Y-81563624D01*
X151482378Y-81486963D01*
X151579950Y-81389391D01*
X151656611Y-81274660D01*
X151709416Y-81147177D01*
X151736336Y-81011842D01*
X151736336Y-80873856D01*
X151736336Y-80873853D01*
X151709417Y-80738526D01*
X151709416Y-80738525D01*
X151709416Y-80738521D01*
X151698577Y-80712354D01*
X151656614Y-80611044D01*
X151656607Y-80611031D01*
X151579950Y-80496307D01*
X151579947Y-80496303D01*
X151482381Y-80398737D01*
X151482377Y-80398734D01*
X151367653Y-80322077D01*
X151367640Y-80322070D01*
X151240168Y-80269270D01*
X151240158Y-80269267D01*
X151104831Y-80242349D01*
X151104829Y-80242349D01*
X151094511Y-80242349D01*
X151027472Y-80222664D01*
X151006830Y-80206030D01*
X149993649Y-79192849D01*
X148968150Y-78167349D01*
X148911086Y-78134403D01*
X148854023Y-78101457D01*
X148790375Y-78084403D01*
X148726728Y-78067349D01*
X148726727Y-78067349D01*
X136648065Y-78067349D01*
X136618624Y-78058704D01*
X136588638Y-78052181D01*
X136583622Y-78048426D01*
X136581026Y-78047664D01*
X136560384Y-78031030D01*
X136559884Y-78030530D01*
X136526399Y-77969207D01*
X136531383Y-77899515D01*
X136559882Y-77855169D01*
X136618787Y-77796265D01*
X136700920Y-77673344D01*
X136757494Y-77536762D01*
X136784423Y-77401384D01*
X136786336Y-77391769D01*
X136786336Y-77243928D01*
X136757495Y-77098941D01*
X136757494Y-77098940D01*
X136757494Y-77098936D01*
X136754798Y-77092427D01*
X136700923Y-76962360D01*
X136700916Y-76962347D01*
X136618787Y-76839433D01*
X136618784Y-76839429D01*
X136559884Y-76780529D01*
X136555515Y-76772528D01*
X136548224Y-76767059D01*
X136539034Y-76742346D01*
X136526399Y-76719206D01*
X136527049Y-76710114D01*
X136523872Y-76701570D01*
X136529502Y-76675811D01*
X136531383Y-76649514D01*
X136537240Y-76640409D01*
X136538792Y-76633312D01*
X136559968Y-76605083D01*
X136560472Y-76604580D01*
X136621828Y-76571156D01*
X136648065Y-76568349D01*
X137552726Y-76568349D01*
X137552728Y-76568349D01*
X137680022Y-76534241D01*
X137708573Y-76517757D01*
X137776469Y-76501284D01*
X137842496Y-76524135D01*
X137885688Y-76579055D01*
X137892189Y-76600949D01*
X137896610Y-76623175D01*
X137896612Y-76623181D01*
X137949412Y-76750653D01*
X137949419Y-76750666D01*
X138026076Y-76865390D01*
X138026079Y-76865394D01*
X138123645Y-76962960D01*
X138123649Y-76962963D01*
X138238373Y-77039620D01*
X138238386Y-77039627D01*
X138365858Y-77092427D01*
X138365863Y-77092429D01*
X138365867Y-77092429D01*
X138365868Y-77092430D01*
X138501195Y-77119349D01*
X138501198Y-77119349D01*
X138639186Y-77119349D01*
X138741831Y-77098931D01*
X138774519Y-77092429D01*
X138902002Y-77039624D01*
X139016733Y-76962963D01*
X139114305Y-76865391D01*
X139148386Y-76814385D01*
X139174397Y-76775458D01*
X139228009Y-76730653D01*
X139277499Y-76720349D01*
X151824726Y-76720349D01*
X151824728Y-76720349D01*
X151952022Y-76686241D01*
X152066150Y-76620349D01*
X152182441Y-76504058D01*
X152243764Y-76470573D01*
X152270122Y-76467739D01*
X152280441Y-76467739D01*
X152406659Y-76442632D01*
X152415774Y-76440819D01*
X152504052Y-76404252D01*
X152573522Y-76396784D01*
X152636001Y-76428059D01*
X152671653Y-76488148D01*
X152675505Y-76518814D01*
X152675505Y-78151330D01*
X152655820Y-78218369D01*
X152639186Y-78239011D01*
X152631893Y-78246303D01*
X152631890Y-78246307D01*
X152555233Y-78361031D01*
X152555226Y-78361044D01*
X152502426Y-78488516D01*
X152502423Y-78488526D01*
X152475505Y-78623853D01*
X152475505Y-78623856D01*
X152475505Y-78761842D01*
X152475505Y-78761844D01*
X152475504Y-78761844D01*
X152502423Y-78897171D01*
X152502426Y-78897181D01*
X152555226Y-79024653D01*
X152555233Y-79024666D01*
X152631890Y-79139390D01*
X152631893Y-79139394D01*
X152729459Y-79236960D01*
X152729463Y-79236963D01*
X152844187Y-79313620D01*
X152844200Y-79313627D01*
X152935531Y-79351457D01*
X152971677Y-79366429D01*
X152971681Y-79366429D01*
X152971682Y-79366430D01*
X153107009Y-79393349D01*
X153107012Y-79393349D01*
X153245000Y-79393349D01*
X153336046Y-79375238D01*
X153380333Y-79366429D01*
X153507816Y-79313624D01*
X153622547Y-79236963D01*
X153720119Y-79139391D01*
X153796780Y-79024660D01*
X153797756Y-79022305D01*
X153810152Y-78992376D01*
X153849585Y-78897177D01*
X153868946Y-78799843D01*
X153876505Y-78761844D01*
X153876505Y-78668391D01*
X153896190Y-78601352D01*
X153948994Y-78555597D01*
X154000920Y-78546952D01*
X154000920Y-78544432D01*
X154145000Y-78544432D01*
X154236046Y-78526321D01*
X154280333Y-78517512D01*
X154407816Y-78464707D01*
X154522547Y-78388046D01*
X154620119Y-78290474D01*
X154696780Y-78175743D01*
X154749585Y-78048260D01*
X154770553Y-77942849D01*
X154776505Y-77912927D01*
X154776505Y-77774936D01*
X154749586Y-77639609D01*
X154749585Y-77639608D01*
X154749585Y-77639604D01*
X154749583Y-77639599D01*
X154696781Y-77512122D01*
X154696779Y-77512119D01*
X154652756Y-77446233D01*
X154631878Y-77379556D01*
X154631858Y-77377343D01*
X154631858Y-75490624D01*
X154651543Y-75423585D01*
X154668181Y-75402939D01*
X154671605Y-75399515D01*
X154675472Y-75395648D01*
X154752133Y-75280917D01*
X154804938Y-75153434D01*
X154807269Y-75147807D01*
X154808370Y-75148263D01*
X154843190Y-75095118D01*
X154907000Y-75066655D01*
X154976068Y-75077209D01*
G37*
%TD.AperFunction*%
%TA.AperFunction,Conductor*%
G36*
X149701859Y-87448981D02*
G01*
X149721842Y-87449696D01*
X149734700Y-87458624D01*
X149749717Y-87463034D01*
X149762808Y-87478141D01*
X149779233Y-87489547D01*
X149793437Y-87513490D01*
X149795472Y-87515838D01*
X149797241Y-87519901D01*
X149799211Y-87524658D01*
X149799215Y-87524666D01*
X149875872Y-87639390D01*
X149875875Y-87639394D01*
X149973441Y-87736960D01*
X149973445Y-87736963D01*
X150088169Y-87813620D01*
X150088182Y-87813627D01*
X150190498Y-87856007D01*
X150215659Y-87866429D01*
X150215663Y-87866429D01*
X150215664Y-87866430D01*
X150350991Y-87893349D01*
X150350994Y-87893349D01*
X150488982Y-87893349D01*
X150580028Y-87875238D01*
X150624315Y-87866429D01*
X150706949Y-87832200D01*
X150776417Y-87824732D01*
X150838897Y-87856007D01*
X150874549Y-87916096D01*
X150872055Y-87985921D01*
X150842082Y-88034443D01*
X150025488Y-88851038D01*
X149964165Y-88884523D01*
X149937807Y-88887357D01*
X144882347Y-88887357D01*
X144815308Y-88867672D01*
X144794666Y-88851038D01*
X144787373Y-88843745D01*
X144787369Y-88843742D01*
X144672645Y-88767085D01*
X144672632Y-88767078D01*
X144545160Y-88714278D01*
X144545150Y-88714275D01*
X144409823Y-88687357D01*
X144409821Y-88687357D01*
X144271835Y-88687357D01*
X144271833Y-88687357D01*
X144136505Y-88714275D01*
X144136500Y-88714277D01*
X144031759Y-88757661D01*
X143962290Y-88765129D01*
X143899811Y-88733853D01*
X143876922Y-88705101D01*
X143837336Y-88636535D01*
X143744150Y-88543349D01*
X143243150Y-88042349D01*
X143240783Y-88040982D01*
X143239188Y-88039310D01*
X143236701Y-88037401D01*
X143236998Y-88037013D01*
X143192568Y-87990416D01*
X143187429Y-87979084D01*
X143177664Y-87954322D01*
X143171698Y-87939191D01*
X143154185Y-87916096D01*
X143082336Y-87821348D01*
X143043176Y-87791653D01*
X143001653Y-87735461D01*
X142997101Y-87665740D01*
X143030965Y-87604626D01*
X143043176Y-87594045D01*
X143082336Y-87564349D01*
X143136878Y-87492424D01*
X143193070Y-87450901D01*
X143235682Y-87443349D01*
X149682678Y-87443349D01*
X149701859Y-87448981D01*
G37*
%TD.AperFunction*%
%TA.AperFunction,Conductor*%
G36*
X179962176Y-58863034D02*
G01*
X180007931Y-58915838D01*
X180017875Y-58984996D01*
X179988850Y-59048552D01*
X179930072Y-59086326D01*
X179914535Y-59089822D01*
X179711524Y-59121975D01*
X179507390Y-59188303D01*
X179316153Y-59285744D01*
X179259381Y-59326992D01*
X179259380Y-59326992D01*
X179894893Y-59962504D01*
X179834755Y-59978619D01*
X179718916Y-60045498D01*
X179624334Y-60140080D01*
X179557455Y-60255919D01*
X179541340Y-60316057D01*
X178905828Y-59680544D01*
X178905828Y-59680545D01*
X178864580Y-59737317D01*
X178767139Y-59928554D01*
X178700811Y-60132688D01*
X178667236Y-60344676D01*
X178667236Y-60559323D01*
X178700811Y-60771311D01*
X178767139Y-60975445D01*
X178864579Y-61166681D01*
X178905828Y-61223453D01*
X178905828Y-61223454D01*
X179541340Y-60587941D01*
X179557455Y-60648081D01*
X179624334Y-60763920D01*
X179718916Y-60858502D01*
X179834755Y-60925381D01*
X179894893Y-60941494D01*
X179259381Y-61577006D01*
X179316153Y-61618255D01*
X179507390Y-61715696D01*
X179711524Y-61782024D01*
X179923513Y-61815600D01*
X180138159Y-61815600D01*
X180350147Y-61782024D01*
X180554281Y-61715696D01*
X180745518Y-61618255D01*
X180802289Y-61577007D01*
X180802289Y-61577006D01*
X180166778Y-60941495D01*
X180226917Y-60925381D01*
X180342756Y-60858502D01*
X180437338Y-60763920D01*
X180504217Y-60648081D01*
X180520331Y-60587942D01*
X181155842Y-61223453D01*
X181155843Y-61223453D01*
X181197091Y-61166682D01*
X181294532Y-60975445D01*
X181360860Y-60771311D01*
X181394436Y-60559323D01*
X181394436Y-60344676D01*
X181360860Y-60132688D01*
X181294532Y-59928554D01*
X181197091Y-59737317D01*
X181155842Y-59680545D01*
X180520330Y-60316057D01*
X180504217Y-60255919D01*
X180437338Y-60140080D01*
X180342756Y-60045498D01*
X180226917Y-59978619D01*
X180166776Y-59962504D01*
X180802290Y-59326992D01*
X180745517Y-59285743D01*
X180554281Y-59188303D01*
X180350147Y-59121975D01*
X180147137Y-59089822D01*
X180084002Y-59059893D01*
X180047071Y-59000581D01*
X180048069Y-58930719D01*
X180086679Y-58872486D01*
X180150643Y-58844372D01*
X180166535Y-58843349D01*
X181769503Y-58843349D01*
X181782952Y-58847298D01*
X181796942Y-58846423D01*
X181815813Y-58856947D01*
X181836542Y-58863034D01*
X181846946Y-58874309D01*
X181857964Y-58880454D01*
X181878859Y-58908893D01*
X181910104Y-58967349D01*
X181953957Y-59049392D01*
X181963260Y-59071850D01*
X182013076Y-59236073D01*
X182017818Y-59259914D01*
X182035239Y-59436787D01*
X182035836Y-59448941D01*
X182035836Y-62686756D01*
X182035239Y-62698910D01*
X182017818Y-62875783D01*
X182013076Y-62899624D01*
X181963260Y-63063847D01*
X181953957Y-63086305D01*
X181873063Y-63237647D01*
X181859558Y-63257859D01*
X181750690Y-63390515D01*
X181733502Y-63407703D01*
X181600846Y-63516571D01*
X181580634Y-63530076D01*
X181429292Y-63610970D01*
X181406834Y-63620273D01*
X181242611Y-63670089D01*
X181218770Y-63674831D01*
X181041897Y-63692252D01*
X181029743Y-63692849D01*
X167785836Y-63692849D01*
X167785836Y-69194385D01*
X167766151Y-69261424D01*
X167713347Y-69307179D01*
X167644189Y-69317123D01*
X167588952Y-69294704D01*
X167514832Y-69240854D01*
X167353475Y-69158637D01*
X167353472Y-69158636D01*
X167181246Y-69102678D01*
X167002387Y-69074349D01*
X167002382Y-69074349D01*
X166821290Y-69074349D01*
X166821285Y-69074349D01*
X166642425Y-69102678D01*
X166470199Y-69158636D01*
X166470196Y-69158637D01*
X166308838Y-69240855D01*
X166162341Y-69347290D01*
X166162336Y-69347294D01*
X166034281Y-69475349D01*
X166034277Y-69475354D01*
X165927842Y-69621851D01*
X165845624Y-69783209D01*
X165845623Y-69783212D01*
X165789665Y-69955438D01*
X165761336Y-70134297D01*
X165761336Y-70315400D01*
X165789664Y-70494257D01*
X165801730Y-70531393D01*
X165803724Y-70601234D01*
X165771479Y-70657390D01*
X160019724Y-76409147D01*
X159958401Y-76442632D01*
X159932043Y-76445466D01*
X157758858Y-76445466D01*
X157736753Y-76438975D01*
X157713798Y-76436989D01*
X157700577Y-76428352D01*
X157691819Y-76425781D01*
X157683076Y-76419615D01*
X157676792Y-76414763D01*
X157668753Y-76406724D01*
X157651125Y-76394945D01*
X157647765Y-76392351D01*
X157629636Y-76367365D01*
X157609851Y-76343691D01*
X157609305Y-76339345D01*
X157606732Y-76335799D01*
X157604989Y-76304980D01*
X157601144Y-76274365D01*
X157602992Y-76269668D01*
X157602787Y-76266041D01*
X157608151Y-76256554D01*
X157620446Y-76225310D01*
X157635792Y-76202342D01*
X157635797Y-76202335D01*
X157644054Y-76182402D01*
X157659327Y-76145528D01*
X157688602Y-76074852D01*
X157715522Y-75939517D01*
X157715522Y-75801531D01*
X157715522Y-75801528D01*
X157688603Y-75666201D01*
X157688602Y-75666200D01*
X157688602Y-75666196D01*
X157650521Y-75574259D01*
X157635800Y-75538719D01*
X157635793Y-75538706D01*
X157583200Y-75459996D01*
X157559136Y-75423982D01*
X157551320Y-75416166D01*
X157542795Y-75400606D01*
X157530336Y-75388217D01*
X157521891Y-75362452D01*
X157517908Y-75355183D01*
X157515522Y-75344361D01*
X157515522Y-75340571D01*
X157511527Y-75325663D01*
X157481414Y-75213277D01*
X157415522Y-75099149D01*
X155182611Y-72866238D01*
X155125547Y-72833292D01*
X155068484Y-72800346D01*
X155004836Y-72783292D01*
X154941189Y-72766238D01*
X152512268Y-72766238D01*
X152380483Y-72766238D01*
X152268420Y-72796265D01*
X152268419Y-72796265D01*
X152253192Y-72800344D01*
X152253191Y-72800345D01*
X152139065Y-72866236D01*
X152139059Y-72866240D01*
X150724270Y-74281030D01*
X150662947Y-74314515D01*
X150636589Y-74317349D01*
X136648065Y-74317349D01*
X136618624Y-74308704D01*
X136588638Y-74302181D01*
X136583622Y-74298426D01*
X136581026Y-74297664D01*
X136560384Y-74281030D01*
X136559884Y-74280530D01*
X136526399Y-74219207D01*
X136531383Y-74149515D01*
X136559882Y-74105169D01*
X136618787Y-74046265D01*
X136700920Y-73923344D01*
X136757494Y-73786762D01*
X136786209Y-73642407D01*
X136786336Y-73641769D01*
X136786336Y-73493928D01*
X136757495Y-73348941D01*
X136757494Y-73348940D01*
X136757494Y-73348936D01*
X136757492Y-73348931D01*
X136700923Y-73212360D01*
X136700916Y-73212347D01*
X136618787Y-73089433D01*
X136618784Y-73089429D01*
X136559885Y-73030530D01*
X136526400Y-72969207D01*
X136531384Y-72899515D01*
X136559885Y-72855168D01*
X136618784Y-72796268D01*
X136618787Y-72796265D01*
X136700920Y-72673344D01*
X136757494Y-72536762D01*
X136786336Y-72391767D01*
X136786336Y-72243931D01*
X136786336Y-72243928D01*
X136757495Y-72098941D01*
X136757494Y-72098940D01*
X136757494Y-72098936D01*
X136722871Y-72015348D01*
X136700923Y-71962360D01*
X136700916Y-71962347D01*
X136618787Y-71839433D01*
X136618784Y-71839429D01*
X136559885Y-71780530D01*
X136526400Y-71719207D01*
X136531384Y-71649515D01*
X136559885Y-71605168D01*
X136618784Y-71546268D01*
X136618787Y-71546265D01*
X136700920Y-71423344D01*
X136757494Y-71286762D01*
X136772994Y-71208842D01*
X136786336Y-71141769D01*
X136786336Y-70993928D01*
X136757495Y-70848941D01*
X136757494Y-70848940D01*
X136757494Y-70848936D01*
X136707939Y-70729301D01*
X136700471Y-70659834D01*
X136731746Y-70597354D01*
X136734820Y-70594168D01*
X136833412Y-70495576D01*
X136922378Y-70351341D01*
X136922383Y-70351330D01*
X136975691Y-70190455D01*
X136985835Y-70091171D01*
X136985836Y-70091158D01*
X136985836Y-70067849D01*
X135952824Y-70067849D01*
X135970041Y-70057909D01*
X136025896Y-70002054D01*
X136065392Y-69933645D01*
X136085836Y-69857345D01*
X136085836Y-69778353D01*
X136065392Y-69702053D01*
X136025896Y-69633644D01*
X135970041Y-69577789D01*
X135952824Y-69567849D01*
X136035836Y-69567849D01*
X136985835Y-69567849D01*
X136985835Y-69544541D01*
X136985834Y-69544526D01*
X136975691Y-69445241D01*
X136922383Y-69284367D01*
X136922378Y-69284356D01*
X136833411Y-69140120D01*
X136833408Y-69140116D01*
X136713568Y-69020276D01*
X136713564Y-69020273D01*
X136569328Y-68931306D01*
X136569317Y-68931301D01*
X136408442Y-68877993D01*
X136309158Y-68867849D01*
X136035836Y-68867849D01*
X136035836Y-69567849D01*
X135952824Y-69567849D01*
X135901632Y-69538293D01*
X135825332Y-69517849D01*
X135746340Y-69517849D01*
X135670040Y-69538293D01*
X135601631Y-69577789D01*
X135545776Y-69633644D01*
X135535836Y-69650860D01*
X135535836Y-68867849D01*
X135262529Y-68867849D01*
X135262510Y-68867850D01*
X135173937Y-68876899D01*
X135105245Y-68864129D01*
X135054360Y-68816248D01*
X135037336Y-68753541D01*
X135037336Y-68017349D01*
X135057021Y-67950310D01*
X135109825Y-67904555D01*
X135161336Y-67893349D01*
X140694317Y-67893349D01*
X140761356Y-67913034D01*
X140781998Y-67929668D01*
X142037289Y-69184960D01*
X142037290Y-69184961D01*
X142152026Y-69261625D01*
X142206931Y-69284367D01*
X142279507Y-69314429D01*
X142279508Y-69314429D01*
X142279513Y-69314431D01*
X142306381Y-69319774D01*
X142306387Y-69319775D01*
X142306427Y-69319783D01*
X142396773Y-69337754D01*
X142414842Y-69341349D01*
X142414843Y-69341349D01*
X144351337Y-69341349D01*
X144418376Y-69361034D01*
X144464131Y-69413838D01*
X144475337Y-69465349D01*
X144475337Y-69485705D01*
X144475338Y-69485731D01*
X144478249Y-69510836D01*
X144478251Y-69510840D01*
X144523629Y-69613613D01*
X144523630Y-69613614D01*
X144603071Y-69693055D01*
X144705845Y-69738434D01*
X144730971Y-69741349D01*
X146420700Y-69741348D01*
X146420715Y-69741346D01*
X146420718Y-69741346D01*
X146445823Y-69738435D01*
X146445824Y-69738434D01*
X146445827Y-69738434D01*
X146548601Y-69693055D01*
X146628042Y-69613614D01*
X146673421Y-69510840D01*
X146676336Y-69485714D01*
X146676335Y-67795985D01*
X146676333Y-67795966D01*
X146673422Y-67770861D01*
X146673421Y-67770859D01*
X146673421Y-67770858D01*
X146628042Y-67668084D01*
X146548601Y-67588643D01*
X146548599Y-67588642D01*
X146445828Y-67543264D01*
X146420701Y-67540349D01*
X144730979Y-67540349D01*
X144730953Y-67540351D01*
X144705848Y-67543262D01*
X144705844Y-67543264D01*
X144603071Y-67588642D01*
X144523630Y-67668083D01*
X144478251Y-67770855D01*
X144478251Y-67770857D01*
X144475336Y-67795980D01*
X144475336Y-67816349D01*
X144455651Y-67883388D01*
X144402847Y-67929143D01*
X144351336Y-67940349D01*
X142825355Y-67940349D01*
X142758316Y-67920664D01*
X142737674Y-67904030D01*
X141482382Y-66648737D01*
X141482381Y-66648736D01*
X141367643Y-66572071D01*
X141240168Y-66519270D01*
X141240158Y-66519267D01*
X141104832Y-66492349D01*
X141104830Y-66492349D01*
X141104829Y-66492349D01*
X134854830Y-66492349D01*
X134716842Y-66492349D01*
X134716840Y-66492349D01*
X134581513Y-66519267D01*
X134581503Y-66519270D01*
X134454028Y-66572071D01*
X134339292Y-66648735D01*
X134176646Y-66811381D01*
X134173965Y-66812844D01*
X134172377Y-66815451D01*
X134143499Y-66829479D01*
X134115323Y-66844865D01*
X134112278Y-66844647D01*
X134109531Y-66845982D01*
X134077655Y-66842171D01*
X134045631Y-66839881D01*
X134043185Y-66838050D01*
X134040155Y-66837688D01*
X134015402Y-66817251D01*
X133989698Y-66798009D01*
X133988631Y-66795148D01*
X133986276Y-66793204D01*
X133976498Y-66762619D01*
X133965281Y-66732545D01*
X133965649Y-66728684D01*
X133965000Y-66726653D01*
X133969188Y-66691615D01*
X133999829Y-66577249D01*
X134007215Y-66556956D01*
X134079046Y-66402909D01*
X134089848Y-66384198D01*
X134187339Y-66244962D01*
X134201223Y-66228416D01*
X134321408Y-66108231D01*
X134337953Y-66094347D01*
X134477195Y-65996849D01*
X134495898Y-65986051D01*
X134649952Y-65914217D01*
X134670242Y-65906832D01*
X134834427Y-65862841D01*
X134855701Y-65859091D01*
X135001632Y-65846326D01*
X135030282Y-65843821D01*
X135041086Y-65843349D01*
X135087173Y-65843349D01*
X135087201Y-65843346D01*
X135259198Y-65843346D01*
X135259202Y-65843346D01*
X135552777Y-65819019D01*
X135704398Y-65806456D01*
X135704399Y-65806455D01*
X135704409Y-65806455D01*
X136145049Y-65732926D01*
X136578111Y-65623260D01*
X137000639Y-65478206D01*
X137409745Y-65298756D01*
X137802634Y-65086135D01*
X138176624Y-64841796D01*
X138529159Y-64567407D01*
X138857831Y-64264843D01*
X139160395Y-63936171D01*
X139434784Y-63583637D01*
X139679123Y-63209647D01*
X139891745Y-62816758D01*
X140071195Y-62407652D01*
X140192522Y-62054238D01*
X144475336Y-62054238D01*
X144475336Y-62227460D01*
X144502434Y-62398550D01*
X144555963Y-62563294D01*
X144634604Y-62717637D01*
X144736422Y-62857777D01*
X144858908Y-62980263D01*
X144999048Y-63082081D01*
X145153391Y-63160722D01*
X145318135Y-63214251D01*
X145489225Y-63241349D01*
X145489226Y-63241349D01*
X145662446Y-63241349D01*
X145662447Y-63241349D01*
X145833537Y-63214251D01*
X145998281Y-63160722D01*
X146152624Y-63082081D01*
X146292764Y-62980263D01*
X146415250Y-62857777D01*
X146517068Y-62717637D01*
X146595709Y-62563294D01*
X146649238Y-62398550D01*
X146676336Y-62227460D01*
X146676336Y-62054238D01*
X146649238Y-61883148D01*
X146595709Y-61718404D01*
X146517068Y-61564061D01*
X146415250Y-61423921D01*
X146292764Y-61301435D01*
X146152624Y-61199617D01*
X145998281Y-61120976D01*
X145833537Y-61067447D01*
X145833535Y-61067446D01*
X145833534Y-61067446D01*
X145702107Y-61046630D01*
X145662447Y-61040349D01*
X145489225Y-61040349D01*
X145449564Y-61046630D01*
X145318138Y-61067446D01*
X145153388Y-61120977D01*
X144999047Y-61199617D01*
X144919092Y-61257708D01*
X144858908Y-61301435D01*
X144858906Y-61301437D01*
X144858905Y-61301437D01*
X144736424Y-61423918D01*
X144736424Y-61423919D01*
X144736422Y-61423921D01*
X144719199Y-61447627D01*
X144634604Y-61564060D01*
X144555964Y-61718401D01*
X144502433Y-61883151D01*
X144486282Y-61985129D01*
X144475336Y-62054238D01*
X140192522Y-62054238D01*
X140216249Y-61985124D01*
X140325915Y-61552062D01*
X140399445Y-61111422D01*
X140436336Y-60666215D01*
X140436336Y-60442849D01*
X140436336Y-60385266D01*
X140436336Y-60360383D01*
X158866736Y-60360383D01*
X158866736Y-60543616D01*
X158895400Y-60724595D01*
X158895400Y-60724598D01*
X158952020Y-60898856D01*
X158952022Y-60898859D01*
X159035208Y-61062122D01*
X159142910Y-61210360D01*
X159272476Y-61339926D01*
X159420714Y-61447628D01*
X159583977Y-61530814D01*
X159583979Y-61530815D01*
X159758238Y-61587435D01*
X159758239Y-61587435D01*
X159758242Y-61587436D01*
X159939219Y-61616100D01*
X159939220Y-61616100D01*
X160122452Y-61616100D01*
X160122453Y-61616100D01*
X160303430Y-61587436D01*
X160303433Y-61587435D01*
X160303434Y-61587435D01*
X160477692Y-61530815D01*
X160477692Y-61530814D01*
X160477695Y-61530814D01*
X160640958Y-61447628D01*
X160789196Y-61339926D01*
X160918762Y-61210360D01*
X161026464Y-61062122D01*
X161109650Y-60898859D01*
X161166272Y-60724594D01*
X161194936Y-60543617D01*
X161194936Y-60360383D01*
X161166272Y-60179406D01*
X161166271Y-60179402D01*
X161166271Y-60179401D01*
X161109651Y-60005143D01*
X161109649Y-60005140D01*
X161026463Y-59841877D01*
X160950495Y-59737317D01*
X160918762Y-59693640D01*
X160789196Y-59564074D01*
X160640958Y-59456372D01*
X160477695Y-59373186D01*
X160477692Y-59373184D01*
X160303433Y-59316564D01*
X160167697Y-59295066D01*
X160122453Y-59287900D01*
X159939219Y-59287900D01*
X159878893Y-59297454D01*
X159758240Y-59316564D01*
X159758237Y-59316564D01*
X159583979Y-59373184D01*
X159583976Y-59373186D01*
X159420713Y-59456372D01*
X159272474Y-59564075D01*
X159142911Y-59693638D01*
X159035208Y-59841877D01*
X158952022Y-60005140D01*
X158952020Y-60005143D01*
X158895400Y-60179401D01*
X158895400Y-60179404D01*
X158866736Y-60360383D01*
X140436336Y-60360383D01*
X140436336Y-58967349D01*
X140456021Y-58900310D01*
X140508825Y-58854555D01*
X140560336Y-58843349D01*
X179895137Y-58843349D01*
X179962176Y-58863034D01*
G37*
%TD.AperFunction*%
%TD*%
D29*
X140035836Y-60442849D02*
G75*
G02*
X135035836Y-65442846I-4999996J-1D01*
G01*
X200035836Y-101442849D02*
X200035836Y-103442849D01*
X206535836Y-94942849D02*
G75*
G02*
X205035836Y-96442836I-1500036J49D01*
G01*
X133535836Y-66942849D02*
G75*
G02*
X135035836Y-65442836I1499964J49D01*
G01*
X200035836Y-58442849D02*
X200035836Y-60442849D01*
X135035836Y-96442849D02*
G75*
G02*
X140035751Y-101442849I-36J-4999951D01*
G01*
X205035836Y-65442849D02*
G75*
G02*
X200035751Y-60442849I-36J5000049D01*
G01*
X170035836Y-90442849D02*
X199035837Y-90442849D01*
X199035836Y-71442849D02*
G75*
G02*
X200535751Y-72942849I-36J-1499951D01*
G01*
X200535836Y-72942849D02*
X200535837Y-88942800D01*
X202535836Y-70442849D02*
G75*
G02*
X200535836Y-70442849I-1000000J0D01*
G01*
X200535836Y-70442849D02*
G75*
G02*
X202535836Y-70442849I1000000J0D01*
G01*
X170035836Y-90442764D02*
G75*
G02*
X168535836Y-88942849I-36J1499964D01*
G01*
X140035836Y-58442849D02*
X200035836Y-58442849D01*
X135035836Y-96442849D02*
G75*
G02*
X133535751Y-94942849I-36J1500049D01*
G01*
X200035835Y-101442850D02*
G75*
G02*
X205035835Y-96442835I4999965J50D01*
G01*
X140035836Y-60442849D02*
X140035836Y-58442849D01*
X206535837Y-66942850D02*
X206535836Y-94942800D01*
X168535836Y-72942898D02*
X168535836Y-88942849D01*
X200535837Y-88942849D02*
G75*
G02*
X199035837Y-90442837I-1500037J49D01*
G01*
X168535836Y-72942898D02*
G75*
G02*
X170035836Y-71442936I1499964J-2D01*
G01*
X170035836Y-71442849D02*
X199035836Y-71442849D01*
X140035836Y-103442849D02*
X200035836Y-103442849D01*
X133535836Y-66942849D02*
X133535836Y-94942849D01*
X205035837Y-65442849D02*
G75*
G02*
X206535751Y-66942850I-37J-1499951D01*
G01*
X202535836Y-91442849D02*
G75*
G02*
X200535836Y-91442849I-1000000J0D01*
G01*
X200535836Y-91442849D02*
G75*
G02*
X202535836Y-91442849I1000000J0D01*
G01*
X140035836Y-103442849D02*
X140035836Y-101442849D01*
M02*
