%TF.GenerationSoftware,KiCad,Pcbnew,9.0.6-9.0.6~ubuntu22.04.1*%
%TF.CreationDate,2026-01-05T10:22:13+03:00*%
%TF.ProjectId,sportiduino-base-v3bm,73706f72-7469-4647-9569-6e6f2d626173,3bm*%
%TF.SameCoordinates,Original*%
%TF.FileFunction,Soldermask,Bot*%
%TF.FilePolarity,Negative*%
%FSLAX46Y46*%
G04 Gerber Fmt 4.6, Leading zero omitted, Abs format (unit mm)*
G04 Created by KiCad (PCBNEW 9.0.6-9.0.6~ubuntu22.04.1) date 2026-01-05 10:22:13*
%MOMM*%
%LPD*%
G01*
G04 APERTURE LIST*
%TA.AperFunction,Profile*%
%ADD10C,0.150000*%
%TD*%
G04 APERTURE END LIST*
G36*
X168619750Y-100248844D02*
G01*
X168635562Y-100255825D01*
X168643367Y-100257062D01*
X168675875Y-100273625D01*
X168720942Y-100293525D01*
X168799160Y-100371743D01*
X168819062Y-100416816D01*
X168835622Y-100449317D01*
X168836857Y-100457119D01*
X168843841Y-100472935D01*
X168851836Y-100541849D01*
X168851836Y-101771849D01*
X168843841Y-101840763D01*
X168836857Y-101856578D01*
X168835622Y-101864380D01*
X168819065Y-101896873D01*
X168799160Y-101941955D01*
X168720942Y-102020173D01*
X168675860Y-102040078D01*
X168643367Y-102056635D01*
X168635565Y-102057870D01*
X168619750Y-102064854D01*
X168550836Y-102072849D01*
X168020836Y-102072849D01*
X167951922Y-102064854D01*
X167936106Y-102057870D01*
X167928304Y-102056635D01*
X167895803Y-102040075D01*
X167850730Y-102020173D01*
X167772512Y-101941955D01*
X167752612Y-101896888D01*
X167736049Y-101864380D01*
X167734812Y-101856575D01*
X167727831Y-101840763D01*
X167719836Y-101771849D01*
X167719836Y-100541849D01*
X167727831Y-100472935D01*
X167734812Y-100457123D01*
X167736049Y-100449317D01*
X167752616Y-100416802D01*
X167772512Y-100371743D01*
X167850730Y-100293525D01*
X167895789Y-100273629D01*
X167928304Y-100257062D01*
X167936110Y-100255825D01*
X167951922Y-100248844D01*
X168020836Y-100240849D01*
X168550836Y-100240849D01*
X168619750Y-100248844D01*
G37*
G36*
X166848873Y-100245691D02*
G01*
X166859714Y-100245691D01*
X166890947Y-100254059D01*
X166949960Y-100265798D01*
X166977816Y-100277336D01*
X167002435Y-100283933D01*
X167024506Y-100296676D01*
X167052364Y-100308215D01*
X167102392Y-100341643D01*
X167130395Y-100357811D01*
X167138061Y-100365477D01*
X167144514Y-100369789D01*
X167222895Y-100448170D01*
X167227206Y-100454622D01*
X167234874Y-100462290D01*
X167251043Y-100490296D01*
X167284469Y-100540320D01*
X167296006Y-100568174D01*
X167308752Y-100590250D01*
X167315349Y-100614872D01*
X167326886Y-100642724D01*
X167338622Y-100701728D01*
X167346994Y-100732971D01*
X167348053Y-100749143D01*
X167349112Y-100754463D01*
X167351235Y-100797693D01*
X167351836Y-100806849D01*
X167351836Y-101506849D01*
X167351235Y-101516007D01*
X167349112Y-101559234D01*
X167348054Y-101564552D01*
X167346994Y-101580727D01*
X167338621Y-101611972D01*
X167326886Y-101670973D01*
X167315350Y-101698822D01*
X167308752Y-101723448D01*
X167296005Y-101745525D01*
X167284469Y-101773377D01*
X167251047Y-101823394D01*
X167234874Y-101851408D01*
X167227204Y-101859077D01*
X167222895Y-101865527D01*
X167144514Y-101943908D01*
X167138064Y-101948217D01*
X167130395Y-101955887D01*
X167102381Y-101972060D01*
X167052364Y-102005482D01*
X167024512Y-102017018D01*
X167002435Y-102029765D01*
X166977809Y-102036363D01*
X166949960Y-102047899D01*
X166890954Y-102059636D01*
X166859714Y-102068007D01*
X166848872Y-102068007D01*
X166841256Y-102069522D01*
X166730416Y-102069522D01*
X166722800Y-102068007D01*
X166711958Y-102068007D01*
X166680719Y-102059636D01*
X166621711Y-102047899D01*
X166593859Y-102036362D01*
X166569237Y-102029765D01*
X166547161Y-102017019D01*
X166519307Y-102005482D01*
X166469283Y-101972056D01*
X166441277Y-101955887D01*
X166433609Y-101948219D01*
X166427157Y-101943908D01*
X166348776Y-101865527D01*
X166344464Y-101859074D01*
X166336798Y-101851408D01*
X166320630Y-101823405D01*
X166287202Y-101773377D01*
X166275663Y-101745519D01*
X166262920Y-101723448D01*
X166256323Y-101698829D01*
X166244785Y-101670973D01*
X166233046Y-101611958D01*
X166224678Y-101580727D01*
X166223618Y-101564560D01*
X166222559Y-101559234D01*
X166220435Y-101515994D01*
X166219836Y-101506849D01*
X166219836Y-100806849D01*
X166220435Y-100797706D01*
X166222559Y-100754463D01*
X166223618Y-100749136D01*
X166224678Y-100732971D01*
X166233045Y-100701742D01*
X166244785Y-100642724D01*
X166256324Y-100614865D01*
X166262920Y-100590250D01*
X166275661Y-100568180D01*
X166287202Y-100540320D01*
X166320634Y-100490285D01*
X166336798Y-100462290D01*
X166344462Y-100454625D01*
X166348776Y-100448170D01*
X166427157Y-100369789D01*
X166433612Y-100365475D01*
X166441277Y-100357811D01*
X166469272Y-100341647D01*
X166519307Y-100308215D01*
X166547167Y-100296674D01*
X166569237Y-100283933D01*
X166593852Y-100277337D01*
X166621711Y-100265798D01*
X166680725Y-100254059D01*
X166711958Y-100245691D01*
X166722799Y-100245691D01*
X166730416Y-100244176D01*
X166841256Y-100244176D01*
X166848873Y-100245691D01*
G37*
G36*
X191954750Y-99730844D02*
G01*
X191970562Y-99737825D01*
X191978367Y-99739062D01*
X192010875Y-99755625D01*
X192055942Y-99775525D01*
X192134160Y-99853743D01*
X192154062Y-99898816D01*
X192170622Y-99931317D01*
X192171857Y-99939119D01*
X192178841Y-99954935D01*
X192186836Y-100023849D01*
X192186836Y-101273849D01*
X192178841Y-101342763D01*
X192171857Y-101358578D01*
X192170622Y-101366380D01*
X192154065Y-101398873D01*
X192134160Y-101443955D01*
X192055942Y-101522173D01*
X192010860Y-101542078D01*
X191978367Y-101558635D01*
X191970565Y-101559870D01*
X191954750Y-101566854D01*
X191885836Y-101574849D01*
X191185836Y-101574849D01*
X191116922Y-101566854D01*
X191101106Y-101559870D01*
X191093304Y-101558635D01*
X191060803Y-101542075D01*
X191015730Y-101522173D01*
X190937512Y-101443955D01*
X190917612Y-101398888D01*
X190901049Y-101366380D01*
X190899812Y-101358575D01*
X190892831Y-101342763D01*
X190884836Y-101273849D01*
X190884836Y-100023849D01*
X190892831Y-99954935D01*
X190899812Y-99939123D01*
X190901049Y-99931317D01*
X190917616Y-99898802D01*
X190937512Y-99853743D01*
X191015730Y-99775525D01*
X191060789Y-99755629D01*
X191093304Y-99739062D01*
X191101110Y-99737825D01*
X191116922Y-99730844D01*
X191185836Y-99722849D01*
X191885836Y-99722849D01*
X191954750Y-99730844D01*
G37*
G36*
X189724811Y-99750881D02*
G01*
X189842715Y-99799718D01*
X189948826Y-99870619D01*
X190039066Y-99960859D01*
X190109967Y-100066970D01*
X190158804Y-100184874D01*
X190183701Y-100310040D01*
X190186836Y-100373849D01*
X190186836Y-100923849D01*
X190183701Y-100987658D01*
X190158804Y-101112824D01*
X190109967Y-101230728D01*
X190039066Y-101336839D01*
X189948826Y-101427079D01*
X189842715Y-101497980D01*
X189724811Y-101546817D01*
X189599645Y-101571714D01*
X189472027Y-101571714D01*
X189346861Y-101546817D01*
X189228957Y-101497980D01*
X189122846Y-101427079D01*
X189032606Y-101336839D01*
X188961705Y-101230728D01*
X188912868Y-101112824D01*
X188887971Y-100987658D01*
X188884836Y-100923849D01*
X188884836Y-100373849D01*
X188887971Y-100310040D01*
X188912868Y-100184874D01*
X188961705Y-100066970D01*
X189032606Y-99960859D01*
X189122846Y-99870619D01*
X189228957Y-99799718D01*
X189346861Y-99750881D01*
X189472027Y-99725984D01*
X189599645Y-99725984D01*
X189724811Y-99750881D01*
G37*
G36*
X136154750Y-90449844D02*
G01*
X136170562Y-90456825D01*
X136178367Y-90458062D01*
X136210875Y-90474625D01*
X136255942Y-90494525D01*
X136334160Y-90572743D01*
X136354062Y-90617816D01*
X136370622Y-90650317D01*
X136371857Y-90658119D01*
X136378841Y-90673935D01*
X136386836Y-90742849D01*
X136386836Y-91642849D01*
X136378841Y-91711763D01*
X136371857Y-91727578D01*
X136370622Y-91735380D01*
X136354065Y-91767873D01*
X136334160Y-91812955D01*
X136255942Y-91891173D01*
X136210860Y-91911078D01*
X136178367Y-91927635D01*
X136170565Y-91928870D01*
X136154750Y-91935854D01*
X136085836Y-91943849D01*
X135435836Y-91943849D01*
X135366922Y-91935854D01*
X135351106Y-91928870D01*
X135343304Y-91927635D01*
X135310803Y-91911075D01*
X135265730Y-91891173D01*
X135187512Y-91812955D01*
X135167612Y-91767888D01*
X135151049Y-91735380D01*
X135149812Y-91727575D01*
X135142831Y-91711763D01*
X135134836Y-91642849D01*
X135134836Y-90742849D01*
X135142831Y-90673935D01*
X135149812Y-90658123D01*
X135151049Y-90650317D01*
X135167616Y-90617802D01*
X135187512Y-90572743D01*
X135265730Y-90494525D01*
X135310789Y-90474629D01*
X135343304Y-90458062D01*
X135351110Y-90456825D01*
X135366922Y-90449844D01*
X135435836Y-90441849D01*
X136085836Y-90441849D01*
X136154750Y-90449844D01*
G37*
G36*
X138204750Y-90449844D02*
G01*
X138220562Y-90456825D01*
X138228367Y-90458062D01*
X138260875Y-90474625D01*
X138305942Y-90494525D01*
X138384160Y-90572743D01*
X138404062Y-90617816D01*
X138420622Y-90650317D01*
X138421857Y-90658119D01*
X138428841Y-90673935D01*
X138436836Y-90742849D01*
X138436836Y-91642849D01*
X138428841Y-91711763D01*
X138421857Y-91727578D01*
X138420622Y-91735380D01*
X138404065Y-91767873D01*
X138384160Y-91812955D01*
X138305942Y-91891173D01*
X138260860Y-91911078D01*
X138228367Y-91927635D01*
X138220565Y-91928870D01*
X138204750Y-91935854D01*
X138135836Y-91943849D01*
X137485836Y-91943849D01*
X137416922Y-91935854D01*
X137401106Y-91928870D01*
X137393304Y-91927635D01*
X137360803Y-91911075D01*
X137315730Y-91891173D01*
X137237512Y-91812955D01*
X137217612Y-91767888D01*
X137201049Y-91735380D01*
X137199812Y-91727575D01*
X137192831Y-91711763D01*
X137184836Y-91642849D01*
X137184836Y-90742849D01*
X137192831Y-90673935D01*
X137199812Y-90658123D01*
X137201049Y-90650317D01*
X137217616Y-90617802D01*
X137237512Y-90572743D01*
X137315730Y-90494525D01*
X137360789Y-90474629D01*
X137393304Y-90458062D01*
X137401110Y-90456825D01*
X137416922Y-90449844D01*
X137485836Y-90441849D01*
X138135836Y-90441849D01*
X138204750Y-90449844D01*
G37*
G36*
X140939388Y-89424512D02*
G01*
X140954770Y-89431304D01*
X140962006Y-89432450D01*
X140992138Y-89447803D01*
X141036378Y-89467337D01*
X141111348Y-89542307D01*
X141130884Y-89586553D01*
X141146234Y-89616678D01*
X141147379Y-89623911D01*
X141154173Y-89639297D01*
X141161836Y-89705349D01*
X141161836Y-90180349D01*
X141154173Y-90246401D01*
X141147379Y-90261787D01*
X141146234Y-90269019D01*
X141130888Y-90299136D01*
X141111348Y-90343391D01*
X141036378Y-90418361D01*
X140992123Y-90437901D01*
X140962006Y-90453247D01*
X140954774Y-90454392D01*
X140939388Y-90461186D01*
X140873336Y-90468849D01*
X140373336Y-90468849D01*
X140307284Y-90461186D01*
X140291898Y-90454392D01*
X140284665Y-90453247D01*
X140254540Y-90437897D01*
X140210294Y-90418361D01*
X140135324Y-90343391D01*
X140115790Y-90299151D01*
X140100437Y-90269019D01*
X140099291Y-90261783D01*
X140092499Y-90246401D01*
X140084836Y-90180349D01*
X140084836Y-89705349D01*
X140092499Y-89639297D01*
X140099290Y-89623914D01*
X140100437Y-89616678D01*
X140115793Y-89586539D01*
X140135324Y-89542307D01*
X140210294Y-89467337D01*
X140254526Y-89447806D01*
X140284665Y-89432450D01*
X140291901Y-89431303D01*
X140307284Y-89424512D01*
X140373336Y-89416849D01*
X140873336Y-89416849D01*
X140939388Y-89424512D01*
G37*
G36*
X142764388Y-89424512D02*
G01*
X142779770Y-89431304D01*
X142787006Y-89432450D01*
X142817138Y-89447803D01*
X142861378Y-89467337D01*
X142936348Y-89542307D01*
X142955884Y-89586553D01*
X142971234Y-89616678D01*
X142972379Y-89623911D01*
X142979173Y-89639297D01*
X142986836Y-89705349D01*
X142986836Y-90180349D01*
X142979173Y-90246401D01*
X142972379Y-90261787D01*
X142971234Y-90269019D01*
X142955888Y-90299136D01*
X142936348Y-90343391D01*
X142861378Y-90418361D01*
X142817123Y-90437901D01*
X142787006Y-90453247D01*
X142779774Y-90454392D01*
X142764388Y-90461186D01*
X142698336Y-90468849D01*
X142198336Y-90468849D01*
X142132284Y-90461186D01*
X142116898Y-90454392D01*
X142109665Y-90453247D01*
X142079540Y-90437897D01*
X142035294Y-90418361D01*
X141960324Y-90343391D01*
X141940790Y-90299151D01*
X141925437Y-90269019D01*
X141924291Y-90261783D01*
X141917499Y-90246401D01*
X141909836Y-90180349D01*
X141909836Y-89705349D01*
X141917499Y-89639297D01*
X141924290Y-89623914D01*
X141925437Y-89616678D01*
X141940793Y-89586539D01*
X141960324Y-89542307D01*
X142035294Y-89467337D01*
X142079526Y-89447806D01*
X142109665Y-89432450D01*
X142116901Y-89431303D01*
X142132284Y-89424512D01*
X142198336Y-89416849D01*
X142698336Y-89416849D01*
X142764388Y-89424512D01*
G37*
G36*
X136154750Y-88199844D02*
G01*
X136170562Y-88206825D01*
X136178367Y-88208062D01*
X136210875Y-88224625D01*
X136255942Y-88244525D01*
X136334160Y-88322743D01*
X136354062Y-88367816D01*
X136370622Y-88400317D01*
X136371857Y-88408119D01*
X136378841Y-88423935D01*
X136386836Y-88492849D01*
X136386836Y-89392849D01*
X136378841Y-89461763D01*
X136371857Y-89477578D01*
X136370622Y-89485380D01*
X136354065Y-89517873D01*
X136334160Y-89562955D01*
X136255942Y-89641173D01*
X136210860Y-89661078D01*
X136178367Y-89677635D01*
X136170565Y-89678870D01*
X136154750Y-89685854D01*
X136085836Y-89693849D01*
X135435836Y-89693849D01*
X135366922Y-89685854D01*
X135351106Y-89678870D01*
X135343304Y-89677635D01*
X135310803Y-89661075D01*
X135265730Y-89641173D01*
X135187512Y-89562955D01*
X135167612Y-89517888D01*
X135151049Y-89485380D01*
X135149812Y-89477575D01*
X135142831Y-89461763D01*
X135134836Y-89392849D01*
X135134836Y-88492849D01*
X135142831Y-88423935D01*
X135149812Y-88408123D01*
X135151049Y-88400317D01*
X135167616Y-88367802D01*
X135187512Y-88322743D01*
X135265730Y-88244525D01*
X135310789Y-88224629D01*
X135343304Y-88208062D01*
X135351110Y-88206825D01*
X135366922Y-88199844D01*
X135435836Y-88191849D01*
X136085836Y-88191849D01*
X136154750Y-88199844D01*
G37*
G36*
X138204750Y-88199844D02*
G01*
X138220562Y-88206825D01*
X138228367Y-88208062D01*
X138260875Y-88224625D01*
X138305942Y-88244525D01*
X138384160Y-88322743D01*
X138404062Y-88367816D01*
X138420622Y-88400317D01*
X138421857Y-88408119D01*
X138428841Y-88423935D01*
X138436836Y-88492849D01*
X138436836Y-89392849D01*
X138428841Y-89461763D01*
X138421857Y-89477578D01*
X138420622Y-89485380D01*
X138404065Y-89517873D01*
X138384160Y-89562955D01*
X138305942Y-89641173D01*
X138260860Y-89661078D01*
X138228367Y-89677635D01*
X138220565Y-89678870D01*
X138204750Y-89685854D01*
X138135836Y-89693849D01*
X137485836Y-89693849D01*
X137416922Y-89685854D01*
X137401106Y-89678870D01*
X137393304Y-89677635D01*
X137360803Y-89661075D01*
X137315730Y-89641173D01*
X137237512Y-89562955D01*
X137217612Y-89517888D01*
X137201049Y-89485380D01*
X137199812Y-89477575D01*
X137192831Y-89461763D01*
X137184836Y-89392849D01*
X137184836Y-88492849D01*
X137192831Y-88423935D01*
X137199812Y-88408123D01*
X137201049Y-88400317D01*
X137217616Y-88367802D01*
X137237512Y-88322743D01*
X137315730Y-88244525D01*
X137360789Y-88224629D01*
X137393304Y-88208062D01*
X137401110Y-88206825D01*
X137416922Y-88199844D01*
X137485836Y-88191849D01*
X138135836Y-88191849D01*
X138204750Y-88199844D01*
G37*
G36*
X140939388Y-87924512D02*
G01*
X140954770Y-87931304D01*
X140962006Y-87932450D01*
X140992138Y-87947803D01*
X141036378Y-87967337D01*
X141111348Y-88042307D01*
X141130884Y-88086553D01*
X141146234Y-88116678D01*
X141147379Y-88123911D01*
X141154173Y-88139297D01*
X141161836Y-88205349D01*
X141161836Y-88680349D01*
X141154173Y-88746401D01*
X141147379Y-88761787D01*
X141146234Y-88769019D01*
X141130888Y-88799136D01*
X141111348Y-88843391D01*
X141036378Y-88918361D01*
X140992123Y-88937901D01*
X140962006Y-88953247D01*
X140954774Y-88954392D01*
X140939388Y-88961186D01*
X140873336Y-88968849D01*
X140373336Y-88968849D01*
X140307284Y-88961186D01*
X140291898Y-88954392D01*
X140284665Y-88953247D01*
X140254540Y-88937897D01*
X140210294Y-88918361D01*
X140135324Y-88843391D01*
X140115790Y-88799151D01*
X140100437Y-88769019D01*
X140099291Y-88761783D01*
X140092499Y-88746401D01*
X140084836Y-88680349D01*
X140084836Y-88205349D01*
X140092499Y-88139297D01*
X140099290Y-88123914D01*
X140100437Y-88116678D01*
X140115793Y-88086539D01*
X140135324Y-88042307D01*
X140210294Y-87967337D01*
X140254526Y-87947806D01*
X140284665Y-87932450D01*
X140291901Y-87931303D01*
X140307284Y-87924512D01*
X140373336Y-87916849D01*
X140873336Y-87916849D01*
X140939388Y-87924512D01*
G37*
G36*
X142764388Y-87924512D02*
G01*
X142779770Y-87931304D01*
X142787006Y-87932450D01*
X142817138Y-87947803D01*
X142861378Y-87967337D01*
X142936348Y-88042307D01*
X142955884Y-88086553D01*
X142971234Y-88116678D01*
X142972379Y-88123911D01*
X142979173Y-88139297D01*
X142986836Y-88205349D01*
X142986836Y-88680349D01*
X142979173Y-88746401D01*
X142972379Y-88761787D01*
X142971234Y-88769019D01*
X142955888Y-88799136D01*
X142936348Y-88843391D01*
X142861378Y-88918361D01*
X142817123Y-88937901D01*
X142787006Y-88953247D01*
X142779774Y-88954392D01*
X142764388Y-88961186D01*
X142698336Y-88968849D01*
X142198336Y-88968849D01*
X142132284Y-88961186D01*
X142116898Y-88954392D01*
X142109665Y-88953247D01*
X142079540Y-88937897D01*
X142035294Y-88918361D01*
X141960324Y-88843391D01*
X141940790Y-88799151D01*
X141925437Y-88769019D01*
X141924291Y-88761783D01*
X141917499Y-88746401D01*
X141909836Y-88680349D01*
X141909836Y-88205349D01*
X141917499Y-88139297D01*
X141924290Y-88123914D01*
X141925437Y-88116678D01*
X141940793Y-88086539D01*
X141960324Y-88042307D01*
X142035294Y-87967337D01*
X142079526Y-87947806D01*
X142109665Y-87932450D01*
X142116901Y-87931303D01*
X142132284Y-87924512D01*
X142198336Y-87916849D01*
X142698336Y-87916849D01*
X142764388Y-87924512D01*
G37*
G36*
X167781353Y-87107731D02*
G01*
X167797898Y-87118787D01*
X167808954Y-87135332D01*
X167812836Y-87154849D01*
X167812836Y-88854849D01*
X167808954Y-88874366D01*
X167797898Y-88890911D01*
X167781353Y-88901967D01*
X167761836Y-88905849D01*
X166061836Y-88905849D01*
X166042319Y-88901967D01*
X166025774Y-88890911D01*
X166014718Y-88874366D01*
X166010836Y-88854849D01*
X166010836Y-87154849D01*
X166014718Y-87135332D01*
X166025774Y-87118787D01*
X166042319Y-87107731D01*
X166061836Y-87103849D01*
X167761836Y-87103849D01*
X167781353Y-87107731D01*
G37*
G36*
X140939388Y-86424512D02*
G01*
X140954770Y-86431304D01*
X140962006Y-86432450D01*
X140992138Y-86447803D01*
X141036378Y-86467337D01*
X141111348Y-86542307D01*
X141130884Y-86586553D01*
X141146234Y-86616678D01*
X141147379Y-86623911D01*
X141154173Y-86639297D01*
X141161836Y-86705349D01*
X141161836Y-87180349D01*
X141154173Y-87246401D01*
X141147379Y-87261787D01*
X141146234Y-87269019D01*
X141130888Y-87299136D01*
X141111348Y-87343391D01*
X141036378Y-87418361D01*
X140992123Y-87437901D01*
X140962006Y-87453247D01*
X140954774Y-87454392D01*
X140939388Y-87461186D01*
X140873336Y-87468849D01*
X140373336Y-87468849D01*
X140307284Y-87461186D01*
X140291898Y-87454392D01*
X140284665Y-87453247D01*
X140254540Y-87437897D01*
X140210294Y-87418361D01*
X140135324Y-87343391D01*
X140115790Y-87299151D01*
X140100437Y-87269019D01*
X140099291Y-87261783D01*
X140092499Y-87246401D01*
X140084836Y-87180349D01*
X140084836Y-86705349D01*
X140092499Y-86639297D01*
X140099290Y-86623914D01*
X140100437Y-86616678D01*
X140115793Y-86586539D01*
X140135324Y-86542307D01*
X140210294Y-86467337D01*
X140254526Y-86447806D01*
X140284665Y-86432450D01*
X140291901Y-86431303D01*
X140307284Y-86424512D01*
X140373336Y-86416849D01*
X140873336Y-86416849D01*
X140939388Y-86424512D01*
G37*
G36*
X142764388Y-86424512D02*
G01*
X142779770Y-86431304D01*
X142787006Y-86432450D01*
X142817138Y-86447803D01*
X142861378Y-86467337D01*
X142936348Y-86542307D01*
X142955884Y-86586553D01*
X142971234Y-86616678D01*
X142972379Y-86623911D01*
X142979173Y-86639297D01*
X142986836Y-86705349D01*
X142986836Y-87180349D01*
X142979173Y-87246401D01*
X142972379Y-87261787D01*
X142971234Y-87269019D01*
X142955888Y-87299136D01*
X142936348Y-87343391D01*
X142861378Y-87418361D01*
X142817123Y-87437901D01*
X142787006Y-87453247D01*
X142779774Y-87454392D01*
X142764388Y-87461186D01*
X142698336Y-87468849D01*
X142198336Y-87468849D01*
X142132284Y-87461186D01*
X142116898Y-87454392D01*
X142109665Y-87453247D01*
X142079540Y-87437897D01*
X142035294Y-87418361D01*
X141960324Y-87343391D01*
X141940790Y-87299151D01*
X141925437Y-87269019D01*
X141924291Y-87261783D01*
X141917499Y-87246401D01*
X141909836Y-87180349D01*
X141909836Y-86705349D01*
X141917499Y-86639297D01*
X141924290Y-86623914D01*
X141925437Y-86616678D01*
X141940793Y-86586539D01*
X141960324Y-86542307D01*
X142035294Y-86467337D01*
X142079526Y-86447806D01*
X142109665Y-86432450D01*
X142116901Y-86431303D01*
X142132284Y-86424512D01*
X142198336Y-86416849D01*
X142698336Y-86416849D01*
X142764388Y-86424512D01*
G37*
G36*
X136329749Y-84574844D02*
G01*
X136345561Y-84581825D01*
X136353367Y-84583062D01*
X136385880Y-84599628D01*
X136430942Y-84619525D01*
X136509160Y-84697743D01*
X136529059Y-84742811D01*
X136545622Y-84775317D01*
X136546858Y-84783121D01*
X136553841Y-84798936D01*
X136561835Y-84867851D01*
X136561835Y-84877680D01*
X136561836Y-84877687D01*
X136561836Y-86036052D01*
X136561836Y-87017848D01*
X136553841Y-87086762D01*
X136546857Y-87102577D01*
X136545622Y-87110380D01*
X136529062Y-87142879D01*
X136509160Y-87187955D01*
X136430942Y-87266173D01*
X136385866Y-87286075D01*
X136353367Y-87302635D01*
X136345564Y-87303870D01*
X136329749Y-87310854D01*
X136260834Y-87318848D01*
X136251004Y-87318848D01*
X136250998Y-87318849D01*
X135345674Y-87318849D01*
X135345673Y-87318848D01*
X135335837Y-87318849D01*
X135266923Y-87310854D01*
X135251108Y-87303871D01*
X135243304Y-87302635D01*
X135210798Y-87286072D01*
X135165730Y-87266173D01*
X135087512Y-87187955D01*
X135067615Y-87142893D01*
X135051049Y-87110380D01*
X135049812Y-87102574D01*
X135042831Y-87086762D01*
X135034837Y-87017847D01*
X135034836Y-87008016D01*
X135034836Y-87008010D01*
X135034836Y-84877687D01*
X135034836Y-84877686D01*
X135034836Y-84867850D01*
X135042831Y-84798936D01*
X135049812Y-84783124D01*
X135051049Y-84775317D01*
X135067618Y-84742796D01*
X135087512Y-84697743D01*
X135165730Y-84619525D01*
X135210783Y-84599631D01*
X135243304Y-84583062D01*
X135251111Y-84581825D01*
X135266923Y-84574844D01*
X135335838Y-84566850D01*
X135345667Y-84566849D01*
X135345674Y-84566849D01*
X136250998Y-84566849D01*
X136260835Y-84566849D01*
X136329749Y-84574844D01*
G37*
G36*
X139304749Y-84574844D02*
G01*
X139320561Y-84581825D01*
X139328367Y-84583062D01*
X139360880Y-84599628D01*
X139405942Y-84619525D01*
X139484160Y-84697743D01*
X139504059Y-84742811D01*
X139520622Y-84775317D01*
X139521858Y-84783121D01*
X139528841Y-84798936D01*
X139536835Y-84867851D01*
X139536835Y-84877680D01*
X139536836Y-84877687D01*
X139536836Y-86036052D01*
X139536836Y-87017848D01*
X139528841Y-87086762D01*
X139521857Y-87102577D01*
X139520622Y-87110380D01*
X139504062Y-87142879D01*
X139484160Y-87187955D01*
X139405942Y-87266173D01*
X139360866Y-87286075D01*
X139328367Y-87302635D01*
X139320564Y-87303870D01*
X139304749Y-87310854D01*
X139235834Y-87318848D01*
X139226004Y-87318848D01*
X139225998Y-87318849D01*
X138320674Y-87318849D01*
X138320673Y-87318848D01*
X138310837Y-87318849D01*
X138241923Y-87310854D01*
X138226108Y-87303871D01*
X138218304Y-87302635D01*
X138185798Y-87286072D01*
X138140730Y-87266173D01*
X138062512Y-87187955D01*
X138042615Y-87142893D01*
X138026049Y-87110380D01*
X138024812Y-87102574D01*
X138017831Y-87086762D01*
X138009837Y-87017847D01*
X138009836Y-87008016D01*
X138009836Y-87008010D01*
X138009836Y-84877687D01*
X138009836Y-84877686D01*
X138009836Y-84867850D01*
X138017831Y-84798936D01*
X138024812Y-84783124D01*
X138026049Y-84775317D01*
X138042618Y-84742796D01*
X138062512Y-84697743D01*
X138140730Y-84619525D01*
X138185783Y-84599631D01*
X138218304Y-84583062D01*
X138226111Y-84581825D01*
X138241923Y-84574844D01*
X138310838Y-84566850D01*
X138320667Y-84566849D01*
X138320674Y-84566849D01*
X139225998Y-84566849D01*
X139235835Y-84566849D01*
X139304749Y-84574844D01*
G37*
G36*
X167173382Y-84602646D02*
G01*
X167336564Y-84670238D01*
X167483424Y-84768367D01*
X167608318Y-84893261D01*
X167706447Y-85040121D01*
X167774039Y-85203303D01*
X167808497Y-85376536D01*
X167808497Y-85553162D01*
X167774039Y-85726395D01*
X167706447Y-85889577D01*
X167608318Y-86036437D01*
X167483424Y-86161331D01*
X167336564Y-86259460D01*
X167173382Y-86327052D01*
X167000149Y-86361510D01*
X166823523Y-86361510D01*
X166650290Y-86327052D01*
X166487108Y-86259460D01*
X166340248Y-86161331D01*
X166215354Y-86036437D01*
X166117225Y-85889577D01*
X166049633Y-85726395D01*
X166015175Y-85553162D01*
X166015175Y-85376536D01*
X166049633Y-85203303D01*
X166117225Y-85040121D01*
X166215354Y-84893261D01*
X166340248Y-84768367D01*
X166487108Y-84670238D01*
X166650290Y-84602646D01*
X166823523Y-84568188D01*
X167000149Y-84568188D01*
X167173382Y-84602646D01*
G37*
G36*
X167173382Y-82062646D02*
G01*
X167336564Y-82130238D01*
X167483424Y-82228367D01*
X167608318Y-82353261D01*
X167706447Y-82500121D01*
X167774039Y-82663303D01*
X167808497Y-82836536D01*
X167808497Y-83013162D01*
X167774039Y-83186395D01*
X167706447Y-83349577D01*
X167608318Y-83496437D01*
X167483424Y-83621331D01*
X167336564Y-83719460D01*
X167173382Y-83787052D01*
X167000149Y-83821510D01*
X166823523Y-83821510D01*
X166650290Y-83787052D01*
X166487108Y-83719460D01*
X166340248Y-83621331D01*
X166215354Y-83496437D01*
X166117225Y-83349577D01*
X166049633Y-83186395D01*
X166015175Y-83013162D01*
X166015175Y-82836536D01*
X166049633Y-82663303D01*
X166117225Y-82500121D01*
X166215354Y-82353261D01*
X166340248Y-82228367D01*
X166487108Y-82130238D01*
X166650290Y-82062646D01*
X166823523Y-82028188D01*
X167000149Y-82028188D01*
X167173382Y-82062646D01*
G37*
G36*
X136299269Y-69324493D02*
G01*
X136345642Y-69331838D01*
X136351693Y-69334921D01*
X136366457Y-69337858D01*
X136395361Y-69357172D01*
X136422147Y-69370820D01*
X136434954Y-69383627D01*
X136455997Y-69397688D01*
X136470057Y-69418730D01*
X136482864Y-69431537D01*
X136496510Y-69458320D01*
X136515827Y-69487228D01*
X136518763Y-69501993D01*
X136521846Y-69508042D01*
X136529187Y-69554394D01*
X136536836Y-69592849D01*
X136536836Y-70042849D01*
X136529186Y-70081307D01*
X136521846Y-70127655D01*
X136518764Y-70133703D01*
X136515827Y-70148470D01*
X136496508Y-70177381D01*
X136482864Y-70204160D01*
X136470059Y-70216964D01*
X136455997Y-70238010D01*
X136434951Y-70252072D01*
X136422147Y-70264877D01*
X136395368Y-70278521D01*
X136366457Y-70297840D01*
X136351690Y-70300777D01*
X136345642Y-70303859D01*
X136299292Y-70311199D01*
X136260836Y-70318849D01*
X135954526Y-70318849D01*
X135948539Y-70562711D01*
X136032785Y-70566849D01*
X136035836Y-70566849D01*
X136044959Y-70567446D01*
X136081851Y-70569259D01*
X136086393Y-70570162D01*
X136101230Y-70571135D01*
X136129890Y-70578814D01*
X136181092Y-70588999D01*
X136205258Y-70599009D01*
X136227560Y-70604985D01*
X136247557Y-70616530D01*
X136271719Y-70626539D01*
X136315118Y-70655537D01*
X136340825Y-70670379D01*
X136347860Y-70677414D01*
X136353282Y-70681037D01*
X136422647Y-70750402D01*
X136426269Y-70755823D01*
X136433306Y-70762860D01*
X136448149Y-70788570D01*
X136477145Y-70831965D01*
X136487152Y-70856123D01*
X136498700Y-70876125D01*
X136504676Y-70898430D01*
X136514685Y-70922592D01*
X136524868Y-70973785D01*
X136532550Y-71002455D01*
X136532550Y-71012405D01*
X136533822Y-71018800D01*
X136533822Y-71116897D01*
X136532550Y-71123291D01*
X136532550Y-71133243D01*
X136524867Y-71161915D01*
X136514685Y-71213105D01*
X136504677Y-71237264D01*
X136498700Y-71259573D01*
X136487150Y-71279576D01*
X136477145Y-71303732D01*
X136448154Y-71347120D01*
X136433306Y-71372838D01*
X136426267Y-71379876D01*
X136422647Y-71385295D01*
X136353282Y-71454660D01*
X136347863Y-71458280D01*
X136340825Y-71465319D01*
X136315107Y-71480167D01*
X136271719Y-71509158D01*
X136247563Y-71519163D01*
X136227560Y-71530713D01*
X136205251Y-71536690D01*
X136181092Y-71546698D01*
X136129904Y-71556879D01*
X136101230Y-71564563D01*
X136086386Y-71565535D01*
X136081851Y-71566438D01*
X136045019Y-71568247D01*
X136035836Y-71568849D01*
X136032765Y-71568849D01*
X135931174Y-71573839D01*
X135931174Y-71811859D01*
X136032779Y-71816849D01*
X136035836Y-71816849D01*
X136044973Y-71817447D01*
X136081851Y-71819259D01*
X136086393Y-71820162D01*
X136101230Y-71821135D01*
X136129890Y-71828814D01*
X136181092Y-71838999D01*
X136205258Y-71849009D01*
X136227560Y-71854985D01*
X136247557Y-71866530D01*
X136271719Y-71876539D01*
X136315118Y-71905537D01*
X136340825Y-71920379D01*
X136347860Y-71927414D01*
X136353282Y-71931037D01*
X136422647Y-72000402D01*
X136426269Y-72005823D01*
X136433306Y-72012860D01*
X136448149Y-72038570D01*
X136477145Y-72081965D01*
X136487152Y-72106123D01*
X136498700Y-72126125D01*
X136504676Y-72148430D01*
X136514685Y-72172592D01*
X136524868Y-72223785D01*
X136532550Y-72252455D01*
X136532550Y-72262405D01*
X136533822Y-72268800D01*
X136533822Y-72366897D01*
X136532550Y-72373291D01*
X136532550Y-72383243D01*
X136524867Y-72411915D01*
X136514685Y-72463105D01*
X136504677Y-72487264D01*
X136498700Y-72509573D01*
X136487150Y-72529576D01*
X136477145Y-72553732D01*
X136448154Y-72597120D01*
X136433306Y-72622838D01*
X136426267Y-72629876D01*
X136422647Y-72635295D01*
X136353282Y-72704660D01*
X136347863Y-72708280D01*
X136340825Y-72715319D01*
X136315107Y-72730167D01*
X136271719Y-72759158D01*
X136247563Y-72769163D01*
X136227560Y-72780713D01*
X136205251Y-72786690D01*
X136181092Y-72796698D01*
X136129904Y-72806879D01*
X136101230Y-72814563D01*
X136086386Y-72815535D01*
X136081851Y-72816438D01*
X136045019Y-72818247D01*
X136035836Y-72818849D01*
X136032765Y-72818849D01*
X135931174Y-72823839D01*
X135931174Y-73061859D01*
X136032779Y-73066849D01*
X136035836Y-73066849D01*
X136044973Y-73067447D01*
X136081851Y-73069259D01*
X136086393Y-73070162D01*
X136101230Y-73071135D01*
X136129890Y-73078814D01*
X136181092Y-73088999D01*
X136205258Y-73099009D01*
X136227560Y-73104985D01*
X136247557Y-73116530D01*
X136271719Y-73126539D01*
X136315118Y-73155537D01*
X136340825Y-73170379D01*
X136347860Y-73177414D01*
X136353282Y-73181037D01*
X136422647Y-73250402D01*
X136426269Y-73255823D01*
X136433306Y-73262860D01*
X136448149Y-73288570D01*
X136477145Y-73331965D01*
X136487152Y-73356123D01*
X136498700Y-73376125D01*
X136504676Y-73398430D01*
X136514685Y-73422592D01*
X136524868Y-73473785D01*
X136532550Y-73502455D01*
X136532550Y-73512405D01*
X136533822Y-73518800D01*
X136533822Y-73616897D01*
X136532550Y-73623291D01*
X136532550Y-73633243D01*
X136524867Y-73661915D01*
X136514685Y-73713105D01*
X136504677Y-73737264D01*
X136498700Y-73759573D01*
X136487150Y-73779576D01*
X136477145Y-73803732D01*
X136448154Y-73847120D01*
X136433306Y-73872838D01*
X136426267Y-73879876D01*
X136422647Y-73885295D01*
X136353282Y-73954660D01*
X136347863Y-73958280D01*
X136340825Y-73965319D01*
X136315107Y-73980167D01*
X136271719Y-74009158D01*
X136247563Y-74019163D01*
X136227560Y-74030713D01*
X136205251Y-74036690D01*
X136181092Y-74046698D01*
X136129904Y-74056879D01*
X136101230Y-74064563D01*
X136086386Y-74065535D01*
X136081851Y-74066438D01*
X136045019Y-74068247D01*
X136035836Y-74068849D01*
X136032765Y-74068849D01*
X135931174Y-74073839D01*
X135931174Y-74311859D01*
X136032779Y-74316849D01*
X136035836Y-74316849D01*
X136044973Y-74317447D01*
X136081851Y-74319259D01*
X136086393Y-74320162D01*
X136101230Y-74321135D01*
X136129890Y-74328814D01*
X136181092Y-74338999D01*
X136205258Y-74349009D01*
X136227560Y-74354985D01*
X136247557Y-74366530D01*
X136271719Y-74376539D01*
X136315118Y-74405537D01*
X136340825Y-74420379D01*
X136347860Y-74427414D01*
X136353282Y-74431037D01*
X136422647Y-74500402D01*
X136426269Y-74505823D01*
X136433306Y-74512860D01*
X136448149Y-74538570D01*
X136477145Y-74581965D01*
X136487152Y-74606123D01*
X136498700Y-74626125D01*
X136504676Y-74648430D01*
X136514685Y-74672592D01*
X136524868Y-74723785D01*
X136532550Y-74752455D01*
X136532550Y-74762405D01*
X136533822Y-74768800D01*
X136533822Y-74866897D01*
X136532550Y-74873291D01*
X136532550Y-74883243D01*
X136524867Y-74911915D01*
X136514685Y-74963105D01*
X136504677Y-74987264D01*
X136498700Y-75009573D01*
X136487150Y-75029576D01*
X136477145Y-75053732D01*
X136448154Y-75097120D01*
X136433306Y-75122838D01*
X136426267Y-75129876D01*
X136422647Y-75135295D01*
X136353282Y-75204660D01*
X136347863Y-75208280D01*
X136340825Y-75215319D01*
X136315107Y-75230167D01*
X136271719Y-75259158D01*
X136247563Y-75269163D01*
X136227560Y-75280713D01*
X136205251Y-75286690D01*
X136181092Y-75296698D01*
X136129904Y-75306879D01*
X136101230Y-75314563D01*
X136086386Y-75315535D01*
X136081851Y-75316438D01*
X136045019Y-75318247D01*
X136035836Y-75318849D01*
X136032765Y-75318849D01*
X135931174Y-75323839D01*
X135931174Y-75561859D01*
X136032779Y-75566849D01*
X136035836Y-75566849D01*
X136044973Y-75567447D01*
X136081851Y-75569259D01*
X136086393Y-75570162D01*
X136101230Y-75571135D01*
X136129890Y-75578814D01*
X136181092Y-75588999D01*
X136205258Y-75599009D01*
X136227560Y-75604985D01*
X136247557Y-75616530D01*
X136271719Y-75626539D01*
X136315118Y-75655537D01*
X136340825Y-75670379D01*
X136347860Y-75677414D01*
X136353282Y-75681037D01*
X136422647Y-75750402D01*
X136426269Y-75755823D01*
X136433306Y-75762860D01*
X136448149Y-75788570D01*
X136477145Y-75831965D01*
X136487152Y-75856123D01*
X136498700Y-75876125D01*
X136504676Y-75898430D01*
X136514685Y-75922592D01*
X136524868Y-75973785D01*
X136532550Y-76002455D01*
X136532550Y-76012405D01*
X136533822Y-76018800D01*
X136533822Y-76116897D01*
X136532550Y-76123291D01*
X136532550Y-76133243D01*
X136524867Y-76161915D01*
X136514685Y-76213105D01*
X136504677Y-76237264D01*
X136498700Y-76259573D01*
X136487150Y-76279576D01*
X136477145Y-76303732D01*
X136448154Y-76347120D01*
X136433306Y-76372838D01*
X136426267Y-76379876D01*
X136422647Y-76385295D01*
X136353282Y-76454660D01*
X136347863Y-76458280D01*
X136340825Y-76465319D01*
X136315107Y-76480167D01*
X136271719Y-76509158D01*
X136247563Y-76519163D01*
X136227560Y-76530713D01*
X136205251Y-76536690D01*
X136181092Y-76546698D01*
X136129904Y-76556879D01*
X136101230Y-76564563D01*
X136086386Y-76565535D01*
X136081851Y-76566438D01*
X136045019Y-76568247D01*
X136035836Y-76568849D01*
X136032765Y-76568849D01*
X135931174Y-76573839D01*
X135931174Y-76811859D01*
X136032779Y-76816849D01*
X136035836Y-76816849D01*
X136044973Y-76817447D01*
X136081851Y-76819259D01*
X136086393Y-76820162D01*
X136101230Y-76821135D01*
X136129890Y-76828814D01*
X136181092Y-76838999D01*
X136205258Y-76849009D01*
X136227560Y-76854985D01*
X136247557Y-76866530D01*
X136271719Y-76876539D01*
X136315118Y-76905537D01*
X136340825Y-76920379D01*
X136347860Y-76927414D01*
X136353282Y-76931037D01*
X136422647Y-77000402D01*
X136426269Y-77005823D01*
X136433306Y-77012860D01*
X136448149Y-77038570D01*
X136477145Y-77081965D01*
X136487152Y-77106123D01*
X136498700Y-77126125D01*
X136504676Y-77148430D01*
X136514685Y-77172592D01*
X136524868Y-77223785D01*
X136532550Y-77252455D01*
X136532550Y-77262405D01*
X136533822Y-77268800D01*
X136533822Y-77366897D01*
X136532550Y-77373291D01*
X136532550Y-77383243D01*
X136524867Y-77411915D01*
X136514685Y-77463105D01*
X136504677Y-77487264D01*
X136498700Y-77509573D01*
X136487150Y-77529576D01*
X136477145Y-77553732D01*
X136448154Y-77597120D01*
X136433306Y-77622838D01*
X136426267Y-77629876D01*
X136422647Y-77635295D01*
X136353282Y-77704660D01*
X136347863Y-77708280D01*
X136340825Y-77715319D01*
X136315107Y-77730167D01*
X136271719Y-77759158D01*
X136247563Y-77769163D01*
X136227560Y-77780713D01*
X136205251Y-77786690D01*
X136181092Y-77796698D01*
X136129904Y-77806879D01*
X136101230Y-77814563D01*
X136086386Y-77815535D01*
X136081851Y-77816438D01*
X136045019Y-77818247D01*
X136035836Y-77818849D01*
X136032765Y-77818849D01*
X135931174Y-77823839D01*
X135931174Y-78061859D01*
X136032779Y-78066849D01*
X136035836Y-78066849D01*
X136044973Y-78067447D01*
X136081851Y-78069259D01*
X136086393Y-78070162D01*
X136101230Y-78071135D01*
X136129890Y-78078814D01*
X136181092Y-78088999D01*
X136205258Y-78099009D01*
X136227560Y-78104985D01*
X136247557Y-78116530D01*
X136271719Y-78126539D01*
X136315118Y-78155537D01*
X136340825Y-78170379D01*
X136347860Y-78177414D01*
X136353282Y-78181037D01*
X136422647Y-78250402D01*
X136426269Y-78255823D01*
X136433306Y-78262860D01*
X136448149Y-78288570D01*
X136477145Y-78331965D01*
X136487152Y-78356123D01*
X136498700Y-78376125D01*
X136504676Y-78398430D01*
X136514685Y-78422592D01*
X136524868Y-78473785D01*
X136532550Y-78502455D01*
X136532550Y-78512405D01*
X136533822Y-78518800D01*
X136533822Y-78616897D01*
X136532550Y-78623291D01*
X136532550Y-78633243D01*
X136524867Y-78661915D01*
X136514685Y-78713105D01*
X136504677Y-78737264D01*
X136498700Y-78759573D01*
X136487150Y-78779576D01*
X136477145Y-78803732D01*
X136448154Y-78847120D01*
X136433306Y-78872838D01*
X136426267Y-78879876D01*
X136422647Y-78885295D01*
X136353282Y-78954660D01*
X136347863Y-78958280D01*
X136340825Y-78965319D01*
X136315107Y-78980167D01*
X136271719Y-79009158D01*
X136247563Y-79019163D01*
X136227560Y-79030713D01*
X136205251Y-79036690D01*
X136181092Y-79046698D01*
X136129904Y-79056879D01*
X136101230Y-79064563D01*
X136086386Y-79065535D01*
X136081851Y-79066438D01*
X136045019Y-79068247D01*
X136035836Y-79068849D01*
X136032765Y-79068849D01*
X135931174Y-79073839D01*
X135931174Y-79311859D01*
X136032779Y-79316849D01*
X136035836Y-79316849D01*
X136044973Y-79317447D01*
X136081851Y-79319259D01*
X136086393Y-79320162D01*
X136101230Y-79321135D01*
X136129890Y-79328814D01*
X136181092Y-79338999D01*
X136205258Y-79349009D01*
X136227560Y-79354985D01*
X136247557Y-79366530D01*
X136271719Y-79376539D01*
X136315118Y-79405537D01*
X136340825Y-79420379D01*
X136347860Y-79427414D01*
X136353282Y-79431037D01*
X136422647Y-79500402D01*
X136426269Y-79505823D01*
X136433306Y-79512860D01*
X136448149Y-79538570D01*
X136477145Y-79581965D01*
X136487152Y-79606123D01*
X136498700Y-79626125D01*
X136504676Y-79648430D01*
X136514685Y-79672592D01*
X136524868Y-79723785D01*
X136532550Y-79752455D01*
X136532550Y-79762405D01*
X136533822Y-79768800D01*
X136533822Y-79866897D01*
X136532550Y-79873291D01*
X136532550Y-79883243D01*
X136524867Y-79911915D01*
X136514685Y-79963105D01*
X136504677Y-79987264D01*
X136498700Y-80009573D01*
X136487150Y-80029576D01*
X136477145Y-80053732D01*
X136448154Y-80097120D01*
X136433306Y-80122838D01*
X136426267Y-80129876D01*
X136422647Y-80135295D01*
X136353282Y-80204660D01*
X136347863Y-80208280D01*
X136340825Y-80215319D01*
X136315107Y-80230167D01*
X136271719Y-80259158D01*
X136247563Y-80269163D01*
X136227560Y-80280713D01*
X136205251Y-80286690D01*
X136181092Y-80296698D01*
X136129904Y-80306879D01*
X136101230Y-80314563D01*
X136086386Y-80315535D01*
X136081851Y-80316438D01*
X136045019Y-80318247D01*
X136035836Y-80318849D01*
X136032765Y-80318849D01*
X135931174Y-80323839D01*
X135931174Y-80561859D01*
X136032779Y-80566849D01*
X136035836Y-80566849D01*
X136044973Y-80567447D01*
X136081851Y-80569259D01*
X136086393Y-80570162D01*
X136101230Y-80571135D01*
X136129890Y-80578814D01*
X136181092Y-80588999D01*
X136205258Y-80599009D01*
X136227560Y-80604985D01*
X136247557Y-80616530D01*
X136271719Y-80626539D01*
X136315118Y-80655537D01*
X136340825Y-80670379D01*
X136347860Y-80677414D01*
X136353282Y-80681037D01*
X136422647Y-80750402D01*
X136426269Y-80755823D01*
X136433306Y-80762860D01*
X136448149Y-80788570D01*
X136477145Y-80831965D01*
X136487152Y-80856123D01*
X136498700Y-80876125D01*
X136504676Y-80898430D01*
X136514685Y-80922592D01*
X136524868Y-80973785D01*
X136532550Y-81002455D01*
X136532550Y-81012405D01*
X136533822Y-81018800D01*
X136533822Y-81116897D01*
X136532550Y-81123291D01*
X136532550Y-81133243D01*
X136524867Y-81161915D01*
X136514685Y-81213105D01*
X136504677Y-81237264D01*
X136498700Y-81259573D01*
X136487150Y-81279576D01*
X136477145Y-81303732D01*
X136448154Y-81347120D01*
X136433306Y-81372838D01*
X136426267Y-81379876D01*
X136422647Y-81385295D01*
X136353282Y-81454660D01*
X136347863Y-81458280D01*
X136340825Y-81465319D01*
X136315107Y-81480167D01*
X136271719Y-81509158D01*
X136247563Y-81519163D01*
X136227560Y-81530713D01*
X136205251Y-81536690D01*
X136181092Y-81546698D01*
X136129906Y-81556879D01*
X136101230Y-81564563D01*
X136086384Y-81565535D01*
X136081850Y-81566438D01*
X136044994Y-81568248D01*
X136035836Y-81568849D01*
X136032777Y-81568849D01*
X135538895Y-81568849D01*
X135535836Y-81568849D01*
X135526678Y-81568248D01*
X135489821Y-81566438D01*
X135485285Y-81565535D01*
X135470442Y-81564563D01*
X135441768Y-81556880D01*
X135390579Y-81546698D01*
X135366417Y-81536689D01*
X135344112Y-81530713D01*
X135324110Y-81519165D01*
X135299952Y-81509158D01*
X135256557Y-81480162D01*
X135230847Y-81465319D01*
X135223810Y-81458282D01*
X135218389Y-81454660D01*
X135149024Y-81385295D01*
X135145401Y-81379873D01*
X135138366Y-81372838D01*
X135123524Y-81347131D01*
X135094526Y-81303732D01*
X135084517Y-81279570D01*
X135072972Y-81259573D01*
X135066996Y-81237271D01*
X135056986Y-81213105D01*
X135046802Y-81161908D01*
X135039122Y-81133243D01*
X135039122Y-81123292D01*
X135037850Y-81116897D01*
X135037850Y-81018800D01*
X135039122Y-81012404D01*
X135039122Y-81002455D01*
X135046802Y-80973792D01*
X135056986Y-80922592D01*
X135066997Y-80898423D01*
X135072972Y-80876125D01*
X135084516Y-80856129D01*
X135094526Y-80831965D01*
X135123528Y-80788559D01*
X135138366Y-80762860D01*
X135145399Y-80755826D01*
X135149024Y-80750402D01*
X135218389Y-80681037D01*
X135223813Y-80677412D01*
X135230847Y-80670379D01*
X135256546Y-80655541D01*
X135299952Y-80626539D01*
X135324116Y-80616529D01*
X135344112Y-80604985D01*
X135366410Y-80599010D01*
X135390579Y-80588999D01*
X135441784Y-80578813D01*
X135470442Y-80571135D01*
X135485276Y-80570162D01*
X135489820Y-80569259D01*
X135526701Y-80567447D01*
X135535836Y-80566849D01*
X135538892Y-80566849D01*
X135640497Y-80561859D01*
X135640497Y-80323839D01*
X135538906Y-80318849D01*
X135535836Y-80318849D01*
X135526655Y-80318247D01*
X135489820Y-80316438D01*
X135485284Y-80315535D01*
X135470442Y-80314563D01*
X135441770Y-80306880D01*
X135390579Y-80296698D01*
X135366417Y-80286689D01*
X135344112Y-80280713D01*
X135324110Y-80269165D01*
X135299952Y-80259158D01*
X135256557Y-80230162D01*
X135230847Y-80215319D01*
X135223810Y-80208282D01*
X135218389Y-80204660D01*
X135149024Y-80135295D01*
X135145401Y-80129873D01*
X135138366Y-80122838D01*
X135123524Y-80097131D01*
X135094526Y-80053732D01*
X135084517Y-80029570D01*
X135072972Y-80009573D01*
X135066996Y-79987271D01*
X135056986Y-79963105D01*
X135046802Y-79911908D01*
X135039122Y-79883243D01*
X135039122Y-79873292D01*
X135037850Y-79866897D01*
X135037850Y-79768800D01*
X135039122Y-79762404D01*
X135039122Y-79752455D01*
X135046802Y-79723792D01*
X135056986Y-79672592D01*
X135066997Y-79648423D01*
X135072972Y-79626125D01*
X135084516Y-79606129D01*
X135094526Y-79581965D01*
X135123528Y-79538559D01*
X135138366Y-79512860D01*
X135145399Y-79505826D01*
X135149024Y-79500402D01*
X135218389Y-79431037D01*
X135223813Y-79427412D01*
X135230847Y-79420379D01*
X135256546Y-79405541D01*
X135299952Y-79376539D01*
X135324116Y-79366529D01*
X135344112Y-79354985D01*
X135366410Y-79349010D01*
X135390579Y-79338999D01*
X135441784Y-79328813D01*
X135470442Y-79321135D01*
X135485276Y-79320162D01*
X135489820Y-79319259D01*
X135526701Y-79317447D01*
X135535836Y-79316849D01*
X135538892Y-79316849D01*
X135640497Y-79311859D01*
X135640497Y-79073839D01*
X135538906Y-79068849D01*
X135535836Y-79068849D01*
X135526655Y-79068247D01*
X135489820Y-79066438D01*
X135485284Y-79065535D01*
X135470442Y-79064563D01*
X135441770Y-79056880D01*
X135390579Y-79046698D01*
X135366417Y-79036689D01*
X135344112Y-79030713D01*
X135324110Y-79019165D01*
X135299952Y-79009158D01*
X135256557Y-78980162D01*
X135230847Y-78965319D01*
X135223810Y-78958282D01*
X135218389Y-78954660D01*
X135149024Y-78885295D01*
X135145401Y-78879873D01*
X135138366Y-78872838D01*
X135123524Y-78847131D01*
X135094526Y-78803732D01*
X135084517Y-78779570D01*
X135072972Y-78759573D01*
X135066996Y-78737271D01*
X135056986Y-78713105D01*
X135046802Y-78661908D01*
X135039122Y-78633243D01*
X135039122Y-78623292D01*
X135037850Y-78616897D01*
X135037850Y-78518800D01*
X135039122Y-78512404D01*
X135039122Y-78502455D01*
X135046802Y-78473792D01*
X135056986Y-78422592D01*
X135066997Y-78398423D01*
X135072972Y-78376125D01*
X135084516Y-78356129D01*
X135094526Y-78331965D01*
X135123528Y-78288559D01*
X135138366Y-78262860D01*
X135145399Y-78255826D01*
X135149024Y-78250402D01*
X135218389Y-78181037D01*
X135223813Y-78177412D01*
X135230847Y-78170379D01*
X135256546Y-78155541D01*
X135299952Y-78126539D01*
X135324116Y-78116529D01*
X135344112Y-78104985D01*
X135366410Y-78099010D01*
X135390579Y-78088999D01*
X135441784Y-78078813D01*
X135470442Y-78071135D01*
X135485276Y-78070162D01*
X135489820Y-78069259D01*
X135526701Y-78067447D01*
X135535836Y-78066849D01*
X135538892Y-78066849D01*
X135640497Y-78061859D01*
X135640497Y-77823839D01*
X135538906Y-77818849D01*
X135535836Y-77818849D01*
X135526655Y-77818247D01*
X135489820Y-77816438D01*
X135485284Y-77815535D01*
X135470442Y-77814563D01*
X135441770Y-77806880D01*
X135390579Y-77796698D01*
X135366417Y-77786689D01*
X135344112Y-77780713D01*
X135324110Y-77769165D01*
X135299952Y-77759158D01*
X135256557Y-77730162D01*
X135230847Y-77715319D01*
X135223810Y-77708282D01*
X135218389Y-77704660D01*
X135149024Y-77635295D01*
X135145401Y-77629873D01*
X135138366Y-77622838D01*
X135123524Y-77597131D01*
X135094526Y-77553732D01*
X135084517Y-77529570D01*
X135072972Y-77509573D01*
X135066996Y-77487271D01*
X135056986Y-77463105D01*
X135046802Y-77411908D01*
X135039122Y-77383243D01*
X135039122Y-77373292D01*
X135037850Y-77366897D01*
X135037850Y-77268800D01*
X135039122Y-77262404D01*
X135039122Y-77252455D01*
X135046802Y-77223792D01*
X135056986Y-77172592D01*
X135066997Y-77148423D01*
X135072972Y-77126125D01*
X135084516Y-77106129D01*
X135094526Y-77081965D01*
X135123528Y-77038559D01*
X135138366Y-77012860D01*
X135145399Y-77005826D01*
X135149024Y-77000402D01*
X135218389Y-76931037D01*
X135223813Y-76927412D01*
X135230847Y-76920379D01*
X135256546Y-76905541D01*
X135299952Y-76876539D01*
X135324116Y-76866529D01*
X135344112Y-76854985D01*
X135366410Y-76849010D01*
X135390579Y-76838999D01*
X135441784Y-76828813D01*
X135470442Y-76821135D01*
X135485276Y-76820162D01*
X135489820Y-76819259D01*
X135526701Y-76817447D01*
X135535836Y-76816849D01*
X135538892Y-76816849D01*
X135640497Y-76811859D01*
X135640497Y-76573839D01*
X135538906Y-76568849D01*
X135535836Y-76568849D01*
X135526655Y-76568247D01*
X135489820Y-76566438D01*
X135485284Y-76565535D01*
X135470442Y-76564563D01*
X135441770Y-76556880D01*
X135390579Y-76546698D01*
X135366417Y-76536689D01*
X135344112Y-76530713D01*
X135324110Y-76519165D01*
X135299952Y-76509158D01*
X135256557Y-76480162D01*
X135230847Y-76465319D01*
X135223810Y-76458282D01*
X135218389Y-76454660D01*
X135149024Y-76385295D01*
X135145401Y-76379873D01*
X135138366Y-76372838D01*
X135123524Y-76347131D01*
X135094526Y-76303732D01*
X135084517Y-76279570D01*
X135072972Y-76259573D01*
X135066996Y-76237271D01*
X135056986Y-76213105D01*
X135046802Y-76161908D01*
X135039122Y-76133243D01*
X135039122Y-76123292D01*
X135037850Y-76116897D01*
X135037850Y-76018800D01*
X135039122Y-76012404D01*
X135039122Y-76002455D01*
X135046802Y-75973792D01*
X135056986Y-75922592D01*
X135066997Y-75898423D01*
X135072972Y-75876125D01*
X135084516Y-75856129D01*
X135094526Y-75831965D01*
X135123528Y-75788559D01*
X135138366Y-75762860D01*
X135145399Y-75755826D01*
X135149024Y-75750402D01*
X135218389Y-75681037D01*
X135223813Y-75677412D01*
X135230847Y-75670379D01*
X135256546Y-75655541D01*
X135299952Y-75626539D01*
X135324116Y-75616529D01*
X135344112Y-75604985D01*
X135366410Y-75599010D01*
X135390579Y-75588999D01*
X135441784Y-75578813D01*
X135470442Y-75571135D01*
X135485276Y-75570162D01*
X135489820Y-75569259D01*
X135526701Y-75567447D01*
X135535836Y-75566849D01*
X135538892Y-75566849D01*
X135640497Y-75561859D01*
X135640497Y-75323839D01*
X135538906Y-75318849D01*
X135535836Y-75318849D01*
X135526655Y-75318247D01*
X135489820Y-75316438D01*
X135485284Y-75315535D01*
X135470442Y-75314563D01*
X135441770Y-75306880D01*
X135390579Y-75296698D01*
X135366417Y-75286689D01*
X135344112Y-75280713D01*
X135324110Y-75269165D01*
X135299952Y-75259158D01*
X135256557Y-75230162D01*
X135230847Y-75215319D01*
X135223810Y-75208282D01*
X135218389Y-75204660D01*
X135149024Y-75135295D01*
X135145401Y-75129873D01*
X135138366Y-75122838D01*
X135123524Y-75097131D01*
X135094526Y-75053732D01*
X135084517Y-75029570D01*
X135072972Y-75009573D01*
X135066996Y-74987271D01*
X135056986Y-74963105D01*
X135046802Y-74911908D01*
X135039122Y-74883243D01*
X135039122Y-74873292D01*
X135037850Y-74866897D01*
X135037850Y-74768800D01*
X135039122Y-74762404D01*
X135039122Y-74752455D01*
X135046802Y-74723792D01*
X135056986Y-74672592D01*
X135066997Y-74648423D01*
X135072972Y-74626125D01*
X135084516Y-74606129D01*
X135094526Y-74581965D01*
X135123528Y-74538559D01*
X135138366Y-74512860D01*
X135145399Y-74505826D01*
X135149024Y-74500402D01*
X135218389Y-74431037D01*
X135223813Y-74427412D01*
X135230847Y-74420379D01*
X135256546Y-74405541D01*
X135299952Y-74376539D01*
X135324116Y-74366529D01*
X135344112Y-74354985D01*
X135366410Y-74349010D01*
X135390579Y-74338999D01*
X135441784Y-74328813D01*
X135470442Y-74321135D01*
X135485276Y-74320162D01*
X135489820Y-74319259D01*
X135526701Y-74317447D01*
X135535836Y-74316849D01*
X135538892Y-74316849D01*
X135640497Y-74311859D01*
X135640497Y-74073839D01*
X135538906Y-74068849D01*
X135535836Y-74068849D01*
X135526655Y-74068247D01*
X135489820Y-74066438D01*
X135485284Y-74065535D01*
X135470442Y-74064563D01*
X135441770Y-74056880D01*
X135390579Y-74046698D01*
X135366417Y-74036689D01*
X135344112Y-74030713D01*
X135324110Y-74019165D01*
X135299952Y-74009158D01*
X135256557Y-73980162D01*
X135230847Y-73965319D01*
X135223810Y-73958282D01*
X135218389Y-73954660D01*
X135149024Y-73885295D01*
X135145401Y-73879873D01*
X135138366Y-73872838D01*
X135123524Y-73847131D01*
X135094526Y-73803732D01*
X135084517Y-73779570D01*
X135072972Y-73759573D01*
X135066996Y-73737271D01*
X135056986Y-73713105D01*
X135046802Y-73661908D01*
X135039122Y-73633243D01*
X135039122Y-73623292D01*
X135037850Y-73616897D01*
X135037850Y-73518800D01*
X135039122Y-73512404D01*
X135039122Y-73502455D01*
X135046802Y-73473792D01*
X135056986Y-73422592D01*
X135066997Y-73398423D01*
X135072972Y-73376125D01*
X135084516Y-73356129D01*
X135094526Y-73331965D01*
X135123528Y-73288559D01*
X135138366Y-73262860D01*
X135145399Y-73255826D01*
X135149024Y-73250402D01*
X135218389Y-73181037D01*
X135223813Y-73177412D01*
X135230847Y-73170379D01*
X135256546Y-73155541D01*
X135299952Y-73126539D01*
X135324116Y-73116529D01*
X135344112Y-73104985D01*
X135366410Y-73099010D01*
X135390579Y-73088999D01*
X135441784Y-73078813D01*
X135470442Y-73071135D01*
X135485276Y-73070162D01*
X135489820Y-73069259D01*
X135526701Y-73067447D01*
X135535836Y-73066849D01*
X135538892Y-73066849D01*
X135640497Y-73061859D01*
X135640497Y-72823839D01*
X135538906Y-72818849D01*
X135535836Y-72818849D01*
X135526655Y-72818247D01*
X135489820Y-72816438D01*
X135485284Y-72815535D01*
X135470442Y-72814563D01*
X135441770Y-72806880D01*
X135390579Y-72796698D01*
X135366417Y-72786689D01*
X135344112Y-72780713D01*
X135324110Y-72769165D01*
X135299952Y-72759158D01*
X135256557Y-72730162D01*
X135230847Y-72715319D01*
X135223810Y-72708282D01*
X135218389Y-72704660D01*
X135149024Y-72635295D01*
X135145401Y-72629873D01*
X135138366Y-72622838D01*
X135123524Y-72597131D01*
X135094526Y-72553732D01*
X135084517Y-72529570D01*
X135072972Y-72509573D01*
X135066996Y-72487271D01*
X135056986Y-72463105D01*
X135046802Y-72411908D01*
X135039122Y-72383243D01*
X135039122Y-72373292D01*
X135037850Y-72366897D01*
X135037850Y-72268800D01*
X135039122Y-72262404D01*
X135039122Y-72252455D01*
X135046802Y-72223792D01*
X135056986Y-72172592D01*
X135066997Y-72148423D01*
X135072972Y-72126125D01*
X135084516Y-72106129D01*
X135094526Y-72081965D01*
X135123528Y-72038559D01*
X135138366Y-72012860D01*
X135145399Y-72005826D01*
X135149024Y-72000402D01*
X135218389Y-71931037D01*
X135223813Y-71927412D01*
X135230847Y-71920379D01*
X135256546Y-71905541D01*
X135299952Y-71876539D01*
X135324116Y-71866529D01*
X135344112Y-71854985D01*
X135366410Y-71849010D01*
X135390579Y-71838999D01*
X135441784Y-71828813D01*
X135470442Y-71821135D01*
X135485276Y-71820162D01*
X135489820Y-71819259D01*
X135526701Y-71817447D01*
X135535836Y-71816849D01*
X135538892Y-71816849D01*
X135640497Y-71811859D01*
X135640497Y-71573839D01*
X135538906Y-71568849D01*
X135535836Y-71568849D01*
X135526655Y-71568247D01*
X135489820Y-71566438D01*
X135485284Y-71565535D01*
X135470442Y-71564563D01*
X135441770Y-71556880D01*
X135390579Y-71546698D01*
X135366417Y-71536689D01*
X135344112Y-71530713D01*
X135324110Y-71519165D01*
X135299952Y-71509158D01*
X135256557Y-71480162D01*
X135230847Y-71465319D01*
X135223810Y-71458282D01*
X135218389Y-71454660D01*
X135149024Y-71385295D01*
X135145401Y-71379873D01*
X135138366Y-71372838D01*
X135123524Y-71347131D01*
X135094526Y-71303732D01*
X135084517Y-71279570D01*
X135072972Y-71259573D01*
X135066996Y-71237271D01*
X135056986Y-71213105D01*
X135046802Y-71161908D01*
X135039122Y-71133243D01*
X135039122Y-71123292D01*
X135037850Y-71116897D01*
X135037850Y-71018800D01*
X135039122Y-71012404D01*
X135039122Y-71002455D01*
X135046802Y-70973792D01*
X135056986Y-70922592D01*
X135066997Y-70898423D01*
X135072972Y-70876125D01*
X135084516Y-70856129D01*
X135094526Y-70831965D01*
X135123528Y-70788559D01*
X135138366Y-70762860D01*
X135145399Y-70755826D01*
X135149024Y-70750402D01*
X135218389Y-70681037D01*
X135223813Y-70677412D01*
X135230847Y-70670379D01*
X135256546Y-70655541D01*
X135299952Y-70626539D01*
X135324116Y-70616529D01*
X135344112Y-70604985D01*
X135366410Y-70599010D01*
X135390579Y-70588999D01*
X135441781Y-70578814D01*
X135470442Y-70571135D01*
X135485279Y-70570162D01*
X135489822Y-70569259D01*
X135526804Y-70567440D01*
X135535836Y-70566849D01*
X135538845Y-70566849D01*
X135623121Y-70562706D01*
X135617130Y-70318849D01*
X135310836Y-70318849D01*
X135272381Y-70311200D01*
X135226029Y-70303859D01*
X135219980Y-70300776D01*
X135205215Y-70297840D01*
X135176307Y-70278523D01*
X135149524Y-70264877D01*
X135136717Y-70252070D01*
X135115675Y-70238010D01*
X135101614Y-70216967D01*
X135088807Y-70204160D01*
X135075159Y-70177374D01*
X135055845Y-70148470D01*
X135052908Y-70133706D01*
X135049825Y-70127655D01*
X135042480Y-70081282D01*
X135034836Y-70042849D01*
X135034836Y-69592849D01*
X135042480Y-69554419D01*
X135049825Y-69508042D01*
X135052908Y-69501990D01*
X135055845Y-69487228D01*
X135075156Y-69458326D01*
X135088807Y-69431537D01*
X135101616Y-69418727D01*
X135115675Y-69397688D01*
X135136714Y-69383629D01*
X135149524Y-69370820D01*
X135176313Y-69357169D01*
X135205215Y-69337858D01*
X135219977Y-69334921D01*
X135226029Y-69331838D01*
X135272406Y-69324493D01*
X135310836Y-69316849D01*
X136260836Y-69316849D01*
X136299269Y-69324493D01*
G37*
G36*
X167173382Y-79522646D02*
G01*
X167336564Y-79590238D01*
X167483424Y-79688367D01*
X167608318Y-79813261D01*
X167706447Y-79960121D01*
X167774039Y-80123303D01*
X167808497Y-80296536D01*
X167808497Y-80473162D01*
X167774039Y-80646395D01*
X167706447Y-80809577D01*
X167608318Y-80956437D01*
X167483424Y-81081331D01*
X167336564Y-81179460D01*
X167173382Y-81247052D01*
X167000149Y-81281510D01*
X166823523Y-81281510D01*
X166650290Y-81247052D01*
X166487108Y-81179460D01*
X166340248Y-81081331D01*
X166215354Y-80956437D01*
X166117225Y-80809577D01*
X166049633Y-80646395D01*
X166015175Y-80473162D01*
X166015175Y-80296536D01*
X166049633Y-80123303D01*
X166117225Y-79960121D01*
X166215354Y-79813261D01*
X166340248Y-79688367D01*
X166487108Y-79590238D01*
X166650290Y-79522646D01*
X166823523Y-79488188D01*
X167000149Y-79488188D01*
X167173382Y-79522646D01*
G37*
G36*
X167173382Y-76982646D02*
G01*
X167336564Y-77050238D01*
X167483424Y-77148367D01*
X167608318Y-77273261D01*
X167706447Y-77420121D01*
X167774039Y-77583303D01*
X167808497Y-77756536D01*
X167808497Y-77933162D01*
X167774039Y-78106395D01*
X167706447Y-78269577D01*
X167608318Y-78416437D01*
X167483424Y-78541331D01*
X167336564Y-78639460D01*
X167173382Y-78707052D01*
X167000149Y-78741510D01*
X166823523Y-78741510D01*
X166650290Y-78707052D01*
X166487108Y-78639460D01*
X166340248Y-78541331D01*
X166215354Y-78416437D01*
X166117225Y-78269577D01*
X166049633Y-78106395D01*
X166015175Y-77933162D01*
X166015175Y-77756536D01*
X166049633Y-77583303D01*
X166117225Y-77420121D01*
X166215354Y-77273261D01*
X166340248Y-77148367D01*
X166487108Y-77050238D01*
X166650290Y-76982646D01*
X166823523Y-76948188D01*
X167000149Y-76948188D01*
X167173382Y-76982646D01*
G37*
G36*
X167173382Y-74442646D02*
G01*
X167336564Y-74510238D01*
X167483424Y-74608367D01*
X167608318Y-74733261D01*
X167706447Y-74880121D01*
X167774039Y-75043303D01*
X167808497Y-75216536D01*
X167808497Y-75393162D01*
X167774039Y-75566395D01*
X167706447Y-75729577D01*
X167608318Y-75876437D01*
X167483424Y-76001331D01*
X167336564Y-76099460D01*
X167173382Y-76167052D01*
X167000149Y-76201510D01*
X166823523Y-76201510D01*
X166650290Y-76167052D01*
X166487108Y-76099460D01*
X166340248Y-76001331D01*
X166215354Y-75876437D01*
X166117225Y-75729577D01*
X166049633Y-75566395D01*
X166015175Y-75393162D01*
X166015175Y-75216536D01*
X166049633Y-75043303D01*
X166117225Y-74880121D01*
X166215354Y-74733261D01*
X166340248Y-74608367D01*
X166487108Y-74510238D01*
X166650290Y-74442646D01*
X166823523Y-74408188D01*
X167000149Y-74408188D01*
X167173382Y-74442646D01*
G37*
G36*
X167173382Y-71902646D02*
G01*
X167336564Y-71970238D01*
X167483424Y-72068367D01*
X167608318Y-72193261D01*
X167706447Y-72340121D01*
X167774039Y-72503303D01*
X167808497Y-72676536D01*
X167808497Y-72853162D01*
X167774039Y-73026395D01*
X167706447Y-73189577D01*
X167608318Y-73336437D01*
X167483424Y-73461331D01*
X167336564Y-73559460D01*
X167173382Y-73627052D01*
X167000149Y-73661510D01*
X166823523Y-73661510D01*
X166650290Y-73627052D01*
X166487108Y-73559460D01*
X166340248Y-73461331D01*
X166215354Y-73336437D01*
X166117225Y-73189577D01*
X166049633Y-73026395D01*
X166015175Y-72853162D01*
X166015175Y-72676536D01*
X166049633Y-72503303D01*
X166117225Y-72340121D01*
X166215354Y-72193261D01*
X166340248Y-72068367D01*
X166487108Y-71970238D01*
X166650290Y-71902646D01*
X166823523Y-71868188D01*
X167000149Y-71868188D01*
X167173382Y-71902646D01*
G37*
G36*
X167173382Y-69362646D02*
G01*
X167336564Y-69430238D01*
X167483424Y-69528367D01*
X167608318Y-69653261D01*
X167706447Y-69800121D01*
X167774039Y-69963303D01*
X167808497Y-70136536D01*
X167808497Y-70313162D01*
X167774039Y-70486395D01*
X167706447Y-70649577D01*
X167608318Y-70796437D01*
X167483424Y-70921331D01*
X167336564Y-71019460D01*
X167173382Y-71087052D01*
X167000149Y-71121510D01*
X166823523Y-71121510D01*
X166650290Y-71087052D01*
X166487108Y-71019460D01*
X166340248Y-70921331D01*
X166215354Y-70796437D01*
X166117225Y-70649577D01*
X166049633Y-70486395D01*
X166015175Y-70313162D01*
X166015175Y-70136536D01*
X166049633Y-69963303D01*
X166117225Y-69800121D01*
X166215354Y-69653261D01*
X166340248Y-69528367D01*
X166487108Y-69430238D01*
X166650290Y-69362646D01*
X166823523Y-69328188D01*
X167000149Y-69328188D01*
X167173382Y-69362646D01*
G37*
G36*
X146395353Y-67793731D02*
G01*
X146411898Y-67804787D01*
X146422954Y-67821332D01*
X146426836Y-67840849D01*
X146426836Y-69440849D01*
X146422954Y-69460366D01*
X146411898Y-69476911D01*
X146395353Y-69487967D01*
X146375836Y-69491849D01*
X144775836Y-69491849D01*
X144756319Y-69487967D01*
X144739774Y-69476911D01*
X144728718Y-69460366D01*
X144724836Y-69440849D01*
X144724836Y-67840849D01*
X144728718Y-67821332D01*
X144739774Y-67804787D01*
X144756319Y-67793731D01*
X144775836Y-67789849D01*
X146375836Y-67789849D01*
X146395353Y-67793731D01*
G37*
G36*
X145822868Y-61326493D02*
G01*
X145976995Y-61390334D01*
X146115705Y-61483017D01*
X146233668Y-61600980D01*
X146326351Y-61739690D01*
X146390192Y-61893817D01*
X146422738Y-62057436D01*
X146422738Y-62224262D01*
X146390192Y-62387881D01*
X146326351Y-62542008D01*
X146233668Y-62680718D01*
X146115705Y-62798681D01*
X145976995Y-62891364D01*
X145822868Y-62955205D01*
X145659249Y-62987751D01*
X145492423Y-62987751D01*
X145328804Y-62955205D01*
X145174677Y-62891364D01*
X145035967Y-62798681D01*
X144918004Y-62680718D01*
X144825321Y-62542008D01*
X144761480Y-62387881D01*
X144728934Y-62224262D01*
X144728934Y-62057436D01*
X144761480Y-61893817D01*
X144825321Y-61739690D01*
X144918004Y-61600980D01*
X145035967Y-61483017D01*
X145174677Y-61390334D01*
X145328804Y-61326493D01*
X145492423Y-61293947D01*
X145659249Y-61293947D01*
X145822868Y-61326493D01*
G37*
G36*
X160296330Y-59576782D02*
G01*
X160461975Y-59645395D01*
X160611052Y-59745005D01*
X160737831Y-59871784D01*
X160837441Y-60020861D01*
X160906054Y-60186506D01*
X160941032Y-60362354D01*
X160941032Y-60541646D01*
X160906054Y-60717494D01*
X160837441Y-60883139D01*
X160737831Y-61032216D01*
X160611052Y-61158995D01*
X160461975Y-61258605D01*
X160296330Y-61327218D01*
X160120482Y-61362196D01*
X159941190Y-61362196D01*
X159765342Y-61327218D01*
X159599697Y-61258605D01*
X159450620Y-61158995D01*
X159323841Y-61032216D01*
X159224231Y-60883139D01*
X159155618Y-60717494D01*
X159120640Y-60541646D01*
X159120640Y-60362354D01*
X159155618Y-60186506D01*
X159224231Y-60020861D01*
X159323841Y-59871784D01*
X159450620Y-59745005D01*
X159599697Y-59645395D01*
X159765342Y-59576782D01*
X159941190Y-59541804D01*
X160120482Y-59541804D01*
X160296330Y-59576782D01*
G37*
G36*
X180296330Y-59576782D02*
G01*
X180461975Y-59645395D01*
X180611052Y-59745005D01*
X180737831Y-59871784D01*
X180837441Y-60020861D01*
X180906054Y-60186506D01*
X180941032Y-60362354D01*
X180941032Y-60541646D01*
X180906054Y-60717494D01*
X180837441Y-60883139D01*
X180737831Y-61032216D01*
X180611052Y-61158995D01*
X180461975Y-61258605D01*
X180296330Y-61327218D01*
X180120482Y-61362196D01*
X179941190Y-61362196D01*
X179765342Y-61327218D01*
X179599697Y-61258605D01*
X179450620Y-61158995D01*
X179323841Y-61032216D01*
X179224231Y-60883139D01*
X179155618Y-60717494D01*
X179120640Y-60541646D01*
X179120640Y-60362354D01*
X179155618Y-60186506D01*
X179224231Y-60020861D01*
X179323841Y-59871784D01*
X179450620Y-59745005D01*
X179599697Y-59645395D01*
X179765342Y-59576782D01*
X179941190Y-59541804D01*
X180120482Y-59541804D01*
X180296330Y-59576782D01*
G37*
D10*
X140035836Y-60442849D02*
G75*
G02*
X135035836Y-65442846I-4999996J-1D01*
G01*
X200035836Y-101442849D02*
X200035836Y-103442849D01*
X206535836Y-94942849D02*
G75*
G02*
X205035836Y-96442836I-1500036J49D01*
G01*
X133535836Y-66942849D02*
G75*
G02*
X135035836Y-65442836I1499964J49D01*
G01*
X200035836Y-58442849D02*
X200035836Y-60442849D01*
X135035836Y-96442849D02*
G75*
G02*
X140035751Y-101442849I-36J-4999951D01*
G01*
X205035836Y-65442849D02*
G75*
G02*
X200035751Y-60442849I-36J5000049D01*
G01*
X170035836Y-90442849D02*
X199035837Y-90442849D01*
X199035836Y-71442849D02*
G75*
G02*
X200535751Y-72942849I-36J-1499951D01*
G01*
X200535836Y-72942849D02*
X200535837Y-88942800D01*
X202535836Y-70442849D02*
G75*
G02*
X200535836Y-70442849I-1000000J0D01*
G01*
X200535836Y-70442849D02*
G75*
G02*
X202535836Y-70442849I1000000J0D01*
G01*
X170035836Y-90442764D02*
G75*
G02*
X168535836Y-88942849I-36J1499964D01*
G01*
X140035836Y-58442849D02*
X200035836Y-58442849D01*
X135035836Y-96442849D02*
G75*
G02*
X133535751Y-94942849I-36J1500049D01*
G01*
X200035835Y-101442850D02*
G75*
G02*
X205035835Y-96442835I4999965J50D01*
G01*
X140035836Y-60442849D02*
X140035836Y-58442849D01*
X206535837Y-66942850D02*
X206535836Y-94942800D01*
X168535836Y-72942898D02*
X168535836Y-88942849D01*
X200535837Y-88942849D02*
G75*
G02*
X199035837Y-90442837I-1500037J49D01*
G01*
X168535836Y-72942898D02*
G75*
G02*
X170035836Y-71442936I1499964J-2D01*
G01*
X170035836Y-71442849D02*
X199035836Y-71442849D01*
X140035836Y-103442849D02*
X200035836Y-103442849D01*
X133535836Y-66942849D02*
X133535836Y-94942849D01*
X205035837Y-65442849D02*
G75*
G02*
X206535751Y-66942850I-37J-1499951D01*
G01*
X202535836Y-91442849D02*
G75*
G02*
X200535836Y-91442849I-1000000J0D01*
G01*
X200535836Y-91442849D02*
G75*
G02*
X202535836Y-91442849I1000000J0D01*
G01*
X140035836Y-103442849D02*
X140035836Y-101442849D01*
M02*
