%TF.GenerationSoftware,KiCad,Pcbnew,9.0.6-9.0.6~ubuntu22.04.1*%
%TF.CreationDate,2026-01-04T18:02:11+03:00*%
%TF.ProjectId,sportiduino-base-v3bm,73706f72-7469-4647-9569-6e6f2d626173,3bm*%
%TF.SameCoordinates,Original*%
%TF.FileFunction,Legend,Bot*%
%TF.FilePolarity,Positive*%
%FSLAX46Y46*%
G04 Gerber Fmt 4.6, Leading zero omitted, Abs format (unit mm)*
G04 Created by KiCad (PCBNEW 9.0.6-9.0.6~ubuntu22.04.1) date 2026-01-04 18:02:11*
%MOMM*%
%LPD*%
G01*
G04 APERTURE LIST*
%ADD10C,0.150000*%
%ADD11C,0.120000*%
%TA.AperFunction,Profile*%
%ADD12C,0.150000*%
%TD*%
G04 APERTURE END LIST*
D10*
X144452502Y-87397668D02*
X144785835Y-86921477D01*
X145023930Y-87397668D02*
X145023930Y-86397668D01*
X145023930Y-86397668D02*
X144642978Y-86397668D01*
X144642978Y-86397668D02*
X144547740Y-86445287D01*
X144547740Y-86445287D02*
X144500121Y-86492906D01*
X144500121Y-86492906D02*
X144452502Y-86588144D01*
X144452502Y-86588144D02*
X144452502Y-86731001D01*
X144452502Y-86731001D02*
X144500121Y-86826239D01*
X144500121Y-86826239D02*
X144547740Y-86873858D01*
X144547740Y-86873858D02*
X144642978Y-86921477D01*
X144642978Y-86921477D02*
X145023930Y-86921477D01*
X144071549Y-86492906D02*
X144023930Y-86445287D01*
X144023930Y-86445287D02*
X143928692Y-86397668D01*
X143928692Y-86397668D02*
X143690597Y-86397668D01*
X143690597Y-86397668D02*
X143595359Y-86445287D01*
X143595359Y-86445287D02*
X143547740Y-86492906D01*
X143547740Y-86492906D02*
X143500121Y-86588144D01*
X143500121Y-86588144D02*
X143500121Y-86683382D01*
X143500121Y-86683382D02*
X143547740Y-86826239D01*
X143547740Y-86826239D02*
X144119168Y-87397668D01*
X144119168Y-87397668D02*
X143500121Y-87397668D01*
X171237168Y-63526200D02*
X171094311Y-63573819D01*
X171094311Y-63573819D02*
X170856216Y-63573819D01*
X170856216Y-63573819D02*
X170760978Y-63526200D01*
X170760978Y-63526200D02*
X170713359Y-63478580D01*
X170713359Y-63478580D02*
X170665740Y-63383342D01*
X170665740Y-63383342D02*
X170665740Y-63288104D01*
X170665740Y-63288104D02*
X170713359Y-63192866D01*
X170713359Y-63192866D02*
X170760978Y-63145247D01*
X170760978Y-63145247D02*
X170856216Y-63097628D01*
X170856216Y-63097628D02*
X171046692Y-63050009D01*
X171046692Y-63050009D02*
X171141930Y-63002390D01*
X171141930Y-63002390D02*
X171189549Y-62954771D01*
X171189549Y-62954771D02*
X171237168Y-62859533D01*
X171237168Y-62859533D02*
X171237168Y-62764295D01*
X171237168Y-62764295D02*
X171189549Y-62669057D01*
X171189549Y-62669057D02*
X171141930Y-62621438D01*
X171141930Y-62621438D02*
X171046692Y-62573819D01*
X171046692Y-62573819D02*
X170808597Y-62573819D01*
X170808597Y-62573819D02*
X170665740Y-62621438D01*
X170332406Y-62573819D02*
X170094311Y-63573819D01*
X170094311Y-63573819D02*
X169903835Y-62859533D01*
X169903835Y-62859533D02*
X169713359Y-63573819D01*
X169713359Y-63573819D02*
X169475264Y-62573819D01*
X168570502Y-63573819D02*
X169141930Y-63573819D01*
X168856216Y-63573819D02*
X168856216Y-62573819D01*
X168856216Y-62573819D02*
X168951454Y-62716676D01*
X168951454Y-62716676D02*
X169046692Y-62811914D01*
X169046692Y-62811914D02*
X169141930Y-62859533D01*
X138740655Y-87883325D02*
X139740655Y-88216658D01*
X139740655Y-88216658D02*
X138740655Y-88549991D01*
X139740655Y-88883325D02*
X138740655Y-88883325D01*
X138740655Y-88883325D02*
X138740655Y-89121420D01*
X138740655Y-89121420D02*
X138788274Y-89264277D01*
X138788274Y-89264277D02*
X138883512Y-89359515D01*
X138883512Y-89359515D02*
X138978750Y-89407134D01*
X138978750Y-89407134D02*
X139169226Y-89454753D01*
X139169226Y-89454753D02*
X139312083Y-89454753D01*
X139312083Y-89454753D02*
X139502559Y-89407134D01*
X139502559Y-89407134D02*
X139597797Y-89359515D01*
X139597797Y-89359515D02*
X139693036Y-89264277D01*
X139693036Y-89264277D02*
X139740655Y-89121420D01*
X139740655Y-89121420D02*
X139740655Y-88883325D01*
X138835893Y-89835706D02*
X138788274Y-89883325D01*
X138788274Y-89883325D02*
X138740655Y-89978563D01*
X138740655Y-89978563D02*
X138740655Y-90216658D01*
X138740655Y-90216658D02*
X138788274Y-90311896D01*
X138788274Y-90311896D02*
X138835893Y-90359515D01*
X138835893Y-90359515D02*
X138931131Y-90407134D01*
X138931131Y-90407134D02*
X139026369Y-90407134D01*
X139026369Y-90407134D02*
X139169226Y-90359515D01*
X139169226Y-90359515D02*
X139740655Y-89788087D01*
X139740655Y-89788087D02*
X139740655Y-90407134D01*
X137345359Y-92647668D02*
X137012026Y-93647668D01*
X137012026Y-93647668D02*
X136678693Y-92647668D01*
X136345359Y-93647668D02*
X136345359Y-92647668D01*
X136345359Y-92647668D02*
X136107264Y-92647668D01*
X136107264Y-92647668D02*
X135964407Y-92695287D01*
X135964407Y-92695287D02*
X135869169Y-92790525D01*
X135869169Y-92790525D02*
X135821550Y-92885763D01*
X135821550Y-92885763D02*
X135773931Y-93076239D01*
X135773931Y-93076239D02*
X135773931Y-93219096D01*
X135773931Y-93219096D02*
X135821550Y-93409572D01*
X135821550Y-93409572D02*
X135869169Y-93504810D01*
X135869169Y-93504810D02*
X135964407Y-93600049D01*
X135964407Y-93600049D02*
X136107264Y-93647668D01*
X136107264Y-93647668D02*
X136345359Y-93647668D01*
X135440597Y-92647668D02*
X134821550Y-92647668D01*
X134821550Y-92647668D02*
X135154883Y-93028620D01*
X135154883Y-93028620D02*
X135012026Y-93028620D01*
X135012026Y-93028620D02*
X134916788Y-93076239D01*
X134916788Y-93076239D02*
X134869169Y-93123858D01*
X134869169Y-93123858D02*
X134821550Y-93219096D01*
X134821550Y-93219096D02*
X134821550Y-93457191D01*
X134821550Y-93457191D02*
X134869169Y-93552429D01*
X134869169Y-93552429D02*
X134916788Y-93600049D01*
X134916788Y-93600049D02*
X135012026Y-93647668D01*
X135012026Y-93647668D02*
X135297740Y-93647668D01*
X135297740Y-93647668D02*
X135392978Y-93600049D01*
X135392978Y-93600049D02*
X135440597Y-93552429D01*
X145178693Y-88897668D02*
X145512026Y-88421477D01*
X145750121Y-88897668D02*
X145750121Y-87897668D01*
X145750121Y-87897668D02*
X145369169Y-87897668D01*
X145369169Y-87897668D02*
X145273931Y-87945287D01*
X145273931Y-87945287D02*
X145226312Y-87992906D01*
X145226312Y-87992906D02*
X145178693Y-88088144D01*
X145178693Y-88088144D02*
X145178693Y-88231001D01*
X145178693Y-88231001D02*
X145226312Y-88326239D01*
X145226312Y-88326239D02*
X145273931Y-88373858D01*
X145273931Y-88373858D02*
X145369169Y-88421477D01*
X145369169Y-88421477D02*
X145750121Y-88421477D01*
X144226312Y-88897668D02*
X144797740Y-88897668D01*
X144512026Y-88897668D02*
X144512026Y-87897668D01*
X144512026Y-87897668D02*
X144607264Y-88040525D01*
X144607264Y-88040525D02*
X144702502Y-88135763D01*
X144702502Y-88135763D02*
X144797740Y-88183382D01*
X143845359Y-87992906D02*
X143797740Y-87945287D01*
X143797740Y-87945287D02*
X143702502Y-87897668D01*
X143702502Y-87897668D02*
X143464407Y-87897668D01*
X143464407Y-87897668D02*
X143369169Y-87945287D01*
X143369169Y-87945287D02*
X143321550Y-87992906D01*
X143321550Y-87992906D02*
X143273931Y-88088144D01*
X143273931Y-88088144D02*
X143273931Y-88183382D01*
X143273931Y-88183382D02*
X143321550Y-88326239D01*
X143321550Y-88326239D02*
X143892978Y-88897668D01*
X143892978Y-88897668D02*
X143273931Y-88897668D01*
X145178693Y-90397668D02*
X145512026Y-89921477D01*
X145750121Y-90397668D02*
X145750121Y-89397668D01*
X145750121Y-89397668D02*
X145369169Y-89397668D01*
X145369169Y-89397668D02*
X145273931Y-89445287D01*
X145273931Y-89445287D02*
X145226312Y-89492906D01*
X145226312Y-89492906D02*
X145178693Y-89588144D01*
X145178693Y-89588144D02*
X145178693Y-89731001D01*
X145178693Y-89731001D02*
X145226312Y-89826239D01*
X145226312Y-89826239D02*
X145273931Y-89873858D01*
X145273931Y-89873858D02*
X145369169Y-89921477D01*
X145369169Y-89921477D02*
X145750121Y-89921477D01*
X144226312Y-90397668D02*
X144797740Y-90397668D01*
X144512026Y-90397668D02*
X144512026Y-89397668D01*
X144512026Y-89397668D02*
X144607264Y-89540525D01*
X144607264Y-89540525D02*
X144702502Y-89635763D01*
X144702502Y-89635763D02*
X144797740Y-89683382D01*
X143892978Y-89397668D02*
X143273931Y-89397668D01*
X143273931Y-89397668D02*
X143607264Y-89778620D01*
X143607264Y-89778620D02*
X143464407Y-89778620D01*
X143464407Y-89778620D02*
X143369169Y-89826239D01*
X143369169Y-89826239D02*
X143321550Y-89873858D01*
X143321550Y-89873858D02*
X143273931Y-89969096D01*
X143273931Y-89969096D02*
X143273931Y-90207191D01*
X143273931Y-90207191D02*
X143321550Y-90302429D01*
X143321550Y-90302429D02*
X143369169Y-90350049D01*
X143369169Y-90350049D02*
X143464407Y-90397668D01*
X143464407Y-90397668D02*
X143750121Y-90397668D01*
X143750121Y-90397668D02*
X143845359Y-90350049D01*
X143845359Y-90350049D02*
X143892978Y-90302429D01*
X137095359Y-83147668D02*
X136762026Y-84147668D01*
X136762026Y-84147668D02*
X136428693Y-83147668D01*
X136095359Y-84147668D02*
X136095359Y-83147668D01*
X136095359Y-83147668D02*
X135857264Y-83147668D01*
X135857264Y-83147668D02*
X135714407Y-83195287D01*
X135714407Y-83195287D02*
X135619169Y-83290525D01*
X135619169Y-83290525D02*
X135571550Y-83385763D01*
X135571550Y-83385763D02*
X135523931Y-83576239D01*
X135523931Y-83576239D02*
X135523931Y-83719096D01*
X135523931Y-83719096D02*
X135571550Y-83909572D01*
X135571550Y-83909572D02*
X135619169Y-84004810D01*
X135619169Y-84004810D02*
X135714407Y-84100049D01*
X135714407Y-84100049D02*
X135857264Y-84147668D01*
X135857264Y-84147668D02*
X136095359Y-84147668D01*
X134571550Y-84147668D02*
X135142978Y-84147668D01*
X134857264Y-84147668D02*
X134857264Y-83147668D01*
X134857264Y-83147668D02*
X134952502Y-83290525D01*
X134952502Y-83290525D02*
X135047740Y-83385763D01*
X135047740Y-83385763D02*
X135142978Y-83433382D01*
X163740655Y-86883325D02*
X164740655Y-87549991D01*
X163740655Y-87549991D02*
X164740655Y-86883325D01*
X163740655Y-87835706D02*
X163740655Y-88454753D01*
X163740655Y-88454753D02*
X164121607Y-88121420D01*
X164121607Y-88121420D02*
X164121607Y-88264277D01*
X164121607Y-88264277D02*
X164169226Y-88359515D01*
X164169226Y-88359515D02*
X164216845Y-88407134D01*
X164216845Y-88407134D02*
X164312083Y-88454753D01*
X164312083Y-88454753D02*
X164550178Y-88454753D01*
X164550178Y-88454753D02*
X164645416Y-88407134D01*
X164645416Y-88407134D02*
X164693036Y-88359515D01*
X164693036Y-88359515D02*
X164740655Y-88264277D01*
X164740655Y-88264277D02*
X164740655Y-87978563D01*
X164740655Y-87978563D02*
X164693036Y-87883325D01*
X164693036Y-87883325D02*
X164645416Y-87835706D01*
D11*
%TO.C,R2*%
X141281112Y-86420349D02*
X141790560Y-86420349D01*
X141281112Y-87465349D02*
X141790560Y-87465349D01*
D10*
%TO.C,SW1*%
X163030836Y-59452000D02*
X163030836Y-61452000D01*
X163030836Y-60452000D02*
X161030836Y-60452000D01*
X163030836Y-61452000D02*
X177030836Y-61452000D01*
X177030836Y-59452000D02*
X163030836Y-59452000D01*
X177030836Y-60452000D02*
X179030836Y-60452000D01*
X177030836Y-61452000D02*
X177030836Y-59452000D01*
D11*
%TO.C,VD2*%
X135535836Y-87982849D02*
X138395836Y-87982849D01*
X138395836Y-87982849D02*
X138395836Y-89902849D01*
X138395836Y-89902849D02*
X135535836Y-89902849D01*
%TO.C,VD3*%
X135535836Y-90232849D02*
X138395836Y-90232849D01*
X138395836Y-90232849D02*
X138395836Y-92152849D01*
X138395836Y-92152849D02*
X135535836Y-92152849D01*
%TO.C,R12*%
X141790560Y-87920349D02*
X141281112Y-87920349D01*
X141790560Y-88965349D02*
X141281112Y-88965349D01*
%TO.C,R13*%
X141790560Y-89420349D02*
X141281112Y-89420349D01*
X141790560Y-90465349D02*
X141281112Y-90465349D01*
%TO.C,VD1*%
X134575836Y-84357849D02*
X138635836Y-84357849D01*
X134575836Y-87527849D02*
X134575836Y-84357849D01*
X138635836Y-87527849D02*
X134575836Y-87527849D01*
%TO.C,X3*%
X165531836Y-68844849D02*
X168291836Y-68844849D01*
X165531836Y-86734849D02*
X165531836Y-68844849D01*
X165531836Y-86734849D02*
X168291836Y-86734849D01*
X165531836Y-88004849D02*
X165531836Y-89384849D01*
X165531836Y-89384849D02*
X166911836Y-89384849D01*
X168291836Y-86734849D02*
X168291836Y-68844849D01*
%TD*%
D12*
X140035836Y-60442849D02*
G75*
G02*
X135035836Y-65442846I-4999996J-1D01*
G01*
X200035836Y-101442849D02*
X200035836Y-103442849D01*
X206535836Y-94942849D02*
G75*
G02*
X205035836Y-96442836I-1500036J49D01*
G01*
X133535836Y-66942849D02*
G75*
G02*
X135035836Y-65442836I1499964J49D01*
G01*
X200035836Y-58442849D02*
X200035836Y-60442849D01*
X135035836Y-96442849D02*
G75*
G02*
X140035751Y-101442849I-36J-4999951D01*
G01*
X205035836Y-65442849D02*
G75*
G02*
X200035751Y-60442849I-36J5000049D01*
G01*
X170035836Y-90442849D02*
X199035837Y-90442849D01*
X199035836Y-71442849D02*
G75*
G02*
X200535751Y-72942849I-36J-1499951D01*
G01*
X200535836Y-72942849D02*
X200535837Y-88942800D01*
X202535836Y-70442849D02*
G75*
G02*
X200535836Y-70442849I-1000000J0D01*
G01*
X200535836Y-70442849D02*
G75*
G02*
X202535836Y-70442849I1000000J0D01*
G01*
X170035836Y-90442764D02*
G75*
G02*
X168535836Y-88942849I-36J1499964D01*
G01*
X140035836Y-58442849D02*
X200035836Y-58442849D01*
X135035836Y-96442849D02*
G75*
G02*
X133535751Y-94942849I-36J1500049D01*
G01*
X200035835Y-101442850D02*
G75*
G02*
X205035835Y-96442835I4999965J50D01*
G01*
X140035836Y-60442849D02*
X140035836Y-58442849D01*
X206535837Y-66942850D02*
X206535836Y-94942800D01*
X168535836Y-72942898D02*
X168535836Y-88942849D01*
X200535837Y-88942849D02*
G75*
G02*
X199035837Y-90442837I-1500037J49D01*
G01*
X168535836Y-72942898D02*
G75*
G02*
X170035836Y-71442936I1499964J-2D01*
G01*
X170035836Y-71442849D02*
X199035836Y-71442849D01*
X140035836Y-103442849D02*
X200035836Y-103442849D01*
X133535836Y-66942849D02*
X133535836Y-94942849D01*
X205035837Y-65442849D02*
G75*
G02*
X206535751Y-66942850I-37J-1499951D01*
G01*
X202535836Y-91442849D02*
G75*
G02*
X200535836Y-91442849I-1000000J0D01*
G01*
X200535836Y-91442849D02*
G75*
G02*
X202535836Y-91442849I1000000J0D01*
G01*
X140035836Y-103442849D02*
X140035836Y-101442849D01*
M02*
