%TF.GenerationSoftware,KiCad,Pcbnew,9.0.6-9.0.6~ubuntu22.04.1*%
%TF.CreationDate,2026-01-04T18:02:11+03:00*%
%TF.ProjectId,sportiduino-base-v3bm,73706f72-7469-4647-9569-6e6f2d626173,3bm*%
%TF.SameCoordinates,Original*%
%TF.FileFunction,Paste,Top*%
%TF.FilePolarity,Positive*%
%FSLAX46Y46*%
G04 Gerber Fmt 4.6, Leading zero omitted, Abs format (unit mm)*
G04 Created by KiCad (PCBNEW 9.0.6-9.0.6~ubuntu22.04.1) date 2026-01-04 18:02:11*
%MOMM*%
%LPD*%
G01*
G04 APERTURE LIST*
G04 Aperture macros list*
%AMRoundRect*
0 Rectangle with rounded corners*
0 $1 Rounding radius*
0 $2 $3 $4 $5 $6 $7 $8 $9 X,Y pos of 4 corners*
0 Add a 4 corners polygon primitive as box body*
4,1,4,$2,$3,$4,$5,$6,$7,$8,$9,$2,$3,0*
0 Add four circle primitives for the rounded corners*
1,1,$1+$1,$2,$3*
1,1,$1+$1,$4,$5*
1,1,$1+$1,$6,$7*
1,1,$1+$1,$8,$9*
0 Add four rect primitives between the rounded corners*
20,1,$1+$1,$2,$3,$4,$5,0*
20,1,$1+$1,$4,$5,$6,$7,0*
20,1,$1+$1,$6,$7,$8,$9,0*
20,1,$1+$1,$8,$9,$2,$3,0*%
%AMRotRect*
0 Rectangle, with rotation*
0 The origin of the aperture is its center*
0 $1 length*
0 $2 width*
0 $3 Rotation angle, in degrees counterclockwise*
0 Add horizontal line*
21,1,$1,$2,0,0,$3*%
G04 Aperture macros list end*
%ADD10RoundRect,0.237500X0.300000X0.237500X-0.300000X0.237500X-0.300000X-0.237500X0.300000X-0.237500X0*%
%ADD11RoundRect,0.237500X-0.300000X-0.237500X0.300000X-0.237500X0.300000X0.237500X-0.300000X0.237500X0*%
%ADD12RoundRect,0.237500X0.250000X0.237500X-0.250000X0.237500X-0.250000X-0.237500X0.250000X-0.237500X0*%
%ADD13RoundRect,0.237500X-0.250000X-0.237500X0.250000X-0.237500X0.250000X0.237500X-0.250000X0.237500X0*%
%ADD14R,1.900000X0.800000*%
%ADD15RotRect,1.600000X0.550000X135.000000*%
%ADD16RotRect,1.600000X0.550000X225.000000*%
%ADD17RoundRect,0.150000X-0.150000X0.587500X-0.150000X-0.587500X0.150000X-0.587500X0.150000X0.587500X0*%
%ADD18RoundRect,0.237500X0.237500X-0.300000X0.237500X0.300000X-0.237500X0.300000X-0.237500X-0.300000X0*%
%ADD19RoundRect,0.250000X-0.450000X0.325000X-0.450000X-0.325000X0.450000X-0.325000X0.450000X0.325000X0*%
%ADD20RoundRect,0.250000X0.450000X-0.325000X0.450000X0.325000X-0.450000X0.325000X-0.450000X-0.325000X0*%
%ADD21R,0.600000X1.550000*%
%ADD22RoundRect,0.250000X-0.475000X0.337500X-0.475000X-0.337500X0.475000X-0.337500X0.475000X0.337500X0*%
%ADD23R,1.500000X0.650000*%
%ADD24R,2.700000X3.600000*%
%ADD25R,2.000000X0.600000*%
%TA.AperFunction,Profile*%
%ADD26C,0.150000*%
%TD*%
G04 APERTURE END LIST*
D10*
%TO.C,C1*%
X144398336Y-83192849D03*
X142673336Y-83192849D03*
%TD*%
D11*
%TO.C,C10*%
X159423336Y-88192849D03*
X161148336Y-88192849D03*
%TD*%
D12*
%TO.C,R9*%
X146698336Y-75278000D03*
X144873336Y-75278000D03*
%TD*%
D13*
%TO.C,R10*%
X144873336Y-76942849D03*
X146698336Y-76942849D03*
%TD*%
%TO.C,R8*%
X138121336Y-92428698D03*
X139946336Y-92428698D03*
%TD*%
D14*
%TO.C,VT1*%
X156535836Y-63442849D03*
X156535836Y-61542849D03*
X153535836Y-62492849D03*
%TD*%
D12*
%TO.C,R3*%
X156902336Y-93584849D03*
X155077336Y-93584849D03*
%TD*%
D13*
%TO.C,R5*%
X154623336Y-65692849D03*
X156448336Y-65692849D03*
%TD*%
D12*
%TO.C,R4*%
X156448336Y-67470849D03*
X154623336Y-67470849D03*
%TD*%
%TO.C,R1*%
X156902336Y-91916849D03*
X155077336Y-91916849D03*
%TD*%
D15*
%TO.C,D2*%
X155061141Y-86677952D03*
X155626826Y-86112266D03*
X156192512Y-85546581D03*
X156758197Y-84980896D03*
X157323883Y-84415210D03*
X157889568Y-83849525D03*
X158455253Y-83283839D03*
X159020939Y-82718154D03*
D16*
X159020939Y-80667544D03*
X158455253Y-80101859D03*
X157889568Y-79536173D03*
X157323883Y-78970488D03*
X156758197Y-78404802D03*
X156192512Y-77839117D03*
X155626826Y-77273432D03*
X155061141Y-76707746D03*
D15*
X153010531Y-76707746D03*
X152444846Y-77273432D03*
X151879160Y-77839117D03*
X151313475Y-78404802D03*
X150747789Y-78970488D03*
X150182104Y-79536173D03*
X149616419Y-80101859D03*
X149050733Y-80667544D03*
D16*
X149050733Y-82718154D03*
X149616419Y-83283839D03*
X150182104Y-83849525D03*
X150747789Y-84415210D03*
X151313475Y-84980896D03*
X151879160Y-85546581D03*
X152444846Y-86112266D03*
X153010531Y-86677952D03*
%TD*%
D17*
%TO.C,D1*%
X160985836Y-99191349D03*
X159085836Y-99191349D03*
X160035836Y-101066349D03*
%TD*%
D11*
%TO.C,C9*%
X155175336Y-95314849D03*
X156900336Y-95314849D03*
%TD*%
D18*
%TO.C,C5*%
X151035836Y-74305349D03*
X151035836Y-72580349D03*
%TD*%
D11*
%TO.C,C4*%
X159423336Y-86192849D03*
X161148336Y-86192849D03*
%TD*%
D19*
%TO.C,C3*%
X157035836Y-99378849D03*
X157035836Y-101428849D03*
%TD*%
D20*
%TO.C,C2*%
X163035836Y-101428849D03*
X163035836Y-99378849D03*
%TD*%
D21*
%TO.C,D4*%
X159543336Y-95892849D03*
X160813336Y-95892849D03*
X162083336Y-95892849D03*
X163353336Y-95892849D03*
X163353336Y-90492849D03*
X162083336Y-90492849D03*
X160813336Y-90492849D03*
X159543336Y-90492849D03*
%TD*%
D13*
%TO.C,R11*%
X138096336Y-94428698D03*
X139921336Y-94428698D03*
%TD*%
D18*
%TO.C,C6*%
X149285836Y-74305349D03*
X149285836Y-72580349D03*
%TD*%
D10*
%TO.C,C7*%
X146648336Y-78580000D03*
X144923336Y-78580000D03*
%TD*%
D22*
%TO.C,C11*%
X183623836Y-96817349D03*
X183623836Y-98892349D03*
%TD*%
%TO.C,C12*%
X172447836Y-96817349D03*
X172447836Y-98892349D03*
%TD*%
D23*
%TO.C,D5*%
X180735836Y-100775849D03*
X180735836Y-99505849D03*
X180735836Y-98235849D03*
X180735836Y-96965849D03*
X175335836Y-96965849D03*
X175335836Y-98235849D03*
X175335836Y-99505849D03*
X175335836Y-100775849D03*
D24*
X178035836Y-98870849D03*
%TD*%
D12*
%TO.C,R14*%
X185044336Y-100902849D03*
X183219336Y-100902849D03*
%TD*%
D25*
%TO.C,D3*%
X142633836Y-92060849D03*
X142633836Y-93330849D03*
X142633836Y-94600849D03*
X142633836Y-95870849D03*
X142633836Y-97140849D03*
X142633836Y-98410849D03*
X142633836Y-99680849D03*
X142633836Y-100950849D03*
X152433836Y-100950849D03*
X152433836Y-99680849D03*
X152433836Y-98410849D03*
X152433836Y-97140849D03*
X152433836Y-95870849D03*
X152433836Y-94600849D03*
X152433836Y-93330849D03*
X152433836Y-92060849D03*
%TD*%
D13*
%TO.C,R6*%
X142623336Y-84692849D03*
X144448336Y-84692849D03*
%TD*%
D26*
X140035836Y-60442849D02*
G75*
G02*
X135035836Y-65442846I-4999996J-1D01*
G01*
X200035836Y-101442849D02*
X200035836Y-103442849D01*
X206535836Y-94942849D02*
G75*
G02*
X205035836Y-96442836I-1500036J49D01*
G01*
X133535836Y-66942849D02*
G75*
G02*
X135035836Y-65442836I1499964J49D01*
G01*
X200035836Y-58442849D02*
X200035836Y-60442849D01*
X135035836Y-96442849D02*
G75*
G02*
X140035751Y-101442849I-36J-4999951D01*
G01*
X205035836Y-65442849D02*
G75*
G02*
X200035751Y-60442849I-36J5000049D01*
G01*
X170035836Y-90442849D02*
X199035837Y-90442849D01*
X199035836Y-71442849D02*
G75*
G02*
X200535751Y-72942849I-36J-1499951D01*
G01*
X200535836Y-72942849D02*
X200535837Y-88942800D01*
X202535836Y-70442849D02*
G75*
G02*
X200535836Y-70442849I-1000000J0D01*
G01*
X200535836Y-70442849D02*
G75*
G02*
X202535836Y-70442849I1000000J0D01*
G01*
X170035836Y-90442764D02*
G75*
G02*
X168535836Y-88942849I-36J1499964D01*
G01*
X140035836Y-58442849D02*
X200035836Y-58442849D01*
X135035836Y-96442849D02*
G75*
G02*
X133535751Y-94942849I-36J1500049D01*
G01*
X200035835Y-101442850D02*
G75*
G02*
X205035835Y-96442835I4999965J50D01*
G01*
X140035836Y-60442849D02*
X140035836Y-58442849D01*
X206535837Y-66942850D02*
X206535836Y-94942800D01*
X168535836Y-72942898D02*
X168535836Y-88942849D01*
X200535837Y-88942849D02*
G75*
G02*
X199035837Y-90442837I-1500037J49D01*
G01*
X168535836Y-72942898D02*
G75*
G02*
X170035836Y-71442936I1499964J-2D01*
G01*
X170035836Y-71442849D02*
X199035836Y-71442849D01*
X140035836Y-103442849D02*
X200035836Y-103442849D01*
X133535836Y-66942849D02*
X133535836Y-94942849D01*
X205035837Y-65442849D02*
G75*
G02*
X206535751Y-66942850I-37J-1499951D01*
G01*
X202535836Y-91442849D02*
G75*
G02*
X200535836Y-91442849I-1000000J0D01*
G01*
X200535836Y-91442849D02*
G75*
G02*
X202535836Y-91442849I1000000J0D01*
G01*
X140035836Y-103442849D02*
X140035836Y-101442849D01*
M02*
