M48
; DRILL file {KiCad 9.0.6-9.0.6~ubuntu22.04.1} date 2026-01-05T10:22:16+0300
; FORMAT={-:-/ absolute / metric / decimal}
; #@! TF.CreationDate,2026-01-05T10:22:16+03:00
; #@! TF.GenerationSoftware,Kicad,Pcbnew,9.0.6-9.0.6~ubuntu22.04.1
; #@! TF.FileFunction,Plated,1,2,PTH
FMAT,2
METRIC
; #@! TA.AperFunction,Plated,PTH,ViaDrill
T1C0.400
; #@! TA.AperFunction,Plated,PTH,ViaDrill
T2C0.500
; #@! TA.AperFunction,Plated,PTH,ComponentDrill
T3C0.600
; #@! TA.AperFunction,Plated,PTH,ComponentDrill
T4C0.730
; #@! TA.AperFunction,Plated,PTH,ComponentDrill
T5C0.750
; #@! TA.AperFunction,Plated,PTH,ComponentDrill
T6C1.000
; #@! TA.AperFunction,Plated,PTH,ComponentDrill
T7C1.016
%
G90
G05
T1
X138.57Y-76.419
X141.036Y-85.693
X141.286Y-93.443
X143.498Y-80.967
X143.786Y-85.943
X144.341Y-89.388
X144.536Y-93.443
X144.786Y-97.193
X144.786Y-99.193
X144.867Y-85.112
X147.286Y-97.193
X147.286Y-99.193
X148.587Y-84.172
X148.828Y-92.03
X149.036Y-93.693
X149.286Y-99.193
X150.286Y-94.693
X150.42Y-87.193
X150.421Y-85.97
X150.426Y-81.858
X151.036Y-80.943
X152.211Y-75.767
X152.286Y-80.193
X153.031Y-74.946
X153.176Y-78.693
X153.351Y-87.508
X154.076Y-77.844
X154.131Y-74.949
X155.437Y-82.693
X155.536Y-93.193
X155.876Y-79.473
X155.928Y-75.699
X156.83Y-82.649
X157.015Y-75.871
X157.222Y-76.951
X157.242Y-86.737
X160.786Y-89.693
X161.286Y-85.693
X163.286Y-91.443
X165.036Y-90.193
X165.036Y-94.443
X174.019Y-99.51
X174.036Y-100.693
X174.286Y-98.443
X177.286Y-96.943
X177.286Y-100.693
X178.786Y-96.943
X178.786Y-100.693
T2
X145.036Y-88.043
X148.036Y-72.468
X148.536Y-77.443
X151.036Y-71.693
X153.786Y-65.693
X156.536Y-60.943
X156.786Y-96.443
X157.036Y-102.493
X159.286Y-101.193
X159.322Y-86.739
X166.452Y-97.109
X172.036Y-100.891
X181.786Y-98.193
X181.786Y-101.193
X184.536Y-98.943
X185.786Y-100.943
T3
X135.786Y-69.818
X135.786Y-71.068
X135.786Y-72.318
X135.786Y-73.568
X135.786Y-74.818
X135.786Y-76.068
X135.786Y-77.318
X135.786Y-78.568
X135.786Y-79.818
X135.786Y-81.068
T4
X166.786Y-101.157
X168.286Y-101.157
T5
X189.536Y-100.649
X191.536Y-100.649
T6
X145.576Y-62.141
X145.576Y-68.641
X166.912Y-70.225
X166.912Y-72.765
X166.912Y-75.305
X166.912Y-77.845
X166.912Y-80.385
X166.912Y-82.925
X166.912Y-85.465
X166.912Y-88.005
T7
X160.031Y-60.452
X180.031Y-60.452
M30
