<?xml version="1.0" encoding="UTF-8" standalone="no"?>
<svg
   xmlns:dc="http://purl.org/dc/elements/1.1/"
   xmlns:cc="http://creativecommons.org/ns#"
   xmlns:rdf="http://www.w3.org/1999/02/22-rdf-syntax-ns#"
   xmlns:svg="http://www.w3.org/2000/svg"
   xmlns="http://www.w3.org/2000/svg"
   xmlns:sodipodi="http://sodipodi.sourceforge.net/DTD/sodipodi-0.dtd"
   xmlns:inkscape="http://www.inkscape.org/namespaces/inkscape"
   id="svg"
   version="1.1"
   width="400"
   height="78.70619946091644"
   viewBox="0, 0, 400,78.70619946091644"
   sodipodi:docname="logo.svg"
   inkscape:version="0.92.3 (2405546, 2018-03-11)">
  <metadata
     id="metadata11">
    <rdf:RDF>
      <cc:Work
         rdf:about="">
        <dc:format>image/svg+xml</dc:format>
        <dc:type
           rdf:resource="http://purl.org/dc/dcmitype/StillImage" />
      </cc:Work>
    </rdf:RDF>
  </metadata>
  <defs
     id="defs9" />
  <sodipodi:namedview
     pagecolor="#ffffff"
     bordercolor="#666666"
     borderopacity="1"
     objecttolerance="10"
     gridtolerance="10"
     guidetolerance="10"
     inkscape:pageopacity="0"
     inkscape:pageshadow="2"
     inkscape:window-width="1920"
     inkscape:window-height="1020"
     id="namedview7"
     showgrid="false"
     inkscape:zoom="2.164031"
     inkscape:cx="203.45604"
     inkscape:cy="17.673858"
     inkscape:window-x="0"
     inkscape:window-y="31"
     inkscape:window-maximized="1"
     inkscape:current-layer="svgg" />
  <g
     id="svgg">
    <path
       id="path0"
       d="m 318.179,12.802 c -3.031,1.502 -2.791,5.864 0.379,6.883 l 1.16,0.373 1.159,-0.394 c 0.992,-0.338 1.221,-0.493 1.583,-1.071 0.233,-0.372 0.506,-0.73 0.607,-0.795 0.36,-0.234 0.231,-3.05 -0.16,-3.493 -0.189,-0.214 -0.453,-0.564 -0.587,-0.779 -0.657,-1.057 -2.735,-1.42 -4.141,-0.724 m -108.245,0.923 -0.767,0.725 v 3.84 c 0,4.693 0.089,4.488 -2.043,4.706 -2.801,0.288 -3.61,1.083 -3.395,3.337 0.145,1.521 1.271,2.167 3.775,2.167 1.662,0 1.544,-1.003 1.484,12.543 -0.029,6.439 0.008,12.082 0.081,12.54 0.391,2.429 4.101,5.356 7.318,5.773 5.15,0.668 7.946,-0.296 7.946,-2.739 v -1.153 l -0.791,-0.731 -0.792,-0.732 -2.833,0.005 c -4.94,0.008 -6.02,-0.87 -5.602,-4.554 0.114,-1.001 0.185,-5.193 0.185,-10.867 0,-9.699 0.023,-10.017 0.737,-10.165 0.19,-0.039 1.689,-0.098 3.331,-0.131 l 2.984,-0.059 0.808,-0.892 c 1.374,-1.519 1.123,-2.707 -0.851,-4.014 l -0.741,-0.491 h -2.939 c -3.639,0 -3.309,0.434 -3.368,-4.434 l -0.044,-3.684 -0.584,-0.67 c -1.185,-1.362 -2.667,-1.483 -3.899,-0.32 m -84.596,7.723 c -1.051,0.229 -2.101,0.545 -2.333,0.705 -0.232,0.159 -0.684,0.393 -1.005,0.52 -0.604,0.24 -1.831,1.081 -2.423,1.661 -0.186,0.183 -0.42,0.333 -0.518,0.333 -0.099,0 -0.369,0.188 -0.599,0.419 l -0.419,0.419 -0.187,-0.743 c -0.103,-0.409 -0.187,-0.932 -0.187,-1.163 0,-1.766 -3.038,-2.492 -4.369,-1.044 -1.028,1.119 -0.985,-0.03 -0.931,24.612 l 0.05,22.75 0.498,0.983 c 0.722,1.424 2.372,1.918 3.701,1.107 1.149,-0.7 1.125,-0.548 1.217,-7.694 0.046,-3.549 0.137,-6.506 0.202,-6.571 0.121,-0.12 2.336,0.377 4.298,0.965 2.477,0.742 7.702,0.774 9.086,0.056 0.271,-0.141 0.882,-0.336 1.358,-0.435 0.476,-0.099 1.17,-0.401 1.543,-0.671 0.372,-0.27 0.762,-0.49 0.867,-0.49 0.436,0 3.404,-2.803 4.061,-3.836 0.205,-0.322 0.496,-0.688 0.646,-0.812 0.15,-0.125 0.273,-0.294 0.273,-0.376 0,-0.082 0.194,-0.457 0.43,-0.832 0.237,-0.375 0.538,-0.993 0.669,-1.372 0.131,-0.379 0.415,-1.026 0.632,-1.439 0.216,-0.413 0.436,-1.087 0.49,-1.5 0.053,-0.413 0.264,-1.238 0.468,-1.833 0.514,-1.498 0.66,-7.617 0.223,-9.334 -0.151,-0.596 -0.409,-1.808 -0.572,-2.693 -0.163,-0.886 -0.454,-1.936 -0.645,-2.334 -0.192,-0.397 -0.461,-1.041 -0.598,-1.431 -0.25,-0.711 -1.25,-2.452 -2.033,-3.542 -0.986,-1.372 -3.388,-3.331 -4.086,-3.332 -0.149,-0.001 -0.363,-0.112 -0.476,-0.248 -0.897,-1.081 -6.02,-1.523 -9.331,-0.805 M 95.167,21.352 c -2.645,0.422 -3.094,0.525 -3.488,0.802 -0.236,0.165 -0.715,0.403 -1.066,0.528 -1.026,0.366 -2.771,2.217 -3.566,3.785 -1.149,2.264 -1.379,7.364 -0.4,8.861 0.148,0.227 0.457,0.762 0.686,1.19 0.567,1.058 1.331,2.048 1.834,2.377 0.229,0.149 0.657,0.441 0.952,0.647 1.216,0.851 2.109,1.342 2.839,1.562 0.424,0.128 0.942,0.344 1.15,0.48 0.208,0.137 0.925,0.332 1.593,0.434 0.669,0.102 1.842,0.402 2.608,0.667 0.765,0.265 1.519,0.482 1.675,0.482 1.649,0 4.383,3.5 4.129,5.285 -0.267,1.877 -1.501,4.548 -2.1,4.548 -0.064,0 -0.271,0.144 -0.46,0.319 -0.959,0.894 -7.04,0.925 -8.667,0.045 -0.2,-0.108 -0.976,-0.343 -1.724,-0.522 -0.749,-0.179 -1.556,-0.452 -1.793,-0.608 -1.527,-1.001 -3.875,-0.188 -4.303,1.49 -0.393,1.54 0.724,3.443 2.022,3.443 0.195,0 0.708,0.178 1.138,0.396 0.735,0.372 1.075,0.479 3.066,0.963 0.435,0.106 0.866,0.248 0.958,0.315 0.612,0.451 6.069,0.796 8.333,0.528 3.811,-0.451 7.671,-4.063 8.413,-7.869 0.116,-0.596 0.314,-1.405 0.441,-1.797 0.326,-1.012 0.29,-1.643 -0.213,-3.75 -0.562,-2.354 -1.191,-3.407 -3.181,-5.324 -0.629,-0.606 -0.954,-0.857 -1.876,-1.452 -0.659,-0.425 -2.934,-1.372 -3.791,-1.577 C 99.849,37.474 99.192,37.282 98.918,37.174 98.644,37.066 97.833,36.866 97.114,36.73 96.396,36.594 95.374,36.261 94.842,35.991 94.31,35.721 93.81,35.5 93.729,35.5 c -0.33,0 -1.819,-1.586 -2.014,-2.147 -0.855,-2.455 0.33,-5.876 2.169,-6.261 0.201,-0.042 0.763,-0.155 1.249,-0.251 2.071,-0.409 6.626,-0.006 8.006,0.708 3.076,1.591 5.694,0.845 5.694,-1.621 0,-1.514 -1.281,-2.771 -3.333,-3.268 -0.504,-0.122 -1.188,-0.354 -1.519,-0.516 -1.452,-0.709 -6.491,-1.162 -8.814,-0.792 m 64.583,0.727 c -0.092,0.029 -0.842,0.146 -1.667,0.26 -2.09,0.288 -3.401,0.597 -3.724,0.879 -0.152,0.132 -0.544,0.326 -0.872,0.431 -0.708,0.227 -2.335,1.395 -3.154,2.265 -0.321,0.34 -0.741,0.78 -0.935,0.977 -0.193,0.198 -0.516,0.659 -0.716,1.026 -0.201,0.366 -0.468,0.854 -0.594,1.083 -0.648,1.179 -1.244,2.691 -1.413,3.583 -0.104,0.55 -0.354,1.6 -0.557,2.334 -0.512,1.854 -0.561,9.861 -0.068,11.064 0.164,0.403 0.414,1.335 0.553,2.073 0.14,0.738 0.384,1.506 0.543,1.707 0.158,0.202 0.393,0.694 0.522,1.094 0.658,2.047 3.605,5.436 5.612,6.454 0.384,0.194 0.741,0.424 0.794,0.51 0.054,0.086 0.378,0.248 0.72,0.36 0.342,0.111 1.028,0.387 1.523,0.612 3.196,1.451 11.971,0.702 13.096,-1.119 0.061,-0.098 0.462,-0.358 0.89,-0.577 0.935,-0.479 3.052,-2.527 3.864,-3.737 0.32,-0.479 0.757,-1.09 0.969,-1.359 0.212,-0.269 0.514,-0.848 0.671,-1.286 0.157,-0.438 0.42,-0.999 0.586,-1.246 0.165,-0.248 0.411,-0.885 0.546,-1.417 0.135,-0.532 0.409,-1.417 0.609,-1.967 0.499,-1.376 0.536,-9.326 0.049,-10.583 -0.356,-0.917 -0.764,-2.414 -0.764,-2.803 0,-0.157 -0.176,-0.547 -0.392,-0.867 -0.215,-0.319 -0.489,-0.88 -0.608,-1.247 -0.119,-0.366 -0.43,-0.927 -0.691,-1.246 -0.262,-0.319 -0.475,-0.672 -0.475,-0.786 0,-0.338 -3.242,-3.497 -3.97,-3.869 -0.371,-0.189 -0.718,-0.414 -0.771,-0.5 -0.053,-0.086 -0.484,-0.285 -0.958,-0.443 -0.474,-0.157 -1.092,-0.422 -1.373,-0.587 -0.533,-0.314 -1.448,-0.483 -4.902,-0.902 -2.007,-0.244 -2.603,-0.279 -2.943,-0.171 m 33.167,0.278 c -2.05,0.48 -2.809,0.84 -4.079,1.935 -0.697,0.6 -1.838,0.78 -1.838,0.29 0,-1.527 -1.672,-2.527 -3.465,-2.073 -1.942,0.492 -1.92,0.234 -2.058,24.338 l -0.06,10.597 0.611,0.921 c 1.041,1.57 3.565,1.514 4.434,-0.098 0.298,-0.552 0.483,-6.443 0.521,-16.567 0.014,-3.508 0.066,-4.478 0.262,-4.857 0.135,-0.261 0.295,-0.786 0.356,-1.168 0.061,-0.381 0.324,-1.007 0.585,-1.392 0.261,-0.385 0.476,-0.821 0.478,-0.968 0.001,-0.148 0.234,-0.561 0.518,-0.917 0.283,-0.356 0.616,-0.89 0.739,-1.185 0.233,-0.557 0.377,-0.738 1.688,-2.128 1.273,-1.351 2.718,-1.764 4.754,-1.36 2.462,0.489 3.386,0.32 4.185,-0.766 0.954,-1.297 0.943,-2.06 -0.049,-3.408 -0.526,-0.715 -0.427,-0.68 -3.402,-1.209 -1.177,-0.209 -3.253,-0.202 -4.18,0.015 m 109.834,0.089 c -2.013,0.723 -1.961,0.371 -1.826,12.201 0.125,10.938 0.077,11.823 -0.688,12.733 -0.222,0.263 -0.404,0.554 -0.404,0.647 0,0.351 -4.562,4.64 -4.936,4.64 -0.077,0 -0.554,0.254 -1.06,0.564 -1.671,1.025 -4.22,1.321 -5.976,0.692 -0.547,-0.195 -2.028,-1.421 -2.028,-1.678 0,-0.056 -0.212,-0.415 -0.471,-0.798 -0.26,-0.383 -0.729,-1.56 -1.042,-2.614 l -0.57,-1.916 v -11.25 c 0,-8.255 -0.052,-11.339 -0.194,-11.584 -1.181,-2.029 -3.679,-1.857 -4.846,0.334 -0.704,1.321 -0.631,21.961 0.088,24.75 0.177,0.687 0.412,1.624 0.522,2.081 0.11,0.457 0.307,0.949 0.438,1.094 0.131,0.145 0.328,0.521 0.437,0.835 0.513,1.473 3.253,4.792 4.205,5.094 0.19,0.06 0.632,0.299 0.981,0.53 0.621,0.411 0.97,0.501 3.377,0.864 1.653,0.249 4.769,-0.216 6.097,-0.91 0.443,-0.232 0.911,-0.422 1.04,-0.422 0.129,0 0.616,-0.262 1.082,-0.583 0.467,-0.321 0.906,-0.583 0.977,-0.584 0.071,0 0.354,-0.194 0.629,-0.431 0.275,-0.237 0.707,-0.553 0.959,-0.702 0.252,-0.149 0.458,-0.327 0.458,-0.394 0,-0.068 0.337,-0.355 0.748,-0.638 l 0.749,-0.515 0.334,0.549 c 0.184,0.302 0.335,0.71 0.335,0.908 10e-4,0.816 1.137,2.853 1.781,3.196 2.214,1.18 4.169,-0.861 3.634,-3.793 -0.283,-1.549 -0.705,-3.675 -0.93,-4.679 -0.092,-0.413 -0.159,-1.688 -0.149,-2.834 0.036,-4.085 -0.176,-22.926 -0.264,-23.468 -0.123,-0.753 -1.094,-1.797 -1.779,-1.912 -0.298,-0.05 -0.655,-0.126 -0.792,-0.169 -0.138,-0.043 -0.55,0.03 -0.916,0.162 m 73.499,0.226 c -0.55,0.086 -1.413,0.34 -1.917,0.564 -0.504,0.224 -1.141,0.46 -1.416,0.524 -0.275,0.065 -0.65,0.243 -0.834,0.396 -0.183,0.153 -0.633,0.47 -1,0.705 -1.138,0.726 -3.409,3.104 -3.414,3.574 -10e-4,0.102 -0.186,0.456 -0.411,0.787 -0.224,0.331 -0.529,0.96 -0.677,1.398 -0.148,0.438 -0.367,0.949 -0.488,1.135 -0.222,0.343 -0.279,0.588 -0.961,4.162 -0.537,2.813 -0.543,7.578 -0.013,9.916 0.198,0.871 0.405,1.927 0.46,2.347 0.055,0.42 0.249,1.043 0.432,1.384 0.183,0.341 0.451,0.969 0.596,1.397 0.145,0.427 0.443,1.012 0.662,1.299 0.219,0.287 0.398,0.597 0.398,0.689 0,0.093 0.225,0.404 0.5,0.691 0.275,0.288 0.5,0.586 0.5,0.661 0,0.12 0.992,1.161 2.115,2.22 0.565,0.533 2.572,1.812 2.842,1.812 0.133,0 0.448,0.148 0.701,0.328 0.465,0.331 0.662,0.389 3.508,1.027 1.769,0.396 5.17,0.51 5.754,0.192 0.185,-0.101 0.935,-0.307 1.666,-0.457 0.732,-0.15 1.593,-0.446 1.914,-0.658 0.321,-0.211 0.819,-0.476 1.108,-0.588 0.289,-0.112 0.696,-0.385 0.904,-0.607 0.209,-0.222 0.469,-0.403 0.578,-0.403 0.329,0 3.487,-3.226 3.797,-3.879 0.159,-0.334 0.369,-0.657 0.467,-0.718 0.098,-0.06 0.388,-0.552 0.643,-1.091 0.255,-0.54 0.54,-1.075 0.633,-1.188 0.093,-0.114 0.284,-0.583 0.424,-1.041 0.14,-0.458 0.419,-1.283 0.62,-1.833 0.55,-1.51 0.885,-5.744 0.66,-8.334 -0.28,-3.219 -0.337,-3.6 -0.689,-4.574 -0.184,-0.509 -0.445,-1.336 -0.581,-1.837 -0.135,-0.502 -0.35,-1.027 -0.477,-1.167 -0.126,-0.14 -0.39,-0.628 -0.586,-1.085 -0.196,-0.456 -0.415,-0.869 -0.487,-0.917 -0.072,-0.047 -0.321,-0.389 -0.552,-0.759 -0.808,-1.29 -3.031,-3.347 -4.324,-4.003 -0.305,-0.155 -0.668,-0.377 -0.805,-0.495 -0.271,-0.231 -2.84,-1.162 -3.917,-1.419 -0.948,-0.227 -7.139,-0.341 -8.333,-0.155 m -33.777,0.14 c -0.336,0.072 -0.792,0.249 -1.012,0.394 -0.221,0.145 -0.713,0.356 -1.093,0.47 -0.381,0.114 -0.841,0.346 -1.023,0.516 -0.182,0.169 -0.375,0.308 -0.428,0.308 -0.144,0 -1.077,0.693 -1.531,1.137 -0.327,0.32 -1.386,0.417 -1.476,0.135 -0.457,-1.426 -1.05,-1.962 -2.284,-2.061 -1.387,-0.111 -2.127,0.196 -2.556,1.06 -0.555,1.12 -0.474,32.377 0.087,33.392 0.824,1.489 3.117,1.752 4.216,0.483 1.011,-1.167 1.011,-1.17 0.879,-10.479 -0.128,-8.984 -0.03,-10.585 0.744,-12.167 0.157,-0.321 0.383,-0.958 0.503,-1.417 0.119,-0.458 0.341,-0.983 0.492,-1.166 0.151,-0.184 0.381,-0.559 0.512,-0.834 0.499,-1.048 2.293,-2.953 3.247,-3.448 0.367,-0.19 0.876,-0.493 1.133,-0.674 0.538,-0.379 5.001,-0.458 6.117,-0.108 2.197,0.689 3.188,1.642 3.667,3.53 0.168,0.66 0.417,1.613 0.553,2.117 0.391,1.443 0.879,9.609 1.092,18.25 0.168,6.83 0.276,7.103 2.809,7.127 1.28,0.012 1.657,-0.221 2.186,-1.35 l 0.443,-0.944 -0.04,-4.916 c -0.06,-7.458 -0.67,-17.6 -1.153,-19.167 -0.127,-0.413 -0.338,-1.293 -0.469,-1.956 -0.131,-0.663 -0.421,-1.525 -0.644,-1.916 -0.224,-0.391 -0.492,-0.98 -0.596,-1.309 -0.421,-1.331 -3.183,-3.732 -4.765,-4.141 -0.458,-0.119 -1.246,-0.364 -1.75,-0.545 -1.003,-0.36 -6.612,-0.589 -7.86,-0.321 m -23.411,1.322 c -0.611,0.2 -1.696,1.2 -1.883,1.736 -0.605,1.736 -0.171,33.13 0.458,33.13 0.074,0 0.284,0.14 0.467,0.311 1.194,1.113 3.283,0.653 4.061,-0.894 0.322,-0.64 0.484,-30.736 0.173,-32.178 -0.307,-1.425 -2.008,-2.518 -3.276,-2.105 M 131.167,26.77 c 1.019,0.236 1.81,0.529 2,0.739 0.045,0.05 0.366,0.305 0.713,0.565 1.211,0.91 2.85,3.836 3.133,5.596 0.09,0.559 0.268,1.33 0.395,1.714 0.716,2.164 0.777,7.995 0.093,8.866 -0.072,0.092 -0.266,0.728 -0.431,1.415 -0.26,1.078 -1.388,3.588 -1.723,3.835 -0.062,0.046 -0.295,0.346 -0.518,0.667 -0.369,0.53 -1.08,1.26 -1.994,2.046 -0.19,0.164 -0.624,0.418 -0.965,0.566 -0.341,0.147 -0.953,0.426 -1.359,0.619 -1.004,0.478 -5.846,0.508 -6.92,0.043 -0.363,-0.157 -1.188,-0.405 -1.834,-0.551 -0.645,-0.146 -1.361,-0.397 -1.59,-0.559 -0.229,-0.161 -0.694,-0.408 -1.032,-0.549 -1.289,-0.538 -1.302,-0.623 -1.3,-8.734 l 0.002,-7.131 0.415,-0.892 c 0.228,-0.49 0.415,-0.985 0.415,-1.099 0,-0.114 0.158,-0.351 0.351,-0.525 0.194,-0.175 0.497,-0.627 0.675,-1.005 0.178,-0.378 0.508,-0.86 0.732,-1.071 0.225,-0.211 0.408,-0.449 0.408,-0.529 0,-0.172 2.389,-2.629 2.556,-2.629 0.063,0 0.425,-0.226 0.805,-0.501 1.573,-1.14 4.369,-1.499 6.973,-0.896 m 33.166,1.176 c 3.198,0.622 6.339,3.299 7.103,6.054 0.114,0.412 0.38,1.2 0.591,1.75 0.662,1.732 0.641,9.153 -0.029,10 -0.073,0.092 -0.29,0.649 -0.483,1.239 -0.193,0.59 -0.479,1.265 -0.637,1.5 -0.158,0.235 -0.418,0.669 -0.579,0.963 -0.616,1.126 -2.424,2.926 -3.397,3.38 -0.374,0.175 -0.772,0.428 -0.883,0.562 -0.786,0.947 -7.277,0.919 -8.669,-0.038 -0.238,-0.164 -0.696,-0.399 -1.017,-0.522 -0.321,-0.124 -0.77,-0.392 -1,-0.596 -1.046,-0.932 -2.166,-2.226 -2.166,-2.502 0,-0.104 -0.198,-0.48 -0.439,-0.836 -0.241,-0.356 -0.573,-1.172 -0.736,-1.815 -0.163,-0.643 -0.423,-1.506 -0.577,-1.918 -0.576,-1.541 -0.496,-8.395 0.112,-9.546 0.086,-0.163 0.291,-0.913 0.457,-1.667 0.175,-0.802 0.483,-1.64 0.741,-2.019 0.243,-0.356 0.444,-0.769 0.446,-0.917 0.006,-0.331 1.263,-1.692 1.829,-1.98 0.229,-0.116 0.642,-0.356 0.917,-0.531 1.462,-0.936 5.206,-1.186 8.416,-0.561 m 218.084,0.143 c 1.158,0.081 1.737,0.216 2.542,0.591 0.573,0.268 1.135,0.488 1.25,0.49 0.83,0.012 3.669,3.228 4.117,4.663 0.128,0.413 0.361,1.013 0.517,1.334 0.967,1.99 0.976,9.898 0.014,11.583 -0.157,0.275 -0.39,0.837 -0.517,1.25 -0.127,0.413 -0.36,0.9 -0.516,1.083 -0.157,0.184 -0.403,0.567 -0.547,0.852 -0.331,0.657 -2.357,2.708 -3.108,3.148 -1.158,0.679 -1.414,0.803 -1.911,0.931 -0.279,0.071 -0.846,0.256 -1.258,0.409 -0.846,0.315 -3.671,0.265 -4.308,-0.076 -0.192,-0.103 -0.734,-0.26 -1.204,-0.349 -0.47,-0.089 -1.025,-0.257 -1.233,-0.372 -0.208,-0.115 -0.676,-0.373 -1.039,-0.574 -1.152,-0.635 -2.907,-2.583 -3.26,-3.617 -0.097,-0.285 -0.31,-0.692 -0.473,-0.904 -0.163,-0.211 -0.384,-0.811 -0.491,-1.333 -0.107,-0.521 -0.355,-1.586 -0.551,-2.365 -0.472,-1.873 -0.498,-5.625 -0.052,-7.491 0.163,-0.682 0.397,-1.807 0.519,-2.5 0.427,-2.416 2.111,-5.017 3.774,-5.828 0.404,-0.197 0.934,-0.469 1.178,-0.605 0.46,-0.256 3.455,-0.578 4.473,-0.481 0.321,0.031 1.259,0.103 2.084,0.161"
       inkscape:connector-curvature="0"
       style="display:inline;fill:#0d0d6a;fill-rule:evenodd;stroke:none" />
    <path
       id="path1"
       d="m 13.89,2.795 c -0.821,0.545 -1.728,1.828 -2.029,2.873 -0.119,0.412 -0.379,1.086 -0.579,1.499 -0.331,0.684 -0.367,1.051 -0.409,4.166 -0.056,4.171 0.014,3.861 -1.157,5.125 -2.302,2.483 -4.383,5.235 -4.383,5.797 0,0.103 -0.185,0.361 -0.411,0.574 -0.227,0.213 -0.501,0.657 -0.61,0.987 C 4.203,24.146 3.943,24.679 3.734,25 3.525,25.321 3.301,25.808 3.236,26.083 3.171,26.358 2.98,26.78 2.812,27.021 c -0.168,0.241 -0.418,0.871 -0.556,1.401 -0.138,0.529 -0.399,1.27 -0.58,1.645 -0.285,0.591 -0.45,1.319 -0.958,4.225 -0.067,0.384 -0.186,0.541 -0.406,0.541 -0.299,0 -0.312,0.251 -0.312,6 0,5.659 0.017,6 0.299,6 0.308,0 0.328,0.068 0.887,3 0.114,0.596 0.381,1.432 0.594,1.858 0.213,0.426 0.389,0.951 0.392,1.167 0.003,0.215 0.193,0.767 0.423,1.225 0.23,0.459 0.537,1.171 0.683,1.584 0.145,0.412 0.404,0.929 0.576,1.147 0.172,0.219 0.313,0.492 0.313,0.606 0,0.115 0.262,0.591 0.583,1.057 0.321,0.467 0.583,0.915 0.583,0.996 0,0.081 0.207,0.42 0.459,0.753 0.252,0.333 0.758,1.033 1.125,1.555 0.801,1.14 3.175,3.914 3.511,4.102 0.643,0.36 -0.446,1.416 -2.058,1.995 -1.137,0.408 -2.629,1.488 -2.767,2.004 -0.302,1.127 -0.12,2.071 0.541,2.801 l 0.644,0.712 h 1.338 c 1.151,0 1.487,-0.072 2.398,-0.51 0.583,-0.281 1.397,-0.669 1.809,-0.863 0.413,-0.195 0.863,-0.424 1,-0.51 1.084,-0.679 2.401,-1.164 2.631,-0.97 0.275,0.231 1.357,0.804 3.813,2.02 2.927,1.448 3.629,1.753 4.306,1.868 0.367,0.062 0.954,0.25 1.304,0.416 0.667,0.316 1.377,0.481 3.863,0.899 0.825,0.138 1.837,0.32 2.25,0.403 2.094,0.423 7.807,0.337 9.051,-0.136 0.234,-0.089 1.223,-0.28 2.198,-0.425 0.976,-0.145 2.087,-0.38 2.471,-0.522 0.383,-0.143 1.191,-0.401 1.796,-0.573 0.605,-0.172 1.478,-0.504 1.941,-0.736 0.463,-0.232 0.912,-0.423 0.999,-0.423 0.234,0 3.191,-1.5 3.299,-1.674 0.05,-0.082 0.408,-0.291 0.794,-0.463 0.385,-0.173 0.844,-0.475 1.018,-0.672 0.175,-0.196 0.405,-0.357 0.511,-0.357 0.106,0 0.338,-0.135 0.516,-0.299 0.177,-0.164 0.696,-0.554 1.152,-0.867 1.031,-0.707 3.056,-2.482 4.004,-3.509 1.638,-1.776 2.373,-2.696 3.52,-4.409 0.246,-0.366 0.5,-0.704 0.566,-0.75 0.066,-0.045 0.289,-0.42 0.497,-0.833 0.208,-0.413 0.435,-0.788 0.503,-0.833 0.069,-0.046 0.311,-0.459 0.539,-0.917 0.227,-0.458 0.567,-1.133 0.754,-1.5 0.75,-1.471 1.371,-2.903 1.371,-3.161 0,-0.15 0.218,-0.85 0.484,-1.556 0.459,-1.218 0.895,-3.102 1.492,-6.45 0.364,-2.042 0.099,-1.916 4.023,-1.916 2.204,0 3.481,-0.066 3.72,-0.192 0.979,-0.514 1.686,-2.072 1.388,-3.058 -0.249,-0.824 -0.358,-0.977 -1.094,-1.542 l -0.706,-0.542 -3.278,-0.005 c -3.878,-0.006 -3.733,0.056 -4.091,-1.75 -0.144,-0.731 -0.413,-1.966 -0.596,-2.745 -0.183,-0.779 -0.335,-1.583 -0.338,-1.786 -0.002,-0.204 -0.189,-0.774 -0.415,-1.268 -0.225,-0.494 -0.492,-1.262 -0.592,-1.708 -0.1,-0.446 -0.329,-1.05 -0.511,-1.343 -0.181,-0.293 -0.442,-0.914 -0.581,-1.38 C 67.767,25.381 67.591,25 67.514,25 c -0.077,0 -0.309,-0.393 -0.515,-0.873 -0.207,-0.48 -0.553,-1.106 -0.771,-1.391 -0.217,-0.284 -0.395,-0.58 -0.395,-0.656 0,-0.189 -1.129,-1.861 -1.747,-2.587 C 63.809,19.169 63.401,18.644 63.178,18.327 62.685,17.627 58.033,13 57.822,13 57.74,13 57.465,12.815 57.211,12.588 56.463,11.92 54.94,10.833 54.751,10.833 c -0.096,0 -0.436,-0.211 -0.755,-0.468 C 53.678,10.107 53.154,9.794 52.833,9.67 52.512,9.546 52.117,9.332 51.955,9.194 51.793,9.056 51.288,8.812 50.833,8.652 50.378,8.491 49.798,8.219 49.545,8.046 49.291,7.873 48.676,7.631 48.179,7.509 47.682,7.387 47.044,7.156 46.762,6.996 46.481,6.835 45.725,6.613 45.083,6.502 44.442,6.39 43.504,6.16 43,5.989 40.287,5.07 30.943,5.082 28.167,6.007 27.662,6.175 26.725,6.404 26.084,6.516 25.442,6.628 24.6,6.889 24.213,7.095 23.825,7.301 23.187,7.522 22.796,7.586 22.404,7.65 21.845,7.882 21.553,8.101 21.261,8.321 20.923,8.502 20.803,8.504 20.547,8.508 19.47,9.024 18.75,9.487 18.475,9.664 18.148,9.814 18.024,9.821 17.9,9.828 17.579,10.018 17.311,10.243 16.294,11.099 15.92,9.33 16.802,7.833 17.138,7.263 17.525,6.209 17.735,5.29 18.174,3.373 15.568,1.682 13.89,2.795 m 255.351,1.68 c -0.188,0.06 -0.638,0.438 -1,0.841 l -0.658,0.733 -0.049,8.009 c -0.033,5.405 -0.108,8.08 -0.229,8.226 -0.252,0.303 -0.801,0.268 -1.388,-0.09 -2.05,-1.248 -9.645,-1.258 -11.834,-0.015 -0.275,0.157 -0.8,0.377 -1.166,0.49 -0.367,0.114 -0.78,0.3 -0.917,0.415 -0.138,0.115 -0.513,0.342 -0.833,0.505 -1.937,0.982 -5.363,4.566 -6.448,6.744 -0.251,0.504 -0.547,1.01 -0.657,1.123 -0.11,0.113 -0.283,0.592 -0.384,1.065 -0.102,0.472 -0.291,1.092 -0.421,1.377 -0.577,1.261 -0.656,2.009 -0.638,6.019 0.019,4.058 0.07,4.496 0.773,6.583 0.139,0.413 0.335,1.117 0.436,1.566 0.101,0.448 0.317,1.011 0.481,1.25 0.163,0.239 0.393,0.771 0.51,1.184 0.117,0.413 0.361,0.911 0.542,1.107 0.182,0.197 0.456,0.584 0.61,0.861 1.075,1.938 2.921,3.964 4.206,4.614 0.315,0.16 0.723,0.423 0.906,0.584 0.184,0.162 0.634,0.386 1,0.499 0.367,0.112 1.079,0.365 1.584,0.561 1.3,0.507 4.929,0.506 6.416,-10e-4 0.55,-0.188 1.367,-0.43 1.816,-0.539 0.449,-0.109 1.011,-0.336 1.25,-0.506 0.239,-0.17 0.722,-0.429 1.074,-0.575 0.784,-0.327 2.047,-1.287 3.294,-2.504 l 0.494,-0.482 0.39,0.366 c 0.215,0.202 0.519,0.681 0.677,1.066 0.972,2.366 1.385,2.781 2.772,2.782 2.178,0.001 3.233,-1.715 2.495,-4.061 -0.177,-0.562 -0.414,-1.547 -0.526,-2.189 -0.113,-0.641 -0.307,-1.412 -0.433,-1.713 -0.274,-0.657 -0.542,-17.219 -0.548,-33.935 L 272.833,5.952 272.024,5.143 c -0.838,-0.838 -1.64,-1.03 -2.783,-0.668 M 38.667,10.824 c 1.501,0.092 2.7,0.254 3.166,0.426 0.413,0.153 1.35,0.414 2.084,0.58 0.733,0.165 1.746,0.496 2.25,0.734 0.504,0.238 1.02,0.433 1.146,0.434 0.126,0.001 0.614,0.219 1.083,0.483 0.47,0.265 1.042,0.538 1.271,0.607 0.229,0.069 0.677,0.34 0.996,0.602 0.319,0.262 0.656,0.479 0.75,0.481 0.181,0.005 1.787,1.085 2.83,1.904 1.977,1.552 5.378,5.181 6.219,6.636 0.2,0.345 0.443,0.72 0.54,0.833 0.366,0.428 1.377,2.232 1.604,2.864 0.13,0.363 0.34,0.775 0.467,0.917 0.127,0.142 0.357,0.708 0.512,1.258 0.155,0.55 0.425,1.249 0.6,1.553 0.174,0.305 0.426,1.167 0.559,1.917 0.133,0.75 0.349,1.739 0.481,2.197 0.635,2.21 0.546,2.381 -1.325,2.525 -3.204,0.247 -3.208,0.242 -3.271,-4.442 -0.069,-4.997 1.334,-4.504 -12.756,-4.487 -13.194,0.016 -12.476,-0.126 -12.792,2.529 -0.215,1.809 -1.083,1.354 -3.257,-1.708 -1.194,-1.682 -1.737,-2.373 -2.199,-2.799 -0.252,-0.233 -0.458,-0.512 -0.458,-0.62 0,-0.108 -0.158,-0.339 -0.351,-0.513 -0.192,-0.175 -0.45,-0.511 -0.573,-0.748 -0.216,-0.419 -0.952,-1.384 -1.832,-2.404 -0.737,-0.854 -1.483,-1.856 -1.764,-2.372 -0.715,-1.311 -1.727,-0.823 -1.873,0.902 -0.059,0.704 -0.223,1.455 -0.363,1.669 l -0.255,0.389 -0.572,-0.388 c -0.936,-0.636 -3.251,-3.565 -3.251,-4.113 0,-0.1 -0.115,-0.357 -0.255,-0.572 -0.707,-1.079 -0.643,-1.356 0.507,-2.176 0.582,-0.415 1.103,-0.755 1.157,-0.755 0.055,0 0.481,-0.263 0.947,-0.584 0.467,-0.321 0.95,-0.583 1.074,-0.583 0.124,0 0.58,-0.225 1.014,-0.5 0.433,-0.275 0.933,-0.5 1.11,-0.5 0.177,0 0.744,-0.214 1.259,-0.475 0.516,-0.262 1.312,-0.532 1.771,-0.6 0.458,-0.068 1.133,-0.234 1.5,-0.369 1.281,-0.472 1.847,-0.579 3.75,-0.708 2.761,-0.187 3.788,-0.19 6.5,-0.024 m 195.416,0.925 c -0.091,0.03 -0.367,0.099 -0.612,0.153 -2.499,0.549 -3.018,5.048 -0.757,6.56 1.919,1.282 3.509,1.01 4.982,-0.852 2.02,-2.555 -0.631,-6.856 -3.613,-5.861 M 14.018,22.047 c 0.203,0.496 0.658,1.159 1.786,2.608 0.506,0.649 2.005,2.137 2.531,2.512 0.758,0.54 0.719,1.444 -0.079,1.83 -2.268,1.098 -2.522,2.213 -0.542,2.378 0.57,0.047 1.486,0.248 2.036,0.447 0.55,0.198 1.673,0.438 2.496,0.533 0.822,0.094 2.022,0.344 2.666,0.555 0.644,0.211 1.826,0.469 2.626,0.574 0.799,0.105 1.783,0.332 2.186,0.505 0.403,0.172 1.361,0.393 2.129,0.491 3.272,0.415 3.147,0.181 3.147,5.895 0,5.22 0.251,4.687 -2.658,5.629 -1.119,0.362 -2.235,0.8 -2.48,0.972 -0.245,0.172 -0.605,0.363 -0.801,0.424 -0.195,0.061 -0.589,0.333 -0.873,0.605 -0.285,0.272 -0.588,0.495 -0.673,0.495 -0.584,0 -4.949,4.9 -5.864,6.583 -0.2,0.367 -0.54,0.879 -0.757,1.138 -0.217,0.259 -0.394,0.562 -0.394,0.672 0,0.22 -0.833,1.587 -1.689,2.774 -1.363,1.889 -1.85,2.475 -2.466,2.97 l -0.661,0.531 -0.565,-0.383 c -1.162,-0.789 -4.256,-4.405 -4.544,-5.31 -0.053,-0.169 -0.156,-0.308 -0.227,-0.308 -0.071,0 -0.309,-0.357 -0.53,-0.792 C 9.598,55.94 9.297,55.45 9.15,55.287 9.003,55.124 8.797,54.704 8.692,54.353 8.587,54.002 8.313,53.438 8.084,53.1 7.854,52.762 7.665,52.357 7.663,52.201 7.661,52.045 7.465,51.467 7.228,50.917 6.992,50.367 6.666,49.279 6.504,48.5 6.342,47.721 6.069,46.633 5.897,46.083 5.401,44.502 5.435,36.917 5.944,35.25 c 0.196,-0.642 0.448,-1.692 0.56,-2.333 0.112,-0.642 0.341,-1.429 0.51,-1.75 0.168,-0.321 0.418,-0.98 0.555,-1.464 0.137,-0.485 0.393,-1.085 0.567,-1.334 0.175,-0.249 0.414,-0.752 0.532,-1.119 0.117,-0.367 0.385,-0.873 0.595,-1.124 0.209,-0.252 0.434,-0.627 0.499,-0.833 0.065,-0.207 0.333,-0.637 0.595,-0.956 0.262,-0.319 0.476,-0.663 0.476,-0.766 0,-0.102 0.16,-0.329 0.355,-0.504 0.195,-0.174 0.516,-0.57 0.714,-0.88 0.689,-1.081 1.702,-1.148 2.116,-0.14 M 234,23.563 c -0.709,0.227 -1.332,0.624 -1.337,0.852 -0.002,0.093 -0.15,0.356 -0.33,0.585 -0.434,0.556 -0.526,31.335 -0.096,32.355 0.822,1.948 2.829,2.446 4.326,1.072 l 0.77,-0.707 V 41.468 c 0,-11.481 -0.054,-16.407 -0.185,-16.782 -0.316,-0.909 -1.972,-1.499 -3.148,-1.123 m 28.674,3.332 c 1.576,0.278 4.087,1.478 4.494,2.147 0.724,1.191 0.521,14.798 -0.243,16.275 -0.15,0.29 -0.421,1.009 -0.603,1.598 -0.182,0.589 -0.405,1.117 -0.496,1.173 -0.09,0.056 -0.306,0.38 -0.48,0.72 -1.797,3.523 -7.881,5.937 -10.987,4.359 -0.541,-0.275 -1.049,-0.502 -1.13,-0.505 -0.501,-0.016 -2.564,-2.522 -3.084,-3.745 -0.116,-0.275 -0.347,-0.699 -0.511,-0.941 -0.164,-0.243 -0.416,-0.9 -0.56,-1.46 -0.143,-0.56 -0.4,-1.337 -0.571,-1.726 -0.811,-1.845 -0.775,-8.145 0.056,-9.79 0.209,-0.413 0.479,-1.067 0.602,-1.454 0.123,-0.387 0.343,-0.84 0.489,-1.007 0.147,-0.167 0.387,-0.514 0.533,-0.772 0.341,-0.6 2.093,-2.379 2.692,-2.734 0.252,-0.149 0.458,-0.321 0.458,-0.381 0,-0.214 3.096,-1.619 3.917,-1.778 1.244,-0.241 3.999,-0.23 5.424,0.021 M 55.917,32.834 c 0.146,0.237 -0.483,1.095 -1.572,2.146 -1.048,1.012 -7.936,7.723 -12.122,11.812 -2.19,2.138 -2.82,2.668 -2.998,2.521 -0.277,-0.23 -0.336,-15.5 -0.062,-16.219 l 0.162,-0.427 h 8.244 c 5.354,0 8.281,0.059 8.348,0.167 m 9.445,10.514 c 0.386,0.207 0.338,1.221 -0.141,2.985 -0.137,0.504 -0.357,1.503 -0.487,2.219 -0.131,0.715 -0.414,1.653 -0.629,2.083 -0.214,0.43 -0.44,1.043 -0.501,1.362 -0.061,0.32 -0.282,0.845 -0.49,1.167 -0.209,0.322 -0.482,0.905 -0.607,1.294 -0.125,0.39 -0.281,0.709 -0.347,0.709 -0.067,0 -0.317,0.4 -0.556,0.89 -0.24,0.49 -0.586,1.026 -0.77,1.192 -0.184,0.167 -0.334,0.375 -0.334,0.463 0,0.377 -2.046,2.846 -3.799,4.583 -1.691,1.677 -2.484,2.318 -4.267,3.45 -0.285,0.18 -0.656,0.456 -0.827,0.612 -0.17,0.156 -0.545,0.377 -0.833,0.49 -0.288,0.114 -0.674,0.34 -0.857,0.502 -0.184,0.162 -0.703,0.42 -1.154,0.573 -0.452,0.153 -1.014,0.413 -1.25,0.579 -0.236,0.166 -0.838,0.394 -1.336,0.508 -0.499,0.113 -1.136,0.338 -1.417,0.5 -0.28,0.162 -1.185,0.409 -2.01,0.55 -0.825,0.14 -2.138,0.409 -2.917,0.597 -1.788,0.431 -6.28,0.482 -8,0.09 -0.595,-0.136 -1.946,-0.404 -3,-0.596 C 27.779,69.958 26.687,69.669 26.406,69.508 26.126,69.347 25.488,69.119 24.99,69.001 24.491,68.883 23.891,68.652 23.655,68.487 23.42,68.322 22.9,68.089 22.5,67.969 c -0.658,-0.198 -2,-1.289 -2,-1.626 0,-0.072 0.189,-0.32 0.421,-0.552 0.419,-0.419 0.824,-0.945 1.698,-2.208 0.253,-0.366 0.556,-0.726 0.671,-0.8 0.116,-0.073 0.33,-0.366 0.478,-0.651 0.147,-0.284 0.393,-0.652 0.547,-0.817 0.154,-0.165 0.382,-0.585 0.508,-0.933 0.126,-0.347 0.357,-0.819 0.515,-1.049 0.157,-0.229 0.487,-0.754 0.732,-1.166 1.001,-1.685 2.628,-3.615 3.961,-4.699 0.304,-0.248 0.878,-0.716 1.276,-1.042 0.399,-0.326 0.811,-0.593 0.917,-0.594 0.106,-10e-4 0.591,-0.187 1.078,-0.414 l 0.886,-0.412 0.375,0.376 c 0.207,0.206 0.521,0.778 0.698,1.27 0.55,1.529 -0.256,1.424 11.398,1.485 11.653,0.062 12.814,0.014 13.475,-0.555 l 0.449,-0.386 0.084,-4.751 c 0.045,-2.613 0.123,-4.791 0.172,-4.84 0.427,-0.426 3.844,-0.62 4.523,-0.257"
       inkscape:connector-curvature="0"
       style="display:inline;fill:#980b0b;fill-rule:evenodd;stroke:none" />
  </g>
</svg>
