<?xml version="1.0" encoding="UTF-8" standalone="no"?>
<svg
   xmlns:dc="http://purl.org/dc/elements/1.1/"
   xmlns:cc="http://creativecommons.org/ns#"
   xmlns:rdf="http://www.w3.org/1999/02/22-rdf-syntax-ns#"
   xmlns:svg="http://www.w3.org/2000/svg"
   xmlns="http://www.w3.org/2000/svg"
   xmlns:sodipodi="http://sodipodi.sourceforge.net/DTD/sodipodi-0.dtd"
   xmlns:inkscape="http://www.inkscape.org/namespaces/inkscape"
   id="svg"
   version="1.1"
   width="108"
   height="108"
   viewBox="0 0 108 108"
   sodipodi:docname="logo_mini.svg"
   inkscape:version="0.92.5 (2060ec1f9f, 2020-04-08)">
  <metadata
     id="metadata11">
    <rdf:RDF>
      <cc:Work
         rdf:about="">
        <dc:format>image/svg+xml</dc:format>
        <dc:type
           rdf:resource="http://purl.org/dc/dcmitype/StillImage" />
        <dc:title></dc:title>
      </cc:Work>
    </rdf:RDF>
  </metadata>
  <defs
     id="defs9" />
  <sodipodi:namedview
     pagecolor="#ffffff"
     bordercolor="#666666"
     borderopacity="1"
     objecttolerance="10"
     gridtolerance="10"
     guidetolerance="10"
     inkscape:pageopacity="0"
     inkscape:pageshadow="2"
     inkscape:window-width="1366"
     inkscape:window-height="719"
     id="namedview7"
     showgrid="false"
     inkscape:zoom="3.060402"
     inkscape:cx="81.816351"
     inkscape:cy="27.83698"
     inkscape:window-x="0"
     inkscape:window-y="25"
     inkscape:window-maximized="1"
     inkscape:current-layer="svgg"
     showborder="true"
     fit-margin-top="2"
     fit-margin-left="2"
     fit-margin-right="2"
     fit-margin-bottom="2" />
  <g
     id="svgg"
     transform="translate(2,29.578729)">
    <path
       id="path1"
       style="display:inline;fill:#980b0b;fill-rule:evenodd;stroke:none"
       d="m 27.171638,-12.563908 c -0.473422,-0.03197 -0.949641,0.07136 -1.369141,0.349609 -0.821,0.545 -1.728297,1.828047 -2.029297,2.8730471 -0.119,0.412 -0.380078,1.0869995 -0.580078,1.4999997 -0.331,0.684 -0.366203,1.0490638 -0.408203,4.1640623 -0.056,4.17099959 0.01475,3.86099959 -1.15625,5.1249996 -2.301999,2.4829995 -4.384765,5.2368275 -4.384765,5.7988275 0,0.103 -0.184156,0.359266 -0.410156,0.572266 -0.227,0.213 -0.500375,0.658281 -0.609375,0.988281 -0.109,0.33 -0.369125,0.862594 -0.578125,1.183594 -0.209,0.3209998 -0.433047,0.8070308 -0.498047,1.0820308 -0.065,0.275001 -0.255828,0.698454 -0.423828,0.939454 -0.168,0.241 -0.418641,0.870391 -0.556641,1.400391 -0.138,0.529 -0.399078,1.269531 -0.580078,1.644531 -0.285,0.591 -0.449031,1.320563 -0.957031,4.226563 -0.067,0.384 -0.18625,0.539062 -0.40625,0.539062 -0.299,0 -0.3125,0.251 -0.3125,6 0,5.659 0.01683,6 0.298828,6 0.308,0 0.327718,0.068 0.886719,3 0.114,0.596 0.38075,1.433375 0.59375,1.859375 0.213,0.426 0.389578,0.950016 0.392578,1.166016 0.003,0.215 0.193828,0.766609 0.423828,1.224609 0.23,0.459 0.53564,1.172938 0.68164,1.585938 0.145,0.412 0.404172,0.928484 0.576172,1.146484 0.172,0.219 0.314453,0.491469 0.314453,0.605469 0,0.115 0.261032,0.590642 0.582032,1.05664 0.321,0.467 0.582031,0.915094 0.582031,0.996094 0,0.081 0.208937,0.420907 0.460937,0.753906 0.252,0.333 0.758,1.032688 1.125,1.554688 0.801,1.14 3.173765,3.913562 3.509765,4.101562 0.643,0.36 -0.446593,1.417094 -2.058593,1.996094 -1.137,0.408 -2.627625,1.487906 -2.765625,2.003906 -0.302,1.127 -0.119984,2.070782 0.541016,2.800782 l 0.642578,0.710937 h 1.339844 c 1.151,0 1.485481,-0.07176 2.396484,-0.509765 0.583,-0.281 1.396593,-0.669282 1.808593,-0.863282 0.413,-0.195 0.863,-0.423765 1,-0.509765 1.084,-0.679 2.402813,-1.16275 2.632813,-0.96875 0.275,0.231 1.3565,0.803531 3.8125,2.019531 2.927,1.448 3.627687,1.752188 4.304687,1.867188 0.367,0.062 0.954688,0.250015 1.304688,0.416015 0.667,0.316 1.377281,0.480438 3.863281,0.898438 0.825,0.138 1.837,0.321292 2.25,0.404297 2.094,0.423 7.806781,0.336281 9.050781,-0.136719 0.234,-0.089 1.222266,-0.278828 2.197266,-0.423828 0.976,-0.145 2.088656,-0.381438 2.472656,-0.523438 0.383,-0.143 1.189922,-0.400271 1.794922,-0.572265 0.605,-0.172 1.478406,-0.504329 1.941406,-0.736329 0.463,-0.232 0.911047,-0.423828 0.998047,-0.423828 0.234,0 3.192781,-1.499828 3.300781,-1.673828 0.05,-0.082 0.406969,-0.29089 0.792969,-0.462891 0.385,-0.173 0.843578,-0.474875 1.017578,-0.671874 0.175,-0.196 0.405719,-0.355469 0.511719,-0.355469 0.106,0 0.337625,-0.136782 0.515625,-0.300781 0.177,-0.164001 0.696344,-0.552235 1.152344,-0.865235 1.031,-0.707 3.055906,-2.482766 4.003906,-3.509765 1.638,-1.776002 2.372531,-2.697157 3.519531,-4.410157 0.246,-0.366 0.500406,-0.704 0.566407,-0.75 0.066,-0.045 0.288093,-0.419031 0.496093,-0.832031 0.208,-0.413 0.435907,-0.787031 0.503907,-0.832031 0.069,-0.046 0.311062,-0.459969 0.539062,-0.917969 0.227,-0.458 0.566906,-1.133 0.753906,-1.5 0.75,-1.471 1.371094,-2.902156 1.371094,-3.160156 0,-0.15 0.218375,-0.850641 0.484375,-1.556641 0.459,-1.218 0.89519,-3.103172 1.492187,-6.451172 0.364002,-2.042 0.09748,-1.914062 4.021485,-1.914062 2.204,0 3.481703,-0.06736 3.720703,-0.19336 0.979,-0.514 1.686672,-2.07064 1.388672,-3.05664 -0.249,-0.824 -0.35775,-0.977969 -1.09375,-1.542969 l -0.707031,-0.542969 -3.277344,-0.0039 c -3.878,-0.006 -3.733797,0.056 -4.091797,-1.75 -0.144,-0.731 -0.412703,-1.967094 -0.595703,-2.746094 -0.183,-0.779 -0.334891,-1.582156 -0.337891,-1.785156 -0.002,-0.204 -0.188062,-0.773578 -0.414062,-1.267578 -0.225,-0.494 -0.49375,-1.262985 -0.59375,-1.708985 -0.1,-0.446 -0.327766,-1.048796 -0.509766,-1.341796 -0.181,-0.293 -0.443031,-0.914861 -0.582031,-1.380861 -0.138,-0.467042 -0.313625,-0.8476618 -0.390625,-0.8476618 -0.077,0 -0.309625,-0.393047 -0.515625,-0.873047 -0.207,-0.48 -0.551531,-1.105625 -0.769531,-1.390625 -0.217,-0.284 -0.396485,-0.58025 -0.396485,-0.65625 0,-0.189 -1.128095,-1.861891 -1.746093,-2.58789 -0.277001,-0.324001 -0.685204,-0.849016 -0.908204,-1.166016 -0.493,-0.7 -5.144468,-5.3261711 -5.355468,-5.3261711 -0.082,0 -0.357332,-0.185109 -0.611328,-0.412109 -0.748,-0.668 -2.269985,-1.75586 -2.458985,-1.75586 -0.096,0 -0.436859,-0.209797 -0.755859,-0.466797 -0.318,-0.258 -0.843063,-0.5713121 -1.164063,-0.6953121 -0.321,-0.124 -0.714953,-0.3385625 -0.876953,-0.4765625 -0.162,-0.138 -0.668047,-0.3810156 -1.123047,-0.5410156 -0.455,-0.161 -1.034109,-0.4324688 -1.287109,-0.6054689 -0.254,-0.173 -0.868235,-0.4151094 -1.365234,-0.5371094 -0.497,-0.122 -1.135969,-0.353672 -1.417969,-0.5136718 -0.281,-0.1610001 -1.037688,-0.3831407 -1.679688,-0.4941407 -0.641,-0.112 -1.578031,-0.342672 -2.082031,-0.513672 -2.713,-0.919 -12.056031,-0.905468 -14.832031,0.01953 -0.505,0.168 -1.442985,0.3958126 -2.083985,0.5078126 -0.642,0.112 -1.484093,0.3740781 -1.871093,0.5800781 -0.388,0.206 -1.025016,0.4262344 -1.416016,0.4902344 -0.392,0.064 -0.952141,0.296625 -1.244141,0.515625 -0.292,0.2200001 -0.63,0.400344 -0.75,0.4023438 -0.256,0.004 -1.332734,0.5194219 -2.052734,0.9824219 -0.275,0.177 -0.602564,0.3269844 -0.726562,0.3339844 -0.124001,0.007 -0.444891,0.1968745 -0.712891,0.4218755 -1.017,0.855999 -1.389813,-0.9131568 -0.507813,-2.4101569 0.336,-0.57 0.721641,-1.6239689 0.931641,-2.5429688 0.32925,-1.4377501 -1.054344,-2.7478431 -2.474609,-2.8437481 z m 20.175781,8.2578121 c 0.940875,-0.0034 1.876422,0.03809 3.232422,0.121094 1.501,0.092 2.698062,0.253781 3.164062,0.425781 0.413,0.153 1.351938,0.414078 2.085938,0.580078 0.733,0.165 1.746,0.496375 2.25,0.734375 0.504,0.238 1.018531,0.432594 1.144531,0.433594 0.126,0.001 0.614984,0.218422 1.083984,0.4824216 0.47,0.265 1.042485,0.53842199 1.271485,0.60742199 0.229,0.069 0.67514,0.339562 0.99414,0.601562 0.319,0.262 0.656,0.480422 0.75,0.482422 0.181,0.005 1.787078,1.08334401 2.830079,1.90234401 1.976998,1.5519995 5.379703,5.1817175 6.220703,6.6367185 0.2,0.344999 0.442062,0.720984 0.539062,0.833984 0.366,0.428 1.376516,2.2312818 1.603516,2.8632818 0.13,0.363 0.339797,0.774016 0.466797,0.916016 0.127,0.142 0.358671,0.707812 0.513672,1.257812 0.155,0.55 0.424609,1.250688 0.599609,1.554688 0.174,0.305 0.425594,1.166015 0.558594,1.916015 0.133,0.75 0.348468,1.739266 0.480468,2.197266 0.635,2.21 0.546782,2.381391 -1.324218,2.525391 -3.204,0.247 -3.208485,0.24064 -3.271485,-4.44336 -0.069,-4.997 1.334141,-4.503328 -12.755859,-4.486328 -13.194,0.016 -12.476969,-0.125703 -12.792969,2.529297 -0.215,1.809 -1.081859,1.354969 -3.255859,-1.707031 -1.194,-1.682 -1.737219,-2.374782 -2.199219,-2.800781 -0.252,-0.233002 -0.457031,-0.511141 -0.457031,-0.619142 0,-0.108 -0.158563,-0.339672 -0.351563,-0.513672 -0.192,-0.175 -0.451218,-0.511047 -0.574218,-0.7480468 -0.216001,-0.419 -0.952032,-1.384297 -1.832032,-2.404297 -0.737,-0.854 -1.482672,-1.855096 -1.763672,-2.371093 -0.715,-1.311 -1.727048,-0.822657 -1.873046,0.902343 -0.059,0.704 -0.223282,1.453969 -0.363282,1.667969 l -0.253906,0.390625 -0.572266,-0.388672 c -0.936,-0.636 -3.251953,-3.565281 -3.251953,-4.113281 0,-0.1 -0.113906,-0.357266 -0.253906,-0.572266 -0.707,-1.0789995 -0.642188,-1.3557805 0.507813,-2.17578051 0.582,-0.415 1.10225,-0.753906 1.15625,-0.753906 0.055,0 0.481265,-0.264938 0.947265,-0.585938 0.467,-0.321 0.950219,-0.58203099 1.074219,-0.58203099 0.124,0 0.579672,-0.225 1.013672,-0.5 0.433,-0.2749996 0.932375,-0.4999996 1.109375,-0.4999996 0.177,0 0.744765,-0.213609 1.259765,-0.474609 0.516,-0.262 1.312485,-0.53161 1.771485,-0.59961 0.458,-0.068 1.133,-0.23414 1.5,-0.36914 1.281,-0.472 1.847,-0.579985 3.75,-0.708985 1.3805,-0.0935 2.326703,-0.141156 3.267578,-0.144531 z M 24.974372,6.3247622 c 0.391125,-0.02587 0.748078,0.208891 0.955078,0.712891 0.203,0.496 0.659109,1.158422 1.78711,2.607422 0.506,0.6489998 2.005248,2.1386728 2.53125,2.5136728 0.757999,0.54 0.717927,1.442125 -0.08008,1.828125 -2.268,1.098 -2.521015,2.213906 -0.541015,2.378906 0.57,0.047 1.485156,0.248266 2.035156,0.447266 0.55,0.198 1.673094,0.438203 2.496094,0.533203 0.822,0.094 2.022015,0.343687 2.666015,0.554687 0.644,0.211 1.825,0.469219 2.625,0.574219 0.799,0.105 1.7845,0.330906 2.1875,0.503906 0.403,0.172 1.360907,0.394188 2.128907,0.492188 3.272007,0.415 3.146485,0.180531 3.146485,5.894531 0,5.22 0.250797,4.686906 -2.658203,5.628906 -1.119,0.362 -2.235469,0.800657 -2.480469,0.972656 -0.245,0.172 -0.604781,0.362829 -0.800781,0.423829 -0.195,0.061 -0.589047,0.333468 -0.873047,0.605468 -0.285,0.272 -0.586875,0.494141 -0.671875,0.494141 -0.584,0 -4.950234,4.899031 -5.865234,6.582031 -0.2,0.367 -0.53886,0.879672 -0.75586,1.138672 -0.217,0.259 -0.394531,0.561875 -0.394531,0.671875 0,0.22 -0.833453,1.588391 -1.689453,2.775391 -1.363,1.889 -1.848844,2.47375 -2.464844,2.96875 l -0.662109,0.53125 -0.564453,-0.382813 c -1.162,-0.789 -4.256922,-4.405547 -4.544922,-5.310547 -0.053,-0.169 -0.155563,-0.30664 -0.226563,-0.30664 -0.071,0 -0.308297,-0.357969 -0.529296,-0.792969 -0.22,-0.435 -0.520969,-0.924891 -0.667969,-1.087891 -0.147,-0.163 -0.353984,-0.582593 -0.458984,-0.933593 -0.105,-0.351 -0.378422,-0.915907 -0.607422,-1.253907 -0.23,-0.338 -0.419875,-0.742437 -0.421875,-0.898437 -0.002,-0.156 -0.196594,-0.733203 -0.433594,-1.283203 -0.236,-0.55 -0.562609,-1.638969 -0.724609,-2.417969 -0.162,-0.779 -0.435422,-1.867969 -0.607422,-2.417969 -0.496,-1.581 -0.462125,-9.165031 0.04687,-10.832031 0.196,-0.642 0.448547,-1.691031 0.560547,-2.332031 0.112,-0.642 0.340766,-1.429 0.509766,-1.75 0.168,-0.321 0.417687,-0.980844 0.554687,-1.464844 0.137,-0.485 0.394359,-1.084984 0.568359,-1.333984 0.175,-0.249 0.41325,-0.752141 0.53125,-1.119141 0.117,-0.367 0.385704,-0.872047 0.595704,-1.123048 0.209,-0.252 0.433046,-0.627984 0.498046,-0.833984 0.065,-0.207 0.333703,-0.6360778 0.595703,-0.9550778 0.262,-0.319 0.474609,-0.664576 0.474609,-0.767579 0,-0.102 0.160469,-0.328906 0.355469,-0.503906 0.195,-0.174 0.516844,-0.568906 0.714844,-0.878906 0.3445,-0.5405 0.769031,-0.827641 1.160156,-0.853516 z M 51.236091,17.658748 h 8.24414 c 5.354,0 8.28261,0.05801 8.34961,0.166015 0.146,0.237 -0.483266,1.095485 -1.572266,2.146485 -1.048,1.012 -7.937047,7.7235 -12.123047,11.8125 -2.19,2.138 -2.820047,2.666531 -2.998047,2.519531 -0.277,-0.23 -0.3365,-15.49975 -0.0625,-16.21875 z m 24.054687,10.496093 c 0.370943,-0.01164 0.733902,-0.0079 1.050782,0.01172 0.422499,0.0262 0.76189,0.08113 0.93164,0.171875 0.386,0.207 0.338375,1.220375 -0.140625,2.984375 -0.137,0.504 -0.356328,1.504703 -0.486328,2.220703 -0.131,0.715 -0.413906,1.652032 -0.628906,2.082032 -0.214,0.43 -0.440953,1.042328 -0.501953,1.361328 -0.061,0.32 -0.282235,0.84597 -0.490235,1.167968 -0.209,0.322002 -0.480468,0.903969 -0.605469,1.292969 -0.125,0.39 -0.281656,0.710938 -0.347656,0.710938 -0.067,0 -0.31764,0.398672 -0.55664,0.888672 -0.24,0.49 -0.585532,1.025406 -0.769532,1.191406 -0.184,0.167 -0.333984,0.376844 -0.333984,0.464844 0,0.377 -2.045828,2.845031 -3.798828,4.582031 -1.691,1.677 -2.484578,2.317219 -4.267578,3.449219 -0.285,0.18 -0.655172,0.457281 -0.826172,0.613281 -0.17,0.156 -0.545987,0.377234 -0.833984,0.490234 -0.288,0.114 -0.672469,0.339953 -0.855469,0.501953 -0.184,0.162 -0.703297,0.419266 -1.154297,0.572266 -0.452,0.153 -1.014,0.414078 -1.25,0.580078 -0.236,0.166 -0.837938,0.393813 -1.335938,0.507813 -0.499,0.113 -1.136968,0.338 -1.417968,0.5 -0.28,0.162 -1.184766,0.407828 -2.009766,0.548828 -0.825,0.14 -2.138969,0.409656 -2.917969,0.597656 -1.788,0.431 -6.28,0.481868 -8,0.08984 -0.595,-0.136 -1.946,-0.403703 -3,-0.595703 -1.054,-0.192 -2.144781,-0.481574 -2.425781,-0.642579 -0.28,-0.161 -0.918016,-0.387859 -1.416016,-0.505859 -0.499,-0.118 -1.099937,-0.350625 -1.335937,-0.515625 -0.235,-0.164978 -0.754297,-0.397575 -1.154297,-0.517575 -0.658,-0.198 -2,-1.288 -2,-1.625 0,-0.072 0.189875,-0.320734 0.421875,-0.552734 0.419,-0.419 0.823266,-0.945985 1.697266,-2.208985 0.253,-0.366 0.554924,-0.724828 0.669921,-0.798828 0.116,-0.073 0.330516,-0.365391 0.478516,-0.650391 0.147,-0.283999 0.392875,-0.653359 0.546875,-0.818359 0.154,-0.165 0.381813,-0.583641 0.507813,-0.931641 0.126,-0.347 0.357625,-0.820781 0.515625,-1.050781 0.157,-0.229 0.487424,-0.752062 0.732421,-1.164062 1.001001,-1.685 2.627938,-3.615219 3.960938,-4.699219 0.304,-0.248 0.877391,-0.716969 1.275391,-1.042969 0.399,-0.326 0.811968,-0.59275 0.917968,-0.59375 0.106,-10e-4 0.591125,-0.187062 1.078125,-0.414062 l 0.884766,-0.41211 0.375,0.376953 c 0.207,0.206002 0.522219,0.777532 0.699219,1.269532 0.55,1.529 -0.257516,1.423375 11.396484,1.484375 11.653,0.062 12.815563,0.01431 13.476563,-0.554688 l 0.447265,-0.386719 0.08594,-4.75 c 0.045,-2.612999 0.122875,-4.790843 0.171875,-4.839843 0.240187,-0.239625 1.426235,-0.406494 2.539062,-0.441407 z"
       inkscape:connector-curvature="0" />
  </g>
</svg>
